<?xml version="1.0" standalone="no"?>
<!DOCTYPE svg PUBLIC "-//W3C//DTD SVG 1.1//EN" "http://www.w3.org/Graphics/SVG/1.1/DTD/svg11.dtd" >
<svg xmlns="http://www.w3.org/2000/svg" xmlns:xlink="http://www.w3.org/1999/xlink" version="1.1">
<metadata>
Created by FontForge 20170731 at Sun Jan 31 19:34:59 2021
 By Aleksey,,,
Copyright 2011 - 2016 The Montserrat Project Authors (julieta.ulanovsky@gmail.com)
</metadata>
<defs>
<font id="ArgentumSans-ExtraBold" horiz-adv-x="0" >
  <font-face 
    font-family="Argentum Sans ExtraBold"
    font-weight="800"
    font-stretch="normal"
    units-per-em="2000"
    panose-1="0 0 9 0 0 0 0 0 0 0"
    ascent="1600"
    descent="-400"
    x-height="1088"
    cap-height="1402"
    bbox="-1052 -548 3092 2332"
    underline-thickness="100"
    underline-position="-1010"
    unicode-range="U+001D-A78C"
  />
<missing-glyph horiz-adv-x="1174" 
d="M1094 0h-1014v1400h1014v-1400zM934 140v1120h-694v-1120h694z" />
    <glyph glyph-name=".notdef" horiz-adv-x="1174" 
d="M1094 0h-1014v1400h1014v-1400zM934 140v1120h-694v-1120h694z" />
    <glyph glyph-name="uni0000" 
d="M0 0z" />
    <glyph glyph-name="uni0000" 
d="M0 0z" />
    <glyph glyph-name="nonmarkingreturn" horiz-adv-x="666" 
 />
    <glyph glyph-name="space" unicode=" " horiz-adv-x="600" 
d="M0 0z" />
    <glyph glyph-name="exclam" unicode="!" horiz-adv-x="552" 
d="M274 -16q-74 0 -131 47t-57 143q0 94 57 140t131 46q94 0 142 -56t48 -130q0 -76 -48 -133t-142 -57zM404 500h-242l-72 534v364h384v-364z" />
    <glyph glyph-name="quotedbl" unicode="&#x22;" horiz-adv-x="956" 
d="M422 822h-302v580h302v-580zM836 822h-302v580h302v-580z" />
    <glyph glyph-name="numbersign" unicode="#" horiz-adv-x="1482" 
d="M1064 0h-290l36 292h-240l-36 -292h-288l36 292h-264l34 276h264l32 250h-262l30 276h266l38 308h288l-38 -308h240l38 308h290l-38 -308h264l-32 -276h-266l-32 -250h264l-34 -276h-264zM844 568l32 250h-240l-32 -250h240z" />
    <glyph glyph-name="dollar" unicode="$" horiz-adv-x="1310" 
d="M830 -320h-298v310q-290 44 -508 214l156 316q157 -115 292.5 -166.5t229.5 -51.5q144 0 144 100q0 64 -80 94q-74 32 -170 56q-120 32 -248 84q-234 104 -234 352q0 190 116 294t302 138v294h298v-288q262 -36 450 -156l-154 -320q-262 158 -466 158q-116 0 -116 -82
q0 -52 60 -88t194 -67q126 -31 243 -84t191 -169q44 -74 44 -194q0 -132 -59 -223q-126 -185 -387 -215v-306z" />
    <glyph glyph-name="percent" unicode="%" horiz-adv-x="1765" 
d="M631 1305q92 -105 92 -281t-92 -282t-246 -106t-247 106t-93 282t93 281t247 105t246 -105zM1503 1402l-986 -1402h-274l986 1402h274zM317 1153q-26 -49 -26 -129q0 -82 26 -130t68 -48t68 48t26 130q0 80 -26 129t-68 49t-68 -49zM1627 661q92 -105 92 -281t-92 -282
t-246 -106t-247 106t-93 282t93 281t247 105t246 -105zM1314 509q-25 -49 -25 -129q0 -84 25 -131t67 -47t68 48t26 130q0 80 -26 129t-68 49t-67 -49z" />
    <glyph glyph-name="ampersand" unicode="&#x26;" horiz-adv-x="1394" 
d="M1176 -70l-188 180q-176 -128 -386 -128q-95 0 -184 24.5t-158.5 75.5t-110.5 129t-41 185q0 226 266 368q-110 158 -110 306q0 125 55 201.5t150 112.5t213 36q81 0 156.5 -19t136 -58.5t96 -101.5t35.5 -147q0 -230 -322 -384q100 -108 180 -188q52 96 82 208l254 -182
q-50 -134 -120 -236l200 -186zM618 262q84 0 164 50q-164 164 -252 260q-94 -64 -94 -146q0 -86 55 -125t127 -39zM636 900q154 78 154 190q0 96 -104 104q-102 0 -108 -122q0 -78 58 -172z" />
    <glyph glyph-name="quotesingle" unicode="'" horiz-adv-x="542" 
d="M422 822h-302v580h302v-580z" />
    <glyph glyph-name="parenleft" unicode="(" horiz-adv-x="716" 
d="M726 -248h-360q-262 386 -262 866q0 484 262 866h360q-244 -380 -244 -866t244 -866z" />
    <glyph glyph-name="parenright" unicode=")" horiz-adv-x="716" 
d="M350 -248h-360q244 380 244 866t-244 866h360q262 -382 262 -866q0 -480 -262 -866z" />
    <glyph glyph-name="asterisk" unicode="*" horiz-adv-x="788" 
d="M494 740h-200l6 184l-158 -94l-100 170l162 90l-162 86l100 176l156 -98l-4 184h200l-4 -184l156 94l100 -172l-164 -86l164 -90l-100 -174l-158 96z" />
    <glyph glyph-name="plus" unicode="+" horiz-adv-x="1030" 
d="M642 202h-252v328h-328v252h328v328h252v-328h326v-252h-326v-328z" />
    <glyph glyph-name="comma" unicode="," horiz-adv-x="508" 
d="M218 -252h-190l114 280q-74 60 -74 144q0 94 57 141t133 47q70 0 128 -42t58 -144q0 -74 -50 -148z" />
    <glyph glyph-name="hyphen" unicode="-" horiz-adv-x="754" 
d="M650 490h-546v252h546v-252z" />
    <glyph glyph-name="period" unicode="." horiz-adv-x="510" 
d="M254 -16q-74 0 -131 47t-57 143q0 94 57 140t131 46q94 0 142 -56t48 -130q0 -94 -57 -142t-133 -48z" />
    <glyph glyph-name="slash" unicode="/" horiz-adv-x="728" 
d="M250 -214h-338l654 1830h338z" />
    <glyph glyph-name="zero" unicode="0" horiz-adv-x="1234" 
d="M1040 1230q147 -184 147 -528q0 -346 -147 -531t-423 -185t-423 185t-147 531q0 344 147 528t423 184t423 -184zM530 1070q-31 -40 -45 -128t-14 -240q0 -154 14 -242t45 -128t87 -40t87 40t45 128t14 242q0 152 -14 240t-45 128t-87 40t-87 -40z" />
    <glyph glyph-name="one" unicode="1" horiz-adv-x="1234" 
d="M846 0h-416v1070h-256v332h672v-1402z" />
    <glyph glyph-name="two" unicode="2" horiz-adv-x="1234" 
d="M1169 320v-320h-1090v266l502 518q54 56 88 111t34 95q0 46 -34 72t-96 26q-82 0 -184 -48t-204 -132l-156 300q306 214 608 214q142 0 257 -47t180 -132t65 -193q0 -110 -72 -226t-202 -248l-258 -256h562z" />
    <glyph glyph-name="three" unicode="3" horiz-adv-x="1234" 
d="M1082 701q97 -101 97 -257q0 -136 -71 -241t-201 -163t-304 -58q-158 0 -312 49t-258 129l150 284q90 -74 188 -113t198 -39q98 0 150 38t52 112q0 72 -52 111t-152 39h-250v218l300 288h-510v306h1004v-238l-356 -320l70 -14q160 -30 257 -131z" />
    <glyph glyph-name="four" unicode="4" horiz-adv-x="1234" 
d="M1207 590v-304h-170v-286h-380v286h-616v274l368 842h394l-346 -812h200v284h380v-284h170z" />
    <glyph glyph-name="five" unicode="5" horiz-adv-x="1234" 
d="M916 843q125 -53 193 -149t68 -222q0 -146 -72 -257t-204 -172t-308 -61q-144 0 -298 49t-270 131l150 288q192 -158 370 -158q90 0 137 39t47 111q0 144 -188 144q-222 0 -390 -4v820h962v-324h-582v-182h94q166 0 291 -53z" />
    <glyph glyph-name="six" unicode="6" horiz-adv-x="1234" 
d="M715 1114q-146 0 -221 -83t-73 -237q104 134 306 134q134 0 234 -57t155 -161t55 -240q0 -148 -65 -258t-184 -170t-275 -60q-186 0 -323 85t-210 243t-73 372q0 222 80 389t227 258t343 91q122 0 246 -32t212 -88l-152 -278q-116 92 -282 92zM507 592q-46 -46 -46 -124
q0 -76 43 -122t129 -46q80 0 124 44t44 128q0 78 -43 122t-121 44q-84 0 -130 -46z" />
    <glyph glyph-name="seven" unicode="7" horiz-adv-x="1234" 
d="M55 1402h1140v-280l-506 -1122h-438l484 1078h-312v-196h-368v520z" />
    <glyph glyph-name="eight" unicode="8" horiz-adv-x="1234" 
d="M880 1372q115 -48 177 -135t62 -203q0 -84 -42 -161t-112 -123q104 -52 166 -147t62 -207q0 -124 -71 -218t-202 -145t-305 -51q-172 0 -302 50t-201 142t-71 214q0 116 67 213t179 149q-80 52 -127 132t-47 164q0 112 62 197t175 131t263 46q152 0 267 -48zM499 1113
q-40 -35 -40 -101q0 -64 40 -97t116 -33q78 0 118 33t40 97q0 66 -40 101t-118 35q-76 0 -116 -35zM477 546q-48 -40 -48 -116q0 -72 48 -111t138 -39q92 0 141 39t49 111q0 74 -49 115t-139 41q-92 0 -140 -40z" />
    <glyph glyph-name="nine" unicode="9" horiz-adv-x="1234" 
d="M515 290q146 0 221 82t73 236q-104 -134 -306 -134q-132 0 -232 57t-155 162t-55 241q0 148 65 258t184 169t275 59q186 0 322 -85t209 -242t73 -371q0 -222 -80 -390t-227 -259t-343 -91q-120 0 -244 32t-212 88l152 278q114 -90 280 -90zM475 1058q-44 -44 -44 -126
q0 -80 42 -123t122 -43q84 0 129 46t45 124q0 76 -43 121t-127 45q-80 0 -124 -44z" />
    <glyph glyph-name="colon" unicode=":" horiz-adv-x="510" 
d="M254 -16q-74 0 -131 47t-57 143q0 94 57 140t131 46q94 0 142 -56t48 -130q0 -94 -57 -142t-133 -48zM254 578q-74 0 -131 47t-57 143q0 94 57 140t131 46q94 0 142 -56t48 -130q0 -76 -48 -133t-142 -57z" />
    <glyph glyph-name="semicolon" unicode=";" horiz-adv-x="510" 
d="M218 -252h-190l114 280q-74 60 -74 144q0 94 57 141t133 47q70 0 128 -42t58 -144q0 -74 -50 -148zM254 578q-74 0 -131 47t-57 143q0 94 57 140t131 46q94 0 142 -56t48 -130q0 -76 -48 -133t-142 -57z" />
    <glyph glyph-name="less" unicode="&#x3c;" horiz-adv-x="1030" 
d="M968 116l-906 370v322l906 370v-282l-646 -248l646 -250v-282z" />
    <glyph glyph-name="equal" unicode="=" horiz-adv-x="1030" 
d="M968 312h-906v252h906v-252zM968 748h-906v252h906v-252z" />
    <glyph glyph-name="greater" unicode="&#x3e;" horiz-adv-x="1030" 
d="M62 134v282l646 248l-646 250v282l906 -370v-322z" />
    <glyph glyph-name="question" unicode="?" horiz-adv-x="972" 
d="M626 490h-300q0 78 28 142q51 114 118 170q46 42 82 89t36 101q0 104 -104 104h-4q-126 0 -130 -168h-310q16 256 146 371t332 115q123 0 224.5 -33.5t162.5 -111.5t61 -211q0 -178 -188 -326q-51 -42 -81 -77q-73 -83 -73 -165zM468 -16q-74 0 -131 47t-57 143
q0 94 57 140t131 46q94 0 142 -56t48 -130q0 -94 -57 -142t-133 -48z" />
    <glyph glyph-name="at" unicode="@" horiz-adv-x="1776" 
d="M876 -294q-194 0 -343.5 60t-264.5 179q-230 239 -230 583v16q0 364 251 609t603 245q219 0 368 -69q161 -73 265 -191t158.5 -270t54.5 -318q0 -230 -111 -359t-273 -129q-206 0 -240 170q-102 -150 -280 -150q-174 0 -299 127t-125 333q0 196 108 331t288 135
q66 0 121 -23t89 -50t38 -43v92h258v-660q0 -92 68 -92q58 0 105 83t47 229q0 270 -142 454q-166 210 -490 210q-272 0 -464 -196t-192 -476q0 -272 183 -455t449 -183q190 0 372 124l98 -166q-214 -150 -470 -150zM862 314q90 0 132 74t42 162q0 90 -42 155t-136 65
q-86 0 -125 -69t-39 -149q0 -88 39 -163t129 -75z" />
    <glyph glyph-name="A" unicode="A" horiz-adv-x="1572" 
d="M1588 0h-444l-82 224h-566l-84 -224h-428l598 1402h428zM952 528l-168 458l-172 -458h340z" />
    <glyph glyph-name="B" unicode="B" horiz-adv-x="1440" 
d="M836 0h-718v1402h688q232 0 385 -88t153 -266q0 -124 -65 -198t-173 -104q126 -28 204 -115t78 -239q0 -192 -157 -292t-395 -100zM784 312q174 0 174 132q0 112 -174 122h-252v-254h252zM784 852q126 0 134 122q0 108 -134 116h-252v-238h252z" />
    <glyph glyph-name="C" unicode="C" horiz-adv-x="1380" 
d="M778 -28q-320 0 -530 207t-210 527q0 308 213 515t541 207q324 0 580 -250l-240 -286q-160 190 -334 190q-134 0 -234 -96t-100 -276q0 -67 19 -133.5t59 -120.5t103.5 -87t152.5 -33q164 0 334 164l240 -256q-270 -272 -594 -272z" />
    <glyph glyph-name="D" unicode="D" horiz-adv-x="1524" 
d="M718 0h-600v1402h614q332 0 543 -183t211 -517q0 -332 -216 -517t-552 -185zM744 326q80 0 152.5 37t119 120t46.5 215q0 188 -99 282t-239 94h-190v-748h210z" />
    <glyph glyph-name="E" unicode="E" horiz-adv-x="1366" 
d="M1284 0h-1166v1402h1146v-320h-730v-220h662v-320h-662v-222h750v-320z" />
    <glyph glyph-name="F" unicode="F" horiz-adv-x="1238" 
d="M534 0h-416v1402h1088v-320h-672v-280h624v-320h-624v-482z" />
    <glyph glyph-name="G" unicode="G" horiz-adv-x="1480" 
d="M792 -18q-328 0 -541 206t-213 512q0 308 222 511t560 203q326 0 592 -212l-236 -286q-172 152 -358 152q-164 0 -259 -109t-95 -259q0 -124 51 -206t132.5 -123t174.5 -41q94 0 214 56l2 134h-238v282h590l2 -640q-276 -180 -600 -180z" />
    <glyph glyph-name="H" unicode="H" horiz-adv-x="1566" 
d="M1448 0h-416v522h-498v-522h-416v1402h416v-558h498v558h416v-1402z" />
    <glyph glyph-name="I" unicode="I" horiz-adv-x="652" 
d="M534 0h-416v1402h416v-1402z" />
    <glyph glyph-name="J" unicode="J" horiz-adv-x="1108" 
d="M504 -18q-308 0 -518 234l190 274q172 -158 294 -158q124 0 124 142v596h-476v332h896v-938q0 -168 -66 -274q-72 -110 -188.5 -159t-255.5 -49z" />
    <glyph glyph-name="K" unicode="K" horiz-adv-x="1522" 
d="M1516 0h-498l-328 516l-156 -172v-344h-416v1402h416v-562l470 562h480l-510 -568z" />
    <glyph glyph-name="L" unicode="L" horiz-adv-x="1148" 
d="M1122 0h-1004v1402h416v-1054h588v-348z" />
    <glyph glyph-name="M" unicode="M" horiz-adv-x="1878" 
d="M1760 0h-366v832l-320 -694h-270l-320 694v-832h-366v1402h446l376 -778l374 778h446v-1402z" />
    <glyph glyph-name="N" unicode="N" horiz-adv-x="1566" 
d="M1448 0h-354l-594 780v-780h-382v1402h356l594 -782v782h380v-1402z" />
    <glyph glyph-name="O" unicode="O" horiz-adv-x="1604" 
d="M802 -28q-328 0 -546 208t-218 524q0 314 217 519t547 205q332 0 548 -206t216 -518q0 -314 -218 -523t-546 -209zM808 318q132 0 232 104t100 280t-100 278t-232 102q-61 0 -122 -22t-111 -68.5t-80.5 -118t-30.5 -171.5q0 -124 50 -209.5t129 -130t165 -44.5z" />
    <glyph glyph-name="P" unicode="P" horiz-adv-x="1366" 
d="M534 0h-416v1402h636q258 0 414 -121t156 -377q0 -234 -142 -380t-428 -146l-220 -2v-376zM734 698q196 0 196 194q0 184 -196 190h-200v-384h200z" />
    <glyph glyph-name="Q" unicode="Q" horiz-adv-x="1610" 
d="M1212 -344q-314 0 -450 316q-149 11 -279.5 60.5t-230.5 140t-157 223t-57 308.5q0 314 217 519t547 205q332 0 548 -206t216 -518q0 -256 -123 -423t-319 -247q56 -72 134 -72q90 0 232 100l140 -250q-198 -156 -418 -156zM808 318q132 0 232 104t100 280t-100 278
t-232 102q-61 0 -122 -22t-111 -68.5t-80.5 -118t-30.5 -171.5q0 -124 50 -209.5t129 -130t165 -44.5z" />
    <glyph glyph-name="R" unicode="R" horiz-adv-x="1450" 
d="M1412 0h-472l-186 378h-220v-378h-416v1402h654q268 0 430 -119t162 -379q0 -312 -236 -446zM772 698q196 0 196 194q0 184 -196 190h-238v-384h238z" />
    <glyph glyph-name="S" unicode="S" horiz-adv-x="1310" 
d="M698 -24q-358 0 -674 228l156 316q157 -115 292.5 -166.5t229.5 -51.5q144 0 144 100q0 64 -80 94q-74 32 -170 56q-120 32 -248 84q-234 104 -234 352q0 148 77 247q89 107 221.5 153t281.5 46q324 0 586 -164l-154 -320q-262 158 -466 158q-116 0 -116 -82
q0 -52 60 -88t194 -67q126 -31 243 -84t191 -169q44 -74 44 -194q0 -158 -82 -257q-88 -103 -219.5 -147t-276.5 -44z" />
    <glyph glyph-name="T" unicode="T" horiz-adv-x="1256" 
d="M836 0h-418v1070h-406v332h1232v-332h-408v-1070z" />
    <glyph glyph-name="U" unicode="U" horiz-adv-x="1490" 
d="M750 -28q-184 0 -328 63t-235 203t-91 342v822h416v-822q0 -136 75 -199t163 -63q94 0 161 61t67 201v822h416v-822q0 -290 -179 -449t-465 -159z" />
    <glyph glyph-name="V" unicode="V" horiz-adv-x="1496" 
d="M962 0h-432l-536 1402h444l320 -970l320 970h426z" />
    <glyph glyph-name="W" unicode="W" horiz-adv-x="2266" 
d="M1798 0h-428l-236 898l-244 -898h-426l-470 1402h444l252 -974l250 974h406l252 -972l248 972h426z" />
    <glyph glyph-name="X" unicode="X" horiz-adv-x="1512" 
d="M1512 0h-500l-266 400l-262 -400h-486l496 714l-464 688h484l232 -366l234 366h490l-458 -670z" />
    <glyph glyph-name="Y" unicode="Y" horiz-adv-x="1404" 
d="M914 0h-416v436l-514 966h416l306 -572l298 572h414l-504 -958v-444z" />
    <glyph glyph-name="Z" unicode="Z" horiz-adv-x="1358" 
d="M1312 0h-1264v262l696 816h-672v324h1226v-264l-696 -814h710v-324z" />
    <glyph glyph-name="bracketleft" unicode="[" horiz-adv-x="740" 
d="M716 -248h-596v1732h596v-298h-236v-1136h236v-298z" />
    <glyph glyph-name="backslash" unicode="\" horiz-adv-x="728" 
d="M816 -214h-338l-654 1830h338z" />
    <glyph glyph-name="bracketright" unicode="]" horiz-adv-x="740" 
d="M620 -248h-596v298h236v1136h-236v298h596v-1732z" />
    <glyph glyph-name="asciicircum" unicode="^" horiz-adv-x="1186" 
d="M1124 282h-282l-248 546l-250 -546h-282l370 766h322z" />
    <glyph glyph-name="underscore" unicode="_" horiz-adv-x="1184" 
d="M1184 -408h-1184v218h1184v-218z" />
    <glyph glyph-name="grave" unicode="`" horiz-adv-x="748" 
d="M344 1190l-270 244l318 116l218 -340z" />
    <glyph glyph-name="a" unicode="a" horiz-adv-x="1214" 
d="M408 -18q-130 0 -211 46t-119 124t-38 172q0 316 420 330h266q0 148 -188 148q-128 0 -328 -78l-100 268q272 112 524 112q301 0 425 -168q63 -88 63 -230v-706h-396v120q-102 -138 -318 -138zM542 246q124 0 184 112v98h-184q-118 0 -122 -102q0 -102 122 -108z" />
    <glyph glyph-name="b" unicode="b" horiz-adv-x="1376" 
d="M844 -14q-192 0 -308 140v-126h-404v1484h404v-522q116 140 298 140q218 0 361 -145t143 -419q0 -234 -122 -393t-372 -159zM732 306q108 0 153 75t45 167t-45 167t-153 75q-78 0 -137 -58t-59 -184t59 -184t137 -58z" />
    <glyph glyph-name="c" unicode="c" horiz-adv-x="1124" 
d="M604 -14q-270 0 -418 156t-148 398t144 402t426 160q344 0 502 -284l-310 -152q-60 108 -174 108q-92 0 -136 -68t-44 -164q0 -98 44 -167t136 -69q118 0 172 120l314 -158q-148 -282 -508 -282z" />
    <glyph glyph-name="d" unicode="d" horiz-adv-x="1376" 
d="M542 -14q-218 0 -361 145t-143 419q0 109 27.5 208.5t86.5 176.5t153 122t227 45q192 0 308 -140v522h404v-1484h-404v124q-110 -138 -298 -138zM644 296q98 0 147 71t49 173q0 100 -48 171t-148 71q-108 0 -153 -75t-45 -167q0 -102 48 -173t150 -71z" />
    <glyph glyph-name="e" unicode="e" horiz-adv-x="1218" 
d="M624 -14q-198 0 -328 73q-135 79 -196.5 205.5t-61.5 275.5q0 268 161 415t413 147q286 0 427 -164t141 -434l-2 -58h-732q58 -162 212 -162q130 0 240 104l210 -206q-174 -196 -484 -196zM780 644q0 74 -40 129t-124 55q-148 0 -178 -184h342z" />
    <glyph glyph-name="f" unicode="f" horiz-adv-x="822" 
d="M596 0h-400v774h-148v258h148v100q0 131 58 212t156 119.5t220 38.5q116 0 240 -40l-44 -300q-60 26 -116 26q-46 0 -80 -24t-34 -80v-52h226v-258h-226v-774z" />
    <glyph glyph-name="g" unicode="g" horiz-adv-x="1302" 
d="M588 -406q-306 0 -502 142l134 272q166 -100 334 -100q220 0 232 174v110q-106 -130 -292 -130q-85 0 -166 29.5t-146.5 93t-104.5 163.5t-39 240q0 244 129 379t319 135q192 0 300 -132v118h400v-994q0 -242 -170 -371t-428 -129zM600 352q96 0 141 66t45 158
q0 96 -46 162t-140 66t-139 -67t-45 -161q0 -92 45 -158t139 -66z" />
    <glyph glyph-name="h" unicode="h" horiz-adv-x="1366" 
d="M1274 0h-404v574q0 166 -156 176q-178 -20 -178 -212v-538h-404v1484h404v-564q118 184 346 184q166 0 279 -102t113 -312v-690z" />
    <glyph glyph-name="i" unicode="i" horiz-adv-x="648" 
d="M326 1190q-84 0 -146 51t-62 157t62 157t146 51t146 -51t62 -157q0 -84 -51 -146t-157 -62zM526 0h-404v1088h404v-1088z" />
    <glyph glyph-name="j" unicode="j" horiz-adv-x="652" 
d="M122 -404q-142 0 -250 44l78 282q42 -12 84 -12q96 0 96 114v1064h404v-1126q0 -105 -43.5 -188t-134.5 -130.5t-234 -47.5zM330 1190q-84 0 -146 51t-62 157t62 157t146 51t146 -51t62 -157q0 -84 -51 -146t-157 -62z" />
    <glyph glyph-name="k" unicode="k" horiz-adv-x="1296" 
d="M1294 0h-478l-198 378l-82 -86v-292h-404v1484h404v-722l300 326h456l-398 -420z" />
    <glyph glyph-name="l" unicode="l" horiz-adv-x="720" 
d="M518 -20q-172 0 -294 108t-122 332v1064h404v-1052q0 -104 94 -104q46 0 100 26l28 -332q-112 -42 -210 -42z" />
    <glyph glyph-name="m" unicode="m" horiz-adv-x="2068" 
d="M1976 0h-404v574q0 94 -45 135t-105 41q-90 -12 -130 -71t-40 -141v-538h-404v574q0 94 -45 135t-105 41q-172 -20 -172 -212v-538h-404v1088h404v-166q116 182 338 182q256 0 358 -236q114 236 368 236q162 0 274 -102t112 -312v-690z" />
    <glyph glyph-name="n" unicode="n" horiz-adv-x="1356" 
d="M1264 0h-404v574q0 94 -47 135t-109 41q-178 -20 -178 -212v-538h-404v1088h404v-168q118 184 346 184q164 0 278 -100t114 -314v-690z" />
    <glyph glyph-name="o" unicode="o" horiz-adv-x="1286" 
d="M644 -14q-266 0 -436 145t-170 413q0 264 170 411t436 147q268 0 434 -146q170 -144 170 -412q0 -244 -157 -401t-447 -157zM644 298q80 0 138 58t58 184q0 100 -48 171t-148 71q-108 0 -153 -75t-45 -167q0 -100 49 -171t149 -71z" />
    <glyph glyph-name="p" unicode="p" horiz-adv-x="1376" 
d="M536 -388h-404v1476h404v-126q116 140 298 140q218 0 361 -145t143 -419q0 -234 -122 -393t-372 -159q-192 0 -308 140v-514zM732 306q108 0 153 75t45 167t-45 167t-153 75q-78 0 -137 -58t-59 -184t59 -184t137 -58z" />
    <glyph glyph-name="q" unicode="q" horiz-adv-x="1376" 
d="M1244 -388h-404v512q-110 -138 -298 -138q-218 0 -361 145t-143 419q0 109 27.5 208.5t86.5 176.5t153 122t227 45q192 0 308 -140v126h404v-1476zM644 296q98 0 147 71t49 173q0 100 -48 171t-148 71q-108 0 -153 -75t-45 -167q0 -102 48 -173t150 -71z" />
    <glyph glyph-name="r" unicode="r" horiz-adv-x="888" 
d="M526 0h-404v1088h404v-172q120 188 342 188v-364l-70 4q-110 0 -191 -52t-81 -172v-520z" />
    <glyph glyph-name="s" unicode="s" horiz-adv-x="1070" 
d="M540 -18q-286 0 -512 154l124 254q212 -134 394 -134q90 0 90 50q0 64 -168 92q-180 30 -322 160q-66 66 -66 184q0 124 61.5 204.5t167 120t235.5 39.5q248 0 478 -132l-134 -254q-224 114 -356 114q-72 0 -82 -52q0 -64 175 -93t325 -161q68 -68 68 -186
q0 -122 -64 -201q-73 -85 -182 -122t-232 -37z" />
    <glyph glyph-name="t" unicode="t" horiz-adv-x="898" 
d="M564 -18q-170 0 -279 87t-109 271v434h-150v258h150v302h402v-302h268v-258h-268v-372q0 -104 92 -104q52 0 124 32l72 -278q-136 -70 -302 -70z" />
    <glyph glyph-name="u" unicode="u" horiz-adv-x="1336" 
d="M476 -18q-104 0 -202 50q-80 40 -131 131t-51 235v690h404v-576q0 -166 146 -174q90 12 129 72t39 140v538h404v-1088h-404v162q-114 -180 -334 -180z" />
    <glyph glyph-name="v" unicode="v" horiz-adv-x="1188" 
d="M800 0h-412l-404 1088h416l200 -720l202 720h404z" />
    <glyph glyph-name="w" unicode="w" horiz-adv-x="1918" 
d="M1540 0h-398l-180 624l-184 -624h-398l-396 1088h410l196 -694l188 694h380l194 -694l192 694h392z" />
    <glyph glyph-name="x" unicode="x" horiz-adv-x="1266" 
d="M1266 0h-464l-168 308l-192 -308h-444l364 556l-342 532h464l150 -282l168 282h440l-340 -530z" />
    <glyph glyph-name="y" unicode="y" horiz-adv-x="1210" 
d="M318 -406q-200 0 -350 120l168 270q64 -62 146 -62q102 0 138 108l-450 1058h414l238 -666l202 666h402l-456 -1180q-122 -314 -452 -314z" />
    <glyph glyph-name="z" unicode="z" horiz-adv-x="1124" 
d="M1074 0h-1016v238l488 546h-468v304h976v-240l-488 -546h508v-302z" />
    <glyph glyph-name="braceleft" unicode="{" horiz-adv-x="740" 
d="M712 -252h-158q-196 0 -283 64t-87 230v346q0 76 -56 76h-94v306h84q66 0 66 66v356q0 166 87 231t283 65h158v-298q-93 0 -130.5 -25.5t-37.5 -96.5v-194q0 -112 -47.5 -175t-156.5 -81q204 -34 204 -256v-194q0 -71 37.5 -96.5t130.5 -25.5v-298z" />
    <glyph glyph-name="bar" unicode="|" horiz-adv-x="628" 
d="M464 -212h-300v1810h300v-1810z" />
    <glyph glyph-name="braceright" unicode="}" horiz-adv-x="740" 
d="M186 -252h-158v298q93 0 130.5 25.5t37.5 96.5v194q0 222 204 256q-204 30 -204 256v194q0 71 -37.5 96.5t-130.5 25.5v298h158q198 0 284 -64t86 -232v-344q0 -78 56 -78h94v-306h-84q-66 0 -66 -64v-358q0 -161 -88 -227.5t-282 -66.5z" />
    <glyph glyph-name="asciitilde" unicode="~" horiz-adv-x="1030" 
d="M696 462q-116 0 -192 62q-40 32 -76 32q-56 0 -56 -86h-270q0 374 234 374q116 0 192 -62q40 -32 76 -32q58 0 58 68v18h268q0 -374 -234 -374z" />
    <glyph glyph-name="uni00A0" unicode="&#xa0;" horiz-adv-x="600" 
d="M0 0z" />
    <glyph glyph-name="exclamdown" unicode="&#xa1;" horiz-adv-x="552" 
d="M476 -312h-384v364l70 534h242l72 -534v-364zM292 726q-94 0 -142 56t-48 130q0 94 57 142t133 48q74 0 131 -47t57 -143q0 -94 -57 -140t-131 -46z" />
    <glyph glyph-name="cent" unicode="&#xa2;" horiz-adv-x="1200" 
d="M770 -320h-298v318q-194 38 -314 171t-120 371q0 166 58 281t155 181t221 88v324h298v-332q236 -58 340 -264l-310 -152q-60 108 -174 108q-92 0 -136 -68t-44 -164q0 -98 44 -167t136 -69q118 0 172 120l314 -158q-100 -208 -342 -264v-324z" />
    <glyph glyph-name="sterling" unicode="&#xa3;" horiz-adv-x="1140" 
d="M1104 0h-1056v312h144v302h-144v136h144v186q0 170 65 277q69 110 184 158.5t253 48.5q250 0 440 -168l-154 -306q-128 126 -240 126q-128 0 -130 -144v-178h326v-136h-326v-302h494v-312z" />
    <glyph glyph-name="currency" unicode="&#xa4;" horiz-adv-x="1394" 
d="M1130 -24l-208 208q-104 -52 -226 -52q-118 0 -226 52l-206 -208l-226 226l204 202q-60 112 -60 240q0 124 54 228l-198 196l226 226l194 -196q112 58 238 58q128 0 238 -58l196 196l226 -226l-198 -198q52 -104 52 -226q0 -128 -60 -238l206 -204zM696 448q74 0 138 51
t64 145t-63 147t-139 53q-80 0 -140 -53t-60 -147q0 -76 53 -136t147 -60z" />
    <glyph glyph-name="yen" unicode="&#xa5;" horiz-adv-x="1434" 
d="M930 0h-416v302h-376v136h374l-52 96h-322v136h250l-388 732h416l306 -572l296 572h416l-386 -732h252v-136h-322l-48 -90v-6h370v-136h-370v-302z" />
    <glyph glyph-name="brokenbar" unicode="&#xa6;" horiz-adv-x="628" 
d="M464 -212h-300v682h300v-682zM464 918h-300v680h300v-680z" />
    <glyph glyph-name="section" unicode="&#xa7;" horiz-adv-x="1136" 
d="M540 -178q-280 0 -512 156l110 250q226 -136 394 -136q104 0 104 50q0 66 -182 104t-332 168q-70 66 -70 178q0 184 196 272q-116 68 -116 188q0 142 112 239t344 97t480 -130l-120 -250q-236 114 -356 114q-90 0 -94 -52q0 -64 190 -108q180 -38 336 -170
q68 -66 68 -176q0 -180 -188 -272q108 -62 108 -188q0 -140 -114 -237t-358 -97zM594 536q124 0 124 56q0 86 -184 86q-114 0 -118 -60q0 -30 24.5 -48t65 -26t88.5 -8z" />
    <glyph glyph-name="dieresis" unicode="&#xa8;" horiz-adv-x="896" 
d="M258 1216q-84 0 -124 49t-40 117t40 117t124 49t124 -49t40 -117t-40 -117t-124 -49zM652 1216q-84 0 -124 49t-40 117t40 117t124 49t124 -49t40 -117t-40 -117t-124 -49z" />
    <glyph glyph-name="copyright" unicode="&#xa9;" horiz-adv-x="1430" 
d="M712 18q-162 0 -285 55.5t-208.5 153.5t-134.5 229q-46 116 -46 248q0 286 198 480t472 194q176 0 299 -59q129 -59 212 -158q173 -213 173 -461q0 -296 -200 -489t-480 -193zM712 200q224 0 361 150t137 350q0 95 -33.5 184t-97 159t-155 111.5t-208.5 41.5
q-224 0 -360 -152t-136 -348q0 -140 64 -249.5t170 -176.5q110 -70 258 -70zM722 368q-156 0 -247 95t-91 235q0 109 49 181.5t127.5 108.5t169.5 36q144 0 264 -114l-110 -130q-68 86 -152 86q-74 0 -114 -49t-40 -115q0 -84 46 -125t108 -41q76 0 152 72l110 -116
q-124 -124 -272 -124z" />
    <glyph glyph-name="ordfeminine" unicode="&#xaa;" horiz-adv-x="794" 
d="M262 904q-124 0 -177 61t-53 145q0 192 266 198h164q-4 76 -114 76q-78 0 -210 -42l-62 176q184 62 338 62q136 0 226 -56t90 -184v-424h-268v74q-62 -86 -200 -86zM356 1072q64 0 106 54v60h-106q-64 0 -66 -54q0 -56 66 -60z" />
    <glyph glyph-name="guillemotleft" unicode="&#xab;" horiz-adv-x="1052" 
d="M552 160h-324l-246 380l246 378h324l-212 -378zM1036 160h-324l-246 380l246 378h324l-212 -378z" />
    <glyph glyph-name="logicalnot" unicode="&#xac;" horiz-adv-x="1176" 
d="M1058 264h-288v360h-708v254h996v-614z" />
    <glyph glyph-name="uni00AD" unicode="&#xad;" horiz-adv-x="754" 
d="M650 490h-546v252h546v-252z" />
    <glyph glyph-name="registered" unicode="&#xae;" horiz-adv-x="1430" 
d="M712 18q-162 0 -285 55.5t-208.5 153.5t-134.5 229q-46 116 -46 248q0 286 198 480t472 194q176 0 299 -59q129 -59 212 -158q173 -213 173 -461q0 -296 -200 -489t-480 -193zM712 200q224 0 361 150t137 350q0 95 -33.5 184t-97 159t-155 111.5t-208.5 41.5
q-224 0 -360 -152t-136 -348q0 -140 64 -249.5t170 -176.5q110 -70 258 -70zM1020 412h-206l-84 168h-92v-168h-182v620h280q112 0 187 -50t75 -168q0 -140 -106 -200zM736 718q84 0 88 88q0 84 -88 88h-98v-176h98z" />
    <glyph glyph-name="macron" unicode="&#xaf;" horiz-adv-x="684" 
d="M666 1274h-630v230h630v-230z" />
    <glyph glyph-name="degree" unicode="&#xb0;" horiz-adv-x="778" 
d="M410 1164q-52 0 -108 25t-94 77.5t-38 135.5q0 114 75 177t165 63q104 0 172 -68t68 -172q0 -88 -63 -163t-177 -75zM410 1316q32 0 60 21t28 65q0 35 -25 61.5t-63 26.5t-63 -26.5t-25 -61.5q0 -44 28 -65t60 -21z" />
    <glyph glyph-name="plusminus" unicode="&#xb1;" horiz-adv-x="1030" 
d="M968 -16h-906v252h906v-252zM642 380h-252v312h-328v242h328v312h252v-312h326v-242h-326v-312z" />
    <glyph glyph-name="uni00B2" unicode="&#xb2;" horiz-adv-x="776" 
d="M726 720h-682v170l306 304q66 66 66 110q0 46 -64 46q-94 0 -236 -106l-106 194q198 132 388 132q128 0 221 -55t93 -171q0 -100 -78 -190t-230 -226h322v-208z" />
    <glyph glyph-name="uni00B3" unicode="&#xb3;" horiz-adv-x="752" 
d="M364 710q-192 0 -350 112l112 206q98 -116 216 -116q92 0 96 76q0 76 -92 76h-160v142l170 156h-298v196h616v-152l-194 -176q234 -46 234 -242q0 -112 -88 -195t-262 -83z" />
    <glyph glyph-name="acute" unicode="&#xb4;" horiz-adv-x="700" 
d="M328 1190l-264 20l254 340l316 -116z" />
    <glyph glyph-name="mu" unicode="&#xb5;" horiz-adv-x="1376" 
d="M536 -388h-404v1476h404v-576q0 -166 146 -174q90 12 129 72t39 140v538h404v-1088h-404v162q-108 -168 -314 -180v-370z" />
    <glyph glyph-name="paragraph" unicode="&#xb6;" horiz-adv-x="1336" 
d="M1218 -212h-298v1472h-170v-1472h-298v826h-48q-228 0 -336 150q-84 120 -84 276q0 164 108 298q51 64 150 105t246 41h730v-1696z" />
    <glyph glyph-name="periodcentered" unicode="&#xb7;" horiz-adv-x="478" 
d="M238 378q-106 0 -157 62t-51 146t51 146t157 62t157 -62t51 -146t-51 -146t-157 -62z" />
    <glyph glyph-name="cedilla" unicode="&#xb8;" horiz-adv-x="664" 
d="M346 -478q-114 0 -228 40l56 170q52 -16 96 -16q82 0 82 40q0 26 -33 36t-119 10l70 218l218 -20l-42 -114q166 -46 166 -164q0 -106 -80 -153t-186 -47z" />
    <glyph glyph-name="uni00B9" unicode="&#xb9;" horiz-adv-x="540" 
d="M438 720h-282v624h-156v214h438v-838z" />
    <glyph glyph-name="ordmasculine" unicode="&#xba;" horiz-adv-x="832" 
d="M416 908q-194 0 -290 96q-94 100 -94 238q0 120 52.5 193.5t139.5 108t192 34.5q101 0 189.5 -33.5t144.5 -110.5q52 -74 52 -192t-53.5 -191t-141 -108t-191.5 -35zM416 1110q96 0 108 130q0 52 -26 91t-82 39q-98 0 -108 -130q0 -52 26 -91t82 -39z" />
    <glyph glyph-name="guillemotright" unicode="&#xbb;" horiz-adv-x="1056" 
d="M338 160h-324l212 378l-212 380h324l246 -380zM822 160h-324l212 378l-212 380h324l246 -380z" />
    <glyph glyph-name="onequarter" unicode="&#xbc;" horiz-adv-x="1752" 
d="M438 562h-282v624h-156v214h438v-838zM456 0h-274l986 1402h272zM1642 0h-262v164h-416v178l260 496h270l-242 -480h128v162h262v-162h112v-194h-112v-164z" />
    <glyph glyph-name="onehalf" unicode="&#xbd;" horiz-adv-x="1840" 
d="M438 562h-282v624h-156v214h438v-838zM456 0h-274l986 1402h272zM1790 0h-682v170l306 304q66 66 66 110q0 46 -64 46q-94 0 -236 -106l-106 194q198 132 388 132q128 0 221 -55t93 -171q0 -100 -78 -190t-230 -226h322v-208z" />
    <glyph glyph-name="threequarters" unicode="&#xbe;" horiz-adv-x="1904" 
d="M364 552q-192 0 -350 112l112 206q98 -116 216 -116q92 0 96 76q0 76 -92 76h-160v142l170 156h-298v196h616v-152l-194 -176q234 -44 234 -242q0 -112 -88 -195t-262 -83zM608 0h-274l986 1402h272zM1794 0h-262v164h-416v178l260 496h270l-242 -480h128v162h262v-162
h112v-194h-112v-164z" />
    <glyph glyph-name="questiondown" unicode="&#xbf;" horiz-adv-x="972" 
d="M452 -328q-123 0 -225 35q-223 75 -223 321q0 178 188 326q51 42 81.5 77t51.5 76t21 89h300q0 -78 -27 -142q-52 -114 -119 -170q-46 -42 -82 -89t-36 -101q0 -104 104 -104h4q130 0 130 168h310q-16 -256 -146 -371t-332 -115zM504 726q-94 0 -142 56t-48 130
q0 94 57 142t133 48q74 0 131 -47t57 -143q0 -94 -57 -140t-131 -46z" />
    <glyph glyph-name="Agrave" unicode="&#xc0;" horiz-adv-x="1572" 
d="M1588 0h-444l-82 224h-566l-84 -224h-428l598 1402h428zM708 1496l-270 244l318 116l218 -340zM952 528l-168 458l-172 -458h340z" />
    <glyph glyph-name="Aacute" unicode="&#xc1;" horiz-adv-x="1572" 
d="M1588 0h-444l-82 224h-566l-84 -224h-428l598 1402h428zM850 1496l-264 20l254 340l316 -116zM952 528l-168 458l-172 -458h340z" />
    <glyph glyph-name="Acircumflex" unicode="&#xc2;" horiz-adv-x="1572" 
d="M1588 0h-444l-82 224h-566l-84 -224h-428l598 1402h428zM1182 1510h-268l-124 138l-126 -138h-268l220 314h346zM952 528l-168 458l-172 -458h340z" />
    <glyph glyph-name="Atilde" unicode="&#xc3;" horiz-adv-x="1572" 
d="M1588 0h-444l-82 224h-566l-84 -224h-428l598 1402h428zM972 1504q-84 0 -184 54q-50 32 -86 32q-56 0 -56 -80h-218q0 334 204 334q84 0 186 -54q48 -30 80 -30q60 0 60 66v12h216q0 -334 -202 -334zM952 528l-168 458l-172 -458h340z" />
    <glyph glyph-name="Adieresis" unicode="&#xc4;" horiz-adv-x="1572" 
d="M1588 0h-444l-82 224h-566l-84 -224h-428l598 1402h428zM590 1506q-84 0 -124 49t-40 117t40 117t124 49q86 0 126 -50t40 -116t-40 -116t-126 -50zM952 528l-168 458l-172 -458h340zM984 1506q-84 0 -124 49t-40 117t40 117t124 49q86 0 126 -50t40 -116t-40 -116
t-126 -50z" />
    <glyph glyph-name="Aring" unicode="&#xc5;" horiz-adv-x="1572" 
d="M1588 0h-444l-82 224h-566l-84 -224h-428l598 1402h428zM788 1472q-114 0 -178 74t-64 168q0 114 76 178t166 64q108 0 174 -74q68 -70 68 -168q0 -110 -74 -176t-168 -66zM952 528l-168 458l-172 -458h340zM788 1632q30 0 57 19.5t27 62.5t-27 62.5t-57 19.5t-57 -19.5
t-27 -62.5t27 -62.5t57 -19.5z" />
    <glyph glyph-name="AE" unicode="&#xc6;" horiz-adv-x="2254" 
d="M2172 0h-1166v266h-454l-136 -266h-432l788 1402h1380v-320h-730v-220h662v-320h-662v-222h750v-320zM1006 566v518h-36l-264 -518h300z" />
    <glyph glyph-name="Ccedilla" unicode="&#xc7;" horiz-adv-x="1380" 
d="M722 -478q-114 0 -228 40l56 170q52 -16 96 -16q82 0 82 40q0 26 -33 36t-119 10l58 182q-266 54 -431 239t-165 483q0 308 213 515t541 207q324 0 580 -250l-240 -286q-160 190 -334 190q-134 0 -234 -96t-100 -276q0 -67 19 -133.5t59 -120.5t103.5 -87t152.5 -33
q164 0 334 164l240 -256q-220 -226 -516 -268l-34 -90q166 -46 166 -164q0 -106 -80 -153t-186 -47z" />
    <glyph glyph-name="Egrave" unicode="&#xc8;" horiz-adv-x="1366" 
d="M1284 0h-1166v1402h1146v-320h-730v-220h662v-320h-662v-222h750v-320zM618 1496l-270 244l318 116l218 -340z" />
    <glyph glyph-name="Eacute" unicode="&#xc9;" horiz-adv-x="1366" 
d="M1284 0h-1166v1402h1146v-320h-730v-220h662v-320h-662v-222h750v-320zM760 1496l-264 20l254 340l316 -116z" />
    <glyph glyph-name="Ecircumflex" unicode="&#xca;" horiz-adv-x="1366" 
d="M1284 0h-1166v1402h1146v-320h-730v-220h662v-320h-662v-222h750v-320zM1092 1510h-268l-124 138l-126 -138h-268l220 314h346z" />
    <glyph glyph-name="Edieresis" unicode="&#xcb;" horiz-adv-x="1366" 
d="M1284 0h-1166v1402h1146v-320h-730v-220h662v-320h-662v-222h750v-320zM500 1506q-84 0 -124 49t-40 117t40 117t124 49q86 0 126 -50t40 -116t-40 -116t-126 -50zM894 1506q-84 0 -124 49t-40 117t40 117t124 49q86 0 126 -50t40 -116t-40 -116t-126 -50z" />
    <glyph glyph-name="Igrave" unicode="&#xcc;" horiz-adv-x="652" 
d="M246 1496l-270 244l318 116l218 -340zM534 0h-416v1402h416v-1402z" />
    <glyph glyph-name="Iacute" unicode="&#xcd;" horiz-adv-x="652" 
d="M534 0h-416v1402h416v-1402zM388 1496l-264 20l254 340l316 -116z" />
    <glyph glyph-name="Icircumflex" unicode="&#xce;" horiz-adv-x="652" 
d="M720 1510h-268l-124 138l-126 -138h-268l220 314h346zM534 0h-416v1402h416v-1402z" />
    <glyph glyph-name="Idieresis" unicode="&#xcf;" horiz-adv-x="652" 
d="M128 1506q-84 0 -124 49t-40 117t40 117t124 49q86 0 126 -50t40 -116t-40 -116t-126 -50zM534 0h-416v1402h416v-1402zM522 1506q-84 0 -124 49t-40 117t40 117t124 49q86 0 126 -50t40 -116t-40 -116t-126 -50z" />
    <glyph glyph-name="Eth" unicode="&#xd0;" horiz-adv-x="1524" 
d="M718 0h-600v610h-128v182h128v610h614q332 0 543 -183t211 -517q0 -332 -216 -517t-552 -185zM744 326q80 0 152.5 37t119 120t46.5 215q0 188 -99 282t-239 94h-190v-282h294v-182h-294v-284h210z" />
    <glyph glyph-name="Ntilde" unicode="&#xd1;" horiz-adv-x="1566" 
d="M1448 0h-354l-594 780v-780h-382v1402h356l594 -782v782h380v-1402zM972 1504q-84 0 -184 54q-50 32 -86 32q-56 0 -56 -80h-218q0 334 204 334q84 0 186 -54q48 -30 80 -30q60 0 60 66v12h216q0 -334 -202 -334z" />
    <glyph glyph-name="Ograve" unicode="&#xd2;" horiz-adv-x="1604" 
d="M802 -28q-328 0 -546 208t-218 524q0 314 217 519t547 205q332 0 548 -206t216 -518q0 -314 -218 -523t-546 -209zM722 1496l-270 244l318 116l218 -340zM808 318q132 0 232 104t100 280t-100 278t-232 102q-61 0 -122 -22t-111 -68.5t-80.5 -118t-30.5 -171.5
q0 -124 50 -209.5t129 -130t165 -44.5z" />
    <glyph glyph-name="Oacute" unicode="&#xd3;" horiz-adv-x="1604" 
d="M802 -28q-328 0 -546 208t-218 524q0 314 217 519t547 205q332 0 548 -206t216 -518q0 -314 -218 -523t-546 -209zM808 318q132 0 232 104t100 280t-100 278t-232 102q-61 0 -122 -22t-111 -68.5t-80.5 -118t-30.5 -171.5q0 -124 50 -209.5t129 -130t165 -44.5zM864 1496
l-264 20l254 340l316 -116z" />
    <glyph glyph-name="Ocircumflex" unicode="&#xd4;" horiz-adv-x="1604" 
d="M802 -28q-328 0 -546 208t-218 524q0 314 217 519t547 205q332 0 548 -206t216 -518q0 -314 -218 -523t-546 -209zM1196 1510h-268l-124 138l-126 -138h-268l220 314h346zM808 318q132 0 232 104t100 280t-100 278t-232 102q-61 0 -122 -22t-111 -68.5t-80.5 -118
t-30.5 -171.5q0 -124 50 -209.5t129 -130t165 -44.5z" />
    <glyph glyph-name="Otilde" unicode="&#xd5;" horiz-adv-x="1604" 
d="M802 -28q-328 0 -546 208t-218 524q0 314 217 519t547 205q332 0 548 -206t216 -518q0 -314 -218 -523t-546 -209zM986 1504q-86 0 -184 54q-50 32 -86 32q-56 0 -56 -80h-218q0 334 204 334q84 0 186 -54q48 -30 80 -30q60 0 60 66v12h216q0 -334 -202 -334zM808 318
q132 0 232 104t100 280t-100 278t-232 102q-61 0 -122 -22t-111 -68.5t-80.5 -118t-30.5 -171.5q0 -124 50 -209.5t129 -130t165 -44.5z" />
    <glyph glyph-name="Odieresis" unicode="&#xd6;" horiz-adv-x="1604" 
d="M802 -28q-328 0 -546 208t-218 524q0 314 217 519t547 205q332 0 548 -206t216 -518q0 -314 -218 -523t-546 -209zM604 1506q-84 0 -124 49t-40 117t40 117t124 49q86 0 126 -50t40 -116t-40 -116t-126 -50zM808 318q132 0 232 104t100 280t-100 278t-232 102
q-61 0 -122 -22t-111 -68.5t-80.5 -118t-30.5 -171.5q0 -124 50 -209.5t129 -130t165 -44.5zM998 1506q-84 0 -124 49t-40 117t40 117t124 49q86 0 126 -50t40 -116t-40 -116t-126 -50z" />
    <glyph glyph-name="multiply" unicode="&#xd7;" horiz-adv-x="1030" 
d="M746 246l-230 230l-232 -230l-178 180l230 230l-230 230l178 180l232 -230l230 230l180 -180l-230 -230l230 -230z" />
    <glyph glyph-name="Oslash" unicode="&#xd8;" horiz-adv-x="1604" 
d="M436 -110h-242l138 228q-294 190 -294 578q0 308 218 510t546 202q152 0 278 -44l88 146h242l-144 -238q300 -200 300 -576q0 -308 -216 -514t-548 -206q-150 0 -286 48zM538 462l352 588q-44 10 -82 10q-61 0 -122 -21t-111 -65.5t-80.5 -113.5t-30.5 -166
q0 -134 74 -232zM808 322q60 0 118.5 21.5t107 66.5t77.5 115.5t29 168.5q0 138 -78 238l-356 -594q52 -16 102 -16z" />
    <glyph glyph-name="Ugrave" unicode="&#xd9;" horiz-adv-x="1490" 
d="M750 -28q-184 0 -328 63t-235 203t-91 342v822h416v-822q0 -136 75 -199t163 -63q94 0 161 61t67 201v822h416v-822q0 -290 -179 -449t-465 -159zM666 1496l-270 244l318 116l218 -340z" />
    <glyph glyph-name="Uacute" unicode="&#xda;" horiz-adv-x="1490" 
d="M750 -28q-184 0 -328 63t-235 203t-91 342v822h416v-822q0 -136 75 -199t163 -63q94 0 161 61t67 201v822h416v-822q0 -290 -179 -449t-465 -159zM808 1496l-264 20l254 340l316 -116z" />
    <glyph glyph-name="Ucircumflex" unicode="&#xdb;" horiz-adv-x="1490" 
d="M750 -28q-184 0 -328 63t-235 203t-91 342v822h416v-822q0 -136 75 -199t163 -63q94 0 161 61t67 201v822h416v-822q0 -290 -179 -449t-465 -159zM1140 1510h-268l-124 138l-126 -138h-268l220 314h346z" />
    <glyph glyph-name="Udieresis" unicode="&#xdc;" horiz-adv-x="1490" 
d="M750 -28q-184 0 -328 63t-235 203t-91 342v822h416v-822q0 -136 75 -199t163 -63q94 0 161 61t67 201v822h416v-822q0 -290 -179 -449t-465 -159zM548 1506q-84 0 -124 49t-40 117t40 117t124 49q86 0 126 -50t40 -116t-40 -116t-126 -50zM942 1506q-84 0 -124 49
t-40 117t40 117t124 49q86 0 126 -50t40 -116t-40 -116t-126 -50z" />
    <glyph glyph-name="Yacute" unicode="&#xdd;" horiz-adv-x="1404" 
d="M914 0h-416v436l-514 966h416l306 -572l298 572h414l-504 -958v-444zM764 1496l-264 20l254 340l316 -116z" />
    <glyph glyph-name="Thorn" unicode="&#xde;" horiz-adv-x="1388" 
d="M534 0h-416v1402h416v-178h220q204 0 335 -64q135 -68 196 -180t61 -246q0 -141 -60.5 -260t-196.5 -192q-131 -68 -335 -68h-220v-214zM736 530q172 0 182 192q0 76 -42 130t-140 54h-202v-376h202z" />
    <glyph glyph-name="germandbls" unicode="&#xdf;" horiz-adv-x="1334" 
d="M712 0h-96v284h62q212 0 212 152q0 150 -218 150h-48v284q180 0 180 166t-146 166q-154 0 -158 -184v-1018h-404v988q0 250 156 382t402 132q108 0 206 -23.5t173.5 -73t119 -126t43.5 -183.5q0 -198 -172 -328q116 -32 187 -114t71 -222q0 -114 -60.5 -213t-191.5 -161
q-126 -58 -318 -58z" />
    <glyph glyph-name="agrave" unicode="&#xe0;" horiz-adv-x="1214" 
d="M408 -18q-130 0 -211 46t-119 124t-38 172q0 316 420 330h266q0 148 -188 148q-128 0 -328 -78l-100 268q272 112 524 112q301 0 425 -168q63 -88 63 -230v-706h-396v120q-102 -138 -318 -138zM528 1190l-270 244l318 116l218 -340zM542 246q124 0 184 112v98h-184
q-118 0 -122 -102q0 -102 122 -108z" />
    <glyph glyph-name="aacute" unicode="&#xe1;" horiz-adv-x="1214" 
d="M408 -18q-130 0 -211 46t-119 124t-38 172q0 316 420 330h266q0 148 -188 148q-128 0 -328 -78l-100 268q272 112 524 112q301 0 425 -168q63 -88 63 -230v-706h-396v120q-102 -138 -318 -138zM672 1190l-264 20l254 340l316 -116zM542 246q124 0 184 112v98h-184
q-118 0 -122 -102q0 -102 122 -108z" />
    <glyph glyph-name="acircumflex" unicode="&#xe2;" horiz-adv-x="1214" 
d="M408 -18q-130 0 -211 46t-119 124t-38 172q0 316 420 330h266q0 148 -188 148q-128 0 -328 -78l-100 268q272 112 524 112q301 0 425 -168q63 -88 63 -230v-706h-396v120q-102 -138 -318 -138zM1000 1218h-268l-124 138l-126 -138h-268l220 314h346zM542 246
q124 0 184 112v98h-184q-118 0 -122 -102q0 -102 122 -108z" />
    <glyph glyph-name="atilde" unicode="&#xe3;" horiz-adv-x="1214" 
d="M408 -18q-130 0 -211 46t-119 124t-38 172q0 316 420 330h266q0 148 -188 148q-128 0 -328 -78l-100 268q272 112 524 112q301 0 425 -168q63 -88 63 -230v-706h-396v120q-102 -138 -318 -138zM792 1192q-84 0 -184 54q-50 32 -86 32q-56 0 -56 -80h-218q0 334 204 334
q84 0 186 -54q48 -30 80 -30q60 0 60 66v12h216q0 -334 -202 -334zM542 246q124 0 184 112v98h-184q-118 0 -122 -102q0 -102 122 -108z" />
    <glyph glyph-name="adieresis" unicode="&#xe4;" horiz-adv-x="1214" 
d="M408 -18q-130 0 -211 46t-119 124t-38 172q0 316 420 330h266q0 148 -188 148q-128 0 -328 -78l-100 268q272 112 524 112q301 0 425 -168q63 -88 63 -230v-706h-396v120q-102 -138 -318 -138zM412 1216q-84 0 -124 49t-40 117t40 117t124 49t124 -49t40 -117t-40 -117
t-124 -49zM542 246q124 0 184 112v98h-184q-118 0 -122 -102q0 -102 122 -108zM806 1216q-84 0 -124 49t-40 117t40 117t124 49t124 -49t40 -117t-40 -117t-124 -49z" />
    <glyph glyph-name="aring" unicode="&#xe5;" horiz-adv-x="1214" 
d="M408 -18q-130 0 -211 46t-119 124t-38 172q0 316 420 330h266q0 148 -188 148q-128 0 -328 -78l-100 268q272 112 524 112q301 0 425 -168q63 -88 63 -230v-706h-396v120q-102 -138 -318 -138zM608 1158q-110 0 -176 72t-66 170q0 114 76 178t166 64q108 0 174 -74
q68 -70 68 -168q0 -110 -74 -176t-168 -66zM542 246q124 0 184 112v98h-184q-118 0 -122 -102q0 -102 122 -108zM608 1318q30 0 57 19.5t27 62.5t-27 62.5t-57 19.5t-57 -19.5t-27 -62.5t27 -62.5t57 -19.5z" />
    <glyph glyph-name="ae" unicode="&#xe6;" horiz-adv-x="1924" 
d="M442 -20q-137 0 -226 45.5t-132.5 123t-43.5 173.5q0 318 422 326h268q0 154 -188 154q-134 0 -340 -78l-92 270q282 110 526 110q226 0 354 -104q130 102 322 102q194 0 321 -78q132 -84 192.5 -220t60.5 -300l-2 -50h-740q38 -170 214 -170q130 0 240 104l210 -206
q-178 -196 -486 -196t-442 212q-128 -218 -438 -218zM544 240q112 0 188 108l-2 110h-184q-120 0 -126 -104q0 -104 124 -114zM1480 644q0 76 -39 131t-127 55q-84 0 -127 -53t-51 -133h344z" />
    <glyph glyph-name="ccedilla" unicode="&#xe7;" horiz-adv-x="1124" 
d="M560 -478q-114 0 -228 40l56 170q52 -16 96 -16q82 0 82 40q0 26 -33 36t-119 10l62 194q-198 36 -318 168t-120 376q0 242 144 402t426 160q344 0 502 -284l-310 -152q-60 108 -174 108q-92 0 -136 -68t-44 -164q0 -98 44 -167t136 -69q118 0 172 120l314 -158
q-116 -236 -414 -276l-38 -106q166 -46 166 -164q0 -106 -80 -153t-186 -47z" />
    <glyph glyph-name="egrave" unicode="&#xe8;" horiz-adv-x="1218" 
d="M624 -14q-198 0 -328 73q-135 79 -196.5 205.5t-61.5 275.5q0 268 161 415t413 147q286 0 427 -164t141 -434l-2 -58h-732q58 -162 212 -162q130 0 240 104l210 -206q-174 -196 -484 -196zM524 1190l-270 244l318 116l218 -340zM780 644q0 74 -40 129t-124 55
q-148 0 -178 -184h342z" />
    <glyph glyph-name="eacute" unicode="&#xe9;" horiz-adv-x="1218" 
d="M624 -14q-198 0 -328 73q-135 79 -196.5 205.5t-61.5 275.5q0 268 161 415t413 147q286 0 427 -164t141 -434l-2 -58h-732q58 -162 212 -162q130 0 240 104l210 -206q-174 -196 -484 -196zM668 1190l-264 20l254 340l316 -116zM780 644q0 74 -40 129t-124 55
q-148 0 -178 -184h342z" />
    <glyph glyph-name="ecircumflex" unicode="&#xea;" horiz-adv-x="1218" 
d="M624 -14q-198 0 -328 73q-135 79 -196.5 205.5t-61.5 275.5q0 268 161 415t413 147q286 0 427 -164t141 -434l-2 -58h-732q58 -162 212 -162q130 0 240 104l210 -206q-174 -196 -484 -196zM996 1218h-268l-124 138l-126 -138h-268l220 314h346zM780 644q0 74 -40 129
t-124 55q-148 0 -178 -184h342z" />
    <glyph glyph-name="edieresis" unicode="&#xeb;" horiz-adv-x="1218" 
d="M624 -14q-198 0 -328 73q-135 79 -196.5 205.5t-61.5 275.5q0 268 161 415t413 147q286 0 427 -164t141 -434l-2 -58h-732q58 -162 212 -162q130 0 240 104l210 -206q-174 -196 -484 -196zM408 1216q-84 0 -124 49t-40 117t40 117t124 49t124 -49t40 -117t-40 -117
t-124 -49zM780 644q0 74 -40 129t-124 55q-148 0 -178 -184h342zM802 1216q-84 0 -124 49t-40 117t40 117t124 49t124 -49t40 -117t-40 -117t-124 -49z" />
    <glyph glyph-name="igrave" unicode="&#xec;" horiz-adv-x="648" 
d="M246 1190l-270 244l318 116l218 -340zM526 0h-404v1088h404v-1088z" />
    <glyph glyph-name="iacute" unicode="&#xed;" horiz-adv-x="648" 
d="M526 0h-404v1088h404v-1088zM390 1190l-264 20l254 340l316 -116z" />
    <glyph glyph-name="icircumflex" unicode="&#xee;" horiz-adv-x="648" 
d="M718 1218h-268l-124 138l-126 -138h-268l220 314h346zM526 0h-404v1088h404v-1088z" />
    <glyph glyph-name="idieresis" unicode="&#xef;" horiz-adv-x="648" 
d="M134 1216q-84 0 -124 49t-40 117t40 117t124 49q86 0 125 -50t39 -116t-39 -116t-125 -50zM526 0h-404v1088h404v-1088zM520 1216q-84 0 -124 49t-40 117t40 117t124 49t124 -49t40 -117t-40 -117t-124 -49z" />
    <glyph glyph-name="eth" unicode="&#xf0;" horiz-adv-x="1222" 
d="M568 -20q-184 0 -303 63q-124 68 -179.5 175.5t-55.5 233.5q0 216 129 329t325 113q182 0 304 -98q-14 170 -200 318l-354 -160l-70 144l270 124q-118 68 -250 118l270 162q152 -56 282 -142l288 132l70 -148l-214 -98q304 -286 304 -658q0 -264 -157 -436t-459 -172z
M582 314q72 0 121 37t49 119q0 64 -40 110t-130 46q-68 0 -117 -35t-49 -119q0 -82 49 -120t117 -38z" />
    <glyph glyph-name="ntilde" unicode="&#xf1;" horiz-adv-x="1356" 
d="M1264 0h-404v574q0 94 -47 135t-109 41q-178 -20 -178 -212v-538h-404v1088h404v-168q118 184 346 184q164 0 278 -100t114 -314v-690zM898 1192q-86 0 -184 54q-50 32 -86 32q-56 0 -56 -80h-218q0 334 204 334q84 0 186 -54q48 -30 80 -30q60 0 60 66v12h216
q0 -334 -202 -334z" />
    <glyph glyph-name="ograve" unicode="&#xf2;" horiz-adv-x="1286" 
d="M644 -14q-266 0 -436 145t-170 413q0 264 170 411t436 147q268 0 434 -146q170 -144 170 -412q0 -244 -157 -401t-447 -157zM564 1190l-270 244l318 116l218 -340zM644 298q80 0 138 58t58 184q0 100 -48 171t-148 71q-108 0 -153 -75t-45 -167q0 -100 49 -171t149 -71z
" />
    <glyph glyph-name="oacute" unicode="&#xf3;" horiz-adv-x="1286" 
d="M644 -14q-266 0 -436 145t-170 413q0 264 170 411t436 147q268 0 434 -146q170 -144 170 -412q0 -244 -157 -401t-447 -157zM708 1190l-264 20l254 340l316 -116zM644 298q80 0 138 58t58 184q0 100 -48 171t-148 71q-108 0 -153 -75t-45 -167q0 -100 49 -171t149 -71z
" />
    <glyph glyph-name="ocircumflex" unicode="&#xf4;" horiz-adv-x="1286" 
d="M644 -14q-266 0 -436 145t-170 413q0 264 170 411t436 147q268 0 434 -146q170 -144 170 -412q0 -244 -157 -401t-447 -157zM1036 1218h-268l-124 138l-126 -138h-268l220 314h346zM644 298q80 0 138 58t58 184q0 100 -48 171t-148 71q-108 0 -153 -75t-45 -167
q0 -100 49 -171t149 -71z" />
    <glyph glyph-name="otilde" unicode="&#xf5;" horiz-adv-x="1286" 
d="M644 -14q-266 0 -436 145t-170 413q0 264 170 411t436 147q268 0 434 -146q170 -144 170 -412q0 -244 -157 -401t-447 -157zM828 1192q-84 0 -184 54q-50 32 -86 32q-56 0 -56 -80h-218q0 334 204 334q84 0 186 -54q48 -30 80 -30q60 0 60 66v12h216q0 -334 -202 -334z
M644 298q80 0 138 58t58 184q0 100 -48 171t-148 71q-108 0 -153 -75t-45 -167q0 -100 49 -171t149 -71z" />
    <glyph glyph-name="odieresis" unicode="&#xf6;" horiz-adv-x="1286" 
d="M644 -14q-266 0 -436 145t-170 413q0 264 170 411t436 147q268 0 434 -146q170 -144 170 -412q0 -244 -157 -401t-447 -157zM448 1216q-84 0 -124 49t-40 117t40 117t124 49t124 -49t40 -117t-40 -117t-124 -49zM644 298q80 0 138 58t58 184q0 100 -48 171t-148 71
q-108 0 -153 -75t-45 -167q0 -100 49 -171t149 -71zM842 1216q-84 0 -124 49t-40 117t40 117t124 49t124 -49t40 -117t-40 -117t-124 -49z" />
    <glyph glyph-name="divide" unicode="&#xf7;" horiz-adv-x="1030" 
d="M968 530h-906v252h906v-252zM516 126q-74 0 -123 49t-49 123q0 90 51 130t121 40q86 0 128 -50t42 -120t-40 -121t-130 -51zM516 844q-74 0 -123 49t-49 123q0 90 51 130t121 40q86 0 128 -50t42 -120t-40 -121t-130 -51z" />
    <glyph glyph-name="oslash" unicode="&#xf8;" horiz-adv-x="1286" 
d="M254 -166h-174l178 262q-220 160 -220 448q0 264 170 411t436 147q144 0 264 -46l134 198h174l-180 -266q212 -156 212 -444q0 -244 -157 -401t-447 -157q-146 0 -258 44zM452 384l280 412q-40 18 -88 18q-116 0 -170 -81t-54 -193q0 -92 32 -156zM644 264q92 0 158 66
t66 210q0 90 -32 152l-280 -410q40 -18 88 -18z" />
    <glyph glyph-name="ugrave" unicode="&#xf9;" horiz-adv-x="1336" 
d="M476 -18q-104 0 -202 50q-80 40 -131 131t-51 235v690h404v-576q0 -166 146 -174q90 12 129 72t39 140v538h404v-1088h-404v162q-114 -180 -334 -180zM588 1190l-270 244l318 116l218 -340z" />
    <glyph glyph-name="uacute" unicode="&#xfa;" horiz-adv-x="1336" 
d="M476 -18q-104 0 -202 50q-80 40 -131 131t-51 235v690h404v-576q0 -166 146 -174q90 12 129 72t39 140v538h404v-1088h-404v162q-114 -180 -334 -180zM732 1190l-264 20l254 340l316 -116z" />
    <glyph glyph-name="ucircumflex" unicode="&#xfb;" horiz-adv-x="1336" 
d="M476 -18q-104 0 -202 50q-80 40 -131 131t-51 235v690h404v-576q0 -166 146 -174q90 12 129 72t39 140v538h404v-1088h-404v162q-114 -180 -334 -180zM1060 1218h-268l-124 138l-126 -138h-268l220 314h346z" />
    <glyph glyph-name="udieresis" unicode="&#xfc;" horiz-adv-x="1336" 
d="M476 -18q-104 0 -202 50q-80 40 -131 131t-51 235v690h404v-576q0 -166 146 -174q90 12 129 72t39 140v538h404v-1088h-404v162q-114 -180 -334 -180zM472 1216q-84 0 -124 49t-40 117t40 117t124 49t124 -49t40 -117t-40 -117t-124 -49zM866 1216q-84 0 -124 49t-40 117
t40 117t124 49t124 -49t40 -117t-40 -117t-124 -49z" />
    <glyph glyph-name="yacute" unicode="&#xfd;" horiz-adv-x="1210" 
d="M318 -406q-200 0 -350 120l168 270q64 -62 146 -62q102 0 138 108l-450 1058h414l238 -666l202 666h402l-456 -1180q-122 -314 -452 -314zM670 1190l-264 20l254 340l316 -116z" />
    <glyph glyph-name="thorn" unicode="&#xfe;" horiz-adv-x="1376" 
d="M536 -388h-404v1872h404v-522q110 140 298 140q218 0 361 -145t143 -419q0 -234 -122 -393t-372 -159q-190 0 -308 142v-516zM732 306q108 0 153 75t45 167t-45 167t-153 75q-78 0 -137 -58t-59 -184t59 -184t137 -58z" />
    <glyph glyph-name="ydieresis" unicode="&#xff;" horiz-adv-x="1210" 
d="M318 -406q-200 0 -350 120l168 270q64 -62 146 -62q102 0 138 108l-450 1058h414l238 -666l202 666h402l-456 -1180q-122 -314 -452 -314zM410 1216q-84 0 -124 49t-40 117t40 117t124 49t124 -49t40 -117t-40 -117t-124 -49zM804 1216q-84 0 -124 49t-40 117t40 117
t124 49t124 -49t40 -117t-40 -117t-124 -49z" />
    <glyph glyph-name="Amacron" unicode="&#x100;" horiz-adv-x="1572" 
d="M1588 0h-444l-82 224h-566l-84 -224h-428l598 1402h428zM1154 1512h-730v230h730v-230zM952 528l-168 458l-172 -458h340z" />
    <glyph glyph-name="amacron" unicode="&#x101;" horiz-adv-x="1214" 
d="M408 -18q-130 0 -211 46t-119 124t-38 172q0 316 420 330h266q0 148 -188 148q-128 0 -328 -78l-100 268q272 112 524 112q301 0 425 -168q63 -88 63 -230v-706h-396v120q-102 -138 -318 -138zM924 1274h-630v230h630v-230zM542 246q124 0 184 112v98h-184
q-118 0 -122 -102q0 -102 122 -108z" />
    <glyph glyph-name="Abreve" unicode="&#x102;" horiz-adv-x="1572" 
d="M1588 0h-444l-82 224h-566l-84 -224h-428l598 1402h428zM788 1508q-174 0 -257 93t-93 241h246q18 -108 104 -108q88 0 104 108h246q-10 -148 -93 -241t-257 -93zM952 528l-168 458l-172 -458h340z" />
    <glyph glyph-name="abreve" unicode="&#x103;" horiz-adv-x="1214" 
d="M408 -18q-130 0 -211 46t-119 124t-38 172q0 316 420 330h266q0 148 -188 148q-128 0 -328 -78l-100 268q272 112 524 112q301 0 425 -168q63 -88 63 -230v-706h-396v120q-102 -138 -318 -138zM608 1196q-174 0 -257 93t-93 241h246q18 -108 104 -108q90 0 104 108h246
q-10 -148 -93 -241t-257 -93zM542 246q124 0 184 112v98h-184q-118 0 -122 -102q0 -102 122 -108z" />
    <glyph glyph-name="Aogonek" unicode="&#x104;" horiz-adv-x="1572" 
d="M1264 -476q-122 0 -175 66t-53 156q0 126 108 254l-82 224h-566l-84 -224h-428l598 1402h428l578 -1402h-130q-146 -92 -146 -188q0 -50 44 -52q20 0 52 16l60 -206q-102 -46 -204 -46zM952 528l-168 458l-172 -458h340z" />
    <glyph glyph-name="aogonek" unicode="&#x105;" horiz-adv-x="1214" 
d="M838 -476q-122 0 -175 66t-53 156q0 134 116 262v112q-102 -138 -318 -138q-130 0 -211 46t-119 124t-38 172q0 316 420 330h266q0 148 -188 148q-128 0 -328 -78l-100 268q272 112 524 112q136 0 250 -40q238 -88 238 -358v-706h-90q-146 -92 -146 -188q0 -50 44 -52
q20 0 52 16l60 -206q-102 -46 -204 -46zM542 246q124 0 184 112v98h-184q-118 0 -122 -102q0 -102 122 -108z" />
    <glyph glyph-name="Cacute" unicode="&#x106;" horiz-adv-x="1380" 
d="M778 -28q-320 0 -530 207t-210 527q0 308 213 515t541 207q324 0 580 -250l-240 -286q-160 190 -334 190q-134 0 -234 -96t-100 -276q0 -67 19 -133.5t59 -120.5t103.5 -87t152.5 -33q164 0 334 164l240 -256q-270 -272 -594 -272zM862 1496l-264 20l254 340l316 -116z
" />
    <glyph glyph-name="cacute" unicode="&#x107;" horiz-adv-x="1124" 
d="M604 -14q-270 0 -418 156t-148 398t144 402t426 160q344 0 502 -284l-310 -152q-60 108 -174 108q-92 0 -136 -68t-44 -164q0 -98 44 -167t136 -69q118 0 172 120l314 -158q-148 -282 -508 -282zM662 1190l-264 20l254 340l316 -116z" />
    <glyph glyph-name="Ccircumflex" unicode="&#x108;" horiz-adv-x="1380" 
d="M778 -28q-320 0 -530 207t-210 527q0 308 213 515t541 207q324 0 580 -250l-240 -286q-160 190 -334 190q-134 0 -234 -96t-100 -276q0 -67 19 -133.5t59 -120.5t103.5 -87t152.5 -33q164 0 334 164l240 -256q-270 -272 -594 -272zM1194 1510h-268l-124 138l-126 -138
h-268l220 314h346z" />
    <glyph glyph-name="ccircumflex" unicode="&#x109;" horiz-adv-x="1124" 
d="M604 -14q-270 0 -418 156t-148 398t144 402t426 160q344 0 502 -284l-310 -152q-60 108 -174 108q-92 0 -136 -68t-44 -164q0 -98 44 -167t136 -69q118 0 172 120l314 -158q-148 -282 -508 -282zM990 1218h-268l-124 138l-126 -138h-268l220 314h346z" />
    <glyph glyph-name="Cdotaccent" unicode="&#x10a;" horiz-adv-x="1380" 
d="M778 -28q-320 0 -530 207t-210 527q0 308 213 515t541 207q324 0 580 -250l-240 -286q-160 190 -334 190q-134 0 -234 -96t-100 -276q0 -67 19 -133.5t59 -120.5t103.5 -87t152.5 -33q164 0 334 164l240 -256q-270 -272 -594 -272zM800 1506q-104 0 -156 63t-52 147
q0 106 62 157t146 51t146 -51t62 -157q0 -84 -52 -147t-156 -63z" />
    <glyph glyph-name="cdotaccent" unicode="&#x10b;" horiz-adv-x="1124" 
d="M604 -14q-270 0 -418 156t-148 398t144 402t426 160q344 0 502 -284l-310 -152q-60 108 -174 108q-92 0 -136 -68t-44 -164q0 -98 44 -167t136 -69q118 0 172 120l314 -158q-148 -282 -508 -282zM598 1190q-84 0 -146 51t-62 157t62 157t146 51q106 0 157 -62t51 -146
q0 -106 -62 -157t-146 -51z" />
    <glyph glyph-name="Ccaron" unicode="&#x10c;" horiz-adv-x="1380" 
d="M778 -28q-320 0 -530 207t-210 527q0 308 213 515t541 207q324 0 580 -250l-240 -286q-160 190 -334 190q-134 0 -234 -96t-100 -276q0 -67 19 -133.5t59 -120.5t103.5 -87t152.5 -33q164 0 334 164l240 -256q-270 -272 -594 -272zM962 1508h-346l-220 314h268l126 -138
l124 138h268z" />
    <glyph glyph-name="ccaron" unicode="&#x10d;" horiz-adv-x="1124" 
d="M604 -14q-270 0 -418 156t-148 398t144 402t426 160q344 0 502 -284l-310 -152q-60 108 -174 108q-92 0 -136 -68t-44 -164q0 -98 44 -167t136 -69q118 0 172 120l314 -158q-148 -282 -508 -282zM772 1216h-346l-220 314h268l126 -138l124 138h268z" />
    <glyph glyph-name="Dcaron" unicode="&#x10e;" horiz-adv-x="1524" 
d="M718 0h-600v1402h614q332 0 543 -183t211 -517q0 -332 -216 -517t-552 -185zM872 1508h-346l-220 314h268l126 -138l124 138h268zM744 326q80 0 152.5 37t119 120t46.5 215q0 188 -99 282t-239 94h-190v-748h210z" />
    <glyph glyph-name="dcaron" unicode="&#x10f;" horiz-adv-x="1630" 
d="M542 -14q-218 0 -361 145t-143 419q0 109 27.5 208.5t86.5 176.5t153 122t227 45q192 0 308 -140v522h404v-1484h-404v124q-110 -138 -298 -138zM644 296q98 0 147 71t49 173q0 100 -48 171t-148 71q-108 0 -153 -75t-45 -167q0 -102 48 -173t150 -71zM1626 1034h-234
v450h294z" />
    <glyph glyph-name="Dcroat" unicode="&#x110;" horiz-adv-x="1524" 
d="M718 0h-600v610h-128v182h128v610h614q332 0 543 -183t211 -517q0 -332 -216 -517t-552 -185zM744 326q80 0 152.5 37t119 120t46.5 215q0 188 -99 282t-239 94h-190v-282h294v-182h-294v-284h210z" />
    <glyph glyph-name="dcroat" unicode="&#x111;" horiz-adv-x="1376" 
d="M540 -14q-102 0 -192.5 30t-160 93.5t-109.5 163t-40 239.5q0 224 127 369t365 145q194 0 310 -134v252h-322v186h322v154h404v-154h124v-186h-124v-1146h-404v120q-114 -132 -300 -132zM644 296q98 0 147 61t49 145q0 102 -58 153t-138 51q-74 0 -136 -45t-62 -159
q0 -82 47 -144t151 -62z" />
    <glyph glyph-name="Emacron" unicode="&#x112;" horiz-adv-x="1366" 
d="M1284 0h-1166v1402h1146v-320h-730v-220h662v-320h-662v-222h750v-320zM1064 1512h-730v230h730v-230z" />
    <glyph glyph-name="emacron" unicode="&#x113;" horiz-adv-x="1218" 
d="M624 -14q-198 0 -328 73q-135 79 -196.5 205.5t-61.5 275.5q0 268 161 415t413 147q286 0 427 -164t141 -434l-2 -58h-732q58 -162 212 -162q130 0 240 104l210 -206q-174 -196 -484 -196zM920 1274h-630v230h630v-230zM780 644q0 74 -40 129t-124 55q-148 0 -178 -184
h342z" />
    <glyph glyph-name="Ebreve" unicode="&#x114;" horiz-adv-x="1366" 
d="M1284 0h-1166v1402h1146v-320h-730v-220h662v-320h-662v-222h750v-320zM698 1508q-174 0 -257 93t-93 241h246q18 -108 104 -108q90 0 104 108h246q-10 -148 -93 -241t-257 -93z" />
    <glyph glyph-name="ebreve" unicode="&#x115;" horiz-adv-x="1218" 
d="M624 -14q-198 0 -328 73q-135 79 -196.5 205.5t-61.5 275.5q0 268 161 415t413 147q286 0 427 -164t141 -434l-2 -58h-732q58 -162 212 -162q130 0 240 104l210 -206q-174 -196 -484 -196zM604 1196q-174 0 -257 93t-93 241h246q18 -108 104 -108q88 0 104 108h246
q-10 -148 -93 -241t-257 -93zM780 644q0 74 -40 129t-124 55q-148 0 -178 -184h342z" />
    <glyph glyph-name="Edotaccent" unicode="&#x116;" horiz-adv-x="1366" 
d="M1284 0h-1166v1402h1146v-320h-730v-220h662v-320h-662v-222h750v-320zM698 1506q-104 0 -156 63t-52 147q0 106 62 157t146 51q106 0 157 -62t51 -146t-52 -147t-156 -63z" />
    <glyph glyph-name="edotaccent" unicode="&#x117;" horiz-adv-x="1218" 
d="M624 -14q-198 0 -328 73q-135 79 -196.5 205.5t-61.5 275.5q0 268 161 415t413 147q286 0 427 -164t141 -434l-2 -58h-732q58 -162 212 -162q130 0 240 104l210 -206q-174 -196 -484 -196zM604 1190q-84 0 -146 51t-62 157t62 157t146 51q106 0 157 -62t51 -146
q0 -106 -62 -157t-146 -51zM780 644q0 74 -40 129t-124 55q-148 0 -178 -184h342z" />
    <glyph glyph-name="Eogonek" unicode="&#x118;" horiz-adv-x="1366" 
d="M1090 -476q-122 0 -175 66t-53 156q0 126 108 254h-852v1402h1146v-320h-730v-220h662v-320h-662v-222h750v-320q-146 -92 -146 -188q0 -50 44 -52q20 0 52 16l60 -206q-102 -46 -204 -46z" />
    <glyph glyph-name="eogonek" unicode="&#x119;" horiz-adv-x="1218" 
d="M826 -476q-96 0 -166 51t-70 169q0 130 112 246l-78 -4q-198 0 -328 73q-135 79 -196.5 205.5t-61.5 275.5q0 268 161 415t413 147q286 0 427 -164t141 -434l-2 -58h-732q58 -162 212 -162q130 0 240 104l210 -206q-18 -20 -58 -56q-182 -170 -182 -308q0 -58 38 -58
q30 0 58 16l60 -206q-104 -46 -198 -46zM780 644q0 74 -40 129t-124 55q-148 0 -178 -184h342z" />
    <glyph glyph-name="Ecaron" unicode="&#x11a;" horiz-adv-x="1366" 
d="M1284 0h-1166v1402h1146v-320h-730v-220h662v-320h-662v-222h750v-320zM860 1508h-346l-220 314h268l126 -138l124 138h268z" />
    <glyph glyph-name="ecaron" unicode="&#x11b;" horiz-adv-x="1218" 
d="M624 -14q-198 0 -328 73q-135 79 -196.5 205.5t-61.5 275.5q0 268 161 415t413 147q286 0 427 -164t141 -434l-2 -58h-732q58 -162 212 -162q130 0 240 104l210 -206q-174 -196 -484 -196zM778 1216h-346l-220 314h268l126 -138l124 138h268zM780 644q0 74 -40 129
t-124 55q-148 0 -178 -184h342z" />
    <glyph glyph-name="Gcircumflex" unicode="&#x11c;" horiz-adv-x="1480" 
d="M792 -18q-328 0 -541 206t-213 512q0 308 222 511t560 203q326 0 592 -212l-236 -286q-172 152 -358 152q-164 0 -259 -109t-95 -259q0 -124 51 -206t132.5 -123t174.5 -41q94 0 214 56l2 134h-238v282h590l2 -640q-276 -180 -600 -180zM1128 1510h-268l-124 138
l-126 -138h-268l220 314h346z" />
    <glyph glyph-name="gcircumflex" unicode="&#x11d;" horiz-adv-x="1302" 
d="M588 -406q-306 0 -502 142l134 272q166 -100 334 -100q220 0 232 174v110q-106 -130 -292 -130q-85 0 -166 29.5t-146.5 93t-104.5 163.5t-39 240q0 244 129 379t319 135q192 0 300 -132v118h400v-994q0 -242 -170 -371t-428 -129zM1012 1218h-268l-124 138l-126 -138
h-268l220 314h346zM600 352q96 0 141 66t45 158q0 96 -46 162t-140 66t-139 -67t-45 -161q0 -92 45 -158t139 -66z" />
    <glyph glyph-name="Gbreve" unicode="&#x11e;" horiz-adv-x="1480" 
d="M792 -18q-328 0 -541 206t-213 512q0 308 222 511t560 203q326 0 592 -212l-236 -286q-172 152 -358 152q-164 0 -259 -109t-95 -259q0 -124 51 -206t132.5 -123t174.5 -41q94 0 214 56l2 134h-238v282h590l2 -640q-276 -180 -600 -180zM736 1508q-174 0 -257 93t-93 241
h246q18 -108 104 -108q88 0 104 108h246q-10 -148 -93 -241t-257 -93z" />
    <glyph glyph-name="gbreve" unicode="&#x11f;" horiz-adv-x="1302" 
d="M588 -406q-306 0 -502 142l134 272q166 -100 334 -100q220 0 232 174v110q-106 -130 -292 -130q-85 0 -166 29.5t-146.5 93t-104.5 163.5t-39 240q0 244 129 379t319 135q192 0 300 -132v118h400v-994q0 -242 -170 -371t-428 -129zM620 1196q-174 0 -257 93t-93 241h246
q18 -108 104 -108q88 0 104 108h246q-10 -148 -93 -241t-257 -93zM600 352q96 0 141 66t45 158q0 96 -46 162t-140 66t-139 -67t-45 -161q0 -92 45 -158t139 -66z" />
    <glyph glyph-name="Gdotaccent" unicode="&#x120;" horiz-adv-x="1480" 
d="M792 -18q-328 0 -541 206t-213 512q0 308 222 511t560 203q326 0 592 -212l-236 -286q-172 152 -358 152q-164 0 -259 -109t-95 -259q0 -124 51 -206t132.5 -123t174.5 -41q94 0 214 56l2 134h-238v282h590l2 -640q-276 -180 -600 -180zM736 1506q-104 0 -156 63t-52 147
q0 106 62 157t146 51q106 0 157 -62t51 -146t-52 -147t-156 -63z" />
    <glyph glyph-name="gdotaccent" unicode="&#x121;" horiz-adv-x="1302" 
d="M588 -406q-306 0 -502 142l134 272q166 -100 334 -100q220 0 232 174v110q-106 -130 -292 -130q-85 0 -166 29.5t-146.5 93t-104.5 163.5t-39 240q0 244 129 379t319 135q192 0 300 -132v118h400v-994q0 -242 -170 -371t-428 -129zM620 1190q-84 0 -146 51t-62 157
t62 157t146 51q106 0 157 -62t51 -146q0 -106 -62 -157t-146 -51zM600 352q96 0 141 66t45 158q0 96 -46 162t-140 66t-139 -67t-45 -161q0 -92 45 -158t139 -66z" />
    <glyph glyph-name="uni0122" unicode="&#x122;" horiz-adv-x="1480" 
d="M792 -18q-328 0 -541 206t-213 512q0 308 222 511t560 203q326 0 592 -212l-236 -286q-172 152 -358 152q-164 0 -259 -109t-95 -259q0 -124 51 -206t132.5 -123t174.5 -41q94 0 214 56l2 134h-238v282h590l2 -640q-276 -180 -600 -180zM768 -478h-224l64 358h320z" />
    <glyph glyph-name="uni0123" unicode="&#x123;" horiz-adv-x="1302" 
d="M588 -406q-306 0 -502 142l134 272q166 -100 334 -100q220 0 232 174v110q-106 -130 -292 -130q-85 0 -166 29.5t-146.5 93t-104.5 163.5t-39 240q0 244 129 379t319 135q192 0 300 -132v118h400v-994q0 -242 -170 -371t-428 -129zM600 352q96 0 141 66t45 158
q0 96 -46 162t-140 66t-139 -67t-45 -161q0 -92 45 -158t139 -66zM742 1218h-320l160 358h224z" />
    <glyph glyph-name="Hcircumflex" unicode="&#x124;" horiz-adv-x="1566" 
d="M1448 0h-416v522h-498v-522h-416v1402h416v-558h498v558h416v-1402zM1196 1510h-268l-124 138l-126 -138h-268l220 314h346z" />
    <glyph glyph-name="hcircumflex" unicode="&#x125;" horiz-adv-x="1366" 
d="M716 1614h-268l-124 138l-126 -138h-268l220 314h346zM1274 0h-404v574q0 166 -156 176q-178 -20 -178 -212v-538h-404v1484h404v-564q118 184 346 184q166 0 279 -102t113 -312v-690z" />
    <glyph glyph-name="Hbar" unicode="&#x126;" horiz-adv-x="1726" 
d="M1526 0h-416v522h-498v-522h-416v1030h-186v184h186v188h416v-188h498v188h416v-188h182v-184h-182v-1030zM1110 842v188h-498v-188h498z" />
    <glyph glyph-name="hbar" unicode="&#x127;" horiz-adv-x="1366" 
d="M1274 0h-404v496q0 162 -156 174q-164 0 -178 -212v-458h-404v1144h-124v186h124v154h404v-154h324v-186h-324v-302q118 184 346 184q166 0 279 -106t113 -310v-610z" />
    <glyph glyph-name="Itilde" unicode="&#x128;" horiz-adv-x="652" 
d="M510 1504q-86 0 -184 54q-50 32 -86 32q-56 0 -56 -80h-218q0 334 204 334q84 0 186 -54q48 -30 80 -30q60 0 60 66v12h216q0 -334 -202 -334zM534 0h-416v1402h416v-1402z" />
    <glyph glyph-name="itilde" unicode="&#x129;" horiz-adv-x="648" 
d="M502 1188q-82 0 -170 54q-44 28 -72 28q-48 0 -52 -76h-218q0 334 192 334q82 0 170 -50q40 -26 70 -26q52 0 56 70h216q0 -334 -192 -334zM526 0h-404v1088h404v-1088z" />
    <glyph glyph-name="Imacron" unicode="&#x12a;" horiz-adv-x="652" 
d="M642 1512h-630v230h630v-230zM534 0h-416v1402h416v-1402z" />
    <glyph glyph-name="imacron" unicode="&#x12b;" horiz-adv-x="648" 
d="M618 1274h-582v230h582v-230zM526 0h-404v1088h404v-1088z" />
    <glyph glyph-name="Ibreve" unicode="&#x12c;" horiz-adv-x="652" 
d="M326 1508q-174 0 -257 93t-93 241h246q18 -108 104 -108q90 0 104 108h246q-10 -148 -93 -241t-257 -93zM534 0h-416v1402h416v-1402z" />
    <glyph glyph-name="ibreve" unicode="&#x12d;" horiz-adv-x="648" 
d="M326 1196q-174 0 -257 93t-93 241h246q18 -108 104 -108q90 0 104 108h246q-10 -148 -93 -241t-257 -93zM526 0h-404v1088h404v-1088z" />
    <glyph glyph-name="Iogonek" unicode="&#x12e;" horiz-adv-x="652" 
d="M232 -476q-122 0 -175 66t-53 156q0 130 114 260v1396h416v-1402h-108q-146 -92 -146 -188q0 -50 44 -52q20 0 52 16l60 -206q-102 -46 -204 -46z" />
    <glyph glyph-name="iogonek" unicode="&#x12f;" horiz-adv-x="648" 
d="M238 -476q-122 0 -175 66t-53 156q0 128 112 258v1084h404v-1088h-94q-146 -92 -146 -188q0 -50 44 -52q20 0 52 16l60 -206q-102 -46 -204 -46zM326 1190q-84 0 -146 51t-62 157t62 157t146 51t146 -51t62 -157q0 -84 -51 -146t-157 -62z" />
    <glyph glyph-name="Idotaccent" unicode="&#x130;" horiz-adv-x="652" 
d="M534 0h-416v1402h416v-1402zM326 1506q-104 0 -156 63t-52 147q0 106 62 157t146 51t146 -51t62 -157q0 -84 -52 -147t-156 -63z" />
    <glyph glyph-name="dotlessi" unicode="&#x131;" horiz-adv-x="648" 
d="M526 0h-404v1088h404v-1088z" />
    <glyph glyph-name="IJ" unicode="&#x132;" horiz-adv-x="1760" 
d="M534 0h-416v1402h416v-1402zM1156 -18q-308 0 -518 234l190 274q172 -158 294 -158q124 0 124 142v596h-476v332h896v-938q0 -168 -66 -274q-72 -110 -188.5 -159t-255.5 -49z" />
    <glyph glyph-name="ij" unicode="&#x133;" horiz-adv-x="1300" 
d="M326 1190q-84 0 -146 51t-62 157t62 157t146 51t146 -51t62 -157q0 -84 -51 -146t-157 -62zM526 0h-404v1088h404v-1088zM770 -404q-142 0 -250 44l78 282q42 -12 84 -12q96 0 96 114v1064h404v-1126q0 -105 -43.5 -188t-134.5 -130.5t-234 -47.5zM978 1190
q-106 0 -157 62t-51 146q0 106 62 157t146 51q106 0 157 -62t51 -146q0 -106 -62 -157t-146 -51z" />
    <glyph glyph-name="Jcircumflex" unicode="&#x134;" horiz-adv-x="1108" 
d="M504 -18q-308 0 -518 234l190 274q172 -158 294 -158q124 0 124 142v596h-476v332h896v-938q0 -168 -66 -274q-72 -110 -188.5 -159t-255.5 -49zM954 1510h-268l-124 138l-126 -138h-268l220 314h346z" />
    <glyph glyph-name="jcircumflex" unicode="&#x135;" horiz-adv-x="652" 
d="M122 -404q-142 0 -250 44l78 282q42 -12 84 -12q96 0 96 114v1064h404v-1126q0 -105 -43.5 -188t-134.5 -130.5t-234 -47.5zM722 1218h-268l-124 138l-126 -138h-268l220 314h346z" />
    <glyph glyph-name="uni0136" unicode="&#x136;" horiz-adv-x="1522" 
d="M1516 0h-498l-328 516l-156 -172v-344h-416v1402h416v-562l470 562h480l-510 -568zM734 -478h-224l64 358h320z" />
    <glyph glyph-name="uni0137" unicode="&#x137;" horiz-adv-x="1296" 
d="M1294 0h-478l-198 378l-82 -86v-292h-404v1484h404v-722l300 326h456l-398 -420zM656 -478h-224l64 358h320z" />
    <glyph glyph-name="kgreenlandic" unicode="&#x138;" horiz-adv-x="1282" 
d="M1280 0h-478l-196 376l-80 -82v-294h-404v1088h404v-348l296 348h458l-398 -420z" />
    <glyph glyph-name="Lacute" unicode="&#x139;" horiz-adv-x="1148" 
d="M378 1496l-264 20l254 340l316 -116zM1122 0h-1004v1402h416v-1054h588v-348z" />
    <glyph glyph-name="lacute" unicode="&#x13a;" horiz-adv-x="720" 
d="M518 -20q-172 0 -294 108t-122 332v1064h404v-1052q0 -104 94 -104q46 0 100 26l28 -332q-112 -42 -210 -42zM370 1586l-264 20l254 340l316 -116z" />
    <glyph glyph-name="uni013B" unicode="&#x13b;" horiz-adv-x="1148" 
d="M1122 0h-1004v1402h416v-1054h588v-348zM616 -478h-224l64 358h320z" />
    <glyph glyph-name="uni013C" unicode="&#x13c;" horiz-adv-x="720" 
d="M518 -20q-172 0 -294 108t-122 332v1064h404v-1052q0 -104 94 -104q46 0 100 26l28 -332q-112 -42 -210 -42zM438 -478h-224l64 358h320z" />
    <glyph glyph-name="Lcaron" unicode="&#x13d;" horiz-adv-x="1148" 
d="M1122 0h-1004v1402h416v-1054h588v-348zM1062 952h-234v450h294z" />
    <glyph glyph-name="lcaron" unicode="&#x13e;" horiz-adv-x="888" 
d="M518 -20q-172 0 -294 108t-122 332v1064h404v-1052q0 -104 94 -104q46 0 100 26l28 -332q-112 -42 -210 -42zM882 1036h-234v450h294z" />
    <glyph glyph-name="Ldot" unicode="&#x13f;" horiz-adv-x="1148" 
d="M1122 0h-1004v1402h416v-1054h588v-348zM886 660q-106 0 -157 62t-51 146t51 146t157 62t157 -62t51 -146q0 -106 -62 -157t-146 -51z" />
    <glyph glyph-name="ldot" unicode="&#x140;" horiz-adv-x="966" 
d="M518 -20q-172 0 -294 108t-122 332v1064h404v-1052q0 -104 94 -104q46 0 100 26l28 -332q-112 -42 -210 -42zM758 710q-106 0 -157 62t-51 146q0 106 62 157t146 51q106 0 157 -62t51 -146q0 -106 -62 -157t-146 -51z" />
    <glyph glyph-name="Lslash" unicode="&#x141;" horiz-adv-x="1248" 
d="M1222 0h-1004v592l-184 -94v216l184 94v594h416v-382l212 108v-216l-212 -108v-456h588v-348z" />
    <glyph glyph-name="lslash" unicode="&#x142;" horiz-adv-x="870" 
d="M626 -20q-172 0 -294 108t-122 332v152l-184 -94v218l184 94v694h404v-488l224 114v-218l-224 -114v-346q0 -104 94 -104q46 0 100 26l28 -332q-112 -42 -210 -42z" />
    <glyph glyph-name="Nacute" unicode="&#x143;" horiz-adv-x="1566" 
d="M1448 0h-354l-594 780v-780h-382v1402h356l594 -782v782h380v-1402zM850 1496l-264 20l254 340l316 -116z" />
    <glyph glyph-name="nacute" unicode="&#x144;" horiz-adv-x="1356" 
d="M1264 0h-404v574q0 94 -47 135t-109 41q-178 -20 -178 -212v-538h-404v1088h404v-168q118 184 346 184q164 0 278 -100t114 -314v-690zM778 1190l-264 20l254 340l316 -116z" />
    <glyph glyph-name="uni0145" unicode="&#x145;" horiz-adv-x="1566" 
d="M1448 0h-354l-594 780v-780h-382v1402h356l594 -782v782h380v-1402zM792 -478h-224l64 358h320z" />
    <glyph glyph-name="uni0146" unicode="&#x146;" horiz-adv-x="1356" 
d="M1264 0h-404v574q0 94 -47 135t-109 41q-178 -20 -178 -212v-538h-404v1088h404v-168q118 184 346 184q164 0 278 -100t114 -314v-690zM686 -478h-224l64 358h320z" />
    <glyph glyph-name="Ncaron" unicode="&#x147;" horiz-adv-x="1566" 
d="M1448 0h-354l-594 780v-780h-382v1402h356l594 -782v782h380v-1402zM950 1508h-346l-220 314h268l126 -138l124 138h268z" />
    <glyph glyph-name="ncaron" unicode="&#x148;" horiz-adv-x="1356" 
d="M1264 0h-404v574q0 94 -47 135t-109 41q-178 -20 -178 -212v-538h-404v1088h404v-168q118 184 346 184q164 0 278 -100t114 -314v-690zM888 1216h-346l-220 314h268l126 -138l124 138h268z" />
    <glyph glyph-name="napostrophe" unicode="&#x149;" horiz-adv-x="1686" 
d="M306 876h-212v526h266zM1594 0h-404v574q0 94 -47 135t-109 41q-178 -20 -178 -212v-538h-404v1088h404v-168q118 184 346 184q164 0 278 -100t114 -314v-690z" />
    <glyph glyph-name="Eng" unicode="&#x14a;" horiz-adv-x="1566" 
d="M940 -440q-200 0 -350 96l142 312q132 -58 208 -58q116 0 132 118l-572 752v-780h-382v1402h356l594 -784v784h380v-1402q-20 -228 -162 -334t-346 -106z" />
    <glyph glyph-name="eng" unicode="&#x14b;" horiz-adv-x="1356" 
d="M848 -404q-170 0 -294 68l94 280q62 -34 116 -34q96 0 96 104v560q0 94 -47 135t-109 41q-178 -20 -178 -212v-538h-404v1088h404v-168q118 184 346 184q164 0 278 -100t114 -314v-732q0 -126 -56 -206q-116 -156 -360 -156z" />
    <glyph glyph-name="Omacron" unicode="&#x14c;" horiz-adv-x="1604" 
d="M802 -28q-328 0 -546 208t-218 524q0 314 217 519t547 205q332 0 548 -206t216 -518q0 -314 -218 -523t-546 -209zM1168 1512h-730v230h730v-230zM808 318q132 0 232 104t100 280t-100 278t-232 102q-61 0 -122 -22t-111 -68.5t-80.5 -118t-30.5 -171.5q0 -124 50 -209.5
t129 -130t165 -44.5z" />
    <glyph glyph-name="omacron" unicode="&#x14d;" horiz-adv-x="1286" 
d="M644 -14q-266 0 -436 145t-170 413q0 264 170 411t436 147q268 0 434 -146q170 -144 170 -412q0 -244 -157 -401t-447 -157zM960 1274h-630v230h630v-230zM644 298q80 0 138 58t58 184q0 100 -48 171t-148 71q-108 0 -153 -75t-45 -167q0 -100 49 -171t149 -71z" />
    <glyph glyph-name="Obreve" unicode="&#x14e;" horiz-adv-x="1604" 
d="M802 -28q-328 0 -546 208t-218 524q0 314 217 519t547 205q332 0 548 -206t216 -518q0 -314 -218 -523t-546 -209zM802 1508q-174 0 -257 93t-93 241h246q18 -108 104 -108q90 0 104 108h246q-10 -148 -93 -241t-257 -93zM808 318q132 0 232 104t100 280t-100 278
t-232 102q-61 0 -122 -22t-111 -68.5t-80.5 -118t-30.5 -171.5q0 -124 50 -209.5t129 -130t165 -44.5z" />
    <glyph glyph-name="obreve" unicode="&#x14f;" horiz-adv-x="1286" 
d="M644 -14q-266 0 -436 145t-170 413q0 264 170 411t436 147q268 0 434 -146q170 -144 170 -412q0 -244 -157 -401t-447 -157zM644 1196q-174 0 -257 93t-93 241h246q18 -108 104 -108q88 0 104 108h246q-10 -148 -93 -241t-257 -93zM644 298q80 0 138 58t58 184
q0 100 -48 171t-148 71q-108 0 -153 -75t-45 -167q0 -100 49 -171t149 -71z" />
    <glyph glyph-name="Ohungarumlaut" unicode="&#x150;" horiz-adv-x="1604" 
d="M802 -28q-328 0 -546 208t-218 524q0 314 217 519t547 205q332 0 548 -206t216 -518q0 -314 -218 -523t-546 -209zM708 1496l-282 20l164 342l296 -102zM808 318q132 0 232 104t100 280t-100 278t-232 102q-61 0 -122 -22t-111 -68.5t-80.5 -118t-30.5 -171.5
q0 -124 50 -209.5t129 -130t165 -44.5zM1126 1496l-282 20l164 342l298 -102z" />
    <glyph glyph-name="ohungarumlaut" unicode="&#x151;" horiz-adv-x="1286" 
d="M644 -14q-266 0 -436 145t-170 413q0 264 170 411t436 147q268 0 434 -146q170 -144 170 -412q0 -244 -157 -401t-447 -157zM550 1190l-282 20l164 342l296 -102zM644 298q80 0 138 58t58 184q0 100 -48 171t-148 71q-108 0 -153 -75t-45 -167q0 -100 49 -171t149 -71z
M968 1190l-282 20l164 342l298 -102z" />
    <glyph glyph-name="OE" unicode="&#x152;" horiz-adv-x="2242" 
d="M2160 0h-1360q-324 0 -543 198t-219 500t217 503t545 201h1340v-320h-730v-220h662v-320h-662v-222h750v-320zM800 332l194 2v730h-194q-80 0 -157 -37t-130 -121q-49 -81 -49 -210q0 -122 48 -202q51 -83 127.5 -122.5t160.5 -39.5z" />
    <glyph glyph-name="oe" unicode="&#x153;" horiz-adv-x="2016" 
d="M1412 -14q-254 0 -380 158q-132 -158 -388 -158q-266 0 -436 145t-170 413q0 264 170 411t436 147q258 0 390 -160q130 160 368 160q196 0 324 -79q133 -85 192.5 -222t59.5 -299l-2 -48h-748q56 -170 220 -170q132 0 242 104l210 -206q-178 -196 -488 -196zM644 298
q80 0 138 58t58 184q0 100 -48 171t-148 71q-108 0 -153 -75t-45 -167q0 -100 49 -171t149 -71zM1572 644q0 76 -39 131t-127 55q-154 0 -184 -186h350z" />
    <glyph glyph-name="Racute" unicode="&#x154;" horiz-adv-x="1450" 
d="M1412 0h-472l-186 378h-220v-378h-416v1402h654q268 0 430 -119t162 -379q0 -312 -236 -446zM778 1496l-264 20l254 340l316 -116zM772 698q196 0 196 194q0 184 -196 190h-238v-384h238z" />
    <glyph glyph-name="racute" unicode="&#x155;" horiz-adv-x="888" 
d="M526 0h-404v1088h404v-172q120 188 342 188v-364l-70 4q-110 0 -191 -52t-81 -172v-520zM552 1190l-264 20l254 340l316 -116z" />
    <glyph glyph-name="uni0156" unicode="&#x156;" horiz-adv-x="1450" 
d="M1412 0h-472l-186 378h-220v-378h-416v1402h654q268 0 430 -119t162 -379q0 -312 -236 -446zM714 -478h-224l64 358h320zM772 698q196 0 196 194q0 184 -196 190h-238v-384h238z" />
    <glyph glyph-name="uni0157" unicode="&#x157;" horiz-adv-x="888" 
d="M320 -478h-224l64 358h320zM526 0h-404v1088h404v-172q120 188 342 188v-364l-70 4q-110 0 -191 -52t-81 -172v-520z" />
    <glyph glyph-name="Rcaron" unicode="&#x158;" horiz-adv-x="1450" 
d="M1412 0h-472l-186 378h-220v-378h-416v1402h654q268 0 430 -119t162 -379q0 -312 -236 -446zM878 1508h-346l-220 314h268l126 -138l124 138h268zM772 698q196 0 196 194q0 184 -196 190h-238v-384h238z" />
    <glyph glyph-name="rcaron" unicode="&#x159;" horiz-adv-x="888" 
d="M662 1216h-346l-220 314h268l126 -138l124 138h268zM526 0h-404v1088h404v-172q120 188 342 188v-364l-70 4q-110 0 -191 -52t-81 -172v-520z" />
    <glyph glyph-name="Sacute" unicode="&#x15a;" horiz-adv-x="1310" 
d="M698 -24q-358 0 -674 228l156 316q157 -115 292.5 -166.5t229.5 -51.5q144 0 144 100q0 64 -80 94q-74 32 -170 56q-120 32 -248 84q-234 104 -234 352q0 148 77 247q89 107 221.5 153t281.5 46q324 0 586 -164l-154 -320q-262 158 -466 158q-116 0 -116 -82
q0 -52 60 -88t194 -67q126 -31 243 -84t191 -169q44 -74 44 -194q0 -158 -82 -257q-88 -103 -219.5 -147t-276.5 -44zM764 1496l-264 20l254 340l316 -116z" />
    <glyph glyph-name="sacute" unicode="&#x15b;" horiz-adv-x="1070" 
d="M540 -18q-286 0 -512 154l124 254q212 -134 394 -134q90 0 90 50q0 64 -168 92q-180 30 -322 160q-66 66 -66 184q0 124 61.5 204.5t167 120t235.5 39.5q248 0 478 -132l-134 -254q-224 114 -356 114q-72 0 -82 -52q0 -64 175 -93t325 -161q68 -68 68 -186
q0 -122 -64 -201q-73 -85 -182 -122t-232 -37zM622 1190l-264 20l254 340l316 -116z" />
    <glyph glyph-name="Scircumflex" unicode="&#x15c;" horiz-adv-x="1310" 
d="M698 -24q-358 0 -674 228l156 316q157 -115 292.5 -166.5t229.5 -51.5q144 0 144 100q0 64 -80 94q-74 32 -170 56q-120 32 -248 84q-234 104 -234 352q0 148 77 247q89 107 221.5 153t281.5 46q324 0 586 -164l-154 -320q-262 158 -466 158q-116 0 -116 -82
q0 -52 60 -88t194 -67q126 -31 243 -84t191 -169q44 -74 44 -194q0 -158 -82 -257q-88 -103 -219.5 -147t-276.5 -44zM1096 1510h-268l-124 138l-126 -138h-268l220 314h346z" />
    <glyph glyph-name="scircumflex" unicode="&#x15d;" horiz-adv-x="1070" 
d="M540 -18q-286 0 -512 154l124 254q212 -134 394 -134q90 0 90 50q0 64 -168 92q-180 30 -322 160q-66 66 -66 184q0 124 61.5 204.5t167 120t235.5 39.5q248 0 478 -132l-134 -254q-224 114 -356 114q-72 0 -82 -52q0 -64 175 -93t325 -161q68 -68 68 -186
q0 -122 -64 -201q-73 -85 -182 -122t-232 -37zM950 1218h-268l-124 138l-126 -138h-268l220 314h346z" />
    <glyph glyph-name="Scedilla" unicode="&#x15e;" horiz-adv-x="1310" 
d="M658 -478q-114 0 -228 40l56 170q52 -16 96 -16q82 0 82 40q0 26 -33 36t-119 10l58 182q-314 42 -546 220l156 316q157 -115 292.5 -166.5t229.5 -51.5q144 0 144 100q0 64 -80 94q-74 32 -170 56q-120 32 -248 84q-234 104 -234 352q0 148 77 247q89 107 221.5 153
t281.5 46q324 0 586 -164l-154 -320q-262 158 -466 158q-116 0 -116 -82q0 -52 60 -88t194 -67q126 -31 243 -84t191 -169q44 -74 44 -194q0 -140 -63 -233t-171.5 -145t-249.5 -66l-34 -94q166 -46 166 -164q0 -106 -80 -153t-186 -47z" />
    <glyph glyph-name="scedilla" unicode="&#x15f;" horiz-adv-x="1070" 
d="M512 -478q-114 0 -228 40l56 170q52 -16 96 -16q82 0 82 40q0 26 -33 36t-119 10l60 186q-222 24 -398 148l124 254q212 -134 394 -134q90 0 90 50q0 64 -168 92q-180 30 -322 160q-66 66 -66 184q0 124 61.5 204.5t167 120t235.5 39.5q248 0 478 -132l-134 -254
q-224 114 -356 114q-72 0 -82 -52q0 -64 175 -93t325 -161q68 -68 68 -186q0 -160 -101 -245t-267 -107l-38 -104q166 -46 166 -164q0 -106 -80 -153t-186 -47z" />
    <glyph glyph-name="Scaron" unicode="&#x160;" horiz-adv-x="1310" 
d="M698 -24q-358 0 -674 228l156 316q157 -115 292.5 -166.5t229.5 -51.5q144 0 144 100q0 64 -80 94q-74 32 -170 56q-120 32 -248 84q-234 104 -234 352q0 148 77 247q89 107 221.5 153t281.5 46q324 0 586 -164l-154 -320q-262 158 -466 158q-116 0 -116 -82
q0 -52 60 -88t194 -67q126 -31 243 -84t191 -169q44 -74 44 -194q0 -158 -82 -257q-88 -103 -219.5 -147t-276.5 -44zM864 1508h-346l-220 314h268l126 -138l124 138h268z" />
    <glyph glyph-name="scaron" unicode="&#x161;" horiz-adv-x="1070" 
d="M540 -18q-286 0 -512 154l124 254q212 -134 394 -134q90 0 90 50q0 64 -168 92q-180 30 -322 160q-66 66 -66 184q0 124 61.5 204.5t167 120t235.5 39.5q248 0 478 -132l-134 -254q-224 114 -356 114q-72 0 -82 -52q0 -64 175 -93t325 -161q68 -68 68 -186
q0 -122 -64 -201q-73 -85 -182 -122t-232 -37zM732 1216h-346l-220 314h268l126 -138l124 138h268z" />
    <glyph glyph-name="uni0162" unicode="&#x162;" horiz-adv-x="1256" 
d="M608 -478q-114 0 -228 40l56 170q52 -16 96 -16q82 0 82 40q0 26 -33 36t-119 10l64 198h-108v1070h-406v332h1232v-332h-408v-1070h-86l-42 -114q166 -46 166 -164q0 -106 -80 -153t-186 -47z" />
    <glyph glyph-name="uni0163" unicode="&#x163;" horiz-adv-x="898" 
d="M532 -478q-114 0 -228 40l56 170q52 -16 96 -16q82 0 82 40q0 26 -33 36t-119 10l62 192q-272 44 -272 346v434h-150v258h150v302h402v-302h268v-258h-268v-372q0 -104 92 -104q52 0 124 32l72 -278q-86 -48 -196 -62l-38 -104q166 -46 166 -164q0 -106 -80 -153
t-186 -47z" />
    <glyph glyph-name="Tcaron" unicode="&#x164;" horiz-adv-x="1256" 
d="M836 0h-418v1070h-406v332h1232v-332h-408v-1070zM820 1508h-346l-220 314h268l126 -138l124 138h268z" />
    <glyph glyph-name="tcaron" unicode="&#x165;" horiz-adv-x="898" 
d="M564 -18q-170 0 -279 87t-109 271v434h-150v258h150v302h402v-302h268v-258h-268v-372q0 -104 92 -104q52 0 124 32l72 -278q-136 -70 -302 -70zM916 1128h-234v356h280z" />
    <glyph glyph-name="Tbar" unicode="&#x166;" horiz-adv-x="1256" 
d="M836 0h-418v502h-240v216h240v352h-406v332h1232v-332h-408v-352h236v-216h-236v-502z" />
    <glyph glyph-name="tbar" unicode="&#x167;" horiz-adv-x="898" 
d="M564 -18q-170 0 -279 87t-109 271v132h-150v216h150v124h-150v220h150v302h402v-302h268v-220h-268v-124h268v-216h-268v-70q0 -104 92 -104q52 0 124 32l72 -278q-136 -70 -302 -70z" />
    <glyph glyph-name="Utilde" unicode="&#x168;" horiz-adv-x="1490" 
d="M750 -28q-184 0 -328 63t-235 203t-91 342v822h416v-822q0 -136 75 -199t163 -63q94 0 161 61t67 201v822h416v-822q0 -290 -179 -449t-465 -159zM930 1504q-86 0 -184 54q-50 32 -86 32q-56 0 -56 -80h-218q0 334 204 334q84 0 186 -54q48 -30 80 -30q60 0 60 66v12h216
q0 -334 -202 -334z" />
    <glyph glyph-name="utilde" unicode="&#x169;" horiz-adv-x="1336" 
d="M476 -18q-104 0 -202 50q-80 40 -131 131t-51 235v690h404v-576q0 -166 146 -174q90 12 129 72t39 140v538h404v-1088h-404v162q-114 -180 -334 -180zM852 1192q-84 0 -184 54q-50 32 -86 32q-56 0 -56 -80h-218q0 334 204 334q84 0 186 -54q48 -30 80 -30q60 0 60 66v12
h216q0 -334 -202 -334z" />
    <glyph glyph-name="Umacron" unicode="&#x16a;" horiz-adv-x="1490" 
d="M750 -28q-184 0 -328 63t-235 203t-91 342v822h416v-822q0 -136 75 -199t163 -63q94 0 161 61t67 201v822h416v-822q0 -290 -179 -449t-465 -159zM1112 1512h-730v230h730v-230z" />
    <glyph glyph-name="umacron" unicode="&#x16b;" horiz-adv-x="1336" 
d="M476 -18q-104 0 -202 50q-80 40 -131 131t-51 235v690h404v-576q0 -166 146 -174q90 12 129 72t39 140v538h404v-1088h-404v162q-114 -180 -334 -180zM984 1274h-630v230h630v-230z" />
    <glyph glyph-name="Ubreve" unicode="&#x16c;" horiz-adv-x="1490" 
d="M750 -28q-184 0 -328 63t-235 203t-91 342v822h416v-822q0 -136 75 -199t163 -63q94 0 161 61t67 201v822h416v-822q0 -290 -179 -449t-465 -159zM746 1508q-174 0 -257 93t-93 241h246q18 -108 104 -108q90 0 104 108h246q-10 -148 -93 -241t-257 -93z" />
    <glyph glyph-name="ubreve" unicode="&#x16d;" horiz-adv-x="1336" 
d="M476 -18q-104 0 -202 50q-80 40 -131 131t-51 235v690h404v-576q0 -166 146 -174q90 12 129 72t39 140v538h404v-1088h-404v162q-114 -180 -334 -180zM668 1196q-174 0 -257 93t-93 241h246q18 -108 104 -108q90 0 104 108h246q-10 -148 -93 -241t-257 -93z" />
    <glyph glyph-name="Uring" unicode="&#x16e;" horiz-adv-x="1490" 
d="M750 -28q-184 0 -328 63t-235 203t-91 342v822h416v-822q0 -136 75 -199t163 -63q94 0 161 61t67 201v822h416v-822q0 -290 -179 -449t-465 -159zM746 1472q-110 0 -176 73t-66 169q0 114 76 178t166 64q108 0 174 -74q68 -70 68 -168q0 -110 -74 -176t-168 -66z
M746 1632q30 0 57 19.5t27 62.5t-27 62.5t-57 19.5t-57 -19.5t-27 -62.5t27 -62.5t57 -19.5z" />
    <glyph glyph-name="uring" unicode="&#x16f;" horiz-adv-x="1336" 
d="M476 -18q-104 0 -202 50q-80 40 -131 131t-51 235v690h404v-576q0 -166 146 -174q90 12 129 72t39 140v538h404v-1088h-404v162q-114 -180 -334 -180zM668 1158q-98 0 -170 65t-72 177q0 114 76 178t166 64q108 0 174 -74q68 -70 68 -168q0 -110 -74 -176t-168 -66z
M668 1318q30 0 57 19.5t27 62.5t-27 62.5t-57 19.5t-57 -19.5t-27 -62.5t27 -62.5t57 -19.5z" />
    <glyph glyph-name="Uhungarumlaut" unicode="&#x170;" horiz-adv-x="1490" 
d="M750 -28q-184 0 -328 63t-235 203t-91 342v822h416v-822q0 -136 75 -199t163 -63q94 0 161 61t67 201v822h416v-822q0 -290 -179 -449t-465 -159zM652 1496l-282 20l164 342l296 -102zM1070 1496l-282 20l164 342l298 -102z" />
    <glyph glyph-name="uhungarumlaut" unicode="&#x171;" horiz-adv-x="1336" 
d="M476 -18q-104 0 -202 50q-80 40 -131 131t-51 235v690h404v-576q0 -166 146 -174q90 12 129 72t39 140v538h404v-1088h-404v162q-114 -180 -334 -180zM574 1190l-282 20l164 342l296 -102zM992 1190l-282 20l164 342l298 -102z" />
    <glyph glyph-name="Uogonek" unicode="&#x172;" horiz-adv-x="1490" 
d="M980 -476q-96 0 -166 51t-70 169q0 122 100 232l-94 -4q-184 0 -328 63t-235 203t-91 342v822h416v-822q0 -136 75 -199t163 -63q94 0 161 61t67 201v822h416v-822q0 -306 -212 -476q-160 -162 -160 -286q0 -58 38 -58q30 0 58 16l60 -206q-104 -46 -198 -46z" />
    <glyph glyph-name="uogonek" unicode="&#x173;" horiz-adv-x="1336" 
d="M922 -476q-122 0 -175 66t-53 156q0 134 116 262v154q-114 -180 -334 -180q-104 0 -202 50q-80 40 -131 131t-51 235v690h404v-576q0 -166 146 -174q90 12 129 72t39 140v538h404v-1088h-98q-146 -92 -146 -188q0 -50 44 -52q20 0 52 16l60 -206q-102 -46 -204 -46z" />
    <glyph glyph-name="Wcircumflex" unicode="&#x174;" horiz-adv-x="2266" 
d="M1798 0h-428l-236 898l-244 -898h-426l-470 1402h444l252 -974l250 974h406l252 -972l248 972h426zM1528 1510h-268l-124 138l-126 -138h-268l220 314h346z" />
    <glyph glyph-name="wcircumflex" unicode="&#x175;" horiz-adv-x="1918" 
d="M1540 0h-398l-180 624l-184 -624h-398l-396 1088h410l196 -694l188 694h380l194 -694l192 694h392zM1354 1218h-268l-124 138l-126 -138h-268l220 314h346z" />
    <glyph glyph-name="Ycircumflex" unicode="&#x176;" horiz-adv-x="1404" 
d="M914 0h-416v436l-514 966h416l306 -572l298 572h414l-504 -958v-444zM1096 1510h-268l-124 138l-126 -138h-268l220 314h346z" />
    <glyph glyph-name="ycircumflex" unicode="&#x177;" horiz-adv-x="1210" 
d="M318 -406q-200 0 -350 120l168 270q64 -62 146 -62q102 0 138 108l-450 1058h414l238 -666l202 666h402l-456 -1180q-122 -314 -452 -314zM998 1218h-268l-124 138l-126 -138h-268l220 314h346z" />
    <glyph glyph-name="Ydieresis" unicode="&#x178;" horiz-adv-x="1404" 
d="M914 0h-416v436l-514 966h416l306 -572l298 572h414l-504 -958v-444zM504 1506q-84 0 -124 49t-40 117t40 117t124 49q86 0 126 -50t40 -116t-40 -116t-126 -50zM898 1506q-84 0 -124 49t-40 117t40 117t124 49q86 0 126 -50t40 -116t-40 -116t-126 -50z" />
    <glyph glyph-name="Zacute" unicode="&#x179;" horiz-adv-x="1358" 
d="M1312 0h-1264v262l696 816h-672v324h1226v-264l-696 -814h710v-324zM748 1496l-264 20l254 340l316 -116z" />
    <glyph glyph-name="zacute" unicode="&#x17a;" horiz-adv-x="1124" 
d="M1074 0h-1016v238l488 546h-468v304h976v-240l-488 -546h508v-302zM628 1190l-264 20l254 340l316 -116z" />
    <glyph glyph-name="Zdotaccent" unicode="&#x17b;" horiz-adv-x="1358" 
d="M1312 0h-1264v262l696 816h-672v324h1226v-264l-696 -814h710v-324zM686 1506q-104 0 -156 63t-52 147q0 106 62 157t146 51q106 0 157 -62t51 -146t-52 -147t-156 -63z" />
    <glyph glyph-name="zdotaccent" unicode="&#x17c;" horiz-adv-x="1124" 
d="M1074 0h-1016v238l488 546h-468v304h976v-240l-488 -546h508v-302zM564 1190q-84 0 -146 51t-62 157t62 157t146 51q106 0 157 -62t51 -146q0 -106 -62 -157t-146 -51z" />
    <glyph glyph-name="Zcaron" unicode="&#x17d;" horiz-adv-x="1358" 
d="M1312 0h-1264v262l696 816h-672v324h1226v-264l-696 -814h710v-324zM848 1508h-346l-220 314h268l126 -138l124 138h268z" />
    <glyph glyph-name="zcaron" unicode="&#x17e;" horiz-adv-x="1124" 
d="M1074 0h-1016v238l488 546h-468v304h976v-240l-488 -546h508v-302zM738 1216h-346l-220 314h268l126 -138l124 138h268z" />
    <glyph glyph-name="longs" unicode="&#x17f;" horiz-adv-x="822" 
d="M596 0h-400v1132q0 131 58 212t156 119.5t220 38.5q116 0 240 -40l-44 -300q-60 26 -116 26q-46 0 -80 -24t-34 -80v-1084z" />
    <glyph glyph-name="uni018F" unicode="&#x18f;" horiz-adv-x="1592" 
d="M796 -28q-356 0 -550 232t-194 584h1052q-18 126 -91 210t-211 84q-182 0 -290 -178l-288 292q214 232 572 232q324 0 533 -207t209 -517q0 -314 -211 -523t-531 -209zM802 318q230 0 290 228h-588q68 -228 298 -228z" />
    <glyph glyph-name="florin" unicode="&#x192;" horiz-adv-x="858" 
d="M38 -406q-138 0 -258 78l100 276q62 -40 110 -40q94 4 108 112l80 656h-148l32 256h148l26 208q22 162 133 263t323 101q176 0 316 -78l-134 -276q-64 40 -114 40q-112 0 -130 -110l-18 -148h226l-32 -256h-226l-88 -718q-22 -162 -132 -263t-322 -101z" />
    <glyph glyph-name="Ohorn" unicode="&#x1a0;" horiz-adv-x="1664" 
d="M802 -28q-328 0 -546 208t-218 524q0 314 217 519t547 205q204 0 362 -80l38 -4q116 0 116 132q0 64 -42 126l292 106q60 -124 60 -226q0 -58 -34 -155t-196 -157q168 -192 168 -466q0 -314 -218 -523t-546 -209zM808 318q132 0 232 104t100 280t-100 278t-232 102
q-61 0 -122 -22t-111 -68.5t-80.5 -118t-30.5 -171.5q0 -124 50 -209.5t129 -130t165 -44.5z" />
    <glyph glyph-name="ohorn" unicode="&#x1a1;" horiz-adv-x="1376" 
d="M644 -14q-266 0 -436 145t-170 413q0 264 170 411t436 147q184 0 320 -70q9 0 16 -2q6 -2 18 -2q116 0 116 132q0 64 -42 126l292 106q60 -124 60 -228q0 -62 -40 -164t-214 -156q78 -126 78 -300q0 -244 -157 -401t-447 -157zM644 298q80 0 138 58t58 184q0 100 -48 171
t-148 71q-108 0 -153 -75t-45 -167q0 -100 49 -171t149 -71z" />
    <glyph glyph-name="Uhorn" unicode="&#x1af;" horiz-adv-x="1602" 
d="M750 -28q-184 0 -328 63t-235 203t-91 342v822h416v-822q0 -136 75 -199t163 -63q94 0 161 61t67 201v822h270q108 0 108 100l-4 38q-4 28 -30 64l280 104q46 -120 46 -210q0 -218 -254 -280v-638q0 -290 -179 -449t-465 -159z" />
    <glyph glyph-name="uhorn" unicode="&#x1b0;" horiz-adv-x="1396" 
d="M476 -18q-104 0 -202 50q-80 40 -131 131t-51 235v690h404v-576q0 -166 146 -174q90 12 129 72t39 140v538h250q108 0 108 100l-4 38q-4 28 -30 64l280 104q46 -120 46 -210q0 -216 -246 -278v-906h-404v162q-114 -180 -334 -180z" />
    <glyph glyph-name="uni01C4" unicode="&#x1c4;" horiz-adv-x="2882" 
d="M718 0h-600v1402h614q332 0 543 -183t211 -517q0 -332 -216 -517t-552 -185zM744 326q80 0 152.5 37t119 120t46.5 215q0 188 -99 282t-239 94h-190v-748h210zM2836 0h-1264v262l696 816h-672v324h1226v-264l-696 -814h710v-324zM2372 1508h-346l-220 314h268l126 -138
l124 138h268z" />
    <glyph glyph-name="uni01C5" unicode="&#x1c5;" horiz-adv-x="2648" 
d="M718 0h-600v1402h614q332 0 543 -183t211 -517q0 -332 -216 -517t-552 -185zM744 326q80 0 152.5 37t119 120t46.5 215q0 188 -99 282t-239 94h-190v-748h210zM2598 0h-1016v238l488 546h-468v304h976v-240l-488 -546h508v-302zM2262 1216h-346l-220 314h268l126 -138
l124 138h268z" />
    <glyph glyph-name="uni01C6" unicode="&#x1c6;" horiz-adv-x="2500" 
d="M542 -14q-218 0 -361 145t-143 419q0 109 27.5 208.5t86.5 176.5t153 122t227 45q192 0 308 -140v522h404v-1484h-404v124q-110 -138 -298 -138zM644 296q98 0 147 71t49 173q0 100 -48 171t-148 71q-108 0 -153 -75t-45 -167q0 -102 48 -173t150 -71zM2450 0h-1016v238
l488 546h-468v304h976v-240l-488 -546h508v-302zM2114 1216h-346l-220 314h268l126 -138l124 138h268z" />
    <glyph glyph-name="uni01C7" unicode="&#x1c7;" horiz-adv-x="2256" 
d="M1122 0h-1004v1402h416v-1054h588v-348zM1652 -18q-308 0 -518 234l190 274q172 -158 294 -158q124 0 124 142v596h-476v332h896v-938q0 -168 -66 -274q-72 -110 -188.5 -159t-255.5 -49z" />
    <glyph glyph-name="uni01C8" unicode="&#x1c8;" horiz-adv-x="1800" 
d="M1122 0h-1004v1402h416v-1054h588v-348zM1270 -404q-142 0 -250 44l78 282q42 -12 84 -12q96 0 96 114v1064h404v-1126q0 -105 -43.5 -188t-134.5 -130.5t-234 -47.5zM1478 1190q-106 0 -157 62t-51 146q0 106 62 157t146 51q106 0 157 -62t51 -146q0 -106 -62 -157
t-146 -51z" />
    <glyph glyph-name="uni01C9" unicode="&#x1c9;" horiz-adv-x="1372" 
d="M518 -20q-172 0 -294 108t-122 332v1064h404v-1052q0 -104 94 -104q46 0 100 26l28 -332q-112 -42 -210 -42zM848 -404q-142 0 -256 44l78 282q58 -12 84 -12q96 0 96 114v1064h404v-1126q0 -184 -117 -275t-289 -91zM1050 1190q-84 0 -146 51t-62 157t62 157t146 51
q106 0 157 -62t51 -146q0 -106 -62 -157t-146 -51z" />
    <glyph glyph-name="uni01CA" unicode="&#x1ca;" horiz-adv-x="2674" 
d="M1448 0h-354l-594 780v-780h-382v1402h356l594 -782v782h380v-1402zM2070 -18q-308 0 -518 234l190 274q172 -158 294 -158q124 0 124 142v596h-476v332h896v-938q0 -168 -66 -274q-72 -110 -188.5 -159t-255.5 -49z" />
    <glyph glyph-name="uni01CB" unicode="&#x1cb;" horiz-adv-x="2218" 
d="M1448 0h-354l-594 780v-780h-382v1402h356l594 -782v782h380v-1402zM1688 -404q-142 0 -250 44l78 282q42 -12 84 -12q96 0 96 114v1064h404v-1126q0 -105 -43.5 -188t-134.5 -130.5t-234 -47.5zM1896 1190q-106 0 -157 62t-51 146q0 106 62 157t146 51t146 -51t62 -157
t-62 -157t-146 -51z" />
    <glyph glyph-name="uni01CC" unicode="&#x1cc;" horiz-adv-x="2008" 
d="M1264 0h-404v574q0 94 -47 135t-109 41q-178 -20 -178 -212v-538h-404v1088h404v-168q118 184 346 184q164 0 278 -100t114 -314v-690zM1478 -404q-142 0 -250 44l78 282q42 -12 84 -12q96 0 96 114v1064h404v-1126q0 -105 -43.5 -188t-134.5 -130.5t-234 -47.5z
M1686 1190q-106 0 -157 62t-51 146q0 106 62 157t146 51q106 0 157 -62t51 -146q0 -106 -62 -157t-146 -51z" />
    <glyph glyph-name="uni01DE" unicode="&#x1de;" horiz-adv-x="1572" 
d="M1588 0h-444l-82 224h-566l-84 -224h-428l598 1402h428zM1152 1948h-730v230h730v-230zM590 1506q-84 0 -124 49t-40 117t40 117t124 49q86 0 126 -50t40 -116t-40 -116t-126 -50zM952 528l-168 458l-172 -458h340zM984 1506q-84 0 -124 49t-40 117t40 117t124 49
q86 0 126 -50t40 -116t-40 -116t-126 -50z" />
    <glyph glyph-name="uni01DF" unicode="&#x1df;" horiz-adv-x="1214" 
d="M408 -18q-130 0 -211 46t-119 124t-38 172q0 316 420 330h266q0 148 -188 148q-128 0 -328 -78l-100 268q272 112 524 112q301 0 425 -168q63 -88 63 -230v-706h-396v120q-102 -138 -318 -138zM438 1202q-68 0 -116 44t-48 120q0 88 49 126t115 38t115 -38t49 -126
q0 -68 -44 -116t-120 -48zM948 1612h-612v218h612v-218zM542 246q124 0 184 112v98h-184q-118 0 -122 -102q0 -102 122 -108zM848 1202q-76 0 -120 48t-44 116q0 88 49 126t115 38t115 -38t49 -126q0 -68 -44 -116t-120 -48z" />
    <glyph glyph-name="Gcaron" unicode="&#x1e6;" horiz-adv-x="1480" 
d="M792 -18q-328 0 -541 206t-213 512q0 308 222 511t560 203q326 0 592 -212l-236 -286q-172 152 -358 152q-164 0 -259 -109t-95 -259q0 -124 51 -206t132.5 -123t174.5 -41q94 0 214 56l2 134h-238v282h590l2 -640q-276 -180 -600 -180zM908 1508h-346l-220 314h268
l126 -138l124 138h268z" />
    <glyph glyph-name="gcaron" unicode="&#x1e7;" horiz-adv-x="1302" 
d="M588 -406q-306 0 -502 142l134 272q166 -100 334 -100q220 0 232 174v110q-106 -130 -292 -130q-85 0 -166 29.5t-146.5 93t-104.5 163.5t-39 240q0 244 129 379t319 135q192 0 300 -132v118h400v-994q0 -242 -170 -371t-428 -129zM794 1216h-346l-220 314h268l126 -138
l124 138h268zM600 352q96 0 141 66t45 158q0 96 -46 162t-140 66t-139 -67t-45 -161q0 -92 45 -158t139 -66z" />
    <glyph glyph-name="uni01EA" unicode="&#x1ea;" horiz-adv-x="1604" 
d="M1050 -476q-96 0 -166 51t-70 169q0 124 102 236q-50 -8 -114 -8q-328 0 -546 208t-218 524q0 314 217 519t547 205q332 0 548 -206t216 -518q0 -216 -89 -367t-235 -241q-150 -166 -150 -278q0 -58 38 -58q30 0 58 16l60 -206q-104 -46 -198 -46zM808 318q132 0 232 104
t100 280t-100 278t-232 102q-61 0 -122 -22t-111 -68.5t-80.5 -118t-30.5 -171.5q0 -124 50 -209.5t129 -130t165 -44.5z" />
    <glyph glyph-name="uni01EB" unicode="&#x1eb;" horiz-adv-x="1286" 
d="M846 -476q-96 0 -166 51t-70 169q0 130 112 246l-78 -4q-266 0 -436 145t-170 413q0 264 170 411t436 147q268 0 434 -146q170 -144 170 -412q0 -264 -178 -418q-182 -170 -182 -308q0 -58 38 -58q30 0 58 16l60 -206q-104 -46 -198 -46zM644 298q80 0 138 58t58 184
q0 100 -48 171t-148 71q-108 0 -153 -75t-45 -167q0 -100 49 -171t149 -71z" />
    <glyph glyph-name="uni01F4" unicode="&#x1f4;" horiz-adv-x="1480" 
d="M792 -18q-328 0 -541 206t-213 512q0 308 222 511t560 203q326 0 592 -212l-236 -286q-172 152 -358 152q-164 0 -259 -109t-95 -259q0 -124 51 -206t132.5 -123t174.5 -41q94 0 214 56l2 134h-238v282h590l2 -640q-276 -180 -600 -180zM800 1496l-264 20l254 340
l316 -116z" />
    <glyph glyph-name="uni01F5" unicode="&#x1f5;" horiz-adv-x="1302" 
d="M588 -406q-306 0 -502 142l134 272q166 -100 334 -100q220 0 232 174v110q-106 -130 -292 -130q-85 0 -166 29.5t-146.5 93t-104.5 163.5t-39 240q0 244 129 379t319 135q192 0 300 -132v118h400v-994q0 -242 -170 -371t-428 -129zM600 352q96 0 141 66t45 158
q0 96 -46 162t-140 66t-139 -67t-45 -161q0 -92 45 -158t139 -66zM686 1190l-264 20l254 340l316 -116z" />
    <glyph glyph-name="Aringacute" unicode="&#x1fa;" horiz-adv-x="1572" 
d="M1588 0h-444l-82 224h-566l-84 -224h-428l598 1402h428zM788 1472q-114 0 -178 74t-64 168q0 114 76 178t166 64q108 0 174 -74q68 -70 68 -168q0 -110 -74 -176t-168 -66zM798 2000l-228 58l298 274l262 -154zM952 528l-168 458l-172 -458h340zM788 1632q30 0 57 19.5
t27 62.5t-27 62.5t-57 19.5t-57 -19.5t-27 -62.5t27 -62.5t57 -19.5z" />
    <glyph glyph-name="aringacute" unicode="&#x1fb;" horiz-adv-x="1214" 
d="M408 -18q-130 0 -211 46t-119 124t-38 172q0 316 420 330h266q0 148 -188 148q-128 0 -328 -78l-100 268q272 112 524 112q301 0 425 -168q63 -88 63 -230v-706h-396v120q-102 -138 -318 -138zM608 1158q-110 0 -176 72t-66 170q0 114 76 178t166 64q108 0 174 -74
q68 -70 68 -168q0 -110 -74 -176t-168 -66zM618 1686l-228 58l298 274l262 -154zM542 246q124 0 184 112v98h-184q-118 0 -122 -102q0 -102 122 -108zM608 1318q30 0 57 19.5t27 62.5t-27 62.5t-57 19.5t-57 -19.5t-27 -62.5t27 -62.5t57 -19.5z" />
    <glyph glyph-name="AEacute" unicode="&#x1fc;" horiz-adv-x="2254" 
d="M2172 0h-1166v266h-454l-136 -266h-432l788 1402h1380v-320h-730v-220h662v-320h-662v-222h750v-320zM1006 566v518h-36l-264 -518h300zM1574 1496l-264 20l254 340l316 -116z" />
    <glyph glyph-name="aeacute" unicode="&#x1fd;" horiz-adv-x="1924" 
d="M442 -20q-137 0 -226 45.5t-132.5 123t-43.5 173.5q0 318 422 326h268q0 154 -188 154q-134 0 -340 -78l-92 270q282 110 526 110q226 0 354 -104q130 102 322 102q194 0 321 -78q132 -84 192.5 -220t60.5 -300l-2 -50h-740q38 -170 214 -170q130 0 240 104l210 -206
q-178 -196 -486 -196t-442 212q-128 -218 -438 -218zM544 240q112 0 188 108l-2 110h-184q-120 0 -126 -104q0 -104 124 -114zM1028 1190l-264 20l254 340l316 -116zM1480 644q0 76 -39 131t-127 55q-84 0 -127 -53t-51 -133h344z" />
    <glyph glyph-name="Oslashacute" unicode="&#x1fe;" horiz-adv-x="1604" 
d="M436 -110h-242l138 228q-294 190 -294 578q0 308 218 510t546 202q152 0 278 -44l88 146h242l-144 -238q300 -200 300 -576q0 -308 -216 -514t-548 -206q-150 0 -286 48zM538 462l352 588q-44 10 -82 10q-61 0 -122 -21t-111 -65.5t-80.5 -113.5t-30.5 -166
q0 -134 74 -232zM898 1496l-264 20l254 340l316 -116zM808 322q60 0 118.5 21.5t107 66.5t77.5 115.5t29 168.5q0 138 -78 238l-356 -594q52 -16 102 -16z" />
    <glyph glyph-name="oslashacute" unicode="&#x1ff;" horiz-adv-x="1286" 
d="M254 -166h-174l178 262q-220 160 -220 448q0 264 170 411t436 147q144 0 264 -46l134 198h174l-180 -266q212 -156 212 -444q0 -244 -157 -401t-447 -157q-146 0 -258 44zM452 384l280 412q-40 18 -88 18q-116 0 -170 -81t-54 -193q0 -92 32 -156zM738 1190l-264 20
l254 340l316 -116zM644 264q92 0 158 66t66 210q0 90 -32 152l-280 -410q40 -18 88 -18z" />
    <glyph glyph-name="uni0200" unicode="&#x200;" horiz-adv-x="1572" 
d="M1588 0h-444l-82 224h-566l-84 -224h-428l598 1402h428zM478 1492l-180 260l298 102l162 -342zM952 528l-168 458l-172 -458h340zM896 1492l-180 260l298 102l162 -342z" />
    <glyph glyph-name="uni0201" unicode="&#x201;" horiz-adv-x="1214" 
d="M408 -18q-130 0 -211 46t-119 124t-38 172q0 316 420 330h266q0 148 -188 148q-128 0 -328 -78l-100 268q272 112 524 112q301 0 425 -168q63 -88 63 -230v-706h-396v120q-102 -138 -318 -138zM298 1190l-180 260l298 102l162 -342zM542 246q124 0 184 112v98h-184
q-118 0 -122 -102q0 -102 122 -108zM716 1190l-180 260l298 102l162 -342z" />
    <glyph glyph-name="uni0202" unicode="&#x202;" horiz-adv-x="1572" 
d="M1588 0h-444l-82 224h-566l-84 -224h-428l598 1402h428zM1136 1510h-246q-16 106 -104 106q-86 0 -104 -106h-246q10 148 93 241t257 93t257 -93t93 -241zM952 528l-168 458l-172 -458h340z" />
    <glyph glyph-name="uni0203" unicode="&#x203;" horiz-adv-x="1214" 
d="M408 -18q-130 0 -211 46t-119 124t-38 172q0 316 420 330h266q0 148 -188 148q-128 0 -328 -78l-100 268q272 112 524 112q301 0 425 -168q63 -88 63 -230v-706h-396v120q-102 -138 -318 -138zM956 1196h-246q-16 106 -104 106q-86 0 -104 -106h-246q10 148 93 241
t257 93t257 -93t93 -241zM542 246q124 0 184 112v98h-184q-118 0 -122 -102q0 -102 122 -108z" />
    <glyph glyph-name="uni0204" unicode="&#x204;" horiz-adv-x="1366" 
d="M1284 0h-1166v1402h1146v-320h-730v-220h662v-320h-662v-222h750v-320zM388 1492l-180 260l298 102l162 -342zM806 1492l-180 260l298 102l162 -342z" />
    <glyph glyph-name="uni0205" unicode="&#x205;" horiz-adv-x="1218" 
d="M624 -14q-198 0 -328 73q-135 79 -196.5 205.5t-61.5 275.5q0 268 161 415t413 147q286 0 427 -164t141 -434l-2 -58h-732q58 -162 212 -162q130 0 240 104l210 -206q-174 -196 -484 -196zM294 1190l-180 260l298 102l162 -342zM780 644q0 74 -40 129t-124 55
q-148 0 -178 -184h342zM712 1190l-180 260l298 102l162 -342z" />
    <glyph glyph-name="uni0206" unicode="&#x206;" horiz-adv-x="1366" 
d="M1284 0h-1166v1402h1146v-320h-730v-220h662v-320h-662v-222h750v-320zM1046 1510h-246q-16 106 -104 106q-86 0 -104 -106h-246q10 148 93 241t257 93t257 -93t93 -241z" />
    <glyph glyph-name="uni0207" unicode="&#x207;" horiz-adv-x="1218" 
d="M624 -14q-198 0 -328 73q-135 79 -196.5 205.5t-61.5 275.5q0 268 161 415t413 147q286 0 427 -164t141 -434l-2 -58h-732q58 -162 212 -162q130 0 240 104l210 -206q-174 -196 -484 -196zM952 1196h-246q-16 106 -104 106q-86 0 -104 -106h-246q10 148 93 241t257 93
t257 -93t93 -241zM780 644q0 74 -40 129t-124 55q-148 0 -178 -184h342z" />
    <glyph glyph-name="uni0208" unicode="&#x208;" horiz-adv-x="652" 
d="M16 1492l-180 260l298 102l162 -342zM534 0h-416v1402h416v-1402zM434 1492l-180 260l298 102l162 -342z" />
    <glyph glyph-name="uni0209" unicode="&#x209;" horiz-adv-x="648" 
d="M16 1190l-180 260l298 102l162 -342zM526 0h-404v1088h404v-1088zM434 1190l-180 260l298 102l162 -342z" />
    <glyph glyph-name="uni020A" unicode="&#x20a;" horiz-adv-x="652" 
d="M674 1510h-246q-16 106 -104 106q-86 0 -104 -106h-246q10 148 93 241t257 93t257 -93t93 -241zM534 0h-416v1402h416v-1402z" />
    <glyph glyph-name="uni020B" unicode="&#x20b;" horiz-adv-x="648" 
d="M662 1196h-240q-18 104 -96 104q-80 0 -98 -104h-242q4 146 86 240t254 94q168 0 249 -93t87 -241zM526 0h-404v1088h404v-1088z" />
    <glyph glyph-name="uni020C" unicode="&#x20c;" horiz-adv-x="1604" 
d="M802 -28q-328 0 -546 208t-218 524q0 314 217 519t547 205q332 0 548 -206t216 -518q0 -314 -218 -523t-546 -209zM492 1492l-180 260l298 102l162 -342zM808 318q132 0 232 104t100 280t-100 278t-232 102q-61 0 -122 -22t-111 -68.5t-80.5 -118t-30.5 -171.5
q0 -124 50 -209.5t129 -130t165 -44.5zM910 1492l-180 260l298 102l162 -342z" />
    <glyph glyph-name="uni020D" unicode="&#x20d;" horiz-adv-x="1286" 
d="M644 -14q-266 0 -436 145t-170 413q0 264 170 411t436 147q268 0 434 -146q170 -144 170 -412q0 -244 -157 -401t-447 -157zM334 1190l-180 260l298 102l162 -342zM644 298q80 0 138 58t58 184q0 100 -48 171t-148 71q-108 0 -153 -75t-45 -167q0 -100 49 -171t149 -71z
M752 1190l-180 260l298 102l162 -342z" />
    <glyph glyph-name="uni020E" unicode="&#x20e;" horiz-adv-x="1604" 
d="M802 -28q-328 0 -546 208t-218 524q0 314 217 519t547 205q332 0 548 -206t216 -518q0 -314 -218 -523t-546 -209zM1150 1510h-246q-16 106 -104 106q-86 0 -104 -106h-246q10 148 93 241t257 93t257 -93t93 -241zM808 318q132 0 232 104t100 280t-100 278t-232 102
q-61 0 -122 -22t-111 -68.5t-80.5 -118t-30.5 -171.5q0 -124 50 -209.5t129 -130t165 -44.5z" />
    <glyph glyph-name="uni020F" unicode="&#x20f;" horiz-adv-x="1286" 
d="M644 -14q-266 0 -436 145t-170 413q0 264 170 411t436 147q268 0 434 -146q170 -144 170 -412q0 -244 -157 -401t-447 -157zM992 1196h-246q-16 106 -104 106q-86 0 -104 -106h-246q10 148 93 241t257 93t257 -93t93 -241zM644 298q80 0 138 58t58 184q0 100 -48 171
t-148 71q-108 0 -153 -75t-45 -167q0 -100 49 -171t149 -71z" />
    <glyph glyph-name="uni0210" unicode="&#x210;" horiz-adv-x="1450" 
d="M1412 0h-472l-186 378h-220v-378h-416v1402h654q268 0 430 -119t162 -379q0 -312 -236 -446zM406 1492l-180 260l298 102l162 -342zM772 698q196 0 196 194q0 184 -196 190h-238v-384h238zM824 1492l-180 260l298 102l162 -342z" />
    <glyph glyph-name="uni0211" unicode="&#x211;" horiz-adv-x="888" 
d="M178 1190l-180 260l298 102l162 -342zM526 0h-404v1088h404v-172q120 188 342 188v-364l-70 4q-110 0 -191 -52t-81 -172v-520zM596 1190l-180 260l298 102l162 -342z" />
    <glyph glyph-name="uni0212" unicode="&#x212;" horiz-adv-x="1450" 
d="M1412 0h-472l-186 378h-220v-378h-416v1402h654q268 0 430 -119t162 -379q0 -312 -236 -446zM1064 1510h-246q-16 106 -104 106q-86 0 -104 -106h-246q10 148 93 241t257 93t257 -93t93 -241zM772 698q196 0 196 194q0 184 -196 190h-238v-384h238z" />
    <glyph glyph-name="uni0213" unicode="&#x213;" horiz-adv-x="888" 
d="M526 0h-404v1088h404v-172q120 188 342 188v-364l-70 4q-110 0 -191 -52t-81 -172v-520zM836 1196h-246q-16 106 -104 106q-86 0 -104 -106h-246q10 148 93 241t257 93t257 -93t93 -241z" />
    <glyph glyph-name="uni0214" unicode="&#x214;" horiz-adv-x="1490" 
d="M750 -28q-184 0 -328 63t-235 203t-91 342v822h416v-822q0 -136 75 -199t163 -63q94 0 161 61t67 201v822h416v-822q0 -290 -179 -449t-465 -159zM436 1492l-180 260l298 102l162 -342zM854 1492l-180 260l298 102l162 -342z" />
    <glyph glyph-name="uni0215" unicode="&#x215;" horiz-adv-x="1336" 
d="M476 -18q-104 0 -202 50q-80 40 -131 131t-51 235v690h404v-576q0 -166 146 -174q90 12 129 72t39 140v538h404v-1088h-404v162q-114 -180 -334 -180zM358 1190l-180 260l298 102l162 -342zM776 1190l-180 260l298 102l162 -342z" />
    <glyph glyph-name="uni0216" unicode="&#x216;" horiz-adv-x="1490" 
d="M750 -28q-184 0 -328 63t-235 203t-91 342v822h416v-822q0 -136 75 -199t163 -63q94 0 161 61t67 201v822h416v-822q0 -290 -179 -449t-465 -159zM1094 1510h-246q-16 106 -104 106q-86 0 -104 -106h-246q10 148 93 241t257 93t257 -93t93 -241z" />
    <glyph glyph-name="uni0217" unicode="&#x217;" horiz-adv-x="1336" 
d="M476 -18q-104 0 -202 50q-80 40 -131 131t-51 235v690h404v-576q0 -166 146 -174q90 12 129 72t39 140v538h404v-1088h-404v162q-114 -180 -334 -180zM1016 1196h-246q-16 106 -104 106q-86 0 -104 -106h-246q10 148 93 241t257 93t257 -93t93 -241z" />
    <glyph glyph-name="uni0218" unicode="&#x218;" horiz-adv-x="1310" 
d="M698 -24q-358 0 -674 228l156 316q157 -115 292.5 -166.5t229.5 -51.5q144 0 144 100q0 64 -80 94q-74 32 -170 56q-120 32 -248 84q-234 104 -234 352q0 148 77 247q89 107 221.5 153t281.5 46q324 0 586 -164l-154 -320q-262 158 -466 158q-116 0 -116 -82
q0 -52 60 -88t194 -67q126 -31 243 -84t191 -169q44 -74 44 -194q0 -158 -82 -257q-88 -103 -219.5 -147t-276.5 -44zM674 -478h-224l64 358h320z" />
    <glyph glyph-name="uni0219" unicode="&#x219;" horiz-adv-x="1070" 
d="M540 -18q-286 0 -512 154l124 254q212 -134 394 -134q90 0 90 50q0 64 -168 92q-180 30 -322 160q-66 66 -66 184q0 124 61.5 204.5t167 120t235.5 39.5q248 0 478 -132l-134 -254q-224 114 -356 114q-72 0 -82 -52q0 -64 175 -93t325 -161q68 -68 68 -186
q0 -122 -64 -201q-73 -85 -182 -122t-232 -37zM528 -478h-224l64 358h320z" />
    <glyph glyph-name="uni021A" unicode="&#x21a;" horiz-adv-x="1256" 
d="M836 0h-418v1070h-406v332h1232v-332h-408v-1070zM624 -478h-224l64 358h320z" />
    <glyph glyph-name="uni021B" unicode="&#x21b;" horiz-adv-x="898" 
d="M564 -18q-170 0 -279 87t-109 271v434h-150v258h150v302h402v-302h268v-258h-268v-372q0 -104 92 -104q52 0 124 32l72 -278q-136 -70 -302 -70zM548 -478h-224l64 358h320z" />
    <glyph glyph-name="uni022A" unicode="&#x22a;" horiz-adv-x="1604" 
d="M802 -28q-328 0 -546 208t-218 524q0 314 217 519t547 205q332 0 548 -206t216 -518q0 -314 -218 -523t-546 -209zM596 1508q-68 0 -116 44t-48 120q0 88 49 126t115 38t115 -38t49 -126q0 -68 -44 -116t-120 -48zM808 318q132 0 232 104t100 280t-100 278t-232 102
q-61 0 -122 -22t-111 -68.5t-80.5 -118t-30.5 -171.5q0 -124 50 -209.5t129 -130t165 -44.5zM1106 1918h-612v218h612v-218zM1006 1508q-76 0 -120 48t-44 116q0 88 49 126t115 38t115 -38t49 -126q0 -76 -48 -120t-116 -44z" />
    <glyph glyph-name="uni022B" unicode="&#x22b;" horiz-adv-x="1286" 
d="M644 -14q-266 0 -436 145t-170 413q0 264 170 411t436 147q268 0 434 -146q170 -144 170 -412q0 -244 -157 -401t-447 -157zM438 1202q-68 0 -116 44t-48 120q0 88 49 126t115 38t115 -38t49 -126q0 -68 -44 -116t-120 -48zM948 1612h-612v218h612v-218zM644 298
q80 0 138 58t58 184q0 100 -48 171t-148 71q-108 0 -153 -75t-45 -167q0 -100 49 -171t149 -71zM848 1202q-76 0 -120 48t-44 116q0 88 49 126t115 38t115 -38t49 -126q0 -68 -44 -116t-120 -48z" />
    <glyph glyph-name="uni022C" unicode="&#x22c;" horiz-adv-x="1604" 
d="M802 -28q-328 0 -546 208t-218 524q0 314 217 519t547 205q332 0 548 -206t216 -518q0 -314 -218 -523t-546 -209zM978 1506q-88 0 -210 52q-60 28 -94 28q-60 0 -60 -76h-184q0 282 196 282q102 0 210 -52q60 -28 92 -28q62 0 62 74h184q0 -280 -196 -280zM808 318
q132 0 232 104t100 280t-100 278t-232 102q-61 0 -122 -22t-111 -68.5t-80.5 -118t-30.5 -171.5q0 -124 50 -209.5t129 -130t165 -44.5zM1110 1870h-612v218h612v-218z" />
    <glyph glyph-name="uni022D" unicode="&#x22d;" horiz-adv-x="1286" 
d="M644 -14q-266 0 -436 145t-170 413q0 264 170 411t436 147q268 0 434 -146q170 -144 170 -412q0 -244 -157 -401t-447 -157zM820 1198q-88 0 -210 52q-60 28 -94 28q-60 0 -60 -76h-184q0 282 196 282q102 0 210 -52q60 -28 92 -28q62 0 62 74h184q0 -280 -196 -280z
M952 1562h-612v218h612v-218zM644 298q80 0 138 58t58 184q0 100 -48 171t-148 71q-108 0 -153 -75t-45 -167q0 -100 49 -171t149 -71z" />
    <glyph glyph-name="uni022E" unicode="&#x22e;" horiz-adv-x="1604" 
d="M802 -28q-328 0 -546 208t-218 524q0 314 217 519t547 205q332 0 548 -206t216 -518q0 -314 -218 -523t-546 -209zM808 318q132 0 232 104t100 280t-100 278t-232 102q-61 0 -122 -22t-111 -68.5t-80.5 -118t-30.5 -171.5q0 -124 50 -209.5t129 -130t165 -44.5zM802 1506
q-104 0 -156 63t-52 147q0 106 62 157t146 51q106 0 157 -62t51 -146t-52 -147t-156 -63z" />
    <glyph glyph-name="uni022F" unicode="&#x22f;" horiz-adv-x="1286" 
d="M644 -14q-266 0 -436 145t-170 413q0 264 170 411t436 147q268 0 434 -146q170 -144 170 -412q0 -244 -157 -401t-447 -157zM644 1190q-84 0 -146 51t-62 157t62 157t146 51q106 0 157 -62t51 -146t-51 -146t-157 -62zM644 298q80 0 138 58t58 184q0 100 -48 171t-148 71
q-108 0 -153 -75t-45 -167q0 -100 49 -171t149 -71z" />
    <glyph glyph-name="uni0230" unicode="&#x230;" horiz-adv-x="1604" 
d="M802 -28q-328 0 -546 208t-218 524q0 314 217 519t547 205q332 0 548 -206t216 -518q0 -314 -218 -523t-546 -209zM1166 2034h-730v230h730v-230zM808 318q132 0 232 104t100 280t-100 278t-232 102q-61 0 -122 -22t-111 -68.5t-80.5 -118t-30.5 -171.5q0 -124 50 -209.5
t129 -130t165 -44.5zM802 1506q-104 0 -156 63t-52 147q0 106 62 157t146 51q106 0 157 -62t51 -146t-52 -147t-156 -63z" />
    <glyph glyph-name="uni0231" unicode="&#x231;" horiz-adv-x="1286" 
d="M644 -14q-266 0 -436 145t-170 413q0 264 170 411t436 147q268 0 434 -146q170 -144 170 -412q0 -244 -157 -401t-447 -157zM950 1612h-612v218h612v-218zM644 298q80 0 138 58t58 184q0 100 -48 171t-148 71q-108 0 -153 -75t-45 -167q0 -100 49 -171t149 -71zM644 1200
q-70 0 -124 45t-54 133t54 133t124 45t124 -45t54 -133t-54 -133t-124 -45z" />
    <glyph glyph-name="uni0232" unicode="&#x232;" horiz-adv-x="1404" 
d="M914 0h-416v436l-514 966h416l306 -572l298 572h414l-504 -958v-444zM1068 1512h-730v230h730v-230z" />
    <glyph glyph-name="uni0233" unicode="&#x233;" horiz-adv-x="1210" 
d="M318 -406q-200 0 -350 120l168 270q64 -62 146 -62q102 0 138 108l-450 1058h414l238 -666l202 666h402l-456 -1180q-122 -314 -452 -314zM922 1274h-630v230h630v-230z" />
    <glyph glyph-name="uni0237" unicode="&#x237;" horiz-adv-x="652" 
d="M122 -404q-142 0 -250 44l78 282q42 -12 84 -12q96 0 96 114v1064h404v-1126q0 -105 -43.5 -188t-134.5 -130.5t-234 -47.5z" />
    <glyph glyph-name="uni0259" unicode="&#x259;" horiz-adv-x="1218" 
d="M606 -14q-286 0 -427 164t-141 434l2 58h732q-56 162 -212 162q-130 0 -240 -104l-210 206q178 196 484 196q286 0 436 -155t150 -399q0 -268 -161 -415t-413 -147zM602 260q148 0 178 184h-342q0 -74 40 -129t124 -55z" />
    <glyph glyph-name="uni02BB" unicode="&#x2bb;" horiz-adv-x="496" 
d="M396 954l-296 68l60 378h236v-446z" />
    <glyph glyph-name="uni02BC" unicode="&#x2bc;" horiz-adv-x="462" 
d="M306 876h-212v526h266z" />
    <glyph glyph-name="uni02BE" unicode="&#x2be;" horiz-adv-x="438" 
d="M110 1154v154q38 0 64 26t26 64t-26 64t-64 26v154q94 0 170 -65t76 -179t-74 -179t-172 -65z" />
    <glyph glyph-name="uni02BF" unicode="&#x2bf;" horiz-adv-x="436" 
d="M326 1154q-98 0 -172 65t-74 179t75 179t171 65v-154q-38 0 -64 -26t-26 -64t26 -64t64 -26v-154z" />
    <glyph glyph-name="circumflex" unicode="&#x2c6;" horiz-adv-x="858" 
d="M822 1218h-268l-124 138l-126 -138h-268l220 314h346z" />
    <glyph glyph-name="caron" unicode="&#x2c7;" horiz-adv-x="952" 
d="M590 1216h-346l-220 314h268l126 -138l124 138h268z" />
    <glyph glyph-name="uni02C8" unicode="&#x2c8;" horiz-adv-x="342" 
d="M302 1006h-262v396h262v-396z" />
    <glyph glyph-name="uni02C9" unicode="&#x2c9;" horiz-adv-x="684" 
d="M666 1274h-630v230h630v-230z" />
    <glyph glyph-name="uni02CA" unicode="&#x2ca;" horiz-adv-x="700" 
d="M344 1190l-264 20l254 340l316 -116z" />
    <glyph glyph-name="uni02CB" unicode="&#x2cb;" horiz-adv-x="700" 
d="M370 1190l-270 244l318 116l218 -340z" />
    <glyph glyph-name="uni02CC" unicode="&#x2cc;" horiz-adv-x="348" 
d="M308 -456h-268v396h268v-396z" />
    <glyph glyph-name="breve" unicode="&#x2d8;" horiz-adv-x="760" 
d="M380 1196q-174 0 -257 93t-93 241h246q18 -108 104 -108q88 0 104 108h246q-10 -148 -93 -241t-257 -93z" />
    <glyph glyph-name="dotaccent" unicode="&#x2d9;" horiz-adv-x="700" 
d="M350 1190q-84 0 -146 51t-62 157t62 157t146 51t146 -51t62 -157q0 -84 -51 -146t-157 -62z" />
    <glyph glyph-name="ring" unicode="&#x2da;" horiz-adv-x="890" 
d="M324 1158q-98 0 -170 65t-72 177q0 114 76 178t166 64q108 0 174 -74q68 -70 68 -168q0 -110 -74 -176t-168 -66zM324 1318q30 0 57 19.5t27 62.5t-27 62.5t-57 19.5t-57 -19.5t-27 -62.5t27 -62.5t57 -19.5z" />
    <glyph glyph-name="ogonek" unicode="&#x2db;" horiz-adv-x="624" 
d="M246 -476q-122 0 -175 66t-53 156q0 178 198 338l224 -84q-146 -92 -146 -188q0 -50 44 -52q20 0 52 16l60 -206q-102 -46 -204 -46z" />
    <glyph glyph-name="tilde" unicode="&#x2dc;" horiz-adv-x="806" 
d="M574 1192q-84 0 -184 54q-50 32 -86 32q-56 0 -56 -80h-218q0 334 204 334q84 0 186 -54q48 -30 80 -30q60 0 60 66v12h216q0 -334 -202 -334z" />
    <glyph glyph-name="hungarumlaut" unicode="&#x2dd;" horiz-adv-x="1100" 
d="M390 1190l-282 20l164 342l296 -102zM808 1190l-282 20l164 342l298 -102z" />
    <glyph glyph-name="gravecomb" unicode="&#x300;" 
d="M-378 1190l-270 244l318 116l218 -340z" />
    <glyph glyph-name="acutecomb" unicode="&#x301;" 
d="M-336 1190l-264 20l254 340l316 -116z" />
    <glyph glyph-name="uni0302" unicode="&#x302;" 
d="M-36 1218h-268l-124 138l-126 -138h-268l220 314h346z" />
    <glyph glyph-name="tildecomb" unicode="&#x303;" 
d="M-232 1192q-84 0 -184 54q-50 32 -86 32q-56 0 -56 -80h-218q0 334 204 334q84 0 186 -54q48 -30 80 -30q60 0 60 66v12h216q0 -334 -202 -334z" />
    <glyph glyph-name="uni0304" unicode="&#x304;" 
d="M-16 1274h-630v230h630v-230z" />
    <glyph glyph-name="uni0306" unicode="&#x306;" 
d="M-380 1196q-174 0 -257 93t-93 241h246q18 -108 104 -108q90 0 104 108h246q-10 -148 -93 -241t-257 -93z" />
    <glyph glyph-name="uni0307" unicode="&#x307;" 
d="M-272 1190q-84 0 -146 51t-62 157t62 157t146 51q106 0 157 -62t51 -146t-51 -146t-157 -62z" />
    <glyph glyph-name="uni0308" unicode="&#x308;" 
d="M-684 1216q-84 0 -124 49t-40 117t40 117t124 49t124 -49t40 -117t-40 -117t-124 -49zM-290 1216q-84 0 -124 49t-40 117t40 117t124 49t124 -49t40 -117t-40 -117t-124 -49z" />
    <glyph glyph-name="hookabovecomb" unicode="&#x309;" 
d="M-244 1170l-172 70q92 84 92 150q0 52 -56 54q-36 0 -76 -30l-102 156q130 82 260 82q124 0 179 -57t55 -139q0 -152 -180 -286z" />
    <glyph glyph-name="uni030A" unicode="&#x30a;" 
d="M-326 1158q-114 0 -178 76t-64 166q0 108 74 174q70 68 168 68q90 0 166 -64t76 -178q0 -112 -72 -177t-170 -65zM-326 1318q30 0 57 19.5t27 62.5t-27 62.5t-57 19.5t-57 -19.5t-27 -62.5t27 -62.5t57 -19.5z" />
    <glyph glyph-name="uni030B" unicode="&#x30b;" 
d="M-646 1190l-282 20l164 342l296 -102zM-228 1190l-282 20l164 342l298 -102z" />
    <glyph glyph-name="uni030C" unicode="&#x30c;" 
d="M-302 1216h-346l-220 314h268l126 -138l124 138h268z" />
    <glyph glyph-name="uni030F" unicode="&#x30f;" 
d="M-808 1190l-180 260l298 102l162 -342zM-390 1190l-180 260l298 102l162 -342z" />
    <glyph glyph-name="uni0311" unicode="&#x311;" 
d="M-30 1196h-246q-16 106 -104 106q-86 0 -104 -106h-246q10 148 93 241t257 93t257 -93t93 -241z" />
    <glyph glyph-name="uni0312" unicode="&#x312;" 
d="M-136 1218h-320l160 358h224z" />
    <glyph glyph-name="uni031B" unicode="&#x31b;" 
d="M-534 886l32 202q108 0 108 100l-4 38q-4 28 -30 64l280 104q46 -120 46 -206q0 -100 -78 -202q-82 -100 -354 -100z" />
    <glyph glyph-name="dotbelowcomb" unicode="&#x323;" 
d="M-272 -548q-84 0 -146 51t-62 157t62 157t146 51q106 0 157 -62t51 -146t-51 -146t-157 -62z" />
    <glyph glyph-name="uni0324" unicode="&#x324;" 
d="M-662 -462q-84 0 -124 49t-40 117t40 117t124 49t124 -49t40 -117t-40 -117t-124 -49zM-268 -462q-84 0 -124 49t-40 117t40 117t124 49t124 -49t40 -117t-40 -117t-124 -49z" />
    <glyph glyph-name="uni0325" unicode="&#x325;" 
d="M-344 -516q-114 0 -178 76t-64 166q0 108 74 174q70 68 168 68q90 0 166 -64t76 -178q0 -112 -72 -177t-170 -65zM-344 -356q30 0 57 19.5t27 62.5t-27 62.5t-57 19.5t-57 -19.5t-27 -62.5t27 -62.5t57 -19.5zM-102 -32z" />
    <glyph glyph-name="uni0326" unicode="&#x326;" 
d="M-258 -478h-224l64 358h320z" />
    <glyph glyph-name="uni0327" unicode="&#x327;" 
d="M-326 -478q-114 0 -228 40l56 170q52 -16 96 -16q82 0 82 40q0 26 -33 36t-119 10l70 218l218 -20l-42 -114q166 -46 166 -164q0 -106 -80 -153t-186 -47z" />
    <glyph glyph-name="uni0328" unicode="&#x328;" 
d="M-302 -476q-122 0 -175 66t-53 156q0 178 198 338l224 -84q-146 -92 -146 -188q0 -50 44 -52q20 0 52 16l60 -206q-102 -46 -204 -46z" />
    <glyph glyph-name="uni032D" unicode="&#x32d;" 
d="M44 -436h-268l-124 138l-126 -138h-268l220 314h346zM0 -122z" />
    <glyph glyph-name="uni032E" unicode="&#x32e;" 
d="M-380 -456q-174 0 -257 93t-93 241h246q18 -108 104 -108q90 0 104 108h246q-10 -148 -93 -241t-257 -93z" />
    <glyph glyph-name="uni0330" unicode="&#x330;" 
d="M-198 -448q-84 0 -184 54q-50 32 -86 32q-56 0 -56 -80h-218q0 334 204 334q84 0 186 -54q48 -30 80 -30q60 0 60 66v12h216q0 -334 -202 -334zM0 -108z" />
    <glyph glyph-name="uni0331" unicode="&#x331;" 
d="M-76 -384h-630v230h630v-230z" />
    <glyph glyph-name="uni0335" unicode="&#x335;" 
d="M-12 760h-820v216h820v-216z" />
    <glyph glyph-name="uni0336" unicode="&#x336;" 
d="M-158 760h-894v216h894v-216z" />
    <glyph glyph-name="uni0337" unicode="&#x337;" 
d="M-338 178h-338l342 956h338z" />
    <glyph glyph-name="uni0338" unicode="&#x338;" 
d="M-400 0h-340l530 1484h338z" />
    <glyph glyph-name="uni0394" unicode="&#x394;" horiz-adv-x="1572" 
d="M1588 0h-1604l598 1402h428zM1034 300l-250 686l-258 -686h508z" />
    <glyph glyph-name="uni03A9" unicode="&#x3a9;" horiz-adv-x="1686" 
d="M1674 0h-724v368q248 148 248 376q0 140 -90 239t-266 99q-119 0 -196 -47q-80 -52 -118 -128.5t-38 -162.5q0 -230 246 -376v-368h-724v324h348q-238 208 -238 470q0 264 207 445t513 181q308 0 514 -182q210 -180 210 -446q0 -260 -238 -468h346v-324z" />
    <glyph glyph-name="uni03BC" unicode="&#x3bc;" horiz-adv-x="1376" 
d="M536 -388h-404v1476h404v-576q0 -166 146 -174q90 12 129 72t39 140v538h404v-1088h-404v162q-108 -168 -314 -180v-370z" />
    <glyph glyph-name="pi" unicode="&#x3c0;" horiz-adv-x="1462" 
d="M1208 0h-332v806h-120l-84 -806h-332l82 806h-42q-40 0 -73 -25t-33 -77q0 -46 40 -130l-278 -94q-74 156 -74 292q14 164 120 240t246 76h1108l2 -282h-230v-806z" />
    <glyph glyph-name="uni1E00" unicode="&#x1e00;" horiz-adv-x="1572" 
d="M1588 0h-444l-82 224h-566l-84 -224h-428l598 1402h428zM0 0zM786 -516q-114 0 -178 76t-64 166q0 108 74 174q70 68 168 68q90 0 166 -64t76 -178q0 -112 -72 -177t-170 -65zM952 528l-168 458l-172 -458h340zM786 -356q30 0 57 19.5t27 62.5t-27 62.5t-57 19.5
t-57 -19.5t-27 -62.5t27 -62.5t57 -19.5zM1028 -32z" />
    <glyph glyph-name="uni1E01" unicode="&#x1e01;" horiz-adv-x="1214" 
d="M40 0zM408 -18q-130 0 -211 46t-119 124t-38 172q0 316 420 330h266q0 148 -188 148q-128 0 -328 -78l-100 268q272 112 524 112q301 0 425 -168q63 -88 63 -230v-706h-396v120q-102 -138 -318 -138zM582 -516q-114 0 -178 76t-64 166q0 108 74 174q70 68 168 68
q90 0 166 -64t76 -178q0 -112 -72 -177t-170 -65zM542 246q124 0 184 112v98h-184q-118 0 -122 -102q0 -102 122 -108zM582 -356q30 0 57 19.5t27 62.5t-27 62.5t-57 19.5t-57 -19.5t-27 -62.5t27 -62.5t57 -19.5zM824 -32z" />
    <glyph glyph-name="uni1E02" unicode="&#x1e02;" horiz-adv-x="1440" 
d="M836 0h-718v1402h688q232 0 385 -88t153 -266q0 -124 -65 -198t-173 -104q126 -28 204 -115t78 -239q0 -192 -157 -292t-395 -100zM118 0zM728 1506q-104 0 -156 63t-52 147q0 106 62 157t146 51q106 0 157 -62t51 -146t-52 -147t-156 -63zM784 312q174 0 174 132
q0 112 -174 122h-252v-254h252zM784 852q126 0 134 122q0 108 -134 116h-252v-238h252z" />
    <glyph glyph-name="uni1E03" unicode="&#x1e03;" horiz-adv-x="1376" 
d="M844 -14q-192 0 -308 140v-126h-404v1484h404v-522q116 140 298 140q218 0 361 -145t143 -419q0 -234 -122 -393t-372 -159zM132 0zM732 306q108 0 153 75t45 167t-45 167t-153 75q-78 0 -137 -58t-59 -184t59 -184t137 -58zM938 1192q-104 0 -156 63t-52 147
q0 106 62 157t146 51q106 0 157 -62t51 -146t-52 -147t-156 -63z" />
    <glyph glyph-name="uni1E04" unicode="&#x1e04;" horiz-adv-x="1440" 
d="M836 0h-718v1402h688q232 0 385 -88t153 -266q0 -124 -65 -198t-173 -104q126 -28 204 -115t78 -239q0 -192 -157 -292t-395 -100zM118 0zM784 312q174 0 174 132q0 112 -174 122h-252v-254h252zM784 852q126 0 134 122q0 108 -134 116h-252v-238h252zM748 -548
q-84 0 -146 51t-62 157t62 157t146 51q106 0 157 -62t51 -146t-51 -146t-157 -62z" />
    <glyph glyph-name="uni1E05" unicode="&#x1e05;" horiz-adv-x="1376" 
d="M844 -14q-192 0 -308 140v-126h-404v1484h404v-522q116 140 298 140q218 0 361 -145t143 -419q0 -234 -122 -393t-372 -159zM132 0zM736 -548q-84 0 -146 51t-62 157t62 157t146 51q106 0 157 -62t51 -146t-51 -146t-157 -62zM732 306q108 0 153 75t45 167t-45 167
t-153 75q-78 0 -137 -58t-59 -184t59 -184t137 -58z" />
    <glyph glyph-name="uni1E06" unicode="&#x1e06;" horiz-adv-x="1440" 
d="M836 0h-718v1402h688q232 0 385 -88t153 -266q0 -124 -65 -198t-173 -104q126 -28 204 -115t78 -239q0 -192 -157 -292t-395 -100zM118 0zM1062 -384h-630v230h630v-230zM784 312q174 0 174 132q0 112 -174 122h-252v-254h252zM784 852q126 0 134 122q0 108 -134 116
h-252v-238h252z" />
    <glyph glyph-name="uni1E07" unicode="&#x1e07;" horiz-adv-x="1376" 
d="M844 -14q-192 0 -308 140v-126h-404v1484h404v-522q116 140 298 140q218 0 361 -145t143 -419q0 -234 -122 -393t-372 -159zM132 0zM1050 -384h-630v230h630v-230zM732 306q108 0 153 75t45 167t-45 167t-153 75q-78 0 -137 -58t-59 -184t59 -184t137 -58z" />
    <glyph glyph-name="uni1E08" unicode="&#x1e08;" horiz-adv-x="1380" 
d="M722 -478q-114 0 -228 40l56 170q52 -16 96 -16q82 0 82 40q0 26 -33 36t-119 10l58 182q-266 54 -431 239t-165 483q0 308 213 515t541 207q324 0 580 -250l-240 -286q-160 190 -334 190q-134 0 -234 -96t-100 -276q0 -67 19 -133.5t59 -120.5t103.5 -87t152.5 -33
q164 0 334 164l240 -256q-220 -226 -516 -268l-34 -90q166 -46 166 -164q0 -106 -80 -153t-186 -47zM762 1496l-264 20l254 340l316 -116z" />
    <glyph glyph-name="uni1E09" unicode="&#x1e09;" horiz-adv-x="1124" 
d="M560 -478q-114 0 -228 40l56 170q52 -16 96 -16q82 0 82 40q0 26 -33 36t-119 10l62 194q-198 36 -318 168t-120 376q0 242 144 402t426 160q344 0 502 -284l-310 -152q-60 108 -174 108q-92 0 -136 -68t-44 -164q0 -98 44 -167t136 -69q118 0 172 120l314 -158
q-116 -236 -414 -276l-38 -106q166 -46 166 -164q0 -106 -80 -153t-186 -47zM630 1190l-264 20l254 340l316 -116z" />
    <glyph glyph-name="uni1E0A" unicode="&#x1e0a;" horiz-adv-x="1524" 
d="M718 0h-600v1402h614q332 0 543 -183t211 -517q0 -332 -216 -517t-552 -185zM118 0zM744 326q80 0 152.5 37t119 120t46.5 215q0 188 -99 282t-239 94h-190v-748h210zM746 1506q-104 0 -156 63t-52 147q0 106 62 157t146 51q106 0 157 -62t51 -146t-52 -147t-156 -63z
" />
    <glyph glyph-name="uni1E0B" unicode="&#x1e0b;" horiz-adv-x="1376" 
d="M38 0zM542 -14q-218 0 -361 145t-143 419q0 109 27.5 208.5t86.5 176.5t153 122t227 45q192 0 308 -140v522h404v-1484h-404v124q-110 -138 -298 -138zM440 1192q-104 0 -156 63t-52 147q0 106 62 157t146 51q106 0 157 -62t51 -146t-52 -147t-156 -63zM644 296
q98 0 147 71t49 173q0 100 -48 171t-148 71q-108 0 -153 -75t-45 -167q0 -102 48 -173t150 -71z" />
    <glyph glyph-name="uni1E0C" unicode="&#x1e0c;" horiz-adv-x="1524" 
d="M718 0h-600v1402h614q332 0 543 -183t211 -517q0 -332 -216 -517t-552 -185zM720 -548q-106 0 -157 62t-51 146q0 106 62 157t146 51q106 0 157 -62t51 -146q0 -106 -62 -157t-146 -51zM744 326q80 0 152.5 37t119 120t46.5 215q0 188 -99 282t-239 94h-190v-748h210z
" />
    <glyph glyph-name="uni1E0D" unicode="&#x1e0d;" horiz-adv-x="1376" 
d="M542 -14q-218 0 -361 145t-143 419q0 109 27.5 208.5t86.5 176.5t153 122t227 45q192 0 308 -140v522h404v-1484h-404v124q-110 -138 -298 -138zM644 296q98 0 147 71t49 173q0 100 -48 171t-148 71q-108 0 -153 -75t-45 -167q0 -102 48 -173t150 -71zM710 -548
q-106 0 -157 62t-51 146t51 146t157 62t157 -62t51 -146q0 -106 -62 -157t-146 -51z" />
    <glyph glyph-name="uni1E0E" unicode="&#x1e0e;" horiz-adv-x="1524" 
d="M718 0h-600v1402h614q332 0 543 -183t211 -517q0 -332 -216 -517t-552 -185zM1036 -384h-630v230h630v-230zM744 326q80 0 152.5 37t119 120t46.5 215q0 188 -99 282t-239 94h-190v-748h210z" />
    <glyph glyph-name="uni1E0F" unicode="&#x1e0f;" horiz-adv-x="1376" 
d="M542 -14q-218 0 -361 145t-143 419q0 109 27.5 208.5t86.5 176.5t153 122t227 45q192 0 308 -140v522h404v-1484h-404v124q-110 -138 -298 -138zM1026 -384h-630v230h630v-230zM644 296q98 0 147 71t49 173q0 100 -48 171t-148 71q-108 0 -153 -75t-45 -167
q0 -102 48 -173t150 -71z" />
    <glyph glyph-name="uni1E10" unicode="&#x1e10;" horiz-adv-x="1524" 
d="M118 0zM718 0h-600v1402h614q332 0 543 -183t211 -517q0 -332 -216 -517t-552 -185zM708 -478h-224l64 358h320zM744 326q80 0 152.5 37t119 120t46.5 215q0 188 -99 282t-239 94h-190v-748h210z" />
    <glyph glyph-name="uni1E11" unicode="&#x1e11;" horiz-adv-x="1376" 
d="M38 0zM542 -14q-218 0 -361 145t-143 419q0 109 27.5 208.5t86.5 176.5t153 122t227 45q192 0 308 -140v522h404v-1484h-404v124q-110 -138 -298 -138zM644 296q98 0 147 71t49 173q0 100 -48 171t-148 71q-108 0 -153 -75t-45 -167q0 -102 48 -173t150 -71zM712 -478
h-224l64 358h320z" />
    <glyph glyph-name="uni1E12" unicode="&#x1e12;" horiz-adv-x="1524" 
d="M718 0h-600v1402h614q332 0 543 -183t211 -517q0 -332 -216 -517t-552 -185zM118 0zM1136 -436h-268l-124 138l-126 -138h-268l220 314h346zM744 326q80 0 152.5 37t119 120t46.5 215q0 188 -99 282t-239 94h-190v-748h210zM1092 -122z" />
    <glyph glyph-name="uni1E13" unicode="&#x1e13;" horiz-adv-x="1376" 
d="M38 0zM542 -14q-218 0 -361 145t-143 419q0 109 27.5 208.5t86.5 176.5t153 122t227 45q192 0 308 -140v522h404v-1484h-404v124q-110 -138 -298 -138zM1034 -436h-268l-124 138l-126 -138h-268l220 314h346zM644 296q98 0 147 71t49 173q0 100 -48 171t-148 71
q-108 0 -153 -75t-45 -167q0 -102 48 -173t150 -71zM990 -122z" />
    <glyph glyph-name="uni1E14" unicode="&#x1e14;" horiz-adv-x="1366" 
d="M1284 0h-1166v1402h1146v-320h-730v-220h662v-320h-662v-222h750v-320zM696 1816l-332 178l260 154l300 -274zM1032 1510h-612v218h612v-218z" />
    <glyph glyph-name="uni1E15" unicode="&#x1e15;" horiz-adv-x="1218" 
d="M624 -14q-198 0 -328 73q-135 79 -196.5 205.5t-61.5 275.5q0 268 161 415t413 147q286 0 427 -164t141 -434l-2 -58h-732q58 -162 212 -162q130 0 240 104l210 -206q-174 -196 -484 -196zM528 1508l-332 178l260 154l300 -274zM864 1202h-612v218h612v-218zM780 644
q0 74 -40 129t-124 55q-148 0 -178 -184h342z" />
    <glyph glyph-name="uni1E16" unicode="&#x1e16;" horiz-adv-x="1366" 
d="M1284 0h-1166v1402h1146v-320h-730v-220h662v-320h-662v-222h750v-320zM984 1510h-612v218h612v-218zM688 1816l-228 58l298 274l262 -154z" />
    <glyph glyph-name="uni1E17" unicode="&#x1e17;" horiz-adv-x="1218" 
d="M624 -14q-198 0 -328 73q-135 79 -196.5 205.5t-61.5 275.5q0 268 161 415t413 147q286 0 427 -164t141 -434l-2 -58h-732q58 -162 212 -162q130 0 240 104l210 -206q-174 -196 -484 -196zM860 1202h-612v218h612v-218zM564 1508l-228 58l298 274l262 -154zM780 644
q0 74 -40 129t-124 55q-148 0 -178 -184h342z" />
    <glyph glyph-name="uni1E18" unicode="&#x1e18;" horiz-adv-x="1366" 
d="M1284 0h-1166v1402h1146v-320h-730v-220h662v-320h-662v-222h750v-320zM118 0zM1094 -436h-268l-124 138l-126 -138h-268l220 314h346zM1050 -122z" />
    <glyph glyph-name="uni1E19" unicode="&#x1e19;" horiz-adv-x="1218" 
d="M38 0zM624 -14q-198 0 -328 73q-135 79 -196.5 205.5t-61.5 275.5q0 268 161 415t413 147q286 0 427 -164t141 -434l-2 -58h-732q58 -162 212 -162q130 0 240 104l210 -206q-174 -196 -484 -196zM1002 -436h-268l-124 138l-126 -138h-268l220 314h346zM780 644
q0 74 -40 129t-124 55q-148 0 -178 -184h342zM958 -122z" />
    <glyph glyph-name="uni1E1A" unicode="&#x1e1a;" horiz-adv-x="1366" 
d="M1284 0h-1166v1402h1146v-320h-730v-220h662v-320h-662v-222h750v-320zM118 0zM872 -448q-84 0 -184 54q-50 32 -86 32q-56 0 -56 -80h-218q0 334 204 334q84 0 186 -54q48 -30 80 -30q60 0 60 66v12h216q0 -334 -202 -334zM1070 -108z" />
    <glyph glyph-name="uni1E1B" unicode="&#x1e1b;" horiz-adv-x="1218" 
d="M38 0zM624 -14q-198 0 -328 73q-135 79 -196.5 205.5t-61.5 275.5q0 268 161 415t413 147q286 0 427 -164t141 -434l-2 -58h-732q58 -162 212 -162q130 0 240 104l210 -206q-174 -196 -484 -196zM780 -448q-84 0 -184 54q-50 32 -86 32q-56 0 -56 -80h-218q0 334 204 334
q84 0 186 -54q48 -30 80 -30q60 0 60 66v12h216q0 -334 -202 -334zM780 644q0 74 -40 129t-124 55q-148 0 -178 -184h342zM978 -108z" />
    <glyph glyph-name="uni1E1C" unicode="&#x1e1c;" horiz-adv-x="1366" 
d="M680 -478q-114 0 -228 40l56 170q52 -16 96 -16q82 0 82 40q0 26 -33 36t-119 10l64 198h-480v1402h1146v-320h-730v-220h662v-320h-662v-222h750v-320h-462l-42 -114q166 -46 166 -164q0 -106 -80 -153t-186 -47zM658 1508q-174 0 -257 93t-93 241h246q18 -108 104 -108
q90 0 104 108h246q-10 -148 -93 -241t-257 -93z" />
    <glyph glyph-name="uni1E1D" unicode="&#x1e1d;" horiz-adv-x="1218" 
d="M592 -478q-114 0 -228 40l56 170q52 -16 96 -16q82 0 82 40q0 26 -33 36t-119 10l62 192q-242 46 -356 194t-114 352q0 268 161 415t413 147q286 0 427 -164t141 -434l-2 -58h-732q58 -162 212 -162q130 0 240 104l210 -206q-142 -156 -376 -190l-40 -106
q166 -46 166 -164q0 -106 -80 -153t-186 -47zM598 1196q-174 0 -257 93t-93 241h246q18 -108 104 -108q90 0 104 108h246q-10 -148 -93 -241t-257 -93zM780 644q0 74 -40 129t-124 55q-148 0 -178 -184h342z" />
    <glyph glyph-name="uni1E1E" unicode="&#x1e1e;" horiz-adv-x="1238" 
d="M534 0h-416v1402h1088v-320h-672v-280h624v-320h-624v-482zM118 0zM662 1506q-104 0 -156 63t-52 147q0 106 62 157t146 51q106 0 157 -62t51 -146t-52 -147t-156 -63z" />
    <glyph glyph-name="uni1E1F" unicode="&#x1e1f;" horiz-adv-x="822" 
d="M48 0zM596 0h-400v774h-148v258h148v100q0 131 58 212t156 119.5t220 38.5q116 0 240 -40l-44 -300q-60 26 -116 26q-46 0 -80 -24t-34 -80v-52h226v-258h-226v-774zM632 1606q-104 0 -156 63t-52 147q0 106 62 157t146 51q106 0 157 -62t51 -146t-52 -147t-156 -63z" />
    <glyph glyph-name="uni1E20" unicode="&#x1e20;" horiz-adv-x="1480" 
d="M792 -18q-328 0 -541 206t-213 512q0 308 222 511t560 203q326 0 592 -212l-236 -286q-172 152 -358 152q-164 0 -259 -109t-95 -259q0 -124 51 -206t132.5 -123t174.5 -41q94 0 214 56l2 134h-238v282h590l2 -640q-276 -180 -600 -180zM1100 1512h-730v230h730v-230z
" />
    <glyph glyph-name="uni1E21" unicode="&#x1e21;" horiz-adv-x="1302" 
d="M588 -406q-306 0 -502 142l134 272q166 -100 334 -100q220 0 232 174v110q-106 -130 -292 -130q-85 0 -166 29.5t-146.5 93t-104.5 163.5t-39 240q0 244 129 379t319 135q192 0 300 -132v118h400v-994q0 -242 -170 -371t-428 -129zM936 1274h-630v230h630v-230zM600 352
q96 0 141 66t45 158q0 96 -46 162t-140 66t-139 -67t-45 -161q0 -92 45 -158t139 -66z" />
    <glyph glyph-name="uni1E22" unicode="&#x1e22;" horiz-adv-x="1566" 
d="M1448 0h-416v522h-498v-522h-416v1402h416v-558h498v558h416v-1402zM118 0zM784 1506q-104 0 -156 63t-52 147q0 106 62 157t146 51q106 0 157 -62t51 -146t-52 -147t-156 -63z" />
    <glyph glyph-name="uni1E23" unicode="&#x1e23;" horiz-adv-x="1366" 
d="M126 0zM334 1588q-104 0 -156 63t-52 147q0 106 62 157t146 51q106 0 157 -62t51 -146t-52 -147t-156 -63zM1274 0h-404v574q0 166 -156 176q-178 -20 -178 -212v-538h-404v1484h404v-564q118 184 346 184q166 0 279 -102t113 -312v-690z" />
    <glyph glyph-name="uni1E24" unicode="&#x1e24;" horiz-adv-x="1566" 
d="M1448 0h-416v522h-498v-522h-416v1402h416v-558h498v558h416v-1402zM784 -548q-106 0 -157 62t-51 146q0 106 62 157t146 51q106 0 157 -62t51 -146q0 -106 -62 -157t-146 -51z" />
    <glyph glyph-name="uni1E25" unicode="&#x1e25;" horiz-adv-x="1366" 
d="M1274 0h-404v574q0 166 -156 176q-178 -20 -178 -212v-538h-404v1484h404v-564q118 184 346 184q166 0 279 -102t113 -312v-690zM704 -548q-106 0 -157 62t-51 146t51 146t157 62q84 0 146 -51t62 -157t-62 -157t-146 -51z" />
    <glyph glyph-name="uni1E26" unicode="&#x1e26;" horiz-adv-x="1566" 
d="M1448 0h-416v522h-498v-522h-416v1402h416v-558h498v558h416v-1402zM118 0zM586 1506q-84 0 -124 49t-40 117t40 117t124 49q86 0 126 -50t40 -116t-40 -116t-126 -50zM980 1506q-84 0 -124 49t-40 117t40 117t124 49q86 0 126 -50t40 -116t-40 -116t-126 -50z" />
    <glyph glyph-name="uni1E27" unicode="&#x1e27;" horiz-adv-x="1366" 
d="M136 1588q-84 0 -124 49t-40 117t40 117t124 49q86 0 126 -50t40 -116t-40 -116t-126 -50zM0 0zM1274 0h-404v574q0 166 -156 176q-178 -20 -178 -212v-538h-404v1484h404v-564q118 184 346 184q166 0 279 -102t113 -312v-690zM530 1588q-84 0 -124 49t-40 117t40 117
t124 49q86 0 126 -50t40 -116t-40 -116t-126 -50z" />
    <glyph glyph-name="uni1E28" unicode="&#x1e28;" horiz-adv-x="1566" 
d="M68 0zM296 -478q-114 0 -228 40l56 170q52 -16 96 -16q82 0 82 40q0 26 -33 36t-119 10l70 218l218 -20l-42 -114q166 -46 166 -164q0 -106 -80 -153t-186 -47zM1448 0h-416v522h-498v-522h-416v1402h416v-558h498v558h416v-1402z" />
    <glyph glyph-name="uni1E29" unicode="&#x1e29;" horiz-adv-x="1366" 
d="M76 0zM304 -478q-114 0 -228 40l56 170q52 -16 96 -16q82 0 82 40q0 26 -33 36t-119 10l70 218l218 -20l-42 -114q166 -46 166 -164q0 -106 -80 -153t-186 -47zM1274 0h-404v574q0 166 -156 176q-178 -20 -178 -212v-538h-404v1484h404v-564q118 184 346 184
q166 0 279 -102t113 -312v-690z" />
    <glyph glyph-name="uni1E2A" unicode="&#x1e2a;" horiz-adv-x="1566" 
d="M1448 0h-416v522h-498v-522h-416v1402h416v-558h498v558h416v-1402zM784 -456q-174 0 -257 93t-93 241h246q18 -108 104 -108q88 0 104 108h246q-10 -148 -93 -241t-257 -93z" />
    <glyph glyph-name="uni1E2B" unicode="&#x1e2b;" horiz-adv-x="1366" 
d="M1274 0h-404v574q0 166 -156 176q-178 -20 -178 -212v-538h-404v1484h404v-564q118 184 346 184q166 0 279 -102t113 -312v-690zM704 -456q-174 0 -257 93t-93 241h246q18 -108 104 -108q88 0 104 108h246q-10 -148 -93 -241t-257 -93z" />
    <glyph glyph-name="uni1E2C" unicode="&#x1e2c;" horiz-adv-x="652" 
d="M496 -448q-84 0 -184 54q-50 32 -86 32q-56 0 -56 -80h-218q0 334 204 334q84 0 186 -54q48 -30 80 -30q60 0 60 66v12h216q0 -334 -202 -334zM0 0zM534 0h-416v1402h416v-1402zM694 -108z" />
    <glyph glyph-name="uni1E2D" unicode="&#x1e2d;" horiz-adv-x="648" 
d="M496 -448q-84 0 -184 54q-50 32 -86 32q-56 0 -56 -80h-218q0 334 204 334q84 0 186 -54q48 -30 80 -30q60 0 60 66v12h216q0 -334 -202 -334zM0 0zM326 1190q-84 0 -146 51t-62 157t62 157t146 51t146 -51t62 -157q0 -84 -51 -146t-157 -62zM526 0h-404v1088h404v-1088z
M694 -108z" />
    <glyph glyph-name="uni1E2E" unicode="&#x1e2e;" horiz-adv-x="652" 
d="M120 1508q-68 0 -116 44t-48 120q0 88 49 126t115 38t115 -38t49 -126q0 -68 -44 -116t-120 -48zM334 1886l-228 58l298 274l262 -154zM534 0h-416v1402h416v-1402zM530 1508q-68 0 -116 44t-48 120q0 88 49 126t115 38t115 -38t49 -126q0 -68 -44 -116t-120 -48z" />
    <glyph glyph-name="uni1E2F" unicode="&#x1e2f;" horiz-adv-x="648" 
d="M120 1202q-68 0 -116 44t-48 120q0 88 49 126t115 38t115 -38t49 -126q0 -76 -48 -120t-116 -44zM334 1580l-228 58l298 274l262 -154zM526 0h-404v1088h404v-1088zM530 1202q-68 0 -116 44t-48 120q0 88 49 126t115 38t115 -38t49 -126q0 -68 -44 -116t-120 -48z" />
    <glyph glyph-name="uni1E30" unicode="&#x1e30;" horiz-adv-x="1522" 
d="M1516 0h-498l-328 516l-156 -172v-344h-416v1402h416v-562l470 562h480l-510 -568zM118 0zM892 1496l-264 20l254 340l316 -116z" />
    <glyph glyph-name="uni1E31" unicode="&#x1e31;" horiz-adv-x="1296" 
d="M1294 0h-478l-198 378l-82 -86v-292h-404v1484h404v-722l300 326h456l-398 -420zM132 0zM408 1578l-264 20l254 340l316 -116z" />
    <glyph glyph-name="uni1E32" unicode="&#x1e32;" horiz-adv-x="1522" 
d="M1516 0h-498l-328 516l-156 -172v-344h-416v1402h416v-562l470 562h480l-510 -568zM118 0zM818 -548q-84 0 -146 51t-62 157t62 157t146 51q106 0 157 -62t51 -146t-51 -146t-157 -62z" />
    <glyph glyph-name="uni1E33" unicode="&#x1e33;" horiz-adv-x="1296" 
d="M1294 0h-478l-198 378l-82 -86v-292h-404v1484h404v-722l300 326h456l-398 -420zM132 0zM714 -548q-84 0 -146 51t-62 157t62 157t146 51q106 0 157 -62t51 -146t-51 -146t-157 -62z" />
    <glyph glyph-name="uni1E34" unicode="&#x1e34;" horiz-adv-x="1522" 
d="M1516 0h-498l-328 516l-156 -172v-344h-416v1402h416v-562l470 562h480l-510 -568zM118 0zM1132 -384h-630v230h630v-230z" />
    <glyph glyph-name="uni1E35" unicode="&#x1e35;" horiz-adv-x="1296" 
d="M1294 0h-478l-198 378l-82 -86v-292h-404v1484h404v-722l300 326h456l-398 -420zM132 0zM1028 -384h-630v230h630v-230z" />
    <glyph glyph-name="uni1E36" unicode="&#x1e36;" horiz-adv-x="1148" 
d="M1122 0h-1004v1402h416v-1054h588v-348zM620 -548q-84 0 -146 51t-62 157t62 157t146 51q106 0 157 -62t51 -146q0 -106 -62 -157t-146 -51z" />
    <glyph glyph-name="uni1E37" unicode="&#x1e37;" horiz-adv-x="720" 
d="M518 -20q-172 0 -294 108t-122 332v1064h404v-1052q0 -104 94 -104q46 0 100 26l28 -332q-112 -42 -210 -42zM442 -548q-84 0 -146 51t-62 157q0 84 51 146t157 62q84 0 146 -51t62 -157t-62 -157t-146 -51z" />
    <glyph glyph-name="uni1E38" unicode="&#x1e38;" horiz-adv-x="1148" 
d="M690 1512h-730v230h730v-230zM0 0zM1122 0h-1004v1402h416v-1054h588v-348zM620 -548q-84 0 -146 51t-62 157t62 157t146 51q106 0 157 -62t51 -146q0 -106 -62 -157t-146 -51z" />
    <glyph glyph-name="uni1E39" unicode="&#x1e39;" horiz-adv-x="720" 
d="M668 1594h-730v230h730v-230zM0 0zM518 -20q-172 0 -294 108t-122 332v1064h404v-1052q0 -104 94 -104q46 0 100 26l28 -332q-112 -42 -210 -42zM442 -548q-84 0 -146 51t-62 157q0 84 51 146t157 62q84 0 146 -51t62 -157t-62 -157t-146 -51z" />
    <glyph glyph-name="uni1E3A" unicode="&#x1e3a;" horiz-adv-x="1148" 
d="M1122 0h-1004v1402h416v-1054h588v-348zM936 -384h-630v230h630v-230z" />
    <glyph glyph-name="uni1E3B" unicode="&#x1e3b;" horiz-adv-x="720" 
d="M518 -20q-172 0 -294 108t-122 332v1064h404v-1052q0 -104 94 -104q46 0 100 26l28 -332q-112 -42 -210 -42zM758 -384h-630v230h630v-230z" />
    <glyph glyph-name="uni1E3C" unicode="&#x1e3c;" horiz-adv-x="1148" 
d="M1122 0h-1004v1402h416v-1054h588v-348zM118 0zM1012 -436h-268l-124 138l-126 -138h-268l220 314h346zM968 -122z" />
    <glyph glyph-name="uni1E3D" unicode="&#x1e3d;" horiz-adv-x="720" 
d="M102 0zM518 -20q-172 0 -294 108t-122 332v1064h404v-1052q0 -104 94 -104q46 0 100 26l28 -332q-112 -42 -210 -42zM910 -436h-268l-124 138l-126 -138h-268l220 314h346zM866 -122z" />
    <glyph glyph-name="uni1E3E" unicode="&#x1e3e;" horiz-adv-x="1878" 
d="M1760 0h-366v832l-320 -694h-270l-320 694v-832h-366v1402h446l376 -778l374 778h446v-1402zM118 0zM1014 1496l-264 20l254 340l316 -116z" />
    <glyph glyph-name="uni1E3F" unicode="&#x1e3f;" horiz-adv-x="2068" 
d="M1976 0h-404v574q0 94 -45 135t-105 41q-90 -12 -130 -71t-40 -141v-538h-404v574q0 94 -45 135t-105 41q-172 -20 -172 -212v-538h-404v1088h404v-166q116 182 338 182q256 0 358 -236q114 236 368 236q162 0 274 -102t112 -312v-690zM122 0zM1124 1190l-264 20l254 340
l316 -116z" />
    <glyph glyph-name="uni1E40" unicode="&#x1e40;" horiz-adv-x="1878" 
d="M1760 0h-366v832l-320 -694h-270l-320 694v-832h-366v1402h446l376 -778l374 778h446v-1402zM118 0zM940 1506q-104 0 -156 63t-52 147q0 106 62 157t146 51q106 0 157 -62t51 -146t-52 -147t-156 -63z" />
    <glyph glyph-name="uni1E41" unicode="&#x1e41;" horiz-adv-x="2068" 
d="M1976 0h-404v574q0 94 -45 135t-105 41q-90 -12 -130 -71t-40 -141v-538h-404v574q0 94 -45 135t-105 41q-172 -20 -172 -212v-538h-404v1088h404v-166q116 182 338 182q256 0 358 -236q114 236 368 236q162 0 274 -102t112 -312v-690zM122 0zM1050 1190q-84 0 -146 51
t-62 157t62 157t146 51q106 0 157 -62t51 -146t-51 -146t-157 -62z" />
    <glyph glyph-name="uni1E42" unicode="&#x1e42;" horiz-adv-x="1878" 
d="M1760 0h-366v832l-320 -694h-270l-320 694v-832h-366v1402h446l376 -778l374 778h446v-1402zM938 -548q-106 0 -157 62t-51 146q0 106 62 157t146 51q106 0 157 -62t51 -146q0 -106 -62 -157t-146 -51z" />
    <glyph glyph-name="uni1E43" unicode="&#x1e43;" horiz-adv-x="2068" 
d="M1976 0h-404v574q0 94 -45 135t-105 41q-90 -12 -130 -71t-40 -141v-538h-404v574q0 94 -45 135t-105 41q-172 -20 -172 -212v-538h-404v1088h404v-166q116 182 338 182q256 0 358 -236q114 236 368 236q162 0 274 -102t112 -312v-690zM1050 -548q-106 0 -157 62t-51 146
t51 146t157 62t157 -62t51 -146t-51 -146t-157 -62z" />
    <glyph glyph-name="uni1E44" unicode="&#x1e44;" horiz-adv-x="1566" 
d="M1448 0h-354l-594 780v-780h-382v1402h356l594 -782v782h380v-1402zM788 1506q-104 0 -156 63t-52 147q0 106 62 157t146 51t146 -51t62 -157q0 -84 -52 -147t-156 -63z" />
    <glyph glyph-name="uni1E45" unicode="&#x1e45;" horiz-adv-x="1356" 
d="M1264 0h-404v574q0 94 -47 135t-109 41q-178 -20 -178 -212v-538h-404v1088h404v-168q118 184 346 184q164 0 278 -100t114 -314v-690zM714 1190q-106 0 -157 62t-51 146q0 106 62 157t146 51q106 0 157 -62t51 -146q0 -106 -62 -157t-146 -51z" />
    <glyph glyph-name="uni1E46" unicode="&#x1e46;" horiz-adv-x="1566" 
d="M1448 0h-354l-594 780v-780h-382v1402h356l594 -782v782h380v-1402zM796 -548q-106 0 -157 62t-51 146q0 106 62 157t146 51t146 -51t62 -157t-62 -157t-146 -51z" />
    <glyph glyph-name="uni1E47" unicode="&#x1e47;" horiz-adv-x="1356" 
d="M1264 0h-404v574q0 94 -47 135t-109 41q-178 -20 -178 -212v-538h-404v1088h404v-168q118 184 346 184q164 0 278 -100t114 -314v-690zM690 -548q-84 0 -146 51t-62 157q0 84 51 146t157 62t157 -62t51 -146q0 -106 -62 -157t-146 -51z" />
    <glyph glyph-name="uni1E48" unicode="&#x1e48;" horiz-adv-x="1566" 
d="M1448 0h-354l-594 780v-780h-382v1402h356l594 -782v782h380v-1402zM1112 -384h-630v230h630v-230z" />
    <glyph glyph-name="uni1E49" unicode="&#x1e49;" horiz-adv-x="1356" 
d="M1264 0h-404v574q0 94 -47 135t-109 41q-178 -20 -178 -212v-538h-404v1088h404v-168q118 184 346 184q164 0 278 -100t114 -314v-690zM1006 -384h-630v230h630v-230z" />
    <glyph glyph-name="uni1E4A" unicode="&#x1e4a;" horiz-adv-x="1566" 
d="M1448 0h-354l-594 780v-780h-382v1402h356l594 -782v782h380v-1402zM118 0zM1176 -436h-268l-124 138l-126 -138h-268l220 314h346zM1132 -122z" />
    <glyph glyph-name="uni1E4B" unicode="&#x1e4b;" horiz-adv-x="1356" 
d="M1264 0h-404v574q0 94 -47 135t-109 41q-178 -20 -178 -212v-538h-404v1088h404v-168q118 184 346 184q164 0 278 -100t114 -314v-690zM122 0zM1086 -436h-268l-124 138l-126 -138h-268l220 314h346zM1042 -122z" />
    <glyph glyph-name="uni1E4C" unicode="&#x1e4c;" horiz-adv-x="1604" 
d="M802 -28q-328 0 -546 208t-218 524q0 314 217 519t547 205q332 0 548 -206t216 -518q0 -314 -218 -523t-546 -209zM978 1506q-88 0 -210 52q-60 28 -94 28q-60 0 -60 -76h-184q0 282 196 282q102 0 210 -52q60 -28 92 -28q62 0 62 74h184q0 -280 -196 -280zM808 318
q132 0 232 104t100 280t-100 278t-232 102q-61 0 -122 -22t-111 -68.5t-80.5 -118t-30.5 -171.5q0 -124 50 -209.5t129 -130t165 -44.5zM814 1870l-228 58l298 274l262 -154z" />
    <glyph glyph-name="uni1E4D" unicode="&#x1e4d;" horiz-adv-x="1286" 
d="M644 -14q-266 0 -436 145t-170 413q0 264 170 411t436 147q268 0 434 -146q170 -144 170 -412q0 -244 -157 -401t-447 -157zM820 1198q-88 0 -210 52q-60 28 -94 28q-60 0 -60 -76h-184q0 282 196 282q102 0 210 -52q60 -28 92 -28q62 0 62 74h184q0 -280 -196 -280z
M656 1562l-228 58l298 274l262 -154zM644 298q80 0 138 58t58 184q0 100 -48 171t-148 71q-108 0 -153 -75t-45 -167q0 -100 49 -171t149 -71z" />
    <glyph glyph-name="uni1E4E" unicode="&#x1e4e;" horiz-adv-x="1604" 
d="M802 -28q-328 0 -546 208t-218 524q0 314 217 519t547 205q332 0 548 -206t216 -518q0 -314 -218 -523t-546 -209zM950 1506q-88 0 -210 52q-60 28 -94 28q-60 0 -60 -76h-184q0 282 196 282q102 0 210 -52q60 -28 92 -28q62 0 62 74h184q0 -280 -196 -280zM570 1870
q-68 0 -116 44t-48 120q0 88 49 126t115 38t115 -38t49 -126q0 -68 -44 -116t-120 -48zM808 318q132 0 232 104t100 280t-100 278t-232 102q-61 0 -122 -22t-111 -68.5t-80.5 -118t-30.5 -171.5q0 -124 50 -209.5t129 -130t165 -44.5zM980 1870q-76 0 -120 48t-44 116
q0 88 49 126t115 38t115 -38t49 -126q0 -76 -48 -120t-116 -44z" />
    <glyph glyph-name="uni1E4F" unicode="&#x1e4f;" horiz-adv-x="1286" 
d="M644 -14q-266 0 -436 145t-170 413q0 264 170 411t436 147q268 0 434 -146q170 -144 170 -412q0 -244 -157 -401t-447 -157zM790 1198q-88 0 -210 52q-60 28 -94 28q-60 0 -60 -76h-184q0 282 196 282q102 0 210 -52q60 -28 92 -28q62 0 62 74h184q0 -280 -196 -280z
M410 1562q-68 0 -116 44t-48 120q0 88 49 126t115 38t115 -38t49 -126q0 -68 -44 -116t-120 -48zM644 298q80 0 138 58t58 184q0 100 -48 171t-148 71q-108 0 -153 -75t-45 -167q0 -100 49 -171t149 -71zM820 1562q-76 0 -120 48t-44 116q0 88 49 126t115 38t115 -38
t49 -126q0 -68 -44 -116t-120 -48z" />
    <glyph glyph-name="uni1E50" unicode="&#x1e50;" horiz-adv-x="1604" 
d="M802 -28q-328 0 -546 208t-218 524q0 314 217 519t547 205q332 0 548 -206t216 -518q0 -314 -218 -523t-546 -209zM808 318q132 0 232 104t100 280t-100 278t-232 102q-61 0 -122 -22t-111 -68.5t-80.5 -118t-30.5 -171.5q0 -124 50 -209.5t129 -130t165 -44.5zM800 1816
l-332 178l260 154l300 -274zM1136 1510h-612v218h612v-218z" />
    <glyph glyph-name="uni1E51" unicode="&#x1e51;" horiz-adv-x="1286" 
d="M644 -14q-266 0 -436 145t-170 413q0 264 170 411t436 147q268 0 434 -146q170 -144 170 -412q0 -244 -157 -401t-447 -157zM568 1508l-332 178l260 154l300 -274zM904 1202h-612v218h612v-218zM644 298q80 0 138 58t58 184q0 100 -48 171t-148 71q-108 0 -153 -75
t-45 -167q0 -100 49 -171t149 -71z" />
    <glyph glyph-name="uni1E52" unicode="&#x1e52;" horiz-adv-x="1604" 
d="M802 -28q-328 0 -546 208t-218 524q0 314 217 519t547 205q332 0 548 -206t216 -518q0 -314 -218 -523t-546 -209zM808 318q132 0 232 104t100 280t-100 278t-232 102q-61 0 -122 -22t-111 -68.5t-80.5 -118t-30.5 -171.5q0 -124 50 -209.5t129 -130t165 -44.5z
M1088 1510h-612v218h612v-218zM792 1816l-228 58l298 274l262 -154z" />
    <glyph glyph-name="uni1E53" unicode="&#x1e53;" horiz-adv-x="1286" 
d="M644 -14q-266 0 -436 145t-170 413q0 264 170 411t436 147q268 0 434 -146q170 -144 170 -412q0 -244 -157 -401t-447 -157zM900 1202h-612v218h612v-218zM604 1508l-228 58l298 274l262 -154zM644 298q80 0 138 58t58 184q0 100 -48 171t-148 71q-108 0 -153 -75
t-45 -167q0 -100 49 -171t149 -71z" />
    <glyph glyph-name="uni1E54" unicode="&#x1e54;" horiz-adv-x="1366" 
d="M534 0h-416v1402h636q258 0 414 -121t156 -377q0 -234 -142 -380t-428 -146l-220 -2v-376zM118 0zM796 1496l-264 20l254 340l316 -116zM734 698q196 0 196 194q0 184 -196 190h-200v-384h200z" />
    <glyph glyph-name="uni1E55" unicode="&#x1e55;" horiz-adv-x="1376" 
d="M132 0zM536 -388h-404v1476h404v-126q116 140 298 140q218 0 361 -145t143 -419q0 -234 -122 -393t-372 -159q-192 0 -308 140v-514zM732 306q108 0 153 75t45 167t-45 167t-153 75q-78 0 -137 -58t-59 -184t59 -184t137 -58zM810 1190l-264 20l254 340l316 -116z" />
    <glyph glyph-name="uni1E56" unicode="&#x1e56;" horiz-adv-x="1366" 
d="M534 0h-416v1402h636q258 0 414 -121t156 -377q0 -234 -142 -380t-428 -146l-220 -2v-376zM118 0zM722 1506q-104 0 -156 63t-52 147q0 106 62 157t146 51q106 0 157 -62t51 -146t-52 -147t-156 -63zM734 698q196 0 196 194q0 184 -196 190h-200v-384h200z" />
    <glyph glyph-name="uni1E57" unicode="&#x1e57;" horiz-adv-x="1376" 
d="M132 0zM536 -388h-404v1476h404v-126q116 140 298 140q218 0 361 -145t143 -419q0 -234 -122 -393t-372 -159q-192 0 -308 140v-514zM736 1190q-84 0 -146 51t-62 157t62 157t146 51q106 0 157 -62t51 -146t-51 -146t-157 -62zM732 306q108 0 153 75t45 167t-45 167
t-153 75q-78 0 -137 -58t-59 -184t59 -184t137 -58z" />
    <glyph glyph-name="uni1E58" unicode="&#x1e58;" horiz-adv-x="1450" 
d="M1412 0h-472l-186 378h-220v-378h-416v1402h654q268 0 430 -119t162 -379q0 -312 -236 -446zM118 0zM724 1506q-104 0 -156 63t-52 147q0 106 62 157t146 51q106 0 157 -62t51 -146t-52 -147t-156 -63zM772 698q196 0 196 194q0 184 -196 190h-238v-384h238z" />
    <glyph glyph-name="uni1E59" unicode="&#x1e59;" horiz-adv-x="888" 
d="M526 0h-404v1088h404v-172q120 188 342 188v-364l-70 4q-110 0 -191 -52t-81 -172v-520zM122 0zM496 1190q-84 0 -146 51t-62 157t62 157t146 51q106 0 157 -62t51 -146t-51 -146t-157 -62z" />
    <glyph glyph-name="uni1E5A" unicode="&#x1e5a;" horiz-adv-x="1450" 
d="M1412 0h-472l-186 378h-220v-378h-416v1402h654q268 0 430 -119t162 -379q0 -312 -236 -446zM718 -548q-106 0 -157 62t-51 146q0 106 62 157t146 51q106 0 157 -62t51 -146q0 -106 -62 -157t-146 -51zM772 698q196 0 196 194q0 184 -196 190h-238v-384h238z" />
    <glyph glyph-name="uni1E5B" unicode="&#x1e5b;" horiz-adv-x="888" 
d="M324 -548q-84 0 -146 51t-62 157t62 157t146 51q106 0 157 -62t51 -146q0 -106 -62 -157t-146 -51zM526 0h-404v1088h404v-172q120 188 342 188v-364l-70 4q-110 0 -191 -52t-81 -172v-520z" />
    <glyph glyph-name="uni1E5C" unicode="&#x1e5c;" horiz-adv-x="1450" 
d="M1412 0h-472l-186 378h-220v-378h-416v1402h654q268 0 430 -119t162 -379q0 -312 -236 -446zM118 0zM1088 1512h-730v230h730v-230zM718 -548q-106 0 -157 62t-51 146q0 106 62 157t146 51q106 0 157 -62t51 -146q0 -106 -62 -157t-146 -51zM772 698q196 0 196 194
q0 184 -196 190h-238v-384h238z" />
    <glyph glyph-name="uni1E5D" unicode="&#x1e5d;" horiz-adv-x="888" 
d="M116 0zM324 -548q-84 0 -146 51t-62 157t62 157t146 51q106 0 157 -62t51 -146q0 -106 -62 -157t-146 -51zM526 0h-404v1088h404v-172q120 188 342 188v-364l-70 4q-110 0 -191 -52t-81 -172v-520zM806 1274h-630v230h630v-230z" />
    <glyph glyph-name="uni1E5E" unicode="&#x1e5e;" horiz-adv-x="1450" 
d="M1412 0h-472l-186 378h-220v-378h-416v1402h654q268 0 430 -119t162 -379q0 -312 -236 -446zM1034 -384h-630v230h630v-230zM772 698q196 0 196 194q0 184 -196 190h-238v-384h238z" />
    <glyph glyph-name="uni1E5F" unicode="&#x1e5f;" horiz-adv-x="888" 
d="M640 -384h-630v230h630v-230zM526 0h-404v1088h404v-172q120 188 342 188v-364l-70 4q-110 0 -191 -52t-81 -172v-520z" />
    <glyph glyph-name="uni1E60" unicode="&#x1e60;" horiz-adv-x="1310" 
d="M698 -24q-358 0 -674 228l156 316q157 -115 292.5 -166.5t229.5 -51.5q144 0 144 100q0 64 -80 94q-74 32 -170 56q-120 32 -248 84q-234 104 -234 352q0 148 77 247q89 107 221.5 153t281.5 46q324 0 586 -164l-154 -320q-262 158 -466 158q-116 0 -116 -82
q0 -52 60 -88t194 -67q126 -31 243 -84t191 -169q44 -74 44 -194q0 -158 -82 -257q-88 -103 -219.5 -147t-276.5 -44zM702 1506q-104 0 -156 63t-52 147q0 106 62 157t146 51q106 0 157 -62t51 -146t-52 -147t-156 -63z" />
    <glyph glyph-name="uni1E61" unicode="&#x1e61;" horiz-adv-x="1070" 
d="M540 -18q-286 0 -512 154l124 254q212 -134 394 -134q90 0 90 50q0 64 -168 92q-180 30 -322 160q-66 66 -66 184q0 124 61.5 204.5t167 120t235.5 39.5q248 0 478 -132l-134 -254q-224 114 -356 114q-72 0 -82 -52q0 -64 175 -93t325 -161q68 -68 68 -186
q0 -122 -64 -201q-73 -85 -182 -122t-232 -37zM558 1190q-84 0 -146 51t-62 157t62 157t146 51q106 0 157 -62t51 -146q0 -106 -62 -157t-146 -51z" />
    <glyph glyph-name="uni1E62" unicode="&#x1e62;" horiz-adv-x="1310" 
d="M698 -24q-358 0 -674 228l156 316q157 -115 292.5 -166.5t229.5 -51.5q144 0 144 100q0 64 -80 94q-74 32 -170 56q-120 32 -248 84q-234 104 -234 352q0 148 77 247q89 107 221.5 153t281.5 46q324 0 586 -164l-154 -320q-262 158 -466 158q-116 0 -116 -82
q0 -52 60 -88t194 -67q126 -31 243 -84t191 -169q44 -74 44 -194q0 -158 -82 -257q-88 -103 -219.5 -147t-276.5 -44zM678 -548q-84 0 -146 51t-62 157q0 84 51 146t157 62t157 -62t51 -146q0 -106 -62 -157t-146 -51z" />
    <glyph glyph-name="uni1E63" unicode="&#x1e63;" horiz-adv-x="1070" 
d="M540 -18q-286 0 -512 154l124 254q212 -134 394 -134q90 0 90 50q0 64 -168 92q-180 30 -322 160q-66 66 -66 184q0 124 61.5 204.5t167 120t235.5 39.5q248 0 478 -132l-134 -254q-224 114 -356 114q-72 0 -82 -52q0 -64 175 -93t325 -161q68 -68 68 -186
q0 -122 -64 -201q-73 -85 -182 -122t-232 -37zM532 -548q-84 0 -146 51t-62 157t62 157t146 51q106 0 157 -62t51 -146q0 -106 -62 -157t-146 -51z" />
    <glyph glyph-name="uni1E64" unicode="&#x1e64;" horiz-adv-x="1310" 
d="M698 -24q-358 0 -674 228l156 316q157 -115 292.5 -166.5t229.5 -51.5q144 0 144 100q0 64 -80 94q-74 32 -170 56q-120 32 -248 84q-234 104 -234 352q0 148 77 247q89 107 221.5 153t281.5 46q324 0 586 -164l-154 -320q-262 158 -466 158q-116 0 -116 -82
q0 -52 60 -88t194 -67q126 -31 243 -84t191 -169q44 -74 44 -194q0 -158 -82 -257q-88 -103 -219.5 -147t-276.5 -44zM648 1488l-228 58l298 274l262 -154zM700 1874q-70 0 -124 45t-54 133t54 133t124 45t124 -45t54 -133t-54 -133t-124 -45z" />
    <glyph glyph-name="uni1E65" unicode="&#x1e65;" horiz-adv-x="1070" 
d="M540 -18q-286 0 -512 154l124 254q212 -134 394 -134q90 0 90 50q0 64 -168 92q-180 30 -322 160q-66 66 -66 184q0 124 61.5 204.5t167 120t235.5 39.5q248 0 478 -132l-134 -254q-224 114 -356 114q-72 0 -82 -52q0 -64 175 -93t325 -161q68 -68 68 -186
q0 -122 -64 -201q-73 -85 -182 -122t-232 -37zM506 1202l-228 58l298 274l262 -154zM558 1588q-88 0 -133 54t-45 124t45 124t133 54q70 0 124 -45t54 -133t-54 -133t-124 -45z" />
    <glyph glyph-name="uni1E66" unicode="&#x1e66;" horiz-adv-x="1310" 
d="M698 -24q-358 0 -674 228l156 316q157 -115 292.5 -166.5t229.5 -51.5q144 0 144 100q0 64 -80 94q-74 32 -170 56q-120 32 -248 84q-234 104 -234 352q0 148 77 247q89 107 221.5 153t281.5 46q324 0 586 -164l-154 -320q-262 158 -466 158q-116 0 -116 -82
q0 -52 60 -88t194 -67q126 -31 243 -84t191 -169q44 -74 44 -194q0 -158 -82 -257q-88 -103 -219.5 -147t-276.5 -44zM914 1508h-386l-240 260h304l128 -132l130 132h304zM722 1866q-70 0 -124 45t-54 133t54 133t124 45t124 -45t54 -133t-54 -133t-124 -45z" />
    <glyph glyph-name="uni1E67" unicode="&#x1e67;" horiz-adv-x="1070" 
d="M540 -18q-286 0 -512 154l124 254q212 -134 394 -134q90 0 90 50q0 64 -168 92q-180 30 -322 160q-66 66 -66 184q0 124 61.5 204.5t167 120t235.5 39.5q248 0 478 -132l-134 -254q-224 114 -356 114q-72 0 -82 -52q0 -64 175 -93t325 -161q68 -68 68 -186
q0 -122 -64 -201q-73 -85 -182 -122t-232 -37zM770 1202h-386l-240 260h304l128 -132l130 132h304zM578 1560q-88 0 -133 54t-45 124t45 124t133 54q70 0 124 -45t54 -133t-54 -133t-124 -45z" />
    <glyph glyph-name="uni1E68" unicode="&#x1e68;" horiz-adv-x="1310" 
d="M698 -24q-358 0 -674 228l156 316q157 -115 292.5 -166.5t229.5 -51.5q144 0 144 100q0 64 -80 94q-74 32 -170 56q-120 32 -248 84q-234 104 -234 352q0 148 77 247q89 107 221.5 153t281.5 46q324 0 586 -164l-154 -320q-262 158 -466 158q-116 0 -116 -82
q0 -52 60 -88t194 -67q126 -31 243 -84t191 -169q44 -74 44 -194q0 -158 -82 -257q-88 -103 -219.5 -147t-276.5 -44zM678 -548q-84 0 -146 51t-62 157q0 84 51 146t157 62t157 -62t51 -146q0 -106 -62 -157t-146 -51zM678 1506q-104 0 -156 63t-52 147q0 106 62 157t146 51
q106 0 157 -62t51 -146t-52 -147t-156 -63z" />
    <glyph glyph-name="uni1E69" unicode="&#x1e69;" horiz-adv-x="1070" 
d="M540 -18q-286 0 -512 154l124 254q212 -134 394 -134q90 0 90 50q0 64 -168 92q-180 30 -322 160q-66 66 -66 184q0 124 61.5 204.5t167 120t235.5 39.5q248 0 478 -132l-134 -254q-224 114 -356 114q-72 0 -82 -52q0 -64 175 -93t325 -161q68 -68 68 -186
q0 -122 -64 -201q-73 -85 -182 -122t-232 -37zM532 -548q-84 0 -146 51t-62 157t62 157t146 51q106 0 157 -62t51 -146q0 -106 -62 -157t-146 -51zM532 1190q-84 0 -146 51t-62 157t62 157t146 51q106 0 157 -62t51 -146q0 -106 -62 -157t-146 -51z" />
    <glyph glyph-name="uni1E6A" unicode="&#x1e6a;" horiz-adv-x="1256" 
d="M12 0zM836 0h-418v1070h-406v332h1232v-332h-408v-1070zM628 1506q-104 0 -156 63t-52 147q0 106 62 157t146 51q106 0 157 -62t51 -146t-52 -147t-156 -63z" />
    <glyph glyph-name="uni1E6B" unicode="&#x1e6b;" horiz-adv-x="898" 
d="M26 0zM564 -18q-170 0 -279 87t-109 271v434h-150v258h150v302h402v-302h268v-258h-268v-372q0 -104 92 -104q52 0 124 32l72 -278q-136 -70 -302 -70zM378 1438q-104 0 -156 63t-52 147q0 106 62 157t146 51q106 0 157 -62t51 -146t-52 -147t-156 -63z" />
    <glyph glyph-name="uni1E6C" unicode="&#x1e6c;" horiz-adv-x="1256" 
d="M836 0h-418v1070h-406v332h1232v-332h-408v-1070zM628 -548q-84 0 -146 51t-62 157t62 157t146 51q106 0 157 -62t51 -146q0 -106 -62 -157t-146 -51z" />
    <glyph glyph-name="uni1E6D" unicode="&#x1e6d;" horiz-adv-x="898" 
d="M564 -18q-170 0 -279 87t-109 271v434h-150v258h150v302h402v-302h268v-258h-268v-372q0 -104 92 -104q52 0 124 32l72 -278q-136 -70 -302 -70zM552 -548q-84 0 -146 51t-62 157t62 157t146 51q106 0 157 -62t51 -146t-51 -146t-157 -62z" />
    <glyph glyph-name="uni1E6E" unicode="&#x1e6e;" horiz-adv-x="1256" 
d="M836 0h-418v1070h-406v332h1232v-332h-408v-1070zM944 -384h-630v230h630v-230z" />
    <glyph glyph-name="uni1E6F" unicode="&#x1e6f;" horiz-adv-x="898" 
d="M564 -18q-170 0 -279 87t-109 271v434h-150v258h150v302h402v-302h268v-258h-268v-372q0 -104 92 -104q52 0 124 32l72 -278q-136 -70 -302 -70zM868 -384h-630v230h630v-230z" />
    <glyph glyph-name="uni1E70" unicode="&#x1e70;" horiz-adv-x="1256" 
d="M12 0zM836 0h-418v1070h-406v332h1232v-332h-408v-1070zM1020 -436h-268l-124 138l-126 -138h-268l220 314h346zM976 -122z" />
    <glyph glyph-name="uni1E71" unicode="&#x1e71;" horiz-adv-x="898" 
d="M26 0zM564 -18q-170 0 -279 87t-109 271v434h-150v258h150v302h402v-302h268v-258h-268v-372q0 -104 92 -104q52 0 124 32l72 -278q-136 -70 -302 -70zM964 -436h-268l-124 138l-126 -138h-268l220 314h346zM920 -122z" />
    <glyph glyph-name="uni1E72" unicode="&#x1e72;" horiz-adv-x="1490" 
d="M96 0zM750 -28q-184 0 -328 63t-235 203t-91 342v822h416v-822q0 -136 75 -199t163 -63q94 0 161 61t67 201v822h416v-822q0 -290 -179 -449t-465 -159zM548 -462q-84 0 -124 49t-40 117t40 117t124 49t124 -49t40 -117t-40 -117t-124 -49zM942 -462q-84 0 -124 49
t-40 117t40 117t124 49t124 -49t40 -117t-40 -117t-124 -49z" />
    <glyph glyph-name="uni1E73" unicode="&#x1e73;" horiz-adv-x="1336" 
d="M92 0zM476 -18q-104 0 -202 50q-80 40 -131 131t-51 235v690h404v-576q0 -166 146 -174q90 12 129 72t39 140v538h404v-1088h-404v162q-114 -180 -334 -180zM456 -462q-84 0 -124 49t-40 117t40 117t124 49t124 -49t40 -117t-40 -117t-124 -49zM850 -462q-84 0 -124 49
t-40 117t40 117t124 49t124 -49t40 -117t-40 -117t-124 -49z" />
    <glyph glyph-name="uni1E74" unicode="&#x1e74;" horiz-adv-x="1490" 
d="M96 0zM750 -28q-184 0 -328 63t-235 203t-91 342v822h416v-822q0 -136 75 -199t163 -63q94 0 161 61t67 201v822h416v-822q0 -290 -179 -449t-465 -159zM916 -448q-84 0 -184 54q-50 32 -86 32q-56 0 -56 -80h-218q0 334 204 334q84 0 186 -54q48 -30 80 -30q60 0 60 66
v12h216q0 -334 -202 -334zM1114 -108z" />
    <glyph glyph-name="uni1E75" unicode="&#x1e75;" horiz-adv-x="1336" 
d="M92 0zM476 -18q-104 0 -202 50q-80 40 -131 131t-51 235v690h404v-576q0 -166 146 -174q90 12 129 72t39 140v538h404v-1088h-404v162q-114 -180 -334 -180zM824 -448q-84 0 -184 54q-50 32 -86 32q-56 0 -56 -80h-218q0 334 204 334q84 0 186 -54q48 -30 80 -30
q60 0 60 66v12h216q0 -334 -202 -334zM1022 -108z" />
    <glyph glyph-name="uni1E76" unicode="&#x1e76;" horiz-adv-x="1490" 
d="M96 0zM750 -28q-184 0 -328 63t-235 203t-91 342v822h416v-822q0 -136 75 -199t163 -63q94 0 161 61t67 201v822h416v-822q0 -290 -179 -449t-465 -159zM1138 -436h-268l-124 138l-126 -138h-268l220 314h346zM1094 -122z" />
    <glyph glyph-name="uni1E77" unicode="&#x1e77;" horiz-adv-x="1336" 
d="M92 0zM476 -18q-104 0 -202 50q-80 40 -131 131t-51 235v690h404v-576q0 -166 146 -174q90 12 129 72t39 140v538h404v-1088h-404v162q-114 -180 -334 -180zM1046 -436h-268l-124 138l-126 -138h-268l220 314h346zM1002 -122z" />
    <glyph glyph-name="uni1E78" unicode="&#x1e78;" horiz-adv-x="1490" 
d="M750 -28q-184 0 -328 63t-235 203t-91 342v822h416v-822q0 -136 75 -199t163 -63q94 0 161 61t67 201v822h416v-822q0 -290 -179 -449t-465 -159zM922 1506q-88 0 -210 52q-60 28 -94 28q-60 0 -60 -76h-184q0 282 196 282q102 0 210 -52q60 -28 92 -28q62 0 62 74h184
q0 -280 -196 -280zM758 1870l-228 58l298 274l262 -154z" />
    <glyph glyph-name="uni1E79" unicode="&#x1e79;" horiz-adv-x="1336" 
d="M476 -18q-104 0 -202 50q-80 40 -131 131t-51 235v690h404v-576q0 -166 146 -174q90 12 129 72t39 140v538h404v-1088h-404v162q-114 -180 -334 -180zM844 1198q-88 0 -210 52q-60 28 -94 28q-60 0 -60 -76h-184q0 282 196 282q102 0 210 -52q60 -28 92 -28q62 0 62 74
h184q0 -280 -196 -280zM680 1562l-228 58l298 274l262 -154z" />
    <glyph glyph-name="uni1E7A" unicode="&#x1e7a;" horiz-adv-x="1490" 
d="M750 -28q-184 0 -328 63t-235 203t-91 342v822h416v-822q0 -136 75 -199t163 -63q94 0 161 61t67 201v822h416v-822q0 -290 -179 -449t-465 -159zM542 1816q-68 0 -116 44t-48 120q0 88 49 126t115 38t115 -38t49 -126q0 -68 -44 -116t-120 -48zM1052 1510h-612v218h612
v-218zM952 1816q-76 0 -120 48t-44 116q0 88 49 126t115 38t115 -38t49 -126q0 -76 -48 -120t-116 -44z" />
    <glyph glyph-name="uni1E7B" unicode="&#x1e7b;" horiz-adv-x="1336" 
d="M476 -18q-104 0 -202 50q-80 40 -131 131t-51 235v690h404v-576q0 -166 146 -174q90 12 129 72t39 140v538h404v-1088h-404v162q-114 -180 -334 -180zM444 1508q-68 0 -116 44t-48 120q0 88 49 126t115 38t115 -38t49 -126q0 -68 -44 -116t-120 -48zM954 1202h-612v218
h612v-218zM854 1508q-76 0 -120 48t-44 116q0 88 49 126t115 38t115 -38t49 -126q0 -68 -44 -116t-120 -48z" />
    <glyph glyph-name="uni1E7C" unicode="&#x1e7c;" horiz-adv-x="1496" 
d="M962 0h-432l-536 1402h444l320 -970l320 970h426zM0 0zM920 1504q-84 0 -184 54q-50 32 -86 32q-56 0 -56 -80h-218q0 334 204 334q84 0 186 -54q48 -30 80 -30q60 0 60 66v12h216q0 -334 -202 -334z" />
    <glyph glyph-name="uni1E7D" unicode="&#x1e7d;" horiz-adv-x="1188" 
d="M800 0h-412l-404 1088h416l200 -720l202 720h404zM0 0zM766 1192q-84 0 -184 54q-50 32 -86 32q-56 0 -56 -80h-218q0 334 204 334q84 0 186 -54q48 -30 80 -30q60 0 60 66v12h216q0 -334 -202 -334z" />
    <glyph glyph-name="uni1E7E" unicode="&#x1e7e;" horiz-adv-x="1496" 
d="M962 0h-432l-536 1402h444l320 -970l320 970h426zM0 0zM750 -548q-84 0 -146 51t-62 157t62 157t146 51q106 0 157 -62t51 -146t-51 -146t-157 -62z" />
    <glyph glyph-name="uni1E7F" unicode="&#x1e7f;" horiz-adv-x="1188" 
d="M800 0h-412l-404 1088h416l200 -720l202 720h404zM0 0zM596 -548q-84 0 -146 51t-62 157t62 157t146 51q106 0 157 -62t51 -146t-51 -146t-157 -62z" />
    <glyph glyph-name="Wgrave" unicode="&#x1e80;" horiz-adv-x="2266" 
d="M1798 0h-428l-236 898l-244 -898h-426l-470 1402h444l252 -974l250 974h406l252 -972l248 972h426zM1054 1496l-270 244l318 116l218 -340z" />
    <glyph glyph-name="wgrave" unicode="&#x1e81;" horiz-adv-x="1918" 
d="M1540 0h-398l-180 624l-184 -624h-398l-396 1088h410l196 -694l188 694h380l194 -694l192 694h392zM882 1190l-270 244l318 116l218 -340z" />
    <glyph glyph-name="Wacute" unicode="&#x1e82;" horiz-adv-x="2266" 
d="M1798 0h-428l-236 898l-244 -898h-426l-470 1402h444l252 -974l250 974h406l252 -972l248 972h426zM1196 1496l-264 20l254 340l316 -116z" />
    <glyph glyph-name="wacute" unicode="&#x1e83;" horiz-adv-x="1918" 
d="M1540 0h-398l-180 624l-184 -624h-398l-396 1088h410l196 -694l188 694h380l194 -694l192 694h392zM1026 1190l-264 20l254 340l316 -116z" />
    <glyph glyph-name="Wdieresis" unicode="&#x1e84;" horiz-adv-x="2266" 
d="M1798 0h-428l-236 898l-244 -898h-426l-470 1402h444l252 -974l250 974h406l252 -972l248 972h426zM936 1506q-84 0 -124 49t-40 117t40 117t124 49q86 0 126 -50t40 -116t-40 -116t-126 -50zM1330 1506q-84 0 -124 49t-40 117t40 117t124 49q86 0 126 -50t40 -116
t-40 -116t-126 -50z" />
    <glyph glyph-name="wdieresis" unicode="&#x1e85;" horiz-adv-x="1918" 
d="M1540 0h-398l-180 624l-184 -624h-398l-396 1088h410l196 -694l188 694h380l194 -694l192 694h392zM766 1216q-84 0 -124 49t-40 117t40 117t124 49t124 -49t40 -117t-40 -117t-124 -49zM1160 1216q-84 0 -124 49t-40 117t40 117t124 49t124 -49t40 -117t-40 -117
t-124 -49z" />
    <glyph glyph-name="uni1E86" unicode="&#x1e86;" horiz-adv-x="2266" 
d="M1798 0h-428l-236 898l-244 -898h-426l-470 1402h444l252 -974l250 974h406l252 -972l248 972h426zM0 0zM1134 1506q-104 0 -156 63t-52 147q0 106 62 157t146 51q106 0 157 -62t51 -146t-52 -147t-156 -63z" />
    <glyph glyph-name="uni1E87" unicode="&#x1e87;" horiz-adv-x="1918" 
d="M1540 0h-398l-180 624l-184 -624h-398l-396 1088h410l196 -694l188 694h380l194 -694l192 694h392zM0 0zM960 1190q-84 0 -146 51t-62 157t62 157t146 51q106 0 157 -62t51 -146t-51 -146t-157 -62z" />
    <glyph glyph-name="uni1E88" unicode="&#x1e88;" horiz-adv-x="2266" 
d="M1798 0h-428l-236 898l-244 -898h-426l-470 1402h444l252 -974l250 974h406l252 -972l248 972h426zM0 0zM1134 -548q-84 0 -146 51t-62 157t62 157t146 51q106 0 157 -62t51 -146t-51 -146t-157 -62z" />
    <glyph glyph-name="uni1E89" unicode="&#x1e89;" horiz-adv-x="1918" 
d="M1540 0h-398l-180 624l-184 -624h-398l-396 1088h410l196 -694l188 694h380l194 -694l192 694h392zM0 0zM960 -548q-84 0 -146 51t-62 157t62 157t146 51q106 0 157 -62t51 -146t-51 -146t-157 -62z" />
    <glyph glyph-name="uni1E8A" unicode="&#x1e8a;" horiz-adv-x="1512" 
d="M1512 0h-500l-266 400l-262 -400h-486l496 714l-464 688h484l232 -366l234 366h490l-458 -670zM0 0zM756 1506q-104 0 -156 63t-52 147q0 106 62 157t146 51q106 0 157 -62t51 -146t-52 -147t-156 -63z" />
    <glyph glyph-name="uni1E8B" unicode="&#x1e8b;" horiz-adv-x="1266" 
d="M1266 0h-464l-168 308l-192 -308h-444l364 556l-342 532h464l150 -282l168 282h440l-340 -530zM0 0zM632 1190q-84 0 -146 51t-62 157t62 157t146 51q106 0 157 -62t51 -146t-51 -146t-157 -62z" />
    <glyph glyph-name="uni1E8C" unicode="&#x1e8c;" horiz-adv-x="1512" 
d="M1512 0h-500l-266 400l-262 -400h-486l496 714l-464 688h484l232 -366l234 366h490l-458 -670zM0 0zM558 1506q-84 0 -124 49t-40 117t40 117t124 49q86 0 126 -50t40 -116t-40 -116t-126 -50zM952 1506q-84 0 -124 49t-40 117t40 117t124 49q86 0 126 -50t40 -116
t-40 -116t-126 -50z" />
    <glyph glyph-name="uni1E8D" unicode="&#x1e8d;" horiz-adv-x="1266" 
d="M1266 0h-464l-168 308l-192 -308h-444l364 556l-342 532h464l150 -282l168 282h440l-340 -530zM0 0zM434 1216q-84 0 -124 49t-40 117t40 117t124 49t124 -49t40 -117t-40 -117t-124 -49zM828 1216q-84 0 -124 49t-40 117t40 117t124 49t124 -49t40 -117t-40 -117
t-124 -49z" />
    <glyph glyph-name="uni1E8E" unicode="&#x1e8e;" horiz-adv-x="1404" 
d="M914 0h-416v436l-514 966h416l306 -572l298 572h414l-504 -958v-444zM702 1506q-104 0 -156 63t-52 147q0 106 62 157t146 51q106 0 157 -62t51 -146t-52 -147t-156 -63z" />
    <glyph glyph-name="uni1E8F" unicode="&#x1e8f;" horiz-adv-x="1210" 
d="M318 -406q-200 0 -350 120l168 270q64 -62 146 -62q102 0 138 108l-450 1058h414l238 -666l202 666h402l-456 -1180q-122 -314 -452 -314zM606 1190q-84 0 -146 51t-62 157t62 157t146 51q106 0 157 -62t51 -146q0 -106 -62 -157t-146 -51z" />
    <glyph glyph-name="uni1E90" unicode="&#x1e90;" horiz-adv-x="1358" 
d="M1312 0h-1264v262l696 816h-672v324h1226v-264l-696 -814h710v-324zM48 0zM1072 1510h-268l-124 138l-126 -138h-268l220 314h346z" />
    <glyph glyph-name="uni1E91" unicode="&#x1e91;" horiz-adv-x="1124" 
d="M1074 0h-1016v238l488 546h-468v304h976v-240l-488 -546h508v-302zM58 0zM958 1218h-268l-124 138l-126 -138h-268l220 314h346z" />
    <glyph glyph-name="uni1E92" unicode="&#x1e92;" horiz-adv-x="1358" 
d="M1312 0h-1264v262l696 816h-672v324h1226v-264l-696 -814h710v-324zM680 -548q-84 0 -146 51t-62 157q0 84 51 146t157 62t157 -62t51 -146q0 -106 -62 -157t-146 -51z" />
    <glyph glyph-name="uni1E93" unicode="&#x1e93;" horiz-adv-x="1124" 
d="M1074 0h-1016v238l488 546h-468v304h976v-240l-488 -546h508v-302zM566 -548q-84 0 -146 51t-62 157t62 157t146 51q106 0 157 -62t51 -146t-51 -146t-157 -62z" />
    <glyph glyph-name="uni1E94" unicode="&#x1e94;" horiz-adv-x="1358" 
d="M1312 0h-1264v262l696 816h-672v324h1226v-264l-696 -814h710v-324zM48 0zM994 -384h-630v230h630v-230z" />
    <glyph glyph-name="uni1E95" unicode="&#x1e95;" horiz-adv-x="1124" 
d="M1074 0h-1016v238l488 546h-468v304h976v-240l-488 -546h508v-302zM58 0zM880 -384h-630v230h630v-230z" />
    <glyph glyph-name="uni1E96" unicode="&#x1e96;" horiz-adv-x="1366" 
d="M1274 0h-404v574q0 166 -156 176q-178 -20 -178 -212v-538h-404v1484h404v-564q118 184 346 184q166 0 279 -102t113 -312v-690zM132 0zM1018 -384h-630v230h630v-230z" />
    <glyph glyph-name="uni1E97" unicode="&#x1e97;" horiz-adv-x="898" 
d="M180 1462q-84 0 -124 49t-40 117t40 117t124 49t124 -49t40 -117t-40 -117t-124 -49zM564 -18q-170 0 -279 87t-109 271v434h-150v258h150v302h402v-302h268v-258h-268v-372q0 -104 92 -104q52 0 124 32l72 -278q-136 -70 -302 -70zM574 1462q-84 0 -124 49t-40 117
t40 117t124 49t124 -49t40 -117t-40 -117t-124 -49z" />
    <glyph glyph-name="uni1E98" unicode="&#x1e98;" horiz-adv-x="1918" 
d="M1540 0h-398l-180 624l-184 -624h-398l-396 1088h410l196 -694l188 694h380l194 -694l192 694h392zM0 0zM960 1158q-114 0 -178 76t-64 166q0 108 74 174q70 68 168 68q90 0 166 -64t76 -178q0 -112 -72 -177t-170 -65zM960 1318q30 0 57 19.5t27 62.5t-27 62.5t-57 19.5
t-57 -19.5t-27 -62.5t27 -62.5t57 -19.5z" />
    <glyph glyph-name="uni1E99" unicode="&#x1e99;" horiz-adv-x="1210" 
d="M318 -406q-200 0 -350 120l168 270q64 -62 146 -62q102 0 138 108l-450 1058h414l238 -666l202 666h402l-456 -1180q-122 -314 -452 -314zM0 0zM598 1158q-114 0 -178 76t-64 166q0 108 74 174q70 68 168 68q90 0 166 -64t76 -178q0 -112 -72 -177t-170 -65zM598 1318
q30 0 57 19.5t27 62.5t-27 62.5t-57 19.5t-57 -19.5t-27 -62.5t27 -62.5t57 -19.5z" />
    <glyph glyph-name="uni1E9A" unicode="&#x1e9a;" horiz-adv-x="1214" 
d="M40 0zM408 -18q-130 0 -211 46t-119 124t-38 172q0 316 420 330h266q0 148 -188 148q-128 0 -328 -78l-100 268q272 112 524 112q301 0 425 -168q63 -88 63 -230v-706h-396v120q-102 -138 -318 -138zM542 246q124 0 184 112v98h-184q-118 0 -122 -102q0 -102 122 -108z
M458 1154v154q38 0 64 26t26 64t-26 64t-64 26v154q94 0 170 -65t76 -179t-74 -179t-172 -65z" />
    <glyph glyph-name="uni1E9B" unicode="&#x1e9b;" horiz-adv-x="822" 
d="M596 0h-400v1132q0 131 58 212t156 119.5t220 38.5q116 0 240 -40l-44 -300q-60 26 -116 26q-46 0 -80 -24t-34 -80v-1084zM196 0zM534 1606q-104 0 -156 63t-52 147q0 106 62 157t146 51q106 0 157 -62t51 -146t-52 -147t-156 -63z" />
    <glyph glyph-name="uni1E9E" unicode="&#x1e9e;" horiz-adv-x="1448" 
d="M850 0h-164v310h100q180 0 188 140q0 132 -188 138h-46v232l204 248q-56 18 -136 18q-134 0 -223 -76t-89 -248v-762h-416v730q0 388 243 563q177 127 451 127q290 0 508 -144v-292l-156 -194q278 -98 278 -376q0 -182 -133 -298t-421 -116z" />
    <glyph glyph-name="uni1EA0" unicode="&#x1ea0;" horiz-adv-x="1572" 
d="M1588 0h-444l-82 224h-566l-84 -224h-428l598 1402h428zM772 -548q-106 0 -157 62t-51 146q0 106 62 157t146 51q106 0 157 -62t51 -146q0 -106 -62 -157t-146 -51zM952 528l-168 458l-172 -458h340z" />
    <glyph glyph-name="uni1EA1" unicode="&#x1ea1;" horiz-adv-x="1214" 
d="M408 -18q-130 0 -211 46t-119 124t-38 172q0 316 420 330h266q0 148 -188 148q-128 0 -328 -78l-100 268q272 112 524 112q301 0 425 -168q63 -88 63 -230v-706h-396v120q-102 -138 -318 -138zM570 -548q-84 0 -146 51t-62 157t62 157t146 51q106 0 157 -62t51 -146
t-51 -146t-157 -62zM542 246q124 0 184 112v98h-184q-118 0 -122 -102q0 -102 122 -108z" />
    <glyph glyph-name="uni1EA2" unicode="&#x1ea2;" horiz-adv-x="1572" 
d="M1588 0h-444l-82 224h-566l-84 -224h-428l598 1402h428zM858 1484l-172 70q92 84 92 150q0 52 -56 54q-38 0 -76 -30l-102 156q130 82 260 82q124 0 179 -57t55 -139q0 -150 -180 -286zM952 528l-168 458l-172 -458h340z" />
    <glyph glyph-name="uni1EA3" unicode="&#x1ea3;" horiz-adv-x="1214" 
d="M408 -18q-130 0 -211 46t-119 124t-38 172q0 316 420 330h266q0 148 -188 148q-128 0 -328 -78l-100 268q272 112 524 112q301 0 425 -168q63 -88 63 -230v-706h-396v120q-102 -138 -318 -138zM678 1170l-172 70q92 84 92 150q0 52 -56 54q-36 0 -76 -30l-102 156
q130 82 260 82q124 0 179 -57t55 -139q0 -152 -180 -286zM542 246q124 0 184 112v98h-184q-118 0 -122 -102q0 -102 122 -108z" />
    <glyph glyph-name="uni1EA4" unicode="&#x1ea4;" horiz-adv-x="1572" 
d="M1588 0h-444l-82 224h-566l-84 -224h-428l598 1402h428zM1218 1504h-304l-128 132l-130 -132h-304l240 260h386zM796 1826l-228 58l298 274l262 -154zM952 528l-168 458l-172 -458h340z" />
    <glyph glyph-name="uni1EA5" unicode="&#x1ea5;" horiz-adv-x="1214" 
d="M408 -18q-130 0 -211 46t-119 124t-38 172q0 316 420 330h266q0 148 -188 148q-128 0 -328 -78l-100 268q272 112 524 112q301 0 425 -168q63 -88 63 -230v-706h-396v120q-102 -138 -318 -138zM1038 1202h-304l-128 132l-130 -132h-304l240 260h386zM616 1524l-228 58
l298 274l262 -154zM542 246q124 0 184 112v98h-184q-118 0 -122 -102q0 -102 122 -108z" />
    <glyph glyph-name="uni1EA6" unicode="&#x1ea6;" horiz-adv-x="1572" 
d="M1588 0h-444l-82 224h-566l-84 -224h-428l598 1402h428zM1218 1504h-304l-128 132l-130 -132h-304l240 260h386zM756 1826l-332 178l260 154l300 -274zM952 528l-168 458l-172 -458h340z" />
    <glyph glyph-name="uni1EA7" unicode="&#x1ea7;" horiz-adv-x="1214" 
d="M408 -18q-130 0 -211 46t-119 124t-38 172q0 316 420 330h266q0 148 -188 148q-128 0 -328 -78l-100 268q272 112 524 112q301 0 425 -168q63 -88 63 -230v-706h-396v120q-102 -138 -318 -138zM1038 1202h-304l-128 132l-130 -132h-304l240 260h386zM576 1524l-332 178
l260 154l300 -274zM542 246q124 0 184 112v98h-184q-118 0 -122 -102q0 -102 122 -108z" />
    <glyph glyph-name="uni1EA8" unicode="&#x1ea8;" horiz-adv-x="1572" 
d="M1588 0h-444l-82 224h-566l-84 -224h-428l598 1402h428zM1242 1504h-304l-128 132l-130 -132h-304l240 260h386zM852 1824l-156 58q76 42 76 84q0 34 -42 34q-28 0 -62 -22l-92 132q112 70 232 70q104 0 150 -44t46 -104q0 -116 -152 -208zM952 528l-168 458l-172 -458
h340z" />
    <glyph glyph-name="uni1EA9" unicode="&#x1ea9;" horiz-adv-x="1214" 
d="M408 -18q-130 0 -211 46t-119 124t-38 172q0 316 420 330h266q0 148 -188 148q-128 0 -328 -78l-100 268q272 112 524 112q301 0 425 -168q63 -88 63 -230v-706h-396v120q-102 -138 -318 -138zM1038 1202h-304l-128 132l-130 -132h-304l240 260h386zM648 1522l-156 58
q76 42 76 84q0 34 -42 34q-28 0 -62 -22l-92 132q112 70 232 70q104 0 150 -44t46 -104q0 -116 -152 -208zM542 246q124 0 184 112v98h-184q-118 0 -122 -102q0 -102 122 -108z" />
    <glyph glyph-name="uni1EAA" unicode="&#x1eaa;" horiz-adv-x="1572" 
d="M1588 0h-444l-82 224h-566l-84 -224h-428l598 1402h428zM1202 1504h-304l-128 132l-130 -132h-304l240 260h386zM944 1822q-88 0 -210 52q-60 28 -94 28q-60 0 -60 -76h-184q0 282 196 282q102 0 210 -52q60 -28 92 -28q62 0 62 74h184q0 -280 -196 -280zM952 528
l-168 458l-172 -458h340z" />
    <glyph glyph-name="uni1EAB" unicode="&#x1eab;" horiz-adv-x="1214" 
d="M408 -18q-130 0 -211 46t-119 124t-38 172q0 316 420 330h266q0 148 -188 148q-128 0 -328 -78l-100 268q272 112 524 112q301 0 425 -168q63 -88 63 -230v-706h-396v120q-102 -138 -318 -138zM1038 1202h-304l-128 132l-130 -132h-304l240 260h386zM780 1520
q-88 0 -210 52q-60 28 -94 28q-60 0 -60 -76h-184q0 282 196 282q102 0 210 -52q60 -28 92 -28q62 0 62 74h184q0 -280 -196 -280zM542 246q124 0 184 112v98h-184q-118 0 -122 -102q0 -102 122 -108z" />
    <glyph glyph-name="uni1EAC" unicode="&#x1eac;" horiz-adv-x="1572" 
d="M1588 0h-444l-82 224h-566l-84 -224h-428l598 1402h428zM1166 1510h-268l-124 138l-126 -138h-268l220 314h346zM772 -548q-106 0 -157 62t-51 146q0 106 62 157t146 51q106 0 157 -62t51 -146q0 -106 -62 -157t-146 -51zM952 528l-168 458l-172 -458h340z" />
    <glyph glyph-name="uni1EAD" unicode="&#x1ead;" horiz-adv-x="1214" 
d="M408 -18q-130 0 -211 46t-119 124t-38 172q0 316 420 330h266q0 148 -188 148q-128 0 -328 -78l-100 268q272 112 524 112q301 0 425 -168q63 -88 63 -230v-706h-396v120q-102 -138 -318 -138zM962 1218h-268l-124 138l-126 -138h-268l220 314h346zM570 -548
q-84 0 -146 51t-62 157t62 157t146 51q106 0 157 -62t51 -146t-51 -146t-157 -62zM542 246q124 0 184 112v98h-184q-118 0 -122 -102q0 -102 122 -108z" />
    <glyph glyph-name="uni1EAE" unicode="&#x1eae;" horiz-adv-x="1572" 
d="M1588 0h-444l-82 224h-566l-84 -224h-428l598 1402h428zM788 1484q-132 0 -231 69t-121 231h232q20 -90 120 -90t122 90h230q-22 -158 -118 -229t-234 -71zM798 1806l-228 58l298 274l262 -154zM952 528l-168 458l-172 -458h340z" />
    <glyph glyph-name="uni1EAF" unicode="&#x1eaf;" horiz-adv-x="1214" 
d="M408 -18q-130 0 -211 46t-119 124t-38 172q0 316 420 330h266q0 148 -188 148q-128 0 -328 -78l-100 268q272 112 524 112q301 0 425 -168q63 -88 63 -230v-706h-396v120q-102 -138 -318 -138zM608 1202q-132 0 -231 69t-121 231h232q20 -90 120 -90t122 90h230
q-22 -158 -118 -229t-234 -71zM618 1524l-228 58l298 274l262 -154zM542 246q124 0 184 112v98h-184q-118 0 -122 -102q0 -102 122 -108z" />
    <glyph glyph-name="uni1EB0" unicode="&#x1eb0;" horiz-adv-x="1572" 
d="M1588 0h-444l-82 224h-566l-84 -224h-428l598 1402h428zM760 1806l-332 178l260 154l300 -274zM790 1484q-132 0 -231 69t-121 231h232q22 -90 120 -90q102 0 122 90h230q-22 -158 -118 -229t-234 -71zM952 528l-168 458l-172 -458h340z" />
    <glyph glyph-name="uni1EB1" unicode="&#x1eb1;" horiz-adv-x="1214" 
d="M408 -18q-130 0 -211 46t-119 124t-38 172q0 316 420 330h266q0 148 -188 148q-128 0 -328 -78l-100 268q272 112 524 112q301 0 425 -168q63 -88 63 -230v-706h-396v120q-102 -138 -318 -138zM578 1524l-332 178l260 154l300 -274zM608 1202q-132 0 -231 69t-121 231
h232q20 -90 120 -90t122 90h230q-22 -158 -118 -229t-234 -71zM542 246q124 0 184 112v98h-184q-118 0 -122 -102q0 -102 122 -108z" />
    <glyph glyph-name="uni1EB2" unicode="&#x1eb2;" horiz-adv-x="1572" 
d="M1588 0h-444l-82 224h-566l-84 -224h-428l598 1402h428zM788 1484q-132 0 -231 69t-121 231h232q20 -90 120 -90t122 90h230q-22 -158 -118 -229t-234 -71zM830 1804l-156 58q76 42 76 84q0 34 -42 34q-28 0 -62 -22l-92 132q112 70 232 70q104 0 150 -44t46 -104
q0 -116 -152 -208zM952 528l-168 458l-172 -458h340z" />
    <glyph glyph-name="uni1EB3" unicode="&#x1eb3;" horiz-adv-x="1214" 
d="M408 -18q-130 0 -211 46t-119 124t-38 172q0 316 420 330h266q0 148 -188 148q-128 0 -328 -78l-100 268q272 112 524 112q301 0 425 -168q63 -88 63 -230v-706h-396v120q-102 -138 -318 -138zM608 1202q-132 0 -231 69t-121 231h232q20 -90 120 -90t122 90h230
q-22 -158 -118 -229t-234 -71zM650 1522l-156 58q76 42 76 84q0 34 -42 34q-28 0 -62 -22l-92 132q112 70 232 70q104 0 150 -44t46 -104q0 -116 -152 -208zM542 246q124 0 184 112v98h-184q-118 0 -122 -102q0 -102 122 -108z" />
    <glyph glyph-name="uni1EB4" unicode="&#x1eb4;" horiz-adv-x="1572" 
d="M1588 0h-444l-82 224h-566l-84 -224h-428l598 1402h428zM980 1864q-88 0 -210 52q-60 28 -94 28q-60 0 -60 -76h-184q0 282 196 282q102 0 210 -52q60 -28 92 -28q62 0 62 74h184q0 -280 -196 -280zM790 1484q-132 0 -231 69t-121 231h232q22 -90 120 -90q102 0 122 90
h230q-22 -158 -118 -229t-234 -71zM952 528l-168 458l-172 -458h340z" />
    <glyph glyph-name="uni1EB5" unicode="&#x1eb5;" horiz-adv-x="1214" 
d="M408 -18q-130 0 -211 46t-119 124t-38 172q0 316 420 330h266q0 148 -188 148q-128 0 -328 -78l-100 268q272 112 524 112q301 0 425 -168q63 -88 63 -230v-706h-396v120q-102 -138 -318 -138zM784 1582q-88 0 -210 52q-60 28 -94 28q-60 0 -60 -76h-184q0 282 196 282
q102 0 210 -52q60 -28 92 -28q62 0 62 74h184q0 -280 -196 -280zM594 1202q-132 0 -231 69t-121 231h232q22 -90 120 -90q102 0 122 90h230q-22 -158 -118 -229t-234 -71zM542 246q124 0 184 112v98h-184q-118 0 -122 -102q0 -102 122 -108z" />
    <glyph glyph-name="uni1EB6" unicode="&#x1eb6;" horiz-adv-x="1572" 
d="M1588 0h-444l-82 224h-566l-84 -224h-428l598 1402h428zM772 1508q-174 0 -257 93t-93 241h246q18 -108 104 -108q88 0 104 108h246q-10 -148 -93 -241t-257 -93zM772 -548q-106 0 -157 62t-51 146q0 106 62 157t146 51q106 0 157 -62t51 -146q0 -106 -62 -157t-146 -51z
M952 528l-168 458l-172 -458h340z" />
    <glyph glyph-name="uni1EB7" unicode="&#x1eb7;" horiz-adv-x="1214" 
d="M408 -18q-130 0 -211 46t-119 124t-38 172q0 316 420 330h266q0 148 -188 148q-128 0 -328 -78l-100 268q272 112 524 112q301 0 425 -168q63 -88 63 -230v-706h-396v120q-102 -138 -318 -138zM570 1196q-174 0 -257 93t-93 241h246q18 -108 104 -108q90 0 104 108h246
q-10 -148 -93 -241t-257 -93zM570 -548q-84 0 -146 51t-62 157t62 157t146 51q106 0 157 -62t51 -146t-51 -146t-157 -62zM542 246q124 0 184 112v98h-184q-118 0 -122 -102q0 -102 122 -108z" />
    <glyph glyph-name="uni1EB8" unicode="&#x1eb8;" horiz-adv-x="1366" 
d="M1284 0h-1166v1402h1146v-320h-730v-220h662v-320h-662v-222h750v-320zM700 -548q-84 0 -146 51t-62 157q0 84 51 146t157 62t157 -62t51 -146q0 -106 -62 -157t-146 -51z" />
    <glyph glyph-name="uni1EB9" unicode="&#x1eb9;" horiz-adv-x="1218" 
d="M624 -14q-198 0 -328 73q-135 79 -196.5 205.5t-61.5 275.5q0 268 161 415t413 147q286 0 427 -164t141 -434l-2 -58h-732q58 -162 212 -162q130 0 240 104l210 -206q-174 -196 -484 -196zM612 -548q-84 0 -146 51t-62 157t62 157t146 51q106 0 157 -62t51 -146
q0 -106 -62 -157t-146 -51zM780 644q0 74 -40 129t-124 55q-148 0 -178 -184h342z" />
    <glyph glyph-name="uni1EBA" unicode="&#x1eba;" horiz-adv-x="1366" 
d="M1284 0h-1166v1402h1146v-320h-730v-220h662v-320h-662v-222h750v-320zM768 1484l-172 70q92 84 92 150q0 52 -56 54q-36 0 -76 -30l-102 156q130 82 260 82q124 0 179 -57t55 -139q0 -150 -180 -286z" />
    <glyph glyph-name="uni1EBB" unicode="&#x1ebb;" horiz-adv-x="1218" 
d="M624 -14q-198 0 -328 73q-135 79 -196.5 205.5t-61.5 275.5q0 268 161 415t413 147q286 0 427 -164t141 -434l-2 -58h-732q58 -162 212 -162q130 0 240 104l210 -206q-174 -196 -484 -196zM674 1170l-172 70q92 84 92 150q0 52 -56 54q-38 0 -76 -30l-102 156
q130 82 260 82q124 0 179 -57t55 -139q0 -152 -180 -286zM780 644q0 74 -40 129t-124 55q-148 0 -178 -184h342z" />
    <glyph glyph-name="uni1EBC" unicode="&#x1ebc;" horiz-adv-x="1366" 
d="M1284 0h-1166v1402h1146v-320h-730v-220h662v-320h-662v-222h750v-320zM882 1504q-86 0 -184 54q-50 32 -86 32q-56 0 -56 -80h-218q0 334 204 334q84 0 186 -54q48 -30 80 -30q60 0 60 66v12h216q0 -334 -202 -334z" />
    <glyph glyph-name="uni1EBD" unicode="&#x1ebd;" horiz-adv-x="1218" 
d="M624 -14q-198 0 -328 73q-135 79 -196.5 205.5t-61.5 275.5q0 268 161 415t413 147q286 0 427 -164t141 -434l-2 -58h-732q58 -162 212 -162q130 0 240 104l210 -206q-174 -196 -484 -196zM788 1192q-84 0 -184 54q-50 32 -86 32q-56 0 -56 -80h-218q0 334 204 334
q84 0 186 -54q48 -30 80 -30q60 0 60 66v12h216q0 -334 -202 -334zM780 644q0 74 -40 129t-124 55q-148 0 -178 -184h342z" />
    <glyph glyph-name="uni1EBE" unicode="&#x1ebe;" horiz-adv-x="1366" 
d="M1284 0h-1166v1402h1146v-320h-730v-220h662v-320h-662v-222h750v-320zM1128 1504h-304l-128 132l-130 -132h-304l240 260h386zM706 1826l-228 58l298 274l262 -154z" />
    <glyph glyph-name="uni1EBF" unicode="&#x1ebf;" horiz-adv-x="1218" 
d="M624 -14q-198 0 -328 73q-135 79 -196.5 205.5t-61.5 275.5q0 268 161 415t413 147q286 0 427 -164t141 -434l-2 -58h-732q58 -162 212 -162q130 0 240 104l210 -206q-174 -196 -484 -196zM1034 1202h-304l-128 132l-130 -132h-304l240 260h386zM612 1524l-228 58
l298 274l262 -154zM780 644q0 74 -40 129t-124 55q-148 0 -178 -184h342z" />
    <glyph glyph-name="uni1EC0" unicode="&#x1ec0;" horiz-adv-x="1366" 
d="M1284 0h-1166v1402h1146v-320h-730v-220h662v-320h-662v-222h750v-320zM1128 1504h-304l-128 132l-130 -132h-304l240 260h386zM666 1826l-332 178l260 154l300 -274z" />
    <glyph glyph-name="uni1EC1" unicode="&#x1ec1;" horiz-adv-x="1218" 
d="M624 -14q-198 0 -328 73q-135 79 -196.5 205.5t-61.5 275.5q0 268 161 415t413 147q286 0 427 -164t141 -434l-2 -58h-732q58 -162 212 -162q130 0 240 104l210 -206q-174 -196 -484 -196zM1034 1202h-304l-128 132l-130 -132h-304l240 260h386zM572 1524l-332 178
l260 154l300 -274zM780 644q0 74 -40 129t-124 55q-148 0 -178 -184h342z" />
    <glyph glyph-name="uni1EC2" unicode="&#x1ec2;" horiz-adv-x="1366" 
d="M1284 0h-1166v1402h1146v-320h-730v-220h662v-320h-662v-222h750v-320zM1152 1504h-304l-128 132l-130 -132h-304l240 260h386zM762 1824l-156 58q76 42 76 84q0 34 -42 34q-28 0 -62 -22l-92 132q112 70 232 70q104 0 150 -44t46 -104q0 -116 -152 -208z" />
    <glyph glyph-name="uni1EC3" unicode="&#x1ec3;" horiz-adv-x="1218" 
d="M624 -14q-198 0 -328 73q-135 79 -196.5 205.5t-61.5 275.5q0 268 161 415t413 147q286 0 427 -164t141 -434l-2 -58h-732q58 -162 212 -162q130 0 240 104l210 -206q-174 -196 -484 -196zM1034 1202h-304l-128 132l-130 -132h-304l240 260h386zM644 1522l-156 58
q76 42 76 84q0 34 -42 34q-28 0 -62 -22l-92 132q112 70 232 70q104 0 150 -44t46 -104q0 -116 -152 -208zM780 644q0 74 -40 129t-124 55q-148 0 -178 -184h342z" />
    <glyph glyph-name="uni1EC4" unicode="&#x1ec4;" horiz-adv-x="1366" 
d="M1284 0h-1166v1402h1146v-320h-730v-220h662v-320h-662v-222h750v-320zM1112 1504h-304l-128 132l-130 -132h-304l240 260h386zM854 1822q-88 0 -210 52q-60 28 -94 28q-60 0 -60 -76h-184q0 282 196 282q102 0 210 -52q60 -28 92 -28q62 0 62 74h184q0 -280 -196 -280z
" />
    <glyph glyph-name="uni1EC5" unicode="&#x1ec5;" horiz-adv-x="1218" 
d="M624 -14q-198 0 -328 73q-135 79 -196.5 205.5t-61.5 275.5q0 268 161 415t413 147q286 0 427 -164t141 -434l-2 -58h-732q58 -162 212 -162q130 0 240 104l210 -206q-174 -196 -484 -196zM1034 1202h-304l-128 132l-130 -132h-304l240 260h386zM776 1520q-88 0 -210 52
q-60 28 -94 28q-60 0 -60 -76h-184q0 282 196 282q102 0 210 -52q60 -28 92 -28q62 0 62 74h184q0 -280 -196 -280zM780 644q0 74 -40 129t-124 55q-148 0 -178 -184h342z" />
    <glyph glyph-name="uni1EC6" unicode="&#x1ec6;" horiz-adv-x="1366" 
d="M1284 0h-1166v1402h1146v-320h-730v-220h662v-320h-662v-222h750v-320zM1094 1510h-268l-124 138l-126 -138h-268l220 314h346zM700 -548q-84 0 -146 51t-62 157q0 84 51 146t157 62t157 -62t51 -146q0 -106 -62 -157t-146 -51z" />
    <glyph glyph-name="uni1EC7" unicode="&#x1ec7;" horiz-adv-x="1218" 
d="M624 -14q-198 0 -328 73q-135 79 -196.5 205.5t-61.5 275.5q0 268 161 415t413 147q286 0 427 -164t141 -434l-2 -58h-732q58 -162 212 -162q130 0 240 104l210 -206q-174 -196 -484 -196zM1004 1218h-268l-124 138l-126 -138h-268l220 314h346zM612 -548q-84 0 -146 51
t-62 157t62 157t146 51q106 0 157 -62t51 -146q0 -106 -62 -157t-146 -51zM780 644q0 74 -40 129t-124 55q-148 0 -178 -184h342z" />
    <glyph glyph-name="uni1EC8" unicode="&#x1ec8;" horiz-adv-x="652" 
d="M396 1484l-172 70q92 84 92 150q0 52 -56 54q-36 0 -76 -30l-102 156q130 82 260 82q124 0 179 -57t55 -139q0 -150 -180 -286zM534 0h-416v1402h416v-1402z" />
    <glyph glyph-name="uni1EC9" unicode="&#x1ec9;" horiz-adv-x="648" 
d="M396 1170l-172 70q92 84 92 150q0 52 -56 54q-36 0 -76 -30l-102 156q130 82 260 82q124 0 179 -57t55 -139q0 -152 -180 -286zM526 0h-404v1088h404v-1088z" />
    <glyph glyph-name="uni1ECA" unicode="&#x1eca;" horiz-adv-x="652" 
d="M534 0h-416v1402h416v-1402zM326 -548q-84 0 -146 51t-62 157t62 157t146 51q106 0 157 -62t51 -146q0 -106 -62 -157t-146 -51z" />
    <glyph glyph-name="uni1ECB" unicode="&#x1ecb;" horiz-adv-x="648" 
d="M326 -548q-84 0 -146 51t-62 157t62 157t146 51q106 0 157 -62t51 -146q0 -106 -62 -157t-146 -51zM326 1190q-84 0 -146 51t-62 157t62 157t146 51t146 -51t62 -157q0 -84 -51 -146t-157 -62zM526 0h-404v1088h404v-1088z" />
    <glyph glyph-name="uni1ECC" unicode="&#x1ecc;" horiz-adv-x="1604" 
d="M802 -28q-328 0 -546 208t-218 524q0 314 217 519t547 205q332 0 548 -206t216 -518q0 -314 -218 -523t-546 -209zM808 318q132 0 232 104t100 280t-100 278t-232 102q-61 0 -122 -22t-111 -68.5t-80.5 -118t-30.5 -171.5q0 -124 50 -209.5t129 -130t165 -44.5zM802 -548
q-106 0 -157 62t-51 146q0 106 62 157t146 51t146 -51t62 -157t-62 -157t-146 -51z" />
    <glyph glyph-name="uni1ECD" unicode="&#x1ecd;" horiz-adv-x="1286" 
d="M644 -14q-266 0 -436 145t-170 413q0 264 170 411t436 147q268 0 434 -146q170 -144 170 -412q0 -244 -157 -401t-447 -157zM644 -548q-84 0 -146 51t-62 157q0 84 51 146t157 62t157 -62t51 -146q0 -106 -62 -157t-146 -51zM644 298q80 0 138 58t58 184q0 100 -48 171
t-148 71q-108 0 -153 -75t-45 -167q0 -100 49 -171t149 -71z" />
    <glyph glyph-name="uni1ECE" unicode="&#x1ece;" horiz-adv-x="1604" 
d="M802 -28q-328 0 -546 208t-218 524q0 314 217 519t547 205q332 0 548 -206t216 -518q0 -314 -218 -523t-546 -209zM808 318q132 0 232 104t100 280t-100 278t-232 102q-61 0 -122 -22t-111 -68.5t-80.5 -118t-30.5 -171.5q0 -124 50 -209.5t129 -130t165 -44.5zM872 1484
l-172 70q92 84 92 150q0 52 -56 54q-36 0 -76 -30l-102 156q130 82 260 82q124 0 179 -57t55 -139q0 -150 -180 -286z" />
    <glyph glyph-name="uni1ECF" unicode="&#x1ecf;" horiz-adv-x="1286" 
d="M644 -14q-266 0 -436 145t-170 413q0 264 170 411t436 147q268 0 434 -146q170 -144 170 -412q0 -244 -157 -401t-447 -157zM714 1170l-172 70q92 84 92 150q0 52 -56 54q-38 0 -76 -30l-102 156q130 82 260 82q124 0 179 -57t55 -139q0 -152 -180 -286zM644 298
q80 0 138 58t58 184q0 100 -48 171t-148 71q-108 0 -153 -75t-45 -167q0 -100 49 -171t149 -71z" />
    <glyph glyph-name="uni1ED0" unicode="&#x1ed0;" horiz-adv-x="1604" 
d="M802 -28q-328 0 -546 208t-218 524q0 314 217 519t547 205q332 0 548 -206t216 -518q0 -314 -218 -523t-546 -209zM1232 1504h-304l-128 132l-130 -132h-304l240 260h386zM808 318q132 0 232 104t100 280t-100 278t-232 102q-61 0 -122 -22t-111 -68.5t-80.5 -118
t-30.5 -171.5q0 -124 50 -209.5t129 -130t165 -44.5zM810 1826l-228 58l298 274l262 -154z" />
    <glyph glyph-name="uni1ED1" unicode="&#x1ed1;" horiz-adv-x="1286" 
d="M644 -14q-266 0 -436 145t-170 413q0 264 170 411t436 147q268 0 434 -146q170 -144 170 -412q0 -244 -157 -401t-447 -157zM1074 1202h-304l-128 132l-130 -132h-304l240 260h386zM652 1524l-228 58l298 274l262 -154zM644 298q80 0 138 58t58 184q0 100 -48 171
t-148 71q-108 0 -153 -75t-45 -167q0 -100 49 -171t149 -71z" />
    <glyph glyph-name="uni1ED2" unicode="&#x1ed2;" horiz-adv-x="1604" 
d="M802 -28q-328 0 -546 208t-218 524q0 314 217 519t547 205q332 0 548 -206t216 -518q0 -314 -218 -523t-546 -209zM1232 1504h-304l-128 132l-130 -132h-304l240 260h386zM770 1826l-332 178l260 154l300 -274zM808 318q132 0 232 104t100 280t-100 278t-232 102
q-61 0 -122 -22t-111 -68.5t-80.5 -118t-30.5 -171.5q0 -124 50 -209.5t129 -130t165 -44.5z" />
    <glyph glyph-name="uni1ED3" unicode="&#x1ed3;" horiz-adv-x="1286" 
d="M644 -14q-266 0 -436 145t-170 413q0 264 170 411t436 147q268 0 434 -146q170 -144 170 -412q0 -244 -157 -401t-447 -157zM1074 1202h-304l-128 132l-130 -132h-304l240 260h386zM612 1524l-332 178l260 154l300 -274zM644 298q80 0 138 58t58 184q0 100 -48 171
t-148 71q-108 0 -153 -75t-45 -167q0 -100 49 -171t149 -71z" />
    <glyph glyph-name="uni1ED4" unicode="&#x1ed4;" horiz-adv-x="1604" 
d="M802 -28q-328 0 -546 208t-218 524q0 314 217 519t547 205q332 0 548 -206t216 -518q0 -314 -218 -523t-546 -209zM1256 1504h-304l-128 132l-130 -132h-304l240 260h386zM808 318q132 0 232 104t100 280t-100 278t-232 102q-61 0 -122 -22t-111 -68.5t-80.5 -118
t-30.5 -171.5q0 -124 50 -209.5t129 -130t165 -44.5zM866 1824l-156 58q76 42 76 84q0 34 -42 34q-28 0 -62 -22l-92 132q112 70 232 70q104 0 150 -44t46 -104q0 -116 -152 -208z" />
    <glyph glyph-name="uni1ED5" unicode="&#x1ed5;" horiz-adv-x="1286" 
d="M644 -14q-266 0 -436 145t-170 413q0 264 170 411t436 147q268 0 434 -146q170 -144 170 -412q0 -244 -157 -401t-447 -157zM1074 1202h-304l-128 132l-130 -132h-304l240 260h386zM684 1522l-156 58q76 42 76 84q0 34 -42 34q-28 0 -62 -22l-92 132q112 70 232 70
q104 0 150 -44t46 -104q0 -116 -152 -208zM644 298q80 0 138 58t58 184q0 100 -48 171t-148 71q-108 0 -153 -75t-45 -167q0 -100 49 -171t149 -71z" />
    <glyph glyph-name="uni1ED6" unicode="&#x1ed6;" horiz-adv-x="1604" 
d="M802 -28q-328 0 -546 208t-218 524q0 314 217 519t547 205q332 0 548 -206t216 -518q0 -314 -218 -523t-546 -209zM1216 1504h-304l-128 132l-130 -132h-304l240 260h386zM958 1822q-88 0 -210 52q-60 28 -94 28q-60 0 -60 -76h-184q0 282 196 282q102 0 210 -52
q60 -28 92 -28q62 0 62 74h184q0 -280 -196 -280zM808 318q132 0 232 104t100 280t-100 278t-232 102q-61 0 -122 -22t-111 -68.5t-80.5 -118t-30.5 -171.5q0 -124 50 -209.5t129 -130t165 -44.5z" />
    <glyph glyph-name="uni1ED7" unicode="&#x1ed7;" horiz-adv-x="1286" 
d="M644 -14q-266 0 -436 145t-170 413q0 264 170 411t436 147q268 0 434 -146q170 -144 170 -412q0 -244 -157 -401t-447 -157zM1074 1202h-304l-128 132l-130 -132h-304l240 260h386zM816 1520q-88 0 -210 52q-60 28 -94 28q-60 0 -60 -76h-184q0 282 196 282
q102 0 210 -52q60 -28 92 -28q62 0 62 74h184q0 -280 -196 -280zM644 298q80 0 138 58t58 184q0 100 -48 171t-148 71q-108 0 -153 -75t-45 -167q0 -100 49 -171t149 -71z" />
    <glyph glyph-name="uni1ED8" unicode="&#x1ed8;" horiz-adv-x="1604" 
d="M802 -28q-328 0 -546 208t-218 524q0 314 217 519t547 205q332 0 548 -206t216 -518q0 -314 -218 -523t-546 -209zM1196 1510h-268l-124 138l-126 -138h-268l220 314h346zM808 318q132 0 232 104t100 280t-100 278t-232 102q-61 0 -122 -22t-111 -68.5t-80.5 -118
t-30.5 -171.5q0 -124 50 -209.5t129 -130t165 -44.5zM802 -548q-106 0 -157 62t-51 146q0 106 62 157t146 51t146 -51t62 -157t-62 -157t-146 -51z" />
    <glyph glyph-name="uni1ED9" unicode="&#x1ed9;" horiz-adv-x="1286" 
d="M644 -14q-266 0 -436 145t-170 413q0 264 170 411t436 147q268 0 434 -146q170 -144 170 -412q0 -244 -157 -401t-447 -157zM1036 1218h-268l-124 138l-126 -138h-268l220 314h346zM644 -548q-84 0 -146 51t-62 157q0 84 51 146t157 62t157 -62t51 -146q0 -106 -62 -157
t-146 -51zM644 298q80 0 138 58t58 184q0 100 -48 171t-148 71q-108 0 -153 -75t-45 -167q0 -100 49 -171t149 -71z" />
    <glyph glyph-name="uni1EDA" unicode="&#x1eda;" horiz-adv-x="1664" 
d="M802 -28q-328 0 -546 208t-218 524q0 314 217 519t547 205q204 0 362 -80l38 -4q116 0 116 132q0 64 -42 126l292 106q60 -124 60 -226q0 -58 -34 -155t-196 -157q168 -192 168 -466q0 -314 -218 -523t-546 -209zM808 318q132 0 232 104t100 280t-100 278t-232 102
q-61 0 -122 -22t-111 -68.5t-80.5 -118t-30.5 -171.5q0 -124 50 -209.5t129 -130t165 -44.5zM864 1496l-264 20l254 340l316 -116z" />
    <glyph glyph-name="uni1EDB" unicode="&#x1edb;" horiz-adv-x="1376" 
d="M644 -14q-266 0 -436 145t-170 413q0 264 170 411t436 147q184 0 320 -70q9 0 16 -2q6 -2 18 -2q116 0 116 132q0 64 -42 126l292 106q60 -124 60 -228q0 -62 -40 -164t-214 -156q78 -126 78 -300q0 -244 -157 -401t-447 -157zM708 1190l-264 20l254 340l316 -116z
M644 298q80 0 138 58t58 184q0 100 -48 171t-148 71q-108 0 -153 -75t-45 -167q0 -100 49 -171t149 -71z" />
    <glyph glyph-name="uni1EDC" unicode="&#x1edc;" horiz-adv-x="1664" 
d="M802 -28q-328 0 -546 208t-218 524q0 314 217 519t547 205q204 0 362 -80l38 -4q116 0 116 132q0 64 -42 126l292 106q60 -124 60 -226q0 -58 -34 -155t-196 -157q168 -192 168 -466q0 -314 -218 -523t-546 -209zM722 1496l-270 244l318 116l218 -340zM808 318
q132 0 232 104t100 280t-100 278t-232 102q-61 0 -122 -22t-111 -68.5t-80.5 -118t-30.5 -171.5q0 -124 50 -209.5t129 -130t165 -44.5z" />
    <glyph glyph-name="uni1EDD" unicode="&#x1edd;" horiz-adv-x="1376" 
d="M644 -14q-266 0 -436 145t-170 413q0 264 170 411t436 147q184 0 320 -70q9 0 16 -2q6 -2 18 -2q116 0 116 132q0 64 -42 126l292 106q60 -124 60 -228q0 -62 -40 -164t-214 -156q78 -126 78 -300q0 -244 -157 -401t-447 -157zM564 1190l-270 244l318 116l218 -340z
M644 298q80 0 138 58t58 184q0 100 -48 171t-148 71q-108 0 -153 -75t-45 -167q0 -100 49 -171t149 -71z" />
    <glyph glyph-name="uni1EDE" unicode="&#x1ede;" horiz-adv-x="1664" 
d="M802 -28q-328 0 -546 208t-218 524q0 314 217 519t547 205q204 0 362 -80l38 -4q116 0 116 132q0 64 -42 126l292 106q60 -124 60 -226q0 -58 -34 -155t-196 -157q168 -192 168 -466q0 -314 -218 -523t-546 -209zM808 318q132 0 232 104t100 280t-100 278t-232 102
q-61 0 -122 -22t-111 -68.5t-80.5 -118t-30.5 -171.5q0 -124 50 -209.5t129 -130t165 -44.5zM872 1484l-172 70q92 84 92 150q0 52 -56 54q-36 0 -76 -30l-102 156q130 82 260 82q124 0 179 -57t55 -139q0 -150 -180 -286z" />
    <glyph glyph-name="uni1EDF" unicode="&#x1edf;" horiz-adv-x="1376" 
d="M644 -14q-266 0 -436 145t-170 413q0 264 170 411t436 147q184 0 320 -70q9 0 16 -2q6 -2 18 -2q116 0 116 132q0 64 -42 126l292 106q60 -124 60 -228q0 -62 -40 -164t-214 -156q78 -126 78 -300q0 -244 -157 -401t-447 -157zM714 1170l-172 70q92 84 92 150
q0 52 -56 54q-38 0 -76 -30l-102 156q130 82 260 82q124 0 179 -57t55 -139q0 -152 -180 -286zM644 298q80 0 138 58t58 184q0 100 -48 171t-148 71q-108 0 -153 -75t-45 -167q0 -100 49 -171t149 -71z" />
    <glyph glyph-name="uni1EE0" unicode="&#x1ee0;" horiz-adv-x="1664" 
d="M802 -28q-328 0 -546 208t-218 524q0 314 217 519t547 205q204 0 362 -80l38 -4q116 0 116 132q0 64 -42 126l292 106q60 -124 60 -226q0 -58 -34 -155t-196 -157q168 -192 168 -466q0 -314 -218 -523t-546 -209zM986 1504q-86 0 -184 54q-50 32 -86 32q-56 0 -56 -80
h-218q0 334 204 334q84 0 186 -54q48 -30 80 -30q60 0 60 66v12h216q0 -334 -202 -334zM808 318q132 0 232 104t100 280t-100 278t-232 102q-61 0 -122 -22t-111 -68.5t-80.5 -118t-30.5 -171.5q0 -124 50 -209.5t129 -130t165 -44.5z" />
    <glyph glyph-name="uni1EE1" unicode="&#x1ee1;" horiz-adv-x="1376" 
d="M644 -14q-266 0 -436 145t-170 413q0 264 170 411t436 147q184 0 320 -70q9 0 16 -2q6 -2 18 -2q116 0 116 132q0 64 -42 126l292 106q60 -124 60 -228q0 -62 -40 -164t-214 -156q78 -126 78 -300q0 -244 -157 -401t-447 -157zM828 1192q-84 0 -184 54q-50 32 -86 32
q-56 0 -56 -80h-218q0 334 204 334q84 0 186 -54q48 -30 80 -30q60 0 60 66v12h216q0 -334 -202 -334zM644 298q80 0 138 58t58 184q0 100 -48 171t-148 71q-108 0 -153 -75t-45 -167q0 -100 49 -171t149 -71z" />
    <glyph glyph-name="uni1EE2" unicode="&#x1ee2;" horiz-adv-x="1664" 
d="M802 -28q-328 0 -546 208t-218 524q0 314 217 519t547 205q204 0 362 -80l38 -4q116 0 116 132q0 64 -42 126l292 106q60 -124 60 -226q0 -58 -34 -155t-196 -157q168 -192 168 -466q0 -314 -218 -523t-546 -209zM808 318q132 0 232 104t100 280t-100 278t-232 102
q-61 0 -122 -22t-111 -68.5t-80.5 -118t-30.5 -171.5q0 -124 50 -209.5t129 -130t165 -44.5zM802 -548q-106 0 -157 62t-51 146q0 106 62 157t146 51t146 -51t62 -157t-62 -157t-146 -51z" />
    <glyph glyph-name="uni1EE3" unicode="&#x1ee3;" horiz-adv-x="1376" 
d="M644 -14q-266 0 -436 145t-170 413q0 264 170 411t436 147q184 0 320 -70q9 0 16 -2q6 -2 18 -2q116 0 116 132q0 64 -42 126l292 106q60 -124 60 -228q0 -62 -40 -164t-214 -156q78 -126 78 -300q0 -244 -157 -401t-447 -157zM644 -548q-84 0 -146 51t-62 157
q0 84 51 146t157 62t157 -62t51 -146q0 -106 -62 -157t-146 -51zM644 298q80 0 138 58t58 184q0 100 -48 171t-148 71q-108 0 -153 -75t-45 -167q0 -100 49 -171t149 -71z" />
    <glyph glyph-name="uni1EE4" unicode="&#x1ee4;" horiz-adv-x="1490" 
d="M750 -28q-184 0 -328 63t-235 203t-91 342v822h416v-822q0 -136 75 -199t163 -63q94 0 161 61t67 201v822h416v-822q0 -290 -179 -449t-465 -159zM746 -548q-106 0 -157 62t-51 146q0 106 62 157t146 51q106 0 157 -62t51 -146q0 -106 -62 -157t-146 -51z" />
    <glyph glyph-name="uni1EE5" unicode="&#x1ee5;" horiz-adv-x="1336" 
d="M476 -18q-104 0 -202 50q-80 40 -131 131t-51 235v690h404v-576q0 -166 146 -174q90 12 129 72t39 140v538h404v-1088h-404v162q-114 -180 -334 -180zM668 -548q-84 0 -146 51t-62 157q0 84 51 146t157 62t157 -62t51 -146q0 -106 -62 -157t-146 -51z" />
    <glyph glyph-name="uni1EE6" unicode="&#x1ee6;" horiz-adv-x="1490" 
d="M750 -28q-184 0 -328 63t-235 203t-91 342v822h416v-822q0 -136 75 -199t163 -63q94 0 161 61t67 201v822h416v-822q0 -290 -179 -449t-465 -159zM816 1484l-172 70q92 84 92 150q0 52 -56 54q-36 0 -76 -30l-102 156q130 82 260 82q124 0 179 -57t55 -139
q0 -150 -180 -286z" />
    <glyph glyph-name="uni1EE7" unicode="&#x1ee7;" horiz-adv-x="1336" 
d="M476 -18q-104 0 -202 50q-80 40 -131 131t-51 235v690h404v-576q0 -166 146 -174q90 12 129 72t39 140v538h404v-1088h-404v162q-114 -180 -334 -180zM738 1170l-172 70q92 84 92 150q0 52 -56 54q-38 0 -76 -30l-102 156q130 82 260 82q124 0 179 -57t55 -139
q0 -152 -180 -286z" />
    <glyph glyph-name="uni1EE8" unicode="&#x1ee8;" horiz-adv-x="1602" 
d="M750 -28q-184 0 -328 63t-235 203t-91 342v822h416v-822q0 -136 75 -199t163 -63q94 0 161 61t67 201v822h270q108 0 108 100l-4 38q-4 28 -30 64l280 104q46 -120 46 -210q0 -218 -254 -280v-638q0 -290 -179 -449t-465 -159zM808 1496l-264 20l254 340l316 -116z" />
    <glyph glyph-name="uni1EE9" unicode="&#x1ee9;" horiz-adv-x="1396" 
d="M476 -18q-104 0 -202 50q-80 40 -131 131t-51 235v690h404v-576q0 -166 146 -174q90 12 129 72t39 140v538h250q108 0 108 100l-4 38q-4 28 -30 64l280 104q46 -120 46 -210q0 -216 -246 -278v-906h-404v162q-114 -180 -334 -180zM732 1190l-264 20l254 340l316 -116z
" />
    <glyph glyph-name="uni1EEA" unicode="&#x1eea;" horiz-adv-x="1602" 
d="M750 -28q-184 0 -328 63t-235 203t-91 342v822h416v-822q0 -136 75 -199t163 -63q94 0 161 61t67 201v822h270q108 0 108 100l-4 38q-4 28 -30 64l280 104q46 -120 46 -210q0 -218 -254 -280v-638q0 -290 -179 -449t-465 -159zM666 1496l-270 244l318 116l218 -340z" />
    <glyph glyph-name="uni1EEB" unicode="&#x1eeb;" horiz-adv-x="1396" 
d="M476 -18q-104 0 -202 50q-80 40 -131 131t-51 235v690h404v-576q0 -166 146 -174q90 12 129 72t39 140v538h250q108 0 108 100l-4 38q-4 28 -30 64l280 104q46 -120 46 -210q0 -216 -246 -278v-906h-404v162q-114 -180 -334 -180zM588 1190l-270 244l318 116l218 -340z
" />
    <glyph glyph-name="uni1EEC" unicode="&#x1eec;" horiz-adv-x="1602" 
d="M750 -28q-184 0 -328 63t-235 203t-91 342v822h416v-822q0 -136 75 -199t163 -63q94 0 161 61t67 201v822h270q108 0 108 100l-4 38q-4 28 -30 64l280 104q46 -120 46 -210q0 -218 -254 -280v-638q0 -290 -179 -449t-465 -159zM816 1484l-172 70q92 84 92 150
q0 52 -56 54q-36 0 -76 -30l-102 156q130 82 260 82q124 0 179 -57t55 -139q0 -150 -180 -286z" />
    <glyph glyph-name="uni1EED" unicode="&#x1eed;" horiz-adv-x="1396" 
d="M476 -18q-104 0 -202 50q-80 40 -131 131t-51 235v690h404v-576q0 -166 146 -174q90 12 129 72t39 140v538h250q108 0 108 100l-4 38q-4 28 -30 64l280 104q46 -120 46 -210q0 -216 -246 -278v-906h-404v162q-114 -180 -334 -180zM738 1170l-172 70q92 84 92 150
q0 52 -56 54q-38 0 -76 -30l-102 156q130 82 260 82q124 0 179 -57t55 -139q0 -152 -180 -286z" />
    <glyph glyph-name="uni1EEE" unicode="&#x1eee;" horiz-adv-x="1602" 
d="M750 -28q-184 0 -328 63t-235 203t-91 342v822h416v-822q0 -136 75 -199t163 -63q94 0 161 61t67 201v822h270q108 0 108 100l-4 38q-4 28 -30 64l280 104q46 -120 46 -210q0 -218 -254 -280v-638q0 -290 -179 -449t-465 -159zM930 1504q-86 0 -184 54q-50 32 -86 32
q-56 0 -56 -80h-218q0 334 204 334q84 0 186 -54q48 -30 80 -30q60 0 60 66v12h216q0 -334 -202 -334z" />
    <glyph glyph-name="uni1EEF" unicode="&#x1eef;" horiz-adv-x="1396" 
d="M476 -18q-104 0 -202 50q-80 40 -131 131t-51 235v690h404v-576q0 -166 146 -174q90 12 129 72t39 140v538h250q108 0 108 100l-4 38q-4 28 -30 64l280 104q46 -120 46 -210q0 -216 -246 -278v-906h-404v162q-114 -180 -334 -180zM852 1192q-84 0 -184 54q-50 32 -86 32
q-56 0 -56 -80h-218q0 334 204 334q84 0 186 -54q48 -30 80 -30q60 0 60 66v12h216q0 -334 -202 -334z" />
    <glyph glyph-name="uni1EF0" unicode="&#x1ef0;" horiz-adv-x="1598" 
d="M750 -28q-184 0 -328 63t-235 203t-91 342v822h416v-822q0 -136 75 -199t163 -63q94 0 161 61t67 201v822h270q108 0 108 100l-4 38q-4 28 -30 64l280 104q46 -120 46 -210q0 -218 -254 -280v-638q0 -290 -179 -449t-465 -159zM746 -548q-106 0 -157 62t-51 146
q0 106 62 157t146 51q106 0 157 -62t51 -146q0 -106 -62 -157t-146 -51z" />
    <glyph glyph-name="uni1EF1" unicode="&#x1ef1;" horiz-adv-x="1396" 
d="M476 -18q-104 0 -202 50q-80 40 -131 131t-51 235v690h404v-576q0 -166 146 -174q90 12 129 72t39 140v538h250q108 0 108 100l-4 38q-4 28 -30 64l280 104q46 -120 46 -210q0 -216 -246 -278v-906h-404v162q-114 -180 -334 -180zM668 -548q-84 0 -146 51t-62 157
q0 84 51 146t157 62t157 -62t51 -146q0 -106 -62 -157t-146 -51z" />
    <glyph glyph-name="Ygrave" unicode="&#x1ef2;" horiz-adv-x="1404" 
d="M914 0h-416v436l-514 966h416l306 -572l298 572h414l-504 -958v-444zM622 1496l-270 244l318 116l218 -340z" />
    <glyph glyph-name="ygrave" unicode="&#x1ef3;" horiz-adv-x="1210" 
d="M318 -406q-200 0 -350 120l168 270q64 -62 146 -62q102 0 138 108l-450 1058h414l238 -666l202 666h402l-456 -1180q-122 -314 -452 -314zM526 1190l-270 244l318 116l218 -340z" />
    <glyph glyph-name="uni1EF4" unicode="&#x1ef4;" horiz-adv-x="1404" 
d="M914 0h-416v436l-514 966h416l306 -572l298 572h414l-504 -958v-444zM706 -548q-106 0 -157 62t-51 146t51 146t157 62q84 0 146 -51t62 -157t-62 -157t-146 -51z" />
    </font>
</defs>
</svg>
