<?xml version="1.0" standalone="no"?>
<!DOCTYPE svg PUBLIC "-//W3C//DTD SVG 1.1//EN" "http://www.w3.org/Graphics/SVG/1.1/DTD/svg11.dtd" >
<svg xmlns="http://www.w3.org/2000/svg" xmlns:xlink="http://www.w3.org/1999/xlink" version="1.1">
<metadata>
Created by FontForge 20170731 at Sun Jan  3 03:27:50 2021
 By Aleksey,,,
Copyright 2011 - 2016 The Montserrat Project Authors (julieta.ulanovsky@gmail.com)
</metadata>
<defs>
<font id="ArgentumSans-Light" horiz-adv-x="0" >
  <font-face 
    font-family="Argentum Sans Light"
    font-weight="300"
    font-stretch="normal"
    units-per-em="2000"
    panose-1="0 0 4 0 0 0 0 0 0 0"
    ascent="1600"
    descent="-400"
    x-height="1052"
    cap-height="1400"
    bbox="-1044 -516 2834 2226"
    underline-thickness="100"
    underline-position="-1010"
    unicode-range="U+001D-A78C"
  />
<missing-glyph horiz-adv-x="1174" 
d="M1094 0h-1014v1400h1014v-1400zM934 140v1120h-694v-1120h694z" />
    <glyph glyph-name=".notdef" horiz-adv-x="1174" 
d="M1094 0h-1014v1400h1014v-1400zM934 140v1120h-694v-1120h694z" />
    <glyph glyph-name="uni0000" 
d="M0 0z" />
    <glyph glyph-name="uni0000" 
d="M0 0z" />
    <glyph glyph-name="nonmarkingreturn" horiz-adv-x="666" 
d="M0 0z" />
    <glyph glyph-name="space" unicode=" " horiz-adv-x="600" 
d="M0 0z" />
    <glyph glyph-name="exclam" unicode="!" horiz-adv-x="406" 
d="M222 -16q-42 0 -70 29t-28 73t28 73t70 29q35 0 65.5 -25.5t30.5 -76.5t-30.5 -76.5t-65.5 -25.5zM274 418h-104l-24 620v338h150v-338z" />
    <glyph glyph-name="quotedbl" unicode="&#x22;" horiz-adv-x="626" 
d="M244 950h-124v450h124v-450zM506 950h-124v450h124v-450z" />
    <glyph glyph-name="numbersign" unicode="#" horiz-adv-x="1436" 
d="M952 0h-120l46 372h-402l-46 -372h-120l46 372h-286l10 122h290l50 400h-286l10 122h290l48 384h120l-48 -384h404l48 384h118l-48 -384h286l-8 -122h-292l-50 -400h286l-10 -122h-290zM894 494l50 400h-404l-50 -400h404z" />
    <glyph glyph-name="dollar" unicode="$" horiz-adv-x="1222" 
d="M676 -266h-122v256q-294 26 -490 214l72 138q216 -198 466 -198q140 0 234 55t94 167q-2 128 -106 186q-114 60 -242 96q-196 60 -260 98q-28 16 -62 44q-116 90 -116 262q0 168 114 254t296 104v234h122l2 -232q230 -18 394 -128l-68 -142q-184 116 -386 116
q-118 0 -208 -46t-90 -150t86 -166t258 -108t302 -128t140 -286q0 -117 -54.5 -197.5t-150.5 -126.5t-223 -58z" />
    <glyph glyph-name="percent" unicode="%" horiz-adv-x="1590" 
d="M655 1034q0 -182 -77 -280t-213 -98q-140 0 -214 99t-74 279q0 172 75 273t213 101q134 0 212 -99t78 -275zM1377 1400l-1050 -1400h-124l1048 1400h126zM181 1034q0 -142 47 -215t137 -73t138 74t48 214q0 132 -48 208t-138 76q-92 0 -138 -76t-46 -208zM1513 370
q0 -180 -77 -278t-211 -98q-138 0 -213 99t-75 277q0 176 75 276t213 100q136 0 212 -100t76 -276zM1039 370q0 -138 46 -212t140 -74q90 0 137 74t47 212q0 134 -47 211t-137 77q-92 0 -139 -78t-47 -210z" />
    <glyph glyph-name="ampersand" unicode="&#x26;" horiz-adv-x="1298" 
d="M1200 -24l-234 232q-196 -214 -434 -214q-76 0 -150 23.5t-134 71t-96 119t-36 168.5q0 132 83 227t235 169q-144 182 -144 334q0 122 88 211t254 89q156 0 240 -82t84 -198q0 -122 -91 -212t-257 -170q146 -166 344 -356q82 122 142 272l106 -80q-66 -152 -158 -282
l242 -238zM538 116q180 0 340 178q-234 232 -376 394q-106 -56 -180 -125t-74 -177q0 -91 42 -151t108 -89.5t140 -29.5zM540 828q136 62 212 133t76 165q0 70 -49 123t-147 53q-106 0 -160 -59t-54 -137q0 -124 122 -278z" />
    <glyph glyph-name="quotesingle" unicode="'" horiz-adv-x="364" 
d="M244 950h-124v450h124v-450z" />
    <glyph glyph-name="parenleft" unicode="(" horiz-adv-x="596" 
d="M546 -248h-144q-236 362 -236 866t236 866h144q-232 -364 -232 -866t232 -866z" />
    <glyph glyph-name="parenright" unicode=")" horiz-adv-x="596" 
d="M194 -248h-144q232 364 232 866t-232 866h144q236 -362 236 -866t-236 -866z" />
    <glyph glyph-name="asterisk" unicode="*" horiz-adv-x="658" 
d="M372 854h-88l2 216l-188 -110l-44 82l188 106l-188 106l44 84l188 -112l-2 216h88v-216l186 110l44 -82l-190 -106l190 -106l-44 -82l-188 110z" />
    <glyph glyph-name="plus" unicode="+" horiz-adv-x="982" 
d="M546 228h-108v360h-364v114h364v362h108v-362h362v-114h-362v-360z" />
    <glyph glyph-name="comma" unicode="," horiz-adv-x="394" 
d="M166 -226h-88l78 224q-50 32 -50 86q0 52 30 76t64 24q35 0 65.5 -24.5t30.5 -75.5q0 -40 -20 -72z" />
    <glyph glyph-name="hyphen" unicode="-" horiz-adv-x="728" 
d="M598 548h-470v114h470v-114z" />
    <glyph glyph-name="period" unicode="." horiz-adv-x="398" 
d="M200 -16q-42 0 -70 29t-28 73t28 73t70 29q35 0 65.5 -25.5t30.5 -76.5t-30.5 -76.5t-65.5 -25.5z" />
    <glyph glyph-name="slash" unicode="/" horiz-adv-x="634" 
d="M114 -244h-136l624 1884h138z" />
    <glyph glyph-name="zero" unicode="0" horiz-adv-x="1234" 
d="M1015 1225q138 -183 138 -525t-138 -525t-398 -183q-258 0 -396 184t-138 524t138 524t396 184q260 0 398 -183zM342 1131q-93 -145 -93 -431q0 -284 93 -430t275 -146q184 0 277 146t93 430q0 286 -93 431t-277 145q-182 0 -275 -145z" />
    <glyph glyph-name="one" unicode="1" horiz-adv-x="1234" 
d="M718 0h-160v1254h-330v148h490v-1402z" />
    <glyph glyph-name="two" unicode="2" horiz-adv-x="1234" 
d="M1173 138v-138h-1052v130l580 570q100 94 158 187t58 161q0 104 -85 162t-233 58q-106 0 -218 -46t-204 -126l-68 120q108 92 241 143t267 51q210 0 337 -93t127 -249q0 -96 -72 -215t-198 -243l-490 -472h852z" />
    <glyph glyph-name="three" unicode="3" horiz-adv-x="1234" 
d="M1003 694q128 -98 128 -264q0 -130 -66 -229t-188 -154t-286 -55q-130 0 -259 38t-223 102l70 130q84 -62 190 -97t214 -35q182 0 287 80t105 212q0 134 -104 203t-292 69h-186v104l458 454h-674l-2 148h886v-106l-486 -486l82 -6q218 -10 346 -108z" />
    <glyph glyph-name="four" unicode="4" horiz-adv-x="1234" 
d="M1139 518v-148h-222v-370h-150v370h-702v130l518 900h158l-502 -882h528v376h150v-376h222z" />
    <glyph glyph-name="five" unicode="5" horiz-adv-x="1234" 
d="M894 815q115 -53 178 -146t63 -213q0 -140 -64 -245t-182 -162t-274 -57q-122 0 -257 41t-241 111l66 130q94 -64 204 -101t214 -37q166 0 265 84t99 224q0 130 -98 204t-276 74q-70 0 -182 -11t-188 -27v716h856v-148h-706v-400q118 16 256 16q152 0 267 -53z" />
    <glyph glyph-name="six" unicode="6" horiz-adv-x="1234" 
d="M856 1247q-87 23 -169 23q-210 0 -323 -148t-113 -408q0 -54 2 -82q46 126 156 195t266 69q210 0 331 -119t121 -323q0 -214 -131 -338t-349 -124q-260 0 -407 178t-147 498q0 222 71 389t203 259t308 92q96 0 205 -27t197 -73l-64 -124q-70 40 -157 63zM457 720
q-82 -44 -126 -117t-42 -159q-2 -72 36 -144t117 -119t193 -47q154 0 248 87t94 235q0 142 -89 225t-239 83q-110 0 -192 -44z" />
    <glyph glyph-name="seven" unicode="7" horiz-adv-x="1234" 
d="M117 1400h1034v-130l-626 -1270h-170l618 1252h-710l-2 -206h-144v354z" />
    <glyph glyph-name="eight" unicode="8" horiz-adv-x="1234" 
d="M944 1314q121 -94 121 -258q0 -108 -59 -186t-167 -120q138 -42 216 -135t78 -223q0 -186 -138 -293t-378 -107q-238 0 -377 106t-139 290q0 132 79 226t221 136q-112 42 -173 122t-61 188q0 162 121 255t327 93q208 0 329 -94zM388 1222q-83 -64 -83 -176
q0 -114 83 -178t229 -64t228 64t82 178q0 112 -82 176t-228 64t-229 -64zM348 604q-97 -72 -97 -198q0 -134 97 -209t269 -75t268 74t96 208q0 126 -97 199t-269 73q-170 0 -267 -72z" />
    <glyph glyph-name="nine" unicode="9" horiz-adv-x="1234" 
d="M365 153q86 -23 168 -23q208 0 321 151t113 415q0 48 -2 72q-48 -126 -156 -195t-264 -69q-208 0 -328 119t-120 323q0 214 129 338t347 124q258 0 404 -178t146 -498q0 -222 -70 -389t-202 -259t-308 -92q-96 0 -203 27t-193 73l64 124q68 -40 154 -63zM340 1179
q-93 -87 -93 -235q0 -142 88 -225t236 -83q108 0 189 44t124 116t43 156q0 74 -37 146t-114 120t-191 48q-152 0 -245 -87z" />
    <glyph glyph-name="colon" unicode=":" horiz-adv-x="398" 
d="M200 -16q-42 0 -70 29t-28 73t28 73t70 29q35 0 65.5 -25.5t30.5 -76.5t-30.5 -76.5t-65.5 -25.5zM200 578q-42 0 -70 29t-28 73t28 73t70 29q35 0 65.5 -25.5t30.5 -76.5t-30.5 -76.5t-65.5 -25.5z" />
    <glyph glyph-name="semicolon" unicode=";" horiz-adv-x="396" 
d="M166 -226h-88l78 224q-50 32 -50 86q0 52 30 76t64 24q35 0 65.5 -24.5t30.5 -75.5q0 -40 -20 -72zM200 578q-42 0 -70 29t-28 73t28 73t70 29q35 0 65.5 -25.5t30.5 -76.5t-30.5 -76.5t-65.5 -25.5z" />
    <glyph glyph-name="less" unicode="&#x3c;" horiz-adv-x="982" 
d="M908 208l-834 372v146l834 372v-128l-726 -318l726 -316v-128z" />
    <glyph glyph-name="equal" unicode="=" horiz-adv-x="982" 
d="M908 382h-834v114h834v-114zM908 794h-834v114h834v-114z" />
    <glyph glyph-name="greater" unicode="&#x3e;" horiz-adv-x="982" 
d="M74 214v128l726 318l-726 316v128l834 -372v-146z" />
    <glyph glyph-name="question" unicode="?" horiz-adv-x="848" 
d="M458 438h-122q0 192 176 326q51 41 80 75t49 81q25 54 25 116q0 204 -244 204q-99 0 -167.5 -52t-82.5 -168l-126 2q18 180 123 268t267 88q127 0 223 -47.5t131 -135.5q24 -63 24 -153q0 -84 -36 -148q-38 -72 -90 -117t-106 -88t-89 -102.5t-35 -136.5v-12zM394 -16
q-42 0 -70 29t-28 73t28 73t70 29q35 0 65.5 -25.5t30.5 -76.5t-30.5 -76.5t-65.5 -25.5z" />
    <glyph glyph-name="at" unicode="@" horiz-adv-x="1972" 
d="M970 -324q-204 0 -362.5 61.5t-280.5 184.5q-247 246 -247 600v16q0 376 264 627t642 251h20q386 0 636 -248t250 -622q0 -264 -100 -396t-250 -132q-80 0 -140 44t-74 140l-2 72q-136 -224 -392 -224q-198 0 -339 134t-141 352q0 208 128 350t338 142q144 0 243 -64
t131 -140v190h148v-752q0 -71 34 -103.5t80 -32.5q90 0 153 109t63 297q0 340 -217 553q-108 107 -248.5 160t-320.5 53q-340 0 -562 -223q-222 -218 -222 -545q0 -314 221 -523t547 -209q198 0 376 108l56 -108q-206 -122 -432 -122zM948 192q115 0 190 50q78 54 113 134
t35 166q0 84 -35 162.5t-110.5 129t-194.5 50.5q-108 0 -182 -48t-112 -126t-38 -168q0 -144 88 -247t246 -103z" />
    <glyph glyph-name="A" unicode="A" horiz-adv-x="1436" 
d="M1428 0h-174l-158 358h-762l-156 -358h-170l628 1400h166zM1032 506l-318 720l-314 -720h632z" />
    <glyph glyph-name="B" unicode="B" horiz-adv-x="1432" 
d="M810 0h-598v1400h590q200 0 319 -78q135 -88 135 -272q0 -110 -62 -195.5t-198 -120.5q164 -32 242 -126t78 -228q0 -190 -141 -285t-365 -95zM794 148q158 0 259 60t101 192q0 128 -102 187t-258 59h-422v-498h422zM794 794q288 0 298 232q0 216 -298 226h-422v-458h422
z" />
    <glyph glyph-name="C" unicode="C" horiz-adv-x="1400" 
d="M804 -12q-300 0 -512 208t-212 506q0 304 214 507t516 203q288 0 512 -206l-96 -116q-182 176 -414 176q-242 0 -406 -164t-164 -400q0 -238 168 -401t402 -163q232 0 414 170l98 -106q-230 -214 -520 -214z" />
    <glyph glyph-name="D" unicode="D" horiz-adv-x="1578" 
d="M772 0h-560v1400h566q304 0 512 -202t208 -498q0 -298 -207 -499t-519 -201zM780 148q228 0 392 153t164 397q0 250 -167 402t-395 152h-402v-1104h408z" />
    <glyph glyph-name="E" unicode="E" horiz-adv-x="1302" 
d="M1188 0h-976v1400h950v-148h-790v-470h706v-146h-706v-488h816v-148z" />
    <glyph glyph-name="F" unicode="F" horiz-adv-x="1126" 
d="M372 0h-160v1400h890v-148h-730v-502h654v-146h-654v-604z" />
    <glyph glyph-name="G" unicode="G" horiz-adv-x="1506" 
d="M810 -6q-314 0 -522 208t-208 490v16q0 294 214 495t524 201q292 0 516 -192l-92 -116q-190 162 -424 162q-242 0 -409 -163t-167 -395q0 -230 168 -398q170 -162 410 -162q190 0 368 118l-2 368h-378v148h522v-598q-234 -182 -520 -182z" />
    <glyph glyph-name="H" unicode="H" horiz-adv-x="1588" 
d="M1376 0h-160v620h-844v-620h-160v1400h160v-634h844v634h160v-1400z" />
    <glyph glyph-name="I" unicode="I" horiz-adv-x="584" 
d="M372 0h-160v1400h160v-1400z" />
    <glyph glyph-name="J" unicode="J" horiz-adv-x="966" 
d="M388 -6q-236 0 -388 198l80 124q144 -164 306 -164q230 0 240 270v830h-500v148h662v-982q0 -150 -51 -243t-142 -137t-207 -44z" />
    <glyph glyph-name="K" unicode="K" horiz-adv-x="1398" 
d="M1354 0h-194l-516 666l-272 -298v-368h-160v1400h160v-822l752 822h192l-558 -610z" />
    <glyph glyph-name="L" unicode="L" horiz-adv-x="1034" 
d="M986 0h-774v1400h160v-1252h614v-148z" />
    <glyph glyph-name="M" unicode="M" horiz-adv-x="1876" 
d="M1664 0h-150l-2 1166l-528 -1018h-92l-532 1018v-1166h-148v1400h194l534 -1020l528 1020h196v-1400z" />
    <glyph glyph-name="N" unicode="N" horiz-adv-x="1590" 
d="M1376 0h-164l-840 1140v-1140h-160v1400h166l840 -1140v1140h158v-1400z" />
    <glyph glyph-name="O" unicode="O" horiz-adv-x="1626" 
d="M822 -12h-16q-306 0 -516 210q-105 105 -157.5 229t-52.5 275q0 298 213 504t529 206q304 0 514 -208t210 -494v-16q0 -298 -214 -502t-510 -204zM814 134q234 0 401 165t167 403q0 232 -166 397t-402 165t-404 -163t-168 -399q0 -238 170 -403t402 -165z" />
    <glyph glyph-name="P" unicode="P" horiz-adv-x="1338" 
d="M372 0h-160v1400h526q147 0 272 -47t202 -153q72 -104 72 -270q0 -134 -54 -244.5t-177 -177.5q-120 -64 -315 -64h-366v-444zM732 592q176 0 287 78t111 256q0 117 -50 188.5t-141 104.5t-207 33h-360v-660h360z" />
    <glyph glyph-name="Q" unicode="Q" horiz-adv-x="1650" 
d="M1270 -286q-240 0 -436 274q-334 4 -542 205t-212 509q0 298 213 504t529 206q304 0 514 -208q105 -104 157.5 -227.5t52.5 -274.5q0 -260 -155 -443t-387 -247q144 -156 284 -156q124 0 270 126l70 -114q-174 -154 -358 -154zM814 134q234 0 401 165t167 403
q0 232 -166 397t-402 165t-404 -163t-168 -399q0 -238 170 -403t402 -165z" />
    <glyph glyph-name="R" unicode="R" horiz-adv-x="1446" 
d="M1310 0h-182l-294 448l-90 -4h-372v-444h-160v1400h532q168 0 292 -50.5t192 -155t68 -264.5q0 -344 -316 -452zM744 592q176 0 287 78t111 256q0 324 -398 326h-372v-660h372z" />
    <glyph glyph-name="S" unicode="S" horiz-adv-x="1222" 
d="M600 -12q-316 0 -536 216l72 138q216 -198 466 -198q140 0 234 55t94 167q-2 128 -106 186q-114 60 -242 96q-196 60 -260 98q-28 16 -62 44q-116 90 -116 262q0 125 66 205q71 83 181 120t237 37q242 0 444 -130l-68 -142q-184 116 -386 116q-118 0 -208 -46t-90 -150
t86 -166t258 -108t302 -128t140 -286q0 -130 -68 -215q-74 -90 -189.5 -130.5t-248.5 -40.5z" />
    <glyph glyph-name="T" unicode="T" horiz-adv-x="1116" 
d="M638 0h-160v1252h-456v148h1074v-148h-458v-1252z" />
    <glyph glyph-name="U" unicode="U" horiz-adv-x="1530" 
d="M766 -12q-200 0 -330 76q-135 82 -195.5 215t-60.5 291v830h160v-830q0 -152 56 -247q60 -100 158 -144.5t212 -44.5q113 0 209.5 43t155.5 140t59 253v830h158v-830q0 -256 -133 -410q-149 -172 -449 -172z" />
    <glyph glyph-name="V" unicode="V" horiz-adv-x="1330" 
d="M746 0h-166l-568 1400h172l482 -1220l484 1220h168z" />
    <glyph glyph-name="W" unicode="W" horiz-adv-x="2066" 
d="M1582 0h-166l-380 1194l-388 -1194h-164l-472 1400h172l386 -1226l386 1226h160l388 -1228l384 1228h168z" />
    <glyph glyph-name="X" unicode="X" horiz-adv-x="1330" 
d="M1272 0h-192l-426 590l-422 -590h-188l514 720l-478 680h188l386 -546l390 546h188l-476 -672z" />
    <glyph glyph-name="Y" unicode="Y" horiz-adv-x="1250" 
d="M708 0h-158v482l-542 918h166l454 -734l448 734h164l-532 -914v-486z" />
    <glyph glyph-name="Z" unicode="Z" horiz-adv-x="1320" 
d="M1232 0h-1146v124l928 1128h-902v148h1112v-124l-928 -1128h938z" />
    <glyph glyph-name="bracketleft" unicode="[" horiz-adv-x="624" 
d="M578 -248h-394v1732h394v-130h-252v-1472h252v-130z" />
    <glyph glyph-name="backslash" unicode="\" horiz-adv-x="634" 
d="M656 -244h-136l-626 1884h138z" />
    <glyph glyph-name="bracketright" unicode="]" horiz-adv-x="624" 
d="M440 -248h-394v130h252v1472h-252v130h394v-1732z" />
    <glyph glyph-name="asciicircum" unicode="^" horiz-adv-x="1028" 
d="M960 260h-128l-318 690l-316 -690h-128l372 794h146z" />
    <glyph glyph-name="underscore" unicode="_" horiz-adv-x="1110" 
d="M1108 -408h-1108v102h1108v-102z" />
    <glyph glyph-name="grave" unicode="`" horiz-adv-x="668" 
d="M392 1230l-250 198l160 72l226 -254z" />
    <glyph glyph-name="a" unicode="a" horiz-adv-x="1154" 
d="M458 -6q-123 0 -201.5 44t-117.5 117t-39 157q0 126 95 210t299 92h346v66q0 110 -67 179t-215 69q-176 0 -334 -122l-66 110q204 142 430 142q214 0 310 -100t96 -262l2 -696h-152v164q-134 -170 -386 -170zM488 124q124 0 219 57t135 181v128h-328q-264 0 -268 -172
q0 -80 61 -137t181 -57z" />
    <glyph glyph-name="b" unicode="b" horiz-adv-x="1352" 
d="M766 -6q-280 0 -410 232v-226h-156v1484h156v-658q130 232 406 232q224 0 365 -149t141 -385q0 -107 -31.5 -203t-94 -169.5t-156.5 -115.5t-220 -42zM734 132q126 0 210 57q86 60 126 151t40 188q0 75 -22 146t-68 127t-117 89.5t-169 33.5q-180 0 -279 -115t-99 -281
t101 -281t277 -115z" />
    <glyph glyph-name="c" unicode="c" horiz-adv-x="1122" 
d="M606 -6q-98 0 -191 31t-167.5 95.5t-119 165.5t-44.5 240q0 116 33 207t91.5 156.5t135.5 105.5q118 63 262 63q256 0 406 -156l-86 -108q-124 124 -314 124q-160 0 -267 -104t-107 -288q0 -188 111 -291t263 -103q208 0 326 136l90 -92q-146 -182 -422 -182z" />
    <glyph glyph-name="d" unicode="d" horiz-adv-x="1358" 
d="M592 -8q-224 0 -366 145t-142 391t144 389t362 143q284 0 412 -236v660h156v-1484h-156v226q-130 -234 -410 -234zM622 126q166 0 273 112t107 286q0 166 -103 283t-277 117q-178 0 -280 -118t-102 -282q0 -168 102 -283t280 -115z" />
    <glyph glyph-name="e" unicode="e" horiz-adv-x="1176" 
d="M608 -6q-144 0 -263 61.5t-190 180t-71 290.5q0 176 69 291q73 120 190.5 178t262.5 63q172 0 281 -70q113 -75 163 -199t50 -275l-2 -46h-860q22 -154 118 -249t264 -95q198 0 326 134l86 -90q-160 -174 -424 -174zM958 592q-10 148 -96 242t-256 94q-166 0 -257 -93
t-111 -243h720z" />
    <glyph glyph-name="f" unicode="f" horiz-adv-x="664" 
d="M376 0h-154v898h-136v122h136v126q0 121 48 198q52 80 129 117t161 37q94 -4 178 -48l-38 -130q-62 38 -138 38t-131 -47t-55 -147v-144h302v-122h-302v-898z" />
    <glyph glyph-name="g" unicode="g" horiz-adv-x="1272" 
d="M578 -392q-232 0 -432 154l72 114q154 -134 354 -134q160 0 270 91t110 273v160q-120 -220 -388 -220q-208 0 -344 137t-136 371t130 363t346 141q274 -4 392 -220v214h156v-942q0 -168 -70 -279q-76 -117 -197 -170t-263 -53zM592 174q174 0 267 112t93 264
q0 164 -100 271t-260 107q-172 0 -264 -105t-98 -273q6 -164 98 -270t264 -106z" />
    <glyph glyph-name="h" unicode="h" horiz-adv-x="1324" 
d="M1166 0h-156v608q0 152 -84 226t-214 74q-184 -12 -270 -124t-86 -268v-516h-156v1484h156v-668q114 242 410 242q142 0 230 -53t129 -146t41 -211v-648z" />
    <glyph glyph-name="i" unicode="i" horiz-adv-x="534" 
d="M266 1248q-51 0 -76.5 33.5t-25.5 72.5q0 44 27.5 76t74.5 32t74.5 -32t27.5 -76q0 -39 -25.5 -72.5t-76.5 -33.5zM344 0h-154v1052h154v-1052z" />
    <glyph glyph-name="j" unicode="j" horiz-adv-x="506" 
d="M52 -392q-96 4 -168 34l38 122q42 -18 100 -22q162 2 162 226v1084h156v-1106q0 -330 -288 -338zM262 1248q-51 0 -76.5 33.5t-25.5 72.5q0 44 27.5 76t74.5 32t74.5 -32t27.5 -76q0 -39 -25.5 -72.5t-76.5 -33.5z" />
    <glyph glyph-name="k" unicode="k" horiz-adv-x="1146" 
d="M1124 0h-186l-360 534l-222 -230v-304h-156v1484h156v-978l542 546h184l-394 -406z" />
    <glyph glyph-name="l" unicode="l" horiz-adv-x="580" 
d="M390 -6q-84 0 -151 59t-67 199v1232h154v-1214q0 -132 100 -132q56 0 112 44l30 -126q-88 -62 -178 -62z" />
    <glyph glyph-name="m" unicode="m" horiz-adv-x="2088" 
d="M1932 0h-156v608q0 156 -83 229t-209 73q-180 -20 -262 -128t-82 -264v-518h-158v608q0 132 -72 217t-220 85q-180 -20 -263 -128t-83 -264v-518h-154v1052h154v-238q112 244 402 244q296 0 378 -274q106 274 416 274q196 0 294 -116t98 -294v-648z" />
    <glyph glyph-name="n" unicode="n" horiz-adv-x="1312" 
d="M1154 0h-156v608q0 152 -84 226t-214 74q-174 -10 -259 -103t-95 -241v-564h-156v1052h156v-232q118 238 408 238q142 0 230 -53t129 -146t41 -211v-648z" />
    <glyph glyph-name="o" unicode="o" horiz-adv-x="1236" 
d="M618 -6q-238 0 -386 148t-148 386q0 242 152 386t382 144q101 0 196.5 -32t171.5 -97.5t121 -165t45 -235.5q0 -170 -73 -289q-84 -130 -206.5 -187.5t-254.5 -57.5zM618 130q93 0 180 40t145 131q53 87 53 225q0 164 -100 279t-278 115t-278 -115t-100 -279
q0 -136 52.5 -223t138 -130t187.5 -43z" />
    <glyph glyph-name="p" unicode="p" horiz-adv-x="1352" 
d="M356 -388h-156v1440h156v-226q130 232 406 232q224 0 365 -149t141 -385q0 -107 -31.5 -203t-94 -169.5t-156.5 -115.5t-220 -42q-280 0 -410 232v-614zM734 132q126 0 210 57q86 60 126 151t40 188q0 75 -22 146t-68 127t-117 89.5t-169 33.5q-180 0 -279 -115t-99 -281
t101 -281t277 -115z" />
    <glyph glyph-name="q" unicode="q" horiz-adv-x="1358" 
d="M1158 -388h-156v614q-130 -234 -410 -234q-224 0 -366 145t-142 391t144 389t362 143q284 0 412 -236v228h156v-1440zM622 126q166 0 273 112t107 286q0 166 -103 283t-277 117q-178 0 -280 -118t-102 -282q0 -168 102 -283t280 -115z" />
    <glyph glyph-name="r" unicode="r" horiz-adv-x="744" 
d="M346 0h-156v1052h156v-234q108 234 378 240v-152q-186 0 -277 -96t-101 -250v-560z" />
    <glyph glyph-name="s" unicode="s" horiz-adv-x="906" 
d="M454 -6q-236 0 -404 148l60 114q158 -134 350 -134q90 0 153 36t73 118q0 134 -250 194q-128 32 -227 94t-105 210q0 102 51 165q54 64 137 92.5t178 28.5q190 0 336 -96l-60 -120q-138 84 -286 84q-208 0 -208 -142q0 -64 57.5 -106t186.5 -72q71 -20 123 -42t105 -52
q116 -74 116 -222q0 -105 -53 -170q-58 -68 -146 -98t-187 -30z" />
    <glyph glyph-name="t" unicode="t" horiz-adv-x="780" 
d="M496 -6q-112 0 -190 68t-78 230v606h-152v122h152v276h154v-276h334v-122h-334v-580q0 -180 134 -180q80 0 174 54l44 -120q-110 -78 -238 -78z" />
    <glyph glyph-name="u" unicode="u" horiz-adv-x="1294" 
d="M548 -6q-138 0 -225 55q-90 59 -129.5 152.5t-39.5 202.5v648h156v-608q0 -146 81 -223t211 -77q182 16 264 126t82 266v516h156v-1052h-156v238q-112 -244 -400 -244z" />
    <glyph glyph-name="v" unicode="v" horiz-adv-x="996" 
d="M588 0h-162l-418 1052h166l336 -894l334 894h158z" />
    <glyph glyph-name="w" unicode="w" horiz-adv-x="1728" 
d="M1344 0h-162l-310 862l-308 -862h-162l-394 1052h164l312 -894l306 894h164l310 -894l308 894h162z" />
    <glyph glyph-name="x" unicode="x" horiz-adv-x="1058" 
d="M1010 0h-182l-300 432l-310 -432h-176l384 542l-358 510h180l280 -402l284 402h172l-352 -510z" />
    <glyph glyph-name="y" unicode="y" horiz-adv-x="1004" 
d="M210 -394q-130 0 -222 76l66 124q68 -50 148 -50q124 0 192 152l44 100l-436 1044h164l350 -876l334 876h160l-484 -1202q-106 -244 -316 -244z" />
    <glyph glyph-name="z" unicode="z" horiz-adv-x="1054" 
d="M968 -2l-864 2v116l660 804l-642 2v130h830v-116l-660 -804l676 -2v-132z" />
    <glyph glyph-name="braceleft" unicode="{" horiz-adv-x="668" 
d="M604 -252q-100 0 -170 10q-174 26 -174 226v446q0 120 -86 120h-62v132h54q94 0 94 118v450q0 129 70.5 182.5t215.5 53.5h58v-130q-200 0 -200 -140v-404q0 -73 -32.5 -116t-109.5 -78q78 -47 114 -82q28 -34 28 -116v-394q0 -148 192 -148h8v-130z" />
    <glyph glyph-name="bar" unicode="|" horiz-adv-x="500" 
d="M312 -242h-124v1872h124v-1872z" />
    <glyph glyph-name="braceright" unicode="}" horiz-adv-x="668" 
d="M122 -252h-58v130q200 0 200 138v404q0 86 30 119q33 37 112 79q-77 35 -109.5 78t-32.5 116v394q0 80 -49.5 115t-150.5 35v130q218 0 281 -55t63 -181v-446q0 -122 88 -122h60v-132h-54q-94 0 -94 -116v-450q0 -129 -70.5 -182.5t-215.5 -53.5z" />
    <glyph glyph-name="asciitilde" unicode="~" horiz-adv-x="982" 
d="M666 512q-74 4 -180 66q-97 58 -142 58q-84 0 -86 -108h-112q0 232 172 236q70 0 188 -70q90 -54 134 -54q84 0 86 108h112q0 -230 -172 -236z" />
    <glyph glyph-name="uni00A0" unicode="&#xa0;" horiz-adv-x="600" 
d="M0 0z" />
    <glyph glyph-name="exclamdown" unicode="&#xa1;" horiz-adv-x="406" 
d="M220 862q-35 0 -65.5 25.5t-30.5 76.5t30.5 76.5t65.5 25.5q42 0 70 -29t28 -73t-28 -73t-70 -29zM296 -326h-150v338l22 620h104l24 -620v-338z" />
    <glyph glyph-name="cent" unicode="&#xa2;" horiz-adv-x="1200" 
d="M670 -280h-122v276q-137 16 -241.5 80t-163.5 176.5t-59 273.5q0 162 61 274q129 226 403 256v290h122v-290q212 -20 342 -154l-86 -108q-124 124 -314 124q-160 0 -267 -104t-107 -288q0 -188 111 -291t263 -103q208 0 326 136l90 -92q-126 -152 -358 -180v-276z" />
    <glyph glyph-name="sterling" unicode="&#xa3;" horiz-adv-x="1082" 
d="M1008 0h-922v134h174v516h-174v92h174v238q0 410 394 426q218 0 378 -186l-68 -124q-132 164 -294 164q-242 0 -250 -282v-236h364v-92h-364v-516h588v-134z" />
    <glyph glyph-name="currency" unicode="&#xa4;" horiz-adv-x="1434" 
d="M1260 0l-214 214q-144 -108 -330 -108q-188 0 -328 108l-214 -214l-90 96l208 210q-120 144 -120 330q0 184 118 330l-206 208l90 96l210 -210q146 110 332 110q192 0 334 -110l210 210l90 -96l-204 -206q120 -140 120 -332q0 -190 -122 -332l206 -208zM716 242
q184 0 304 116t120 278q0 170 -123 285t-301 115q-166 0 -292 -111t-126 -289q0 -172 124 -283t294 -111z" />
    <glyph glyph-name="yen" unicode="&#xa5;" horiz-adv-x="1248" 
d="M708 0h-160v254h-416v94h416v138l-2 2h-414v94h358l-482 818h164l456 -736l446 736h166l-476 -818h360v-94h-416v-140h416v-94h-416v-254z" />
    <glyph glyph-name="brokenbar" unicode="&#xa6;" horiz-adv-x="500" 
d="M312 -242h-124v698h124v-698zM312 934h-124v696h124v-696z" />
    <glyph glyph-name="section" unicode="&#xa7;" horiz-adv-x="946" 
d="M464 -166q-240 0 -414 150l52 100q166 -134 356 -134q98 0 175 41t77 123q0 62 -52 107t-220 95q-182 62 -244 108q-94 76 -96 196q0 198 262 250q-236 74 -236 246q0 136 107 204t261 68q180 0 340 -96l-54 -102q-142 84 -284 84q-98 0 -165 -37t-67 -115
q0 -69 61.5 -115.5t206.5 -84.5q112 -30 189.5 -68t118 -94t40.5 -142q0 -106 -67 -173t-161 -87q200 -68 200 -240q0 -138 -115 -211t-271 -73zM516 440q94 0 158 42t64 124q0 79 -71.5 128.5t-196.5 49.5q-122 0 -179 -42t-57 -108q0 -90 86 -142t196 -52z" />
    <glyph glyph-name="dieresis" unicode="&#xa8;" horiz-adv-x="674" 
d="M194 1256q-37 0 -64.5 27t-27.5 69q0 52 29 75t63 23t64 -23t30 -75q0 -36 -23 -66t-71 -30zM530 1256q-48 0 -71 30t-23 66q0 52 30 75t64 23t64 -23t30 -75q0 -36 -23 -66t-71 -30z" />
    <glyph glyph-name="copyright" unicode="&#xa9;" horiz-adv-x="1514" 
d="M762 18h-16q-282 0 -474 199t-192 471v16q0 286 199 480t471 194h16q280 0 474 -199t194 -471v-16q0 -286 -199 -480t-473 -194zM754 108q254 0 425 176t171 416q0 244 -172 416t-420 172q-252 0 -422 -173t-170 -419t168 -417t420 -171zM764 344q-154 0 -258 102
t-104 252q0 115 53 192q57 80 140 119t173 39q144 0 260 -102l-54 -64q-86 86 -206 86q-76 0 -139 -33.5t-101 -93.5t-38 -141q0 -118 79 -195t199 -77q112 0 206 82l54 -58q-116 -108 -264 -108z" />
    <glyph glyph-name="ordfeminine" unicode="&#xaa;" horiz-adv-x="760" 
d="M292 912q-106 0 -159 55t-53 129q0 166 244 172h208v44q-4 136 -168 136q-108 0 -216 -66l-32 80q132 78 272 78q244 0 256 -216l2 -408h-114v112q-80 -116 -240 -116zM328 992q148 0 204 122v92h-186q-148 0 -158 -100q0 -46 33.5 -80t106.5 -34z" />
    <glyph glyph-name="guillemotleft" unicode="&#xab;" horiz-adv-x="854" 
d="M436 178h-136l-226 332l226 334h136l-214 -334zM744 178h-136l-226 332l226 334h136l-214 -334z" />
    <glyph glyph-name="logicalnot" unicode="&#xac;" horiz-adv-x="1102" 
d="M936 300h-118v360h-744v114h862v-474z" />
    <glyph glyph-name="uni00AD" unicode="&#xad;" horiz-adv-x="728" 
d="M598 548h-470v114h470v-114z" />
    <glyph glyph-name="registered" unicode="&#xae;" horiz-adv-x="1514" 
d="M762 18h-16q-282 0 -474 199t-192 471v16q0 286 199 480t471 194h16q280 0 474 -199t194 -471v-16q0 -286 -199 -480t-473 -194zM754 108q254 0 425 176t171 416q0 244 -172 416t-420 172q-252 0 -422 -173t-170 -419t168 -417t420 -171zM1060 362h-100l-148 226
q-14 -2 -226 -2v-224h-84v706h268q272 0 280 -236q0 -174 -158 -228zM770 660q192 0 198 170q0 158 -198 162h-184v-332h184z" />
    <glyph glyph-name="macron" unicode="&#xaf;" horiz-adv-x="700" 
d="M630 1300h-560v106h560v-106z" />
    <glyph glyph-name="degree" unicode="&#xb0;" horiz-adv-x="656" 
d="M386 1160q-90 0 -159 60t-69 164q0 100 70 163t158 63q68 0 120.5 -32t82 -83.5t29.5 -110.5q0 -100 -70 -162t-162 -62zM386 1238q60 0 108 39.5t48 106.5q0 54 -42 100t-114 46q-48 0 -82 -22.5t-52 -56.5t-18 -67q0 -67 47 -106.5t105 -39.5z" />
    <glyph glyph-name="plusminus" unicode="&#xb1;" horiz-adv-x="982" 
d="M908 66h-834v114h834v-114zM546 352h-108v356h-364v112h364v358h108v-358h362v-112h-362v-356z" />
    <glyph glyph-name="uni00B2" unicode="&#xb2;" horiz-adv-x="690" 
d="M638 720h-596v86l318 330q110 110 110 192q0 110 -154 120q-114 0 -236 -104l-50 88q140 116 302 116q110 0 186 -52t76 -154q0 -122 -156 -268l-248 -258h448v-96z" />
    <glyph glyph-name="uni00B3" unicode="&#xb3;" horiz-adv-x="686" 
d="M310 710q-152 0 -276 86l50 94q98 -86 220 -86q186 0 194 164q0 144 -196 148h-112v68l248 262h-368v90h506v-70l-256 -272q132 0 214 -56t82 -170q0 -108 -75 -183t-231 -75z" />
    <glyph glyph-name="acute" unicode="&#xb4;" horiz-adv-x="700" 
d="M300 1230l-136 16l226 254l160 -72z" />
    <glyph glyph-name="mu" unicode="&#xb5;" horiz-adv-x="1338" 
d="M356 -388h-156v742q-2 16 -2 698h158v-650q40 -258 290 -258q182 16 264 126t82 266v516h156v-1052h-156v238q-112 -244 -400 -244q-138 0 -236 64v-446z" />
    <glyph glyph-name="paragraph" unicode="&#xb6;" horiz-adv-x="1184" 
d="M972 -220h-122v1600h-302v-1600h-122v980l-68 -2q-196 0 -286 134q-68 104 -68 222q0 156 101 263t327 107h540v-1704z" />
    <glyph glyph-name="periodcentered" unicode="&#xb7;" horiz-adv-x="408" 
d="M204 452q-51 0 -76.5 33.5t-25.5 72.5q0 44 27.5 76t74.5 32t74.5 -32t27.5 -76q0 -39 -25.5 -72.5t-76.5 -33.5z" />
    <glyph glyph-name="cedilla" unicode="&#xb8;" horiz-adv-x="556" 
d="M298 -432q-92 0 -176 42l36 100q54 -30 122 -30q56 0 80 24t24 50t-24.5 48t-81.5 22h-62l58 190l108 -14l-36 -106q86 -14 124 -57t38 -97q0 -86 -61 -129t-149 -43z" />
    <glyph glyph-name="uni00B9" unicode="&#xb9;" horiz-adv-x="452" 
d="M304 720h-120v722h-170v100h290v-822z" />
    <glyph glyph-name="ordmasculine" unicode="&#xba;" horiz-adv-x="806" 
d="M402 912q-140 0 -235 82t-95 232t96 232t234 82q134 0 233 -81t99 -233t-99 -233t-233 -81zM402 1006q88 0 151 58t63 162t-62 161t-152 57q-88 0 -152 -57t-64 -161q0 -106 64 -163t152 -57z" />
    <glyph glyph-name="guillemotright" unicode="&#xbb;" horiz-adv-x="868" 
d="M246 180h-136l214 334l-214 332h136l226 -332zM554 180h-136l214 334l-214 332h136l226 -332z" />
    <glyph glyph-name="onequarter" unicode="&#xbc;" horiz-adv-x="1426" 
d="M304 578h-120v722h-170v100h290v-822zM166 0h-132l1048 1400h130zM1280 0h-112v210h-406v88l298 524h114l-294 -522h288v222h112v-222h126v-90h-126v-210z" />
    <glyph glyph-name="onehalf" unicode="&#xbd;" horiz-adv-x="1474" 
d="M304 578h-120v722h-170v100h290v-822zM166 0h-132l1048 1400h130zM1422 0h-596v86l318 330q110 110 110 192q0 110 -154 120q-114 0 -236 -104l-50 88q140 116 302 116q110 0 186 -52t76 -154q0 -120 -156 -268l-248 -258h448v-96z" />
    <glyph glyph-name="threequarters" unicode="&#xbe;" horiz-adv-x="1598" 
d="M310 570q-152 0 -276 86l50 94q98 -86 220 -86q186 0 194 164q0 144 -196 148h-112v68l248 262h-368v90h506v-70l-256 -272q132 0 214 -56t82 -170q0 -108 -75 -183t-231 -75zM338 0h-132l1048 1400h130zM1452 0h-112v210h-406v88l298 524h114l-294 -522h288v222h112
v-222h126v-90h-126v-210z" />
    <glyph glyph-name="questiondown" unicode="&#xbf;" horiz-adv-x="848" 
d="M412 -328q-164 0 -270 80q-56 40 -82 101.5t-26 154.5q0 87 37 154t90.5 112t106.5 88q52 42 87 101.5t35 136.5v12h122q0 -192 -176 -326q-48 -40 -78 -74t-53 -84t-23 -114q0 -204 244 -204q232 0 250 220l126 -2q-14 -126 -66.5 -204.5t-135.5 -115t-188 -36.5z
M454 862q-35 0 -65.5 25.5t-30.5 76.5t30.5 76.5t65.5 25.5q42 0 70 -29t28 -73t-28 -73t-70 -29z" />
    <glyph glyph-name="Agrave" unicode="&#xc0;" horiz-adv-x="1436" 
d="M1428 0h-174l-158 358h-762l-156 -358h-170l628 1400h166zM1032 506l-318 720l-314 -720h632zM678 1530l-250 198l160 72l226 -254z" />
    <glyph glyph-name="Aacute" unicode="&#xc1;" horiz-adv-x="1436" 
d="M1428 0h-174l-158 358h-762l-156 -358h-170l628 1400h166zM1032 506l-318 720l-314 -720h632zM760 1530l-136 16l226 254l160 -72z" />
    <glyph glyph-name="Acircumflex" unicode="&#xc2;" horiz-adv-x="1436" 
d="M1428 0h-174l-158 358h-762l-156 -358h-170l628 1400h166zM1032 506l-318 720l-314 -720h632zM1008 1536h-156l-134 146l-134 -146h-156l206 258h168z" />
    <glyph glyph-name="Atilde" unicode="&#xc3;" horiz-adv-x="1436" 
d="M1428 0h-174l-158 358h-762l-156 -358h-170l628 1400h166zM1032 506l-318 720l-314 -720h632zM858 1530q-74 0 -158 64q-66 46 -100 46q-72 0 -72 -102h-110q0 228 158 228q74 0 158 -64q66 -46 100 -46q72 0 72 102h110q0 -228 -158 -228z" />
    <glyph glyph-name="Adieresis" unicode="&#xc4;" horiz-adv-x="1436" 
d="M1428 0h-174l-158 358h-762l-156 -358h-170l628 1400h166zM1032 506l-318 720l-314 -720h632zM552 1530q-46 0 -70 31t-24 67q0 42 27 70t67 28t67 -28t27 -70q0 -36 -24 -67t-70 -31zM888 1530q-46 0 -70 31t-24 67q0 42 27 70t67 28t67 -28t27 -70q0 -36 -24 -67
t-70 -31z" />
    <glyph glyph-name="Aring" unicode="&#xc5;" horiz-adv-x="1436" 
d="M1428 0h-174l-158 358h-762l-156 -358h-170l628 1400h166zM1032 506l-318 720l-314 -720h632zM718 1508q-82 0 -143 56t-61 148q0 80 56 141t148 61q90 0 146 -62q60 -60 60 -140q0 -62 -29.5 -108t-76.5 -71t-100 -25zM718 1598q47 0 83.5 32.5t36.5 81.5q0 54 -38 83
t-82 29t-82 -29t-38 -83q0 -49 36.5 -81.5t83.5 -32.5z" />
    <glyph glyph-name="AE" unicode="&#xc6;" horiz-adv-x="2052" 
d="M1938 0h-976v384h-562l-222 -384h-170l826 1400h1078v-148h-790v-470h708v-146h-708v-488h816v-148zM962 514v750h-50l-436 -750h486z" />
    <glyph glyph-name="Ccedilla" unicode="&#xc7;" horiz-adv-x="1400" 
d="M768 -432q-92 0 -176 42l36 100q54 -30 122 -30q56 0 80 24t24 50t-24.5 48t-81.5 22h-62l50 166q-137 18 -255.5 73t-208.5 145.5t-141 214t-51 279.5q0 304 214 507t516 203q288 0 512 -206l-96 -116q-182 176 -414 176q-242 0 -406 -164t-164 -400q0 -238 168 -401
t402 -163q232 0 414 170l98 -106q-204 -192 -476 -212l-32 -96q86 -14 124 -57t38 -97q0 -86 -61 -129t-149 -43z" />
    <glyph glyph-name="Egrave" unicode="&#xc8;" horiz-adv-x="1302" 
d="M1188 0h-976v1400h950v-148h-790v-470h706v-146h-706v-488h816v-148zM662 1530l-250 198l160 72l226 -254z" />
    <glyph glyph-name="Eacute" unicode="&#xc9;" horiz-adv-x="1302" 
d="M1188 0h-976v1400h950v-148h-790v-470h706v-146h-706v-488h816v-148zM744 1530l-136 16l226 254l160 -72z" />
    <glyph glyph-name="Ecircumflex" unicode="&#xca;" horiz-adv-x="1302" 
d="M1188 0h-976v1400h950v-148h-790v-470h706v-146h-706v-488h816v-148zM992 1536h-156l-134 146l-134 -146h-156l206 258h168z" />
    <glyph glyph-name="Edieresis" unicode="&#xcb;" horiz-adv-x="1302" 
d="M1188 0h-976v1400h950v-148h-790v-470h706v-146h-706v-488h816v-148zM536 1530q-46 0 -70 31t-24 67q0 42 27 70t67 28t67 -28t27 -70q0 -36 -24 -67t-70 -31zM872 1530q-46 0 -70 31t-24 67q0 42 27 70t67 28t67 -28t27 -70q0 -36 -24 -67t-70 -31z" />
    <glyph glyph-name="Igrave" unicode="&#xcc;" horiz-adv-x="584" 
d="M252 1530l-250 198l160 72l226 -254zM372 0h-160v1400h160v-1400z" />
    <glyph glyph-name="Iacute" unicode="&#xcd;" horiz-adv-x="584" 
d="M334 1530l-136 16l226 254l160 -72zM372 0h-160v1400h160v-1400z" />
    <glyph glyph-name="Icircumflex" unicode="&#xce;" horiz-adv-x="584" 
d="M582 1536h-156l-134 146l-134 -146h-156l206 258h168zM372 0h-160v1400h160v-1400z" />
    <glyph glyph-name="Idieresis" unicode="&#xcf;" horiz-adv-x="584" 
d="M126 1530q-46 0 -70 31t-24 67q0 42 27 70t67 28t67 -28t27 -70q0 -36 -24 -67t-70 -31zM372 0h-160v1400h160v-1400zM462 1530q-46 0 -70 31t-24 67q0 42 27 70t67 28t67 -28t27 -70q0 -36 -24 -67t-70 -31z" />
    <glyph glyph-name="Eth" unicode="&#xd0;" horiz-adv-x="1578" 
d="M774 0h-562v650h-144v100h144v650h564q306 0 514 -202t208 -498q0 -298 -207 -499t-517 -201zM780 148q228 0 392 153t164 397q0 250 -167 402t-395 152h-402v-502h462v-100h-462v-502h408z" />
    <glyph glyph-name="Ntilde" unicode="&#xd1;" horiz-adv-x="1590" 
d="M1376 0h-164l-840 1140v-1140h-160v1400h166l840 -1140v1140h158v-1400zM960 1530q-74 0 -158 64q-66 46 -100 46q-72 0 -72 -102h-110q0 228 158 228q74 0 158 -64q66 -46 100 -46q72 0 72 102h110q0 -228 -158 -228z" />
    <glyph glyph-name="Ograve" unicode="&#xd2;" horiz-adv-x="1626" 
d="M822 -12h-16q-306 0 -516 210q-105 105 -157.5 229t-52.5 275q0 298 213 504t529 206q304 0 514 -208t210 -494v-16q0 -298 -214 -502t-510 -204zM814 134q234 0 401 165t167 403q0 232 -166 397t-402 165t-404 -163t-168 -399q0 -238 170 -403t402 -165zM774 1530
l-250 198l160 72l226 -254z" />
    <glyph glyph-name="Oacute" unicode="&#xd3;" horiz-adv-x="1626" 
d="M822 -12h-16q-306 0 -516 210q-105 105 -157.5 229t-52.5 275q0 298 213 504t529 206q304 0 514 -208t210 -494v-16q0 -298 -214 -502t-510 -204zM814 134q234 0 401 165t167 403q0 232 -166 397t-402 165t-404 -163t-168 -399q0 -238 170 -403t402 -165zM856 1530
l-136 16l226 254l160 -72z" />
    <glyph glyph-name="Ocircumflex" unicode="&#xd4;" horiz-adv-x="1626" 
d="M822 -12h-16q-306 0 -516 210q-105 105 -157.5 229t-52.5 275q0 298 213 504t529 206q304 0 514 -208t210 -494v-16q0 -298 -214 -502t-510 -204zM814 134q234 0 401 165t167 403q0 232 -166 397t-402 165t-404 -163t-168 -399q0 -238 170 -403t402 -165zM1104 1536h-156
l-134 146l-134 -146h-156l206 258h168z" />
    <glyph glyph-name="Otilde" unicode="&#xd5;" horiz-adv-x="1626" 
d="M822 -12h-16q-306 0 -516 210q-105 105 -157.5 229t-52.5 275q0 298 213 504t529 206q304 0 514 -208t210 -494v-16q0 -298 -214 -502t-510 -204zM814 134q234 0 401 165t167 403q0 232 -166 397t-402 165t-404 -163t-168 -399q0 -238 170 -403t402 -165zM954 1530
q-74 0 -158 64q-66 46 -100 46q-72 0 -72 -102h-110q0 228 158 228q74 0 158 -64q66 -46 100 -46q72 0 72 102h110q0 -228 -158 -228z" />
    <glyph glyph-name="Odieresis" unicode="&#xd6;" horiz-adv-x="1626" 
d="M822 -12h-16q-306 0 -516 210q-105 105 -157.5 229t-52.5 275q0 298 213 504t529 206q304 0 514 -208t210 -494v-16q0 -298 -214 -502t-510 -204zM814 134q234 0 401 165t167 403q0 232 -166 397t-402 165t-404 -163t-168 -399q0 -238 170 -403t402 -165zM648 1530
q-46 0 -70 31t-24 67q0 42 27 70t67 28t67 -28t27 -70q0 -36 -24 -67t-70 -31zM984 1530q-46 0 -70 31t-24 67q0 42 27 70t67 28t67 -28t27 -70q0 -36 -24 -67t-70 -31z" />
    <glyph glyph-name="multiply" unicode="&#xd7;" horiz-adv-x="982" 
d="M748 310l-256 256l-256 -256l-76 80l254 256l-254 254l76 80l256 -256l256 256l76 -80l-254 -254l254 -256z" />
    <glyph glyph-name="Oslash" unicode="&#xd8;" horiz-adv-x="1626" 
d="M320 -110h-138l176 254q-138 102 -208 240.5t-70 323.5q0 294 217 495t509 201q204 0 366 -88l134 194h138l-176 -254q138 -101 208 -240t70 -324q0 -300 -216 -499t-508 -199q-204 0 -368 88zM446 272l638 918q-124 66 -270 66q-112 0 -205.5 -35t-166 -96t-121.5 -139
q-79 -126 -79 -286q0 -262 204 -428zM814 140q236 0 402 164t166 396q0 262 -204 428l-636 -920q124 -68 272 -68z" />
    <glyph glyph-name="Ugrave" unicode="&#xd9;" horiz-adv-x="1530" 
d="M766 -12q-200 0 -330 76q-135 82 -195.5 215t-60.5 291v830h160v-830q0 -152 56 -247q60 -100 158 -144.5t212 -44.5q113 0 209.5 43t155.5 140t59 253v830h158v-830q0 -256 -133 -410q-149 -172 -449 -172zM726 1530l-250 198l160 72l226 -254z" />
    <glyph glyph-name="Uacute" unicode="&#xda;" horiz-adv-x="1530" 
d="M766 -12q-200 0 -330 76q-135 82 -195.5 215t-60.5 291v830h160v-830q0 -152 56 -247q60 -100 158 -144.5t212 -44.5q113 0 209.5 43t155.5 140t59 253v830h158v-830q0 -256 -133 -410q-149 -172 -449 -172zM808 1530l-136 16l226 254l160 -72z" />
    <glyph glyph-name="Ucircumflex" unicode="&#xdb;" horiz-adv-x="1530" 
d="M766 -12q-200 0 -330 76q-135 82 -195.5 215t-60.5 291v830h160v-830q0 -152 56 -247q60 -100 158 -144.5t212 -44.5q113 0 209.5 43t155.5 140t59 253v830h158v-830q0 -256 -133 -410q-149 -172 -449 -172zM1056 1536h-156l-134 146l-134 -146h-156l206 258h168z" />
    <glyph glyph-name="Udieresis" unicode="&#xdc;" horiz-adv-x="1530" 
d="M766 -12q-200 0 -330 76q-135 82 -195.5 215t-60.5 291v830h160v-830q0 -152 56 -247q60 -100 158 -144.5t212 -44.5q113 0 209.5 43t155.5 140t59 253v830h158v-830q0 -256 -133 -410q-149 -172 -449 -172zM600 1530q-46 0 -70 31t-24 67q0 42 27 70t67 28t67 -28
t27 -70q0 -36 -24 -67t-70 -31zM936 1530q-46 0 -70 31t-24 67q0 42 27 70t67 28t67 -28t27 -70q0 -36 -24 -67t-70 -31z" />
    <glyph glyph-name="Yacute" unicode="&#xdd;" horiz-adv-x="1250" 
d="M708 0h-158v482l-542 918h166l454 -734l448 734h164l-532 -914v-486zM666 1530l-136 16l226 254l160 -72z" />
    <glyph glyph-name="Thorn" unicode="&#xde;" horiz-adv-x="1344" 
d="M372 0h-160v1400h160v-208h324q308 0 451 -122t143 -336t-142 -344t-452 -130h-324v-260zM690 396q436 0 436 330q0 326 -436 330h-318v-660h318z" />
    <glyph glyph-name="germandbls" unicode="&#xdf;" horiz-adv-x="1298" 
d="M676 0h-106v126h116q170 0 257 82t87 198q0 138 -110 206t-290 68v124q162 0 243 83t81 203q0 134 -85 202t-207 68q-164 0 -245 -106t-81 -264v-990h-156v980q0 98 26.5 189.5t84.5 163.5t150 114.5t223 42.5q85 0 164 -21t141.5 -66t99.5 -117t37 -174
q0 -94 -34 -164.5t-92 -117.5t-132 -70q148 -22 241 -107t93 -241q0 -76 -27.5 -149.5t-88 -132.5t-157 -94.5t-233.5 -35.5z" />
    <glyph glyph-name="agrave" unicode="&#xe0;" horiz-adv-x="1154" 
d="M458 -6q-123 0 -201.5 44t-117.5 117t-39 157q0 126 95 210t299 92h346v66q0 110 -67 179t-215 69q-176 0 -334 -122l-66 110q204 142 430 142q214 0 310 -100t96 -262l2 -696h-152v164q-134 -170 -386 -170zM488 124q124 0 219 57t135 181v128h-328q-264 0 -268 -172
q0 -80 61 -137t181 -57zM530 1230l-250 198l160 72l226 -254z" />
    <glyph glyph-name="aacute" unicode="&#xe1;" horiz-adv-x="1154" 
d="M458 -6q-123 0 -201.5 44t-117.5 117t-39 157q0 126 95 210t299 92h346v66q0 110 -67 179t-215 69q-176 0 -334 -122l-66 110q204 142 430 142q214 0 310 -100t96 -262l2 -696h-152v164q-134 -170 -386 -170zM488 124q124 0 219 57t135 181v128h-328q-264 0 -268 -172
q0 -80 61 -137t181 -57zM610 1230l-136 16l226 254l160 -72z" />
    <glyph glyph-name="acircumflex" unicode="&#xe2;" horiz-adv-x="1154" 
d="M458 -6q-123 0 -201.5 44t-117.5 117t-39 157q0 126 95 210t299 92h346v66q0 110 -67 179t-215 69q-176 0 -334 -122l-66 110q204 142 430 142q214 0 310 -100t96 -262l2 -696h-152v164q-134 -170 -386 -170zM488 124q124 0 219 57t135 181v128h-328q-264 0 -268 -172
q0 -80 61 -137t181 -57zM858 1236h-156l-134 146l-134 -146h-156l206 258h168z" />
    <glyph glyph-name="atilde" unicode="&#xe3;" horiz-adv-x="1154" 
d="M458 -6q-123 0 -201.5 44t-117.5 117t-39 157q0 126 95 210t299 92h346v66q0 110 -67 179t-215 69q-176 0 -334 -122l-66 110q204 142 430 142q214 0 310 -100t96 -262l2 -696h-152v164q-134 -170 -386 -170zM488 124q124 0 219 57t135 181v128h-328q-264 0 -268 -172
q0 -80 61 -137t181 -57zM708 1224q-74 0 -158 64q-66 46 -100 46q-72 0 -72 -102h-110q0 228 158 228q74 0 158 -64q66 -46 100 -46q72 0 72 102h110q0 -228 -158 -228z" />
    <glyph glyph-name="adieresis" unicode="&#xe4;" horiz-adv-x="1154" 
d="M458 -6q-123 0 -201.5 44t-117.5 117t-39 157q0 126 95 210t299 92h346v66q0 110 -67 179t-215 69q-176 0 -334 -122l-66 110q204 142 430 142q214 0 310 -100t96 -262l2 -696h-152v164q-134 -170 -386 -170zM488 124q124 0 219 57t135 181v128h-328q-264 0 -268 -172
q0 -80 61 -137t181 -57zM400 1256q-37 0 -64.5 27t-27.5 69q0 52 29 75t63 23t64 -23t30 -75q0 -36 -23 -66t-71 -30zM736 1256q-48 0 -71 30t-23 66q0 52 30 75t64 23t64 -23t30 -75q0 -36 -23 -66t-71 -30z" />
    <glyph glyph-name="aring" unicode="&#xe5;" horiz-adv-x="1154" 
d="M458 -6q-123 0 -201.5 44t-117.5 117t-39 157q0 126 95 210t299 92h346v66q0 110 -67 179t-215 69q-176 0 -334 -122l-66 110q204 142 430 142q214 0 310 -100t96 -262l2 -696h-152v164q-134 -170 -386 -170zM488 124q124 0 219 57t135 181v128h-328q-264 0 -268 -172
q0 -80 61 -137t181 -57zM568 1160q-82 0 -143 56t-61 148q0 80 56 141t148 61q90 0 146 -62q60 -60 60 -140q0 -62 -29.5 -108t-76.5 -71t-100 -25zM568 1250q47 0 83.5 32.5t36.5 81.5q0 54 -38 83t-82 29t-82 -29t-38 -83q0 -49 36.5 -81.5t83.5 -32.5z" />
    <glyph glyph-name="ae" unicode="&#xe6;" horiz-adv-x="1960" 
d="M1376 -6q-174 0 -289 76t-173 202q-132 -278 -456 -278q-86 0 -168 30.5t-138 102.5q-52 68 -52 179q0 150 109 219t287 69h348v86q-8 248 -286 248q-172 0 -356 -122l-44 114q220 138 430 138q286 0 372 -212q146 212 412 212q172 0 285 -74q118 -80 171.5 -209
t53.5 -279h-880v-38q0 -140 115 -236t269 -96q198 0 326 134l86 -92q-166 -174 -422 -174zM490 110q256 0 356 238v154h-322q-122 0 -200 -44t-78 -140q0 -86 62 -147t182 -61zM1726 588q-12 156 -99 253t-253 97q-144 0 -244 -87t-126 -263h722z" />
    <glyph glyph-name="ccedilla" unicode="&#xe7;" horiz-adv-x="1122" 
d="M564 -432q-92 0 -176 42l36 100q54 -30 122 -30q56 0 80 24t24 50t-24.5 48t-81.5 22h-62l54 174q-193 22 -315 146q-137 138 -137 382q0 116 33 207t91.5 156.5t135.5 105.5q118 63 262 63q256 0 406 -156l-86 -108q-124 124 -314 124q-160 0 -267 -104t-107 -288
q0 -188 111 -291t263 -103q208 0 326 136l90 -92q-132 -164 -382 -180l-34 -102q86 -14 124 -57t38 -97q0 -86 -61 -129t-149 -43z" />
    <glyph glyph-name="egrave" unicode="&#xe8;" horiz-adv-x="1176" 
d="M608 -6q-144 0 -263 61.5t-190 180t-71 290.5q0 176 69 291q73 120 190.5 178t262.5 63q172 0 281 -70q113 -75 163 -199t50 -275l-2 -46h-860q22 -154 118 -249t264 -95q198 0 326 134l86 -90q-160 -174 -424 -174zM958 592q-10 148 -96 242t-256 94q-166 0 -257 -93
t-111 -243h720zM556 1230l-250 198l160 72l226 -254z" />
    <glyph glyph-name="eacute" unicode="&#xe9;" horiz-adv-x="1176" 
d="M608 -6q-144 0 -263 61.5t-190 180t-71 290.5q0 176 69 291q73 120 190.5 178t262.5 63q172 0 281 -70q113 -75 163 -199t50 -275l-2 -46h-860q22 -154 118 -249t264 -95q198 0 326 134l86 -90q-160 -174 -424 -174zM958 592q-10 148 -96 242t-256 94q-166 0 -257 -93
t-111 -243h720zM636 1230l-136 16l226 254l160 -72z" />
    <glyph glyph-name="ecircumflex" unicode="&#xea;" horiz-adv-x="1176" 
d="M608 -6q-144 0 -263 61.5t-190 180t-71 290.5q0 176 69 291q73 120 190.5 178t262.5 63q172 0 281 -70q113 -75 163 -199t50 -275l-2 -46h-860q22 -154 118 -249t264 -95q198 0 326 134l86 -90q-160 -174 -424 -174zM958 592q-10 148 -96 242t-256 94q-166 0 -257 -93
t-111 -243h720zM884 1236h-156l-134 146l-134 -146h-156l206 258h168z" />
    <glyph glyph-name="edieresis" unicode="&#xeb;" horiz-adv-x="1176" 
d="M608 -6q-144 0 -263 61.5t-190 180t-71 290.5q0 176 69 291q73 120 190.5 178t262.5 63q172 0 281 -70q113 -75 163 -199t50 -275l-2 -46h-860q22 -154 118 -249t264 -95q198 0 326 134l86 -90q-160 -174 -424 -174zM958 592q-10 148 -96 242t-256 94q-166 0 -257 -93
t-111 -243h720zM426 1256q-37 0 -64.5 27t-27.5 69q0 52 29 75t63 23t64 -23t30 -75q0 -36 -23 -66t-71 -30zM762 1256q-48 0 -71 30t-23 66q0 52 30 75t64 23t64 -23t30 -75q0 -36 -23 -66t-71 -30z" />
    <glyph glyph-name="igrave" unicode="&#xec;" horiz-adv-x="534" 
d="M228 1230l-250 198l160 72l226 -254zM344 0h-154v1052h154v-1052z" />
    <glyph glyph-name="iacute" unicode="&#xed;" horiz-adv-x="534" 
d="M308 1230l-136 16l226 254l160 -72zM344 0h-154v1052h154v-1052z" />
    <glyph glyph-name="icircumflex" unicode="&#xee;" horiz-adv-x="534" 
d="M556 1236h-156l-134 146l-134 -146h-156l206 258h168zM344 0h-154v1052h154v-1052z" />
    <glyph glyph-name="idieresis" unicode="&#xef;" horiz-adv-x="534" 
d="M128 1254q-40 0 -68 29t-28 71q0 49 30.5 72.5t65.5 23.5q84 0 92 -96q0 -37 -22.5 -68.5t-69.5 -31.5zM344 0h-154v1052h154v-1052zM406 1254q-43 0 -68.5 30t-25.5 70q0 50 29 73t65 23t65 -23t29 -73q0 -40 -25.5 -70t-68.5 -30z" />
    <glyph glyph-name="eth" unicode="&#xf0;" horiz-adv-x="1162" 
d="M564 -6q-204 0 -339 115t-135 337q0 149 61 244q64 99 167.5 145.5t225.5 46.5q110 0 211 -46t167 -148q-64 260 -292 476l-350 -162l-42 90l310 144q-128 100 -276 174l102 80q168 -86 298 -198l272 126l42 -90l-236 -108q330 -336 330 -720q0 -96 -28 -186.5
t-89 -162.5t-159.5 -114.5t-239.5 -42.5zM576 134q144 0 242 80t98 232q0 154 -97 236t-243 82q-138 0 -237 -76t-99 -232t96 -239t240 -83z" />
    <glyph glyph-name="ntilde" unicode="&#xf1;" horiz-adv-x="1312" 
d="M1154 0h-156v608q0 152 -84 226t-214 74q-174 -10 -259 -103t-95 -241v-564h-156v1052h156v-232q118 238 408 238q142 0 230 -53t129 -146t41 -211v-648zM828 1224q-74 0 -158 64q-66 46 -100 46q-72 0 -72 -102h-110q0 228 158 228q74 0 158 -64q66 -46 100 -46
q72 0 72 102h110q0 -228 -158 -228z" />
    <glyph glyph-name="ograve" unicode="&#xf2;" horiz-adv-x="1236" 
d="M618 -6q-238 0 -386 148t-148 386q0 242 152 386t382 144q101 0 196.5 -32t171.5 -97.5t121 -165t45 -235.5q0 -170 -73 -289q-84 -130 -206.5 -187.5t-254.5 -57.5zM618 130q93 0 180 40t145 131q53 87 53 225q0 164 -100 279t-278 115t-278 -115t-100 -279
q0 -136 52.5 -223t138 -130t187.5 -43zM580 1230l-250 198l160 72l226 -254z" />
    <glyph glyph-name="oacute" unicode="&#xf3;" horiz-adv-x="1236" 
d="M618 -6q-238 0 -386 148t-148 386q0 242 152 386t382 144q101 0 196.5 -32t171.5 -97.5t121 -165t45 -235.5q0 -170 -73 -289q-84 -130 -206.5 -187.5t-254.5 -57.5zM618 130q93 0 180 40t145 131q53 87 53 225q0 164 -100 279t-278 115t-278 -115t-100 -279
q0 -136 52.5 -223t138 -130t187.5 -43zM660 1230l-136 16l226 254l160 -72z" />
    <glyph glyph-name="ocircumflex" unicode="&#xf4;" horiz-adv-x="1236" 
d="M618 -6q-238 0 -386 148t-148 386q0 242 152 386t382 144q101 0 196.5 -32t171.5 -97.5t121 -165t45 -235.5q0 -170 -73 -289q-84 -130 -206.5 -187.5t-254.5 -57.5zM618 130q93 0 180 40t145 131q53 87 53 225q0 164 -100 279t-278 115t-278 -115t-100 -279
q0 -136 52.5 -223t138 -130t187.5 -43zM908 1236h-156l-134 146l-134 -146h-156l206 258h168z" />
    <glyph glyph-name="otilde" unicode="&#xf5;" horiz-adv-x="1236" 
d="M618 -6q-238 0 -386 148t-148 386q0 242 152 386t382 144q101 0 196.5 -32t171.5 -97.5t121 -165t45 -235.5q0 -170 -73 -289q-84 -130 -206.5 -187.5t-254.5 -57.5zM618 130q93 0 180 40t145 131q53 87 53 225q0 164 -100 279t-278 115t-278 -115t-100 -279
q0 -136 52.5 -223t138 -130t187.5 -43zM758 1224q-74 0 -158 64q-66 46 -100 46q-72 0 -72 -102h-110q0 228 158 228q74 0 158 -64q66 -46 100 -46q72 0 72 102h110q0 -228 -158 -228z" />
    <glyph glyph-name="odieresis" unicode="&#xf6;" horiz-adv-x="1236" 
d="M618 -6q-238 0 -386 148t-148 386q0 242 152 386t382 144q101 0 196.5 -32t171.5 -97.5t121 -165t45 -235.5q0 -170 -73 -289q-84 -130 -206.5 -187.5t-254.5 -57.5zM618 130q93 0 180 40t145 131q53 87 53 225q0 164 -100 279t-278 115t-278 -115t-100 -279
q0 -136 52.5 -223t138 -130t187.5 -43zM450 1256q-37 0 -64.5 27t-27.5 69q0 52 29 75t63 23t64 -23t30 -75q0 -36 -23 -66t-71 -30zM786 1256q-48 0 -71 30t-23 66q0 52 30 75t64 23t64 -23t30 -75q0 -36 -23 -66t-71 -30z" />
    <glyph glyph-name="divide" unicode="&#xf7;" horiz-adv-x="982" 
d="M908 588h-834v114h834v-114zM494 202q-35 0 -65.5 24.5t-30.5 75.5t30.5 75.5t65.5 24.5t65.5 -24.5t30.5 -75.5t-30.5 -75.5t-65.5 -24.5zM494 910q-35 0 -65.5 24.5t-30.5 75.5t30.5 75.5t65.5 24.5t65.5 -24.5t30.5 -75.5t-30.5 -75.5t-65.5 -24.5z" />
    <glyph glyph-name="oslash" unicode="&#xf8;" horiz-adv-x="1236" 
d="M178 -202h-116l212 310q-190 154 -190 420q0 242 152 386t382 144q148 0 264 -62l176 258h116l-212 -310q190 -154 190 -416q0 -170 -73 -289q-84 -130 -206.5 -187.5t-254.5 -57.5q-148 0 -264 62zM350 220l456 666q-82 46 -188 46q-170 0 -278 -112t-108 -294
q0 -192 118 -306zM618 118q72 0 141 23t124 71.5t88 126.5t33 187q0 190 -120 304l-456 -666q88 -46 190 -46z" />
    <glyph glyph-name="ugrave" unicode="&#xf9;" horiz-adv-x="1294" 
d="M548 -6q-138 0 -225 55q-90 59 -129.5 152.5t-39.5 202.5v648h156v-608q0 -146 81 -223t211 -77q182 16 264 126t82 266v516h156v-1052h-156v238q-112 -244 -400 -244zM610 1230l-250 198l160 72l226 -254z" />
    <glyph glyph-name="uacute" unicode="&#xfa;" horiz-adv-x="1294" 
d="M548 -6q-138 0 -225 55q-90 59 -129.5 152.5t-39.5 202.5v648h156v-608q0 -146 81 -223t211 -77q182 16 264 126t82 266v516h156v-1052h-156v238q-112 -244 -400 -244zM690 1230l-136 16l226 254l160 -72z" />
    <glyph glyph-name="ucircumflex" unicode="&#xfb;" horiz-adv-x="1294" 
d="M548 -6q-138 0 -225 55q-90 59 -129.5 152.5t-39.5 202.5v648h156v-608q0 -146 81 -223t211 -77q182 16 264 126t82 266v516h156v-1052h-156v238q-112 -244 -400 -244zM938 1236h-156l-134 146l-134 -146h-156l206 258h168z" />
    <glyph glyph-name="udieresis" unicode="&#xfc;" horiz-adv-x="1294" 
d="M548 -6q-138 0 -225 55q-90 59 -129.5 152.5t-39.5 202.5v648h156v-608q0 -146 81 -223t211 -77q182 16 264 126t82 266v516h156v-1052h-156v238q-112 -244 -400 -244zM480 1256q-37 0 -64.5 27t-27.5 69q0 52 29 75t63 23t64 -23t30 -75q0 -36 -23 -66t-71 -30z
M816 1256q-48 0 -71 30t-23 66q0 52 30 75t64 23t64 -23t30 -75q0 -36 -23 -66t-71 -30z" />
    <glyph glyph-name="yacute" unicode="&#xfd;" horiz-adv-x="1004" 
d="M210 -394q-130 0 -222 76l66 124q68 -50 148 -50q124 0 192 152l44 100l-436 1044h164l350 -876l334 876h160l-484 -1202q-106 -244 -316 -244zM550 1230l-136 16l226 254l160 -72z" />
    <glyph glyph-name="thorn" unicode="&#xfe;" horiz-adv-x="1352" 
d="M356 -388h-156v1872h156v-656q128 230 406 230q224 0 365 -149t141 -385q0 -107 -31.5 -203t-94 -169.5t-156.5 -115.5t-220 -42q-282 0 -410 230v-612zM734 132q126 0 210 57q86 60 126 151t40 188q0 75 -22 146t-68 127t-117 89.5t-169 33.5q-180 0 -279 -115t-99 -281
t101 -281t277 -115z" />
    <glyph glyph-name="ydieresis" unicode="&#xff;" horiz-adv-x="1004" 
d="M210 -394q-130 0 -222 76l66 124q68 -50 148 -50q124 0 192 152l44 100l-436 1044h164l350 -876l334 876h160l-484 -1202q-106 -244 -316 -244zM340 1256q-37 0 -64.5 27t-27.5 69q0 52 29 75t63 23t64 -23t30 -75q0 -36 -23 -66t-71 -30zM676 1256q-48 0 -71 30t-23 66
q0 52 30 75t64 23t64 -23t30 -75q0 -36 -23 -66t-71 -30z" />
    <glyph glyph-name="Amacron" unicode="&#x100;" horiz-adv-x="1436" 
d="M1428 0h-174l-158 358h-762l-156 -358h-170l628 1400h166zM1032 506l-318 720l-314 -720h632zM1028 1546h-622v106h622v-106z" />
    <glyph glyph-name="amacron" unicode="&#x101;" horiz-adv-x="1154" 
d="M458 -6q-123 0 -201.5 44t-117.5 117t-39 157q0 126 95 210t299 92h346v66q0 110 -67 179t-215 69q-176 0 -334 -122l-66 110q204 142 430 142q214 0 310 -100t96 -262l2 -696h-152v164q-134 -170 -386 -170zM488 124q124 0 219 57t135 181v128h-328q-264 0 -268 -172
q0 -80 61 -137t181 -57zM846 1300h-560v106h560v-106z" />
    <glyph glyph-name="Abreve" unicode="&#x102;" horiz-adv-x="1436" 
d="M1428 0h-174l-158 358h-762l-156 -358h-170l628 1400h166zM1032 506l-318 720l-314 -720h632zM718 1528q-100 0 -171 65t-83 193h110q20 -146 144 -146q122 0 142 146h112q-12 -128 -83 -193t-171 -65z" />
    <glyph glyph-name="abreve" unicode="&#x103;" horiz-adv-x="1154" 
d="M458 -6q-123 0 -201.5 44t-117.5 117t-39 157q0 126 95 210t299 92h346v66q0 110 -67 179t-215 69q-176 0 -334 -122l-66 110q204 142 430 142q214 0 310 -100t96 -262l2 -696h-152v164q-134 -170 -386 -170zM488 124q124 0 219 57t135 181v128h-328q-264 0 -268 -172
q0 -80 61 -137t181 -57zM568 1224q-100 0 -171 65t-83 193h110q20 -146 144 -146q122 0 142 146h112q-12 -128 -83 -193t-171 -65z" />
    <glyph glyph-name="Aogonek" unicode="&#x104;" horiz-adv-x="1436" 
d="M1266 -432q-78 0 -132 40t-54 130q0 138 172 268l-156 352h-762l-156 -358h-170l628 1400h166l626 -1400h-2q-202 -136 -202 -236q0 -72 72 -72q40 0 86 24l42 -106q-88 -42 -158 -42zM1032 506l-318 720l-314 -720h632z" />
    <glyph glyph-name="aogonek" unicode="&#x105;" horiz-adv-x="1154" 
d="M836 -432q-78 0 -132 40t-54 130q0 150 194 284v142q-134 -170 -386 -170q-123 0 -201.5 44t-117.5 117t-39 157q0 126 95 210t299 92h346v66q0 110 -67 179t-215 69q-176 0 -334 -122l-66 110q204 142 430 142q214 0 310 -100t96 -262l2 -696q-202 -136 -202 -236
q0 -72 72 -72q42 0 86 24l42 -106q-88 -42 -158 -42zM488 124q124 0 219 57t135 181v128h-328q-264 0 -268 -172q0 -80 61 -137t181 -57z" />
    <glyph glyph-name="Cacute" unicode="&#x106;" horiz-adv-x="1400" 
d="M804 -12q-300 0 -512 208t-212 506q0 304 214 507t516 203q288 0 512 -206l-96 -116q-182 176 -414 176q-242 0 -406 -164t-164 -400q0 -238 168 -401t402 -163q232 0 414 170l98 -106q-230 -214 -520 -214zM876 1530l-136 16l226 254l160 -72z" />
    <glyph glyph-name="cacute" unicode="&#x107;" horiz-adv-x="1122" 
d="M606 -6q-98 0 -191 31t-167.5 95.5t-119 165.5t-44.5 240q0 116 33 207t91.5 156.5t135.5 105.5q118 63 262 63q256 0 406 -156l-86 -108q-124 124 -314 124q-160 0 -267 -104t-107 -288q0 -188 111 -291t263 -103q208 0 326 136l90 -92q-146 -182 -422 -182zM630 1230
l-136 16l226 254l160 -72z" />
    <glyph glyph-name="Ccircumflex" unicode="&#x108;" horiz-adv-x="1400" 
d="M804 -12q-300 0 -512 208t-212 506q0 304 214 507t516 203q288 0 512 -206l-96 -116q-182 176 -414 176q-242 0 -406 -164t-164 -400q0 -238 168 -401t402 -163q232 0 414 170l98 -106q-230 -214 -520 -214zM1124 1536h-156l-134 146l-134 -146h-156l206 258h168z" />
    <glyph glyph-name="ccircumflex" unicode="&#x109;" horiz-adv-x="1122" 
d="M606 -6q-98 0 -191 31t-167.5 95.5t-119 165.5t-44.5 240q0 116 33 207t91.5 156.5t135.5 105.5q118 63 262 63q256 0 406 -156l-86 -108q-124 124 -314 124q-160 0 -267 -104t-107 -288q0 -188 111 -291t263 -103q208 0 326 136l90 -92q-146 -182 -422 -182zM878 1236
h-156l-134 146l-134 -146h-156l206 258h168z" />
    <glyph glyph-name="Cdotaccent" unicode="&#x10a;" horiz-adv-x="1400" 
d="M804 -12q-300 0 -512 208t-212 506q0 304 214 507t516 203q288 0 512 -206l-96 -116q-182 176 -414 176q-242 0 -406 -164t-164 -400q0 -238 168 -401t402 -163q232 0 414 170l98 -106q-230 -214 -520 -214zM834 1530q-51 0 -76.5 33.5t-25.5 72.5q0 46 29 76t73 30
t73 -30t29 -76q0 -39 -25.5 -72.5t-76.5 -33.5z" />
    <glyph glyph-name="cdotaccent" unicode="&#x10b;" horiz-adv-x="1122" 
d="M606 -6q-98 0 -191 31t-167.5 95.5t-119 165.5t-44.5 240q0 116 33 207t91.5 156.5t135.5 105.5q118 63 262 63q256 0 406 -156l-86 -108q-124 124 -314 124q-160 0 -267 -104t-107 -288q0 -188 111 -291t263 -103q208 0 326 136l90 -92q-146 -182 -422 -182zM588 1248
q-51 0 -76.5 33.5t-25.5 72.5q0 44 27.5 76t74.5 32t74.5 -32t27.5 -76q0 -39 -25.5 -72.5t-76.5 -33.5z" />
    <glyph glyph-name="Ccaron" unicode="&#x10c;" horiz-adv-x="1400" 
d="M804 -12q-300 0 -512 208t-212 506q0 304 214 507t516 203q288 0 512 -206l-96 -116q-182 176 -414 176q-242 0 -406 -164t-164 -400q0 -238 168 -401t402 -163q232 0 414 170l98 -106q-230 -214 -520 -214zM882 1536h-168l-206 258h156l134 -146l134 146h156z" />
    <glyph glyph-name="ccaron" unicode="&#x10d;" horiz-adv-x="1122" 
d="M606 -6q-98 0 -191 31t-167.5 95.5t-119 165.5t-44.5 240q0 116 33 207t91.5 156.5t135.5 105.5q118 63 262 63q256 0 406 -156l-86 -108q-124 124 -314 124q-160 0 -267 -104t-107 -288q0 -188 111 -291t263 -103q208 0 326 136l90 -92q-146 -182 -422 -182zM672 1236
h-168l-206 258h156l134 -146l134 146h156z" />
    <glyph glyph-name="Dcaron" unicode="&#x10e;" horiz-adv-x="1578" 
d="M772 0h-560v1400h566q304 0 512 -202t208 -498q0 -298 -207 -499t-519 -201zM780 148q228 0 392 153t164 397q0 250 -167 402t-395 152h-402v-1104h408zM794 1536h-168l-206 258h156l134 -146l134 146h156z" />
    <glyph glyph-name="dcaron" unicode="&#x10f;" horiz-adv-x="1454" 
d="M592 -8q-224 0 -366 145t-142 391t144 389t362 143q284 0 412 -236v660h156v-1484h-156v226q-130 -234 -410 -234zM622 126q166 0 273 112t107 286q0 166 -103 283t-277 117q-178 0 -280 -118t-102 -282q0 -168 102 -283t280 -115zM1438 1098h-110v386h148z" />
    <glyph glyph-name="Dcroat" unicode="&#x110;" horiz-adv-x="1578" 
d="M774 0h-562v650h-144v100h144v650h564q306 0 514 -202t208 -498q0 -298 -207 -499t-517 -201zM780 148q228 0 392 153t164 397q0 250 -167 402t-395 152h-402v-502h462v-100h-462v-502h408z" />
    <glyph glyph-name="dcroat" unicode="&#x111;" horiz-adv-x="1356" 
d="M588 -8q-228 0 -366 146t-138 376q0 114 31.5 203t87.5 153t130 103q113 61 251 61q286 0 418 -244v410h-444v100h444v184h154v-184h150v-100h-150v-1200h-154v234q-138 -242 -414 -242zM622 126q168 0 274 109t106 275q0 182 -113 284t-267 102q-172 0 -277 -109
t-105 -277q0 -162 103 -273t279 -111z" />
    <glyph glyph-name="Emacron" unicode="&#x112;" horiz-adv-x="1302" 
d="M1188 0h-976v1400h950v-148h-790v-470h706v-146h-706v-488h816v-148zM1012 1546h-622v106h622v-106z" />
    <glyph glyph-name="emacron" unicode="&#x113;" horiz-adv-x="1176" 
d="M608 -6q-144 0 -263 61.5t-190 180t-71 290.5q0 176 69 291q73 120 190.5 178t262.5 63q172 0 281 -70q113 -75 163 -199t50 -275l-2 -46h-860q22 -154 118 -249t264 -95q198 0 326 134l86 -90q-160 -174 -424 -174zM958 592q-10 148 -96 242t-256 94q-166 0 -257 -93
t-111 -243h720zM872 1300h-560v106h560v-106z" />
    <glyph glyph-name="Ebreve" unicode="&#x114;" horiz-adv-x="1302" 
d="M1188 0h-976v1400h950v-148h-790v-470h706v-146h-706v-488h816v-148zM702 1528q-100 0 -171 65t-83 193h110q20 -146 144 -146q122 0 142 146h112q-12 -128 -83 -193t-171 -65z" />
    <glyph glyph-name="ebreve" unicode="&#x115;" horiz-adv-x="1176" 
d="M608 -6q-144 0 -263 61.5t-190 180t-71 290.5q0 176 69 291q73 120 190.5 178t262.5 63q172 0 281 -70q113 -75 163 -199t50 -275l-2 -46h-860q22 -154 118 -249t264 -95q198 0 326 134l86 -90q-160 -174 -424 -174zM958 592q-10 148 -96 242t-256 94q-166 0 -257 -93
t-111 -243h720zM594 1224q-100 0 -171 65t-83 193h110q20 -146 144 -146q122 0 142 146h112q-12 -128 -83 -193t-171 -65z" />
    <glyph glyph-name="Edotaccent" unicode="&#x116;" horiz-adv-x="1302" 
d="M1188 0h-976v1400h950v-148h-790v-470h706v-146h-706v-488h816v-148zM702 1530q-51 0 -76.5 33.5t-25.5 72.5q0 46 29 76t73 30t73 -30t29 -76q0 -39 -25.5 -72.5t-76.5 -33.5z" />
    <glyph glyph-name="edotaccent" unicode="&#x117;" horiz-adv-x="1176" 
d="M608 -6q-144 0 -263 61.5t-190 180t-71 290.5q0 176 69 291q73 120 190.5 178t262.5 63q172 0 281 -70q113 -75 163 -199t50 -275l-2 -46h-860q22 -154 118 -249t264 -95q198 0 326 134l86 -90q-160 -174 -424 -174zM958 592q-10 148 -96 242t-256 94q-166 0 -257 -93
t-111 -243h720zM594 1248q-51 0 -76.5 33.5t-25.5 72.5q0 44 27.5 76t74.5 32t74.5 -32t27.5 -76q0 -39 -25.5 -72.5t-76.5 -33.5z" />
    <glyph glyph-name="Eogonek" unicode="&#x118;" horiz-adv-x="1302" 
d="M1028 -432q-78 0 -132 40t-54 130q0 136 164 262h-794v1400h950v-148h-790v-470h706v-146h-706v-488h816v-148q-202 -136 -202 -236q0 -72 72 -72q42 0 86 24l42 -106q-86 -42 -158 -42z" />
    <glyph glyph-name="eogonek" unicode="&#x119;" horiz-adv-x="1176" 
d="M776 -432q-76 0 -130 47t-54 141q0 118 116 246q-42 -8 -100 -8q-144 0 -263 61.5t-190 180t-71 290.5q0 176 69 291q73 120 190.5 178t262.5 63q172 0 281 -70q113 -75 163 -199t50 -275l-2 -46h-860q22 -154 118 -249t264 -95q198 0 326 134l86 -90q-46 -50 -98 -84
q-198 -184 -198 -312q0 -78 74 -80q38 0 84 24l42 -106q-90 -42 -160 -42zM958 592q-10 148 -96 242t-256 94q-166 0 -257 -93t-111 -243h720z" />
    <glyph glyph-name="Ecaron" unicode="&#x11a;" horiz-adv-x="1302" 
d="M1188 0h-976v1400h950v-148h-790v-470h706v-146h-706v-488h816v-148zM750 1536h-168l-206 258h156l134 -146l134 146h156z" />
    <glyph glyph-name="ecaron" unicode="&#x11b;" horiz-adv-x="1176" 
d="M608 -6q-144 0 -263 61.5t-190 180t-71 290.5q0 176 69 291q73 120 190.5 178t262.5 63q172 0 281 -70q113 -75 163 -199t50 -275l-2 -46h-860q22 -154 118 -249t264 -95q198 0 326 134l86 -90q-160 -174 -424 -174zM958 592q-10 148 -96 242t-256 94q-166 0 -257 -93
t-111 -243h720zM678 1236h-168l-206 258h156l134 -146l134 146h156z" />
    <glyph glyph-name="Gcircumflex" unicode="&#x11c;" horiz-adv-x="1506" 
d="M810 -6q-314 0 -522 208t-208 490v16q0 294 214 495t524 201q292 0 516 -192l-92 -116q-190 162 -424 162q-242 0 -409 -163t-167 -395q0 -230 168 -398q170 -162 410 -162q190 0 368 118l-2 368h-378v148h522v-598q-234 -182 -520 -182zM998 1536h-156l-134 146
l-134 -146h-156l206 258h168z" />
    <glyph glyph-name="gcircumflex" unicode="&#x11d;" horiz-adv-x="1272" 
d="M578 -392q-232 0 -432 154l72 114q154 -134 354 -134q160 0 270 91t110 273v160q-120 -220 -388 -220q-208 0 -344 137t-136 371t130 363t346 141q274 -4 392 -220v214h156v-942q0 -168 -70 -279q-76 -117 -197 -170t-263 -53zM592 174q174 0 267 112t93 264
q0 164 -100 271t-260 107q-172 0 -264 -105t-98 -273q6 -164 98 -270t264 -106zM896 1236h-156l-134 146l-134 -146h-156l206 258h168z" />
    <glyph glyph-name="Gbreve" unicode="&#x11e;" horiz-adv-x="1506" 
d="M810 -6q-314 0 -522 208t-208 490v16q0 294 214 495t524 201q292 0 516 -192l-92 -116q-190 162 -424 162q-242 0 -409 -163t-167 -395q0 -230 168 -398q170 -162 410 -162q190 0 368 118l-2 368h-378v148h522v-598q-234 -182 -520 -182zM708 1528q-100 0 -171 65
t-83 193h110q20 -146 144 -146q122 0 142 146h112q-12 -128 -83 -193t-171 -65z" />
    <glyph glyph-name="gbreve" unicode="&#x11f;" horiz-adv-x="1272" 
d="M578 -392q-232 0 -432 154l72 114q154 -134 354 -134q160 0 270 91t110 273v160q-120 -220 -388 -220q-208 0 -344 137t-136 371t130 363t346 141q274 -4 392 -220v214h156v-942q0 -168 -70 -279q-76 -117 -197 -170t-263 -53zM592 174q174 0 267 112t93 264
q0 164 -100 271t-260 107q-172 0 -264 -105t-98 -273q6 -164 98 -270t264 -106zM606 1224q-100 0 -171 65t-83 193h110q20 -146 144 -146q122 0 142 146h112q-12 -128 -83 -193t-171 -65z" />
    <glyph glyph-name="Gdotaccent" unicode="&#x120;" horiz-adv-x="1506" 
d="M810 -6q-314 0 -522 208t-208 490v16q0 294 214 495t524 201q292 0 516 -192l-92 -116q-190 162 -424 162q-242 0 -409 -163t-167 -395q0 -230 168 -398q170 -162 410 -162q190 0 368 118l-2 368h-378v148h522v-598q-234 -182 -520 -182zM708 1530q-51 0 -76.5 33.5
t-25.5 72.5q0 46 29 76t73 30t73 -30t29 -76q0 -39 -25.5 -72.5t-76.5 -33.5z" />
    <glyph glyph-name="gdotaccent" unicode="&#x121;" horiz-adv-x="1272" 
d="M578 -392q-232 0 -432 154l72 114q154 -134 354 -134q160 0 270 91t110 273v160q-120 -220 -388 -220q-208 0 -344 137t-136 371t130 363t346 141q274 -4 392 -220v214h156v-942q0 -168 -70 -279q-76 -117 -197 -170t-263 -53zM592 174q174 0 267 112t93 264
q0 164 -100 271t-260 107q-172 0 -264 -105t-98 -273q6 -164 98 -270t264 -106zM606 1248q-51 0 -76.5 33.5t-25.5 72.5q0 44 27.5 76t74.5 32t74.5 -32t27.5 -76q0 -39 -25.5 -72.5t-76.5 -33.5z" />
    <glyph glyph-name="uni0122" unicode="&#x122;" horiz-adv-x="1506" 
d="M810 -6q-314 0 -522 208t-208 490v16q0 294 214 495t524 201q292 0 516 -192l-92 -116q-190 162 -424 162q-242 0 -409 -163t-167 -395q0 -230 168 -398q170 -162 410 -162q190 0 368 118l-2 368h-378v148h522v-598q-234 -182 -520 -182zM714 -434h-116l74 314h146z" />
    <glyph glyph-name="uni0123" unicode="&#x123;" horiz-adv-x="1272" 
d="M578 -392q-232 0 -432 154l72 114q154 -134 354 -134q160 0 270 91t110 273v160q-120 -220 -388 -220q-208 0 -344 137t-136 371t130 363t346 141q274 -4 392 -220v214h156v-942q0 -168 -70 -279q-76 -117 -197 -170t-263 -53zM592 174q174 0 267 112t93 264
q0 164 -100 271t-260 107q-172 0 -264 -105t-98 -273q6 -164 98 -270t264 -106zM672 1226h-146l104 314h116z" />
    <glyph glyph-name="Hcircumflex" unicode="&#x124;" horiz-adv-x="1588" 
d="M1376 0h-160v620h-844v-620h-160v1400h160v-634h844v634h160v-1400zM1090 1536h-156l-134 146l-134 -146h-156l206 258h168z" />
    <glyph glyph-name="hcircumflex" unicode="&#x125;" horiz-adv-x="1324" 
d="M566 1668h-156l-134 146l-134 -146h-156l206 258h168zM1166 0h-156v608q0 152 -84 226t-214 74q-184 -12 -270 -124t-86 -268v-516h-156v1484h156v-668q114 242 410 242q142 0 230 -53t129 -146t41 -211v-648z" />
    <glyph glyph-name="Hbar" unicode="&#x126;" horiz-adv-x="1588" 
d="M1376 0h-160v620h-844v-620h-160v1050h-162v102h162v248h160v-248h844v248h160v-248h166v-102h-166v-1050zM1216 766v284h-844v-284h844z" />
    <glyph glyph-name="hbar" unicode="&#x127;" horiz-adv-x="1324" 
d="M1166 0h-156v584q0 152 -84 226t-214 74q-176 0 -266 -114t-90 -278v-492h-156v1200h-148v100h148v184h156v-184h444v-100h-444v-408q108 240 410 240q142 0 230 -53t129 -145t41 -210v-624z" />
    <glyph glyph-name="Itilde" unicode="&#x128;" horiz-adv-x="584" 
d="M432 1530q-74 0 -158 64q-66 46 -100 46q-72 0 -72 -102h-110q0 228 158 228q74 0 158 -64q66 -46 100 -46q72 0 72 102h110q0 -228 -158 -228zM372 0h-160v1400h160v-1400z" />
    <glyph glyph-name="itilde" unicode="&#x129;" horiz-adv-x="534" 
d="M392 1220q-60 0 -136 64q-52 42 -80 42q-60 0 -60 -98h-110q0 228 142 228q50 -2 91 -29t68 -50t55 -23q60 0 60 94h110q0 -228 -140 -228zM344 0h-154v1052h154v-1052z" />
    <glyph glyph-name="Imacron" unicode="&#x12a;" horiz-adv-x="584" 
d="M570 1546h-560v106h560v-106zM372 0h-160v1400h160v-1400z" />
    <glyph glyph-name="imacron" unicode="&#x12b;" horiz-adv-x="534" 
d="M504 1300h-480v106h480v-106zM344 0h-154v1052h154v-1052z" />
    <glyph glyph-name="Ibreve" unicode="&#x12c;" horiz-adv-x="584" 
d="M292 1528q-100 0 -171 65t-83 193h110q20 -146 144 -146q122 0 142 146h112q-12 -128 -83 -193t-171 -65zM372 0h-160v1400h160v-1400z" />
    <glyph glyph-name="ibreve" unicode="&#x12d;" horiz-adv-x="534" 
d="M266 1224q-100 0 -171 65t-83 193h110q20 -146 144 -146q122 0 142 146h112q-12 -128 -83 -193t-171 -65zM344 0h-154v1052h154v-1052z" />
    <glyph glyph-name="Iogonek" unicode="&#x12e;" horiz-adv-x="584" 
d="M212 -432q-78 0 -132 40t-54 130q0 148 186 278v1384h160v-1400q-202 -136 -202 -236q0 -72 72 -72q42 0 86 24l42 -106q-86 -42 -158 -42z" />
    <glyph glyph-name="iogonek" unicode="&#x12f;" horiz-adv-x="534" 
d="M184 -432q-78 0 -132 40t-54 130q0 146 192 282v1032h154v-1052q-202 -136 -202 -236q0 -72 72 -72q42 0 86 24l42 -106q-86 -42 -158 -42zM266 1248q-51 0 -76.5 33.5t-25.5 72.5q0 44 27.5 76t74.5 32t74.5 -32t27.5 -76q0 -39 -25.5 -72.5t-76.5 -33.5z" />
    <glyph glyph-name="Idotaccent" unicode="&#x130;" horiz-adv-x="584" 
d="M292 1530q-51 0 -76.5 33.5t-25.5 72.5q0 46 29 76t73 30t73 -30t29 -76q0 -39 -25.5 -72.5t-76.5 -33.5zM372 0h-160v1400h160v-1400z" />
    <glyph glyph-name="dotlessi" unicode="&#x131;" horiz-adv-x="534" 
d="M344 0h-154v1052h154v-1052z" />
    <glyph glyph-name="IJ" unicode="&#x132;" horiz-adv-x="1550" 
d="M372 0h-160v1400h160v-1400zM972 -6q-236 0 -388 198l80 124q144 -164 306 -164q230 0 240 270v830h-500v148h662v-982q0 -150 -51 -243t-142 -137t-207 -44z" />
    <glyph glyph-name="ij" unicode="&#x133;" horiz-adv-x="1040" 
d="M266 1248q-51 0 -76.5 33.5t-25.5 72.5q0 44 27.5 76t74.5 32t74.5 -32t27.5 -76q0 -39 -25.5 -72.5t-76.5 -33.5zM344 0h-154v1052h154v-1052zM586 -392q-96 4 -168 34l38 122q42 -18 100 -22q162 2 162 226v1084h156v-1106q0 -330 -288 -338zM796 1248
q-51 0 -76.5 33.5t-25.5 72.5q0 44 27.5 76t74.5 32t74.5 -32t27.5 -76q0 -39 -25.5 -72.5t-76.5 -33.5z" />
    <glyph glyph-name="Jcircumflex" unicode="&#x134;" horiz-adv-x="966" 
d="M388 -6q-236 0 -388 198l80 124q144 -164 306 -164q230 0 240 270v830h-500v148h662v-982q0 -150 -51 -243t-142 -137t-207 -44zM740 1536h-156l-134 146l-134 -146h-156l206 258h168z" />
    <glyph glyph-name="jcircumflex" unicode="&#x135;" horiz-adv-x="506" 
d="M52 -392q-96 4 -168 34l38 122q42 -18 100 -22q162 2 162 226v1084h156v-1106q0 -330 -288 -338zM552 1236h-156l-134 146l-134 -146h-156l206 258h168z" />
    <glyph glyph-name="uni0136" unicode="&#x136;" horiz-adv-x="1398" 
d="M1354 0h-194l-516 666l-272 -298v-368h-160v1400h160v-822l752 822h192l-558 -610zM664 -434h-116l74 314h146z" />
    <glyph glyph-name="uni0137" unicode="&#x137;" horiz-adv-x="1146" 
d="M1124 0h-186l-360 534l-222 -230v-304h-156v1484h156v-978l542 546h184l-394 -406zM604 -434h-116l74 314h146z" />
    <glyph glyph-name="kgreenlandic" unicode="&#x138;" horiz-adv-x="1138" 
d="M1116 0h-186l-360 534l-226 -234v-300h-154v1052h154v-548l546 548h184l-394 -406z" />
    <glyph glyph-name="Lacute" unicode="&#x139;" horiz-adv-x="1034" 
d="M344 1530l-136 16l226 254l160 -72zM986 0h-774v1400h160v-1252h614v-148z" />
    <glyph glyph-name="lacute" unicode="&#x13a;" horiz-adv-x="580" 
d="M292 1662l-136 16l226 254l160 -72zM390 -6q-84 0 -151 59t-67 199v1232h154v-1214q0 -132 100 -132q56 0 112 44l30 -126q-88 -62 -178 -62z" />
    <glyph glyph-name="uni013B" unicode="&#x13b;" horiz-adv-x="1034" 
d="M986 0h-774v1400h160v-1252h614v-148zM572 -434h-116l74 314h146z" />
    <glyph glyph-name="uni013C" unicode="&#x13c;" horiz-adv-x="580" 
d="M390 -6q-84 0 -151 59t-67 199v1232h154v-1214q0 -132 100 -132q56 0 112 44l30 -126q-88 -62 -178 -62zM348 -434h-116l74 314h146z" />
    <glyph glyph-name="Lcaron" unicode="&#x13d;" horiz-adv-x="1034" 
d="M986 0h-774v1400h160v-1252h614v-148zM948 1014h-110v386h148z" />
    <glyph glyph-name="lcaron" unicode="&#x13e;" horiz-adv-x="640" 
d="M392 -6q-84 0 -151 59t-67 199v1232h154v-1214q0 -132 100 -132q56 0 112 44l30 -126q-88 -62 -178 -62zM608 1098h-110v386h148z" />
    <glyph glyph-name="Ldot" unicode="&#x13f;" horiz-adv-x="1034" 
d="M986 0h-774v1400h160v-1252h614v-148zM806 688q-51 0 -76.5 33.5t-25.5 72.5q0 44 27.5 76t74.5 32t74.5 -32t27.5 -76q0 -39 -25.5 -72.5t-76.5 -33.5z" />
    <glyph glyph-name="ldot" unicode="&#x140;" horiz-adv-x="580" 
d="M390 -6q-84 0 -151 59t-67 199v1232h154v-1214q0 -132 100 -132q56 0 112 44l30 -126q-88 -62 -178 -62zM562 690q-51 0 -76.5 33.5t-25.5 72.5q0 44 27.5 76t74.5 32t74.5 -32t27.5 -76q0 -39 -25.5 -72.5t-76.5 -33.5z" />
    <glyph glyph-name="Lslash" unicode="&#x141;" horiz-adv-x="1084" 
d="M1034 0h-774v668l-208 -112v104l208 112v628h160v-540l244 132v-104l-244 -132v-610h614v-146z" />
    <glyph glyph-name="lslash" unicode="&#x142;" horiz-adv-x="732" 
d="M504 -6q-84 0 -151 59t-67 199v398l-210 -114v118l210 114v716h154v-634l250 136v-118l-250 -136v-462q0 -132 100 -132q56 0 112 44l30 -126q-88 -62 -178 -62z" />
    <glyph glyph-name="Nacute" unicode="&#x143;" horiz-adv-x="1590" 
d="M1376 0h-164l-840 1140v-1140h-160v1400h166l840 -1140v1140h158v-1400zM862 1530l-136 16l226 254l160 -72z" />
    <glyph glyph-name="nacute" unicode="&#x144;" horiz-adv-x="1312" 
d="M1154 0h-156v608q0 152 -84 226t-214 74q-174 -10 -259 -103t-95 -241v-564h-156v1052h156v-232q118 238 408 238q142 0 230 -53t129 -146t41 -211v-648zM730 1230l-136 16l226 254l160 -72z" />
    <glyph glyph-name="uni0145" unicode="&#x145;" horiz-adv-x="1590" 
d="M1376 0h-164l-840 1140v-1140h-160v1400h166l840 -1140v1140h158v-1400zM764 -434h-116l74 314h146z" />
    <glyph glyph-name="uni0146" unicode="&#x146;" horiz-adv-x="1312" 
d="M1154 0h-156v608q0 152 -84 226t-214 74q-174 -10 -259 -103t-95 -241v-564h-156v1052h156v-232q118 238 408 238q142 0 230 -53t129 -146t41 -211v-648zM636 -434h-116l74 314h146z" />
    <glyph glyph-name="Ncaron" unicode="&#x147;" horiz-adv-x="1590" 
d="M1376 0h-164l-840 1140v-1140h-160v1400h166l840 -1140v1140h158v-1400zM868 1536h-168l-206 258h156l134 -146l134 146h156z" />
    <glyph glyph-name="ncaron" unicode="&#x148;" horiz-adv-x="1312" 
d="M1154 0h-156v608q0 152 -84 226t-214 74q-174 -10 -259 -103t-95 -241v-564h-156v1052h156v-232q118 238 408 238q142 0 230 -53t129 -146t41 -211v-648zM772 1236h-168l-206 258h156l134 -146l134 146h156z" />
    <glyph glyph-name="napostrophe" unicode="&#x149;" horiz-adv-x="1488" 
d="M170 880h-104l4 520h124zM1330 0h-156v608q0 152 -84 226t-214 74q-174 -10 -259 -103t-95 -241v-564h-156v1052h156v-232q118 238 408 238q142 0 230 -53t129 -146t41 -211v-648z" />
    <glyph glyph-name="Eng" unicode="&#x14a;" horiz-adv-x="1590" 
d="M976 -402q-224 0 -374 172l78 124q140 -136 294 -136q98 0 163 58t79 184h-4l-840 1136v-1136h-160v1400h166l840 -1138v1138h158v-1400q0 -172 -99 -287t-301 -115z" />
    <glyph glyph-name="eng" unicode="&#x14b;" horiz-adv-x="1312" 
d="M852 -394q-116 0 -214 72l56 124q78 -54 158 -54q146 0 146 192v668q0 152 -84 226t-214 74q-174 -10 -259 -103t-95 -241v-564h-156v1052h156v-232q118 238 408 238q142 0 230 -53t129 -146t41 -211v-690q0 -178 -88 -265t-214 -87z" />
    <glyph glyph-name="Omacron" unicode="&#x14c;" horiz-adv-x="1626" 
d="M822 -12h-16q-306 0 -516 210q-105 105 -157.5 229t-52.5 275q0 298 213 504t529 206q304 0 514 -208t210 -494v-16q0 -298 -214 -502t-510 -204zM814 134q234 0 401 165t167 403q0 232 -166 397t-402 165t-404 -163t-168 -399q0 -238 170 -403t402 -165zM1124 1546h-622
v106h622v-106z" />
    <glyph glyph-name="omacron" unicode="&#x14d;" horiz-adv-x="1236" 
d="M618 -6q-238 0 -386 148t-148 386q0 242 152 386t382 144q101 0 196.5 -32t171.5 -97.5t121 -165t45 -235.5q0 -170 -73 -289q-84 -130 -206.5 -187.5t-254.5 -57.5zM618 130q93 0 180 40t145 131q53 87 53 225q0 164 -100 279t-278 115t-278 -115t-100 -279
q0 -136 52.5 -223t138 -130t187.5 -43zM896 1300h-560v106h560v-106z" />
    <glyph glyph-name="Obreve" unicode="&#x14e;" horiz-adv-x="1626" 
d="M822 -12h-16q-306 0 -516 210q-105 105 -157.5 229t-52.5 275q0 298 213 504t529 206q304 0 514 -208t210 -494v-16q0 -298 -214 -502t-510 -204zM814 134q234 0 401 165t167 403q0 232 -166 397t-402 165t-404 -163t-168 -399q0 -238 170 -403t402 -165zM814 1528
q-100 0 -171 65t-83 193h110q20 -146 144 -146q122 0 142 146h112q-12 -128 -83 -193t-171 -65z" />
    <glyph glyph-name="obreve" unicode="&#x14f;" horiz-adv-x="1236" 
d="M618 -6q-238 0 -386 148t-148 386q0 242 152 386t382 144q101 0 196.5 -32t171.5 -97.5t121 -165t45 -235.5q0 -170 -73 -289q-84 -130 -206.5 -187.5t-254.5 -57.5zM618 130q93 0 180 40t145 131q53 87 53 225q0 164 -100 279t-278 115t-278 -115t-100 -279
q0 -136 52.5 -223t138 -130t187.5 -43zM618 1224q-100 0 -171 65t-83 193h110q20 -146 144 -146q122 0 142 146h112q-12 -128 -83 -193t-171 -65z" />
    <glyph glyph-name="Ohungarumlaut" unicode="&#x150;" horiz-adv-x="1626" 
d="M822 -12h-16q-306 0 -516 210q-105 105 -157.5 229t-52.5 275q0 298 213 504t529 206q304 0 514 -208t210 -494v-16q0 -298 -214 -502t-510 -204zM814 134q234 0 401 165t167 403q0 232 -166 397t-402 165t-404 -163t-168 -399q0 -238 170 -403t402 -165zM690 1530
l-120 14l172 264l132 -66zM984 1530l-120 14l172 264l132 -66z" />
    <glyph glyph-name="ohungarumlaut" unicode="&#x151;" horiz-adv-x="1236" 
d="M618 -6q-238 0 -386 148t-148 386q0 242 152 386t382 144q101 0 196.5 -32t171.5 -97.5t121 -165t45 -235.5q0 -170 -73 -289q-84 -130 -206.5 -187.5t-254.5 -57.5zM618 130q93 0 180 40t145 131q53 87 53 225q0 164 -100 279t-278 115t-278 -115t-100 -279
q0 -136 52.5 -223t138 -130t187.5 -43zM494 1230l-120 14l172 264l132 -66zM788 1230l-120 14l172 264l132 -66z" />
    <glyph glyph-name="OE" unicode="&#x152;" horiz-adv-x="2188" 
d="M2074 0h-1262q-312 0 -522 204t-210 496q0 298 214 499t518 201h1236v-148h-792v-470h708v-146h-708v-488h818v-148zM1098 144v1108h-284q-218 0 -374 -129q-198 -166 -198 -425q0 -114 37 -206.5t101.5 -161.5t148.5 -114q130 -70 285 -70z" />
    <glyph glyph-name="oe" unicode="&#x153;" horiz-adv-x="2108" 
d="M1522 -6q-326 0 -450 278q-138 -278 -454 -278q-99 0 -194 31.5t-171.5 97t-122.5 166t-46 239.5q0 117 34.5 208t94.5 156t138 104q121 62 267 62q330 0 454 -278q138 278 446 278q172 0 286 -74q119 -79 172.5 -207.5t53.5 -280.5h-884q26 -188 132 -280t254 -92
q196 0 328 134l86 -90q-162 -174 -424 -174zM618 130q93 0 180 40t145 131q53 87 53 225q0 164 -100 279t-278 115q-69 0 -136.5 -23t-122 -71t-87 -122.5t-32.5 -177.5q0 -132 53 -219q56 -91 142 -134t183 -43zM1874 588q-10 154 -96 252t-260 98q-168 0 -261 -97
t-111 -253h728z" />
    <glyph glyph-name="Racute" unicode="&#x154;" horiz-adv-x="1446" 
d="M1310 0h-182l-294 448l-90 -4h-372v-444h-160v1400h532q168 0 292 -50.5t192 -155t68 -264.5q0 -344 -316 -452zM744 592q176 0 287 78t111 256q0 324 -398 326h-372v-660h372zM728 1530l-136 16l226 254l160 -72z" />
    <glyph glyph-name="racute" unicode="&#x155;" horiz-adv-x="744" 
d="M346 0h-156v1052h156v-234q108 234 378 240v-152q-186 0 -277 -96t-101 -250v-560zM502 1230l-136 16l226 254l160 -72z" />
    <glyph glyph-name="uni0156" unicode="&#x156;" horiz-adv-x="1446" 
d="M1310 0h-182l-294 448l-90 -4h-372v-444h-160v1400h532q168 0 292 -50.5t192 -155t68 -264.5q0 -344 -316 -452zM744 592q176 0 287 78t111 256q0 324 -398 326h-372v-660h372zM692 -434h-116l74 314h146z" />
    <glyph glyph-name="uni0157" unicode="&#x157;" horiz-adv-x="744" 
d="M236 -434h-116l74 314h146zM346 0h-156v1052h156v-234q108 234 378 240v-152q-186 0 -277 -96t-101 -250v-560z" />
    <glyph glyph-name="Rcaron" unicode="&#x158;" horiz-adv-x="1446" 
d="M1310 0h-182l-294 448l-90 -4h-372v-444h-160v1400h532q168 0 292 -50.5t192 -155t68 -264.5q0 -344 -316 -452zM734 1536h-168l-206 258h156l134 -146l134 146h156zM744 592q176 0 287 78t111 256q0 324 -398 326h-372v-660h372z" />
    <glyph glyph-name="rcaron" unicode="&#x159;" horiz-adv-x="744" 
d="M544 1236h-168l-206 258h156l134 -146l134 146h156zM346 0h-156v1052h156v-234q108 234 378 240v-152q-186 0 -277 -96t-101 -250v-560z" />
    <glyph glyph-name="Sacute" unicode="&#x15a;" horiz-adv-x="1222" 
d="M600 -12q-316 0 -536 216l72 138q216 -198 466 -198q140 0 234 55t94 167q-2 128 -106 186q-114 60 -242 96q-196 60 -260 98q-28 16 -62 44q-116 90 -116 262q0 125 66 205q71 83 181 120t237 37q242 0 444 -130l-68 -142q-184 116 -386 116q-118 0 -208 -46t-90 -150
t86 -166t258 -108t302 -128t140 -286q0 -130 -68 -215q-74 -90 -189.5 -130.5t-248.5 -40.5zM656 1530l-136 16l226 254l160 -72z" />
    <glyph glyph-name="sacute" unicode="&#x15b;" horiz-adv-x="906" 
d="M454 -6q-236 0 -404 148l60 114q158 -134 350 -134q90 0 153 36t73 118q0 134 -250 194q-128 32 -227 94t-105 210q0 102 51 165q54 64 137 92.5t178 28.5q190 0 336 -96l-60 -120q-138 84 -286 84q-208 0 -208 -142q0 -64 57.5 -106t186.5 -72q71 -20 123 -42t105 -52
q116 -74 116 -222q0 -105 -53 -170q-58 -68 -146 -98t-187 -30zM502 1230l-136 16l226 254l160 -72z" />
    <glyph glyph-name="Scircumflex" unicode="&#x15c;" horiz-adv-x="1222" 
d="M600 -12q-316 0 -536 216l72 138q216 -198 466 -198q140 0 234 55t94 167q-2 128 -106 186q-114 60 -242 96q-196 60 -260 98q-28 16 -62 44q-116 90 -116 262q0 125 66 205q71 83 181 120t237 37q242 0 444 -130l-68 -142q-184 116 -386 116q-118 0 -208 -46t-90 -150
t86 -166t258 -108t302 -128t140 -286q0 -130 -68 -215q-74 -90 -189.5 -130.5t-248.5 -40.5zM904 1536h-156l-134 146l-134 -146h-156l206 258h168z" />
    <glyph glyph-name="scircumflex" unicode="&#x15d;" horiz-adv-x="906" 
d="M454 -6q-236 0 -404 148l60 114q158 -134 350 -134q90 0 153 36t73 118q0 134 -250 194q-128 32 -227 94t-105 210q0 102 51 165q54 64 137 92.5t178 28.5q190 0 336 -96l-60 -120q-138 84 -286 84q-208 0 -208 -142q0 -64 57.5 -106t186.5 -72q71 -20 123 -42t105 -52
q116 -74 116 -222q0 -105 -53 -170q-58 -68 -146 -98t-187 -30zM750 1236h-156l-134 146l-134 -146h-156l206 258h168z" />
    <glyph glyph-name="Scedilla" unicode="&#x15e;" horiz-adv-x="1222" 
d="M610 -432q-92 0 -176 42l36 100q54 -30 122 -30q56 0 80 24t24 50t-24.5 48t-81.5 22h-62l50 164q-306 20 -514 216l72 138q216 -198 466 -198q140 0 234 55t94 167q-2 128 -106 186q-114 60 -242 96q-196 60 -260 98q-28 16 -62 44q-116 90 -116 262q0 125 66 205
q71 83 181 120t237 37q242 0 444 -130l-68 -142q-184 116 -386 116q-118 0 -208 -46t-90 -150t86 -166t258 -108t302 -128t140 -286q0 -174 -116 -268t-298 -114l-34 -98q86 -14 124 -57t38 -97q0 -86 -61 -129t-149 -43z" />
    <glyph glyph-name="scedilla" unicode="&#x15f;" horiz-adv-x="906" 
d="M436 -432q-92 0 -176 42l36 100q54 -30 122 -30q56 0 80 24t24 50t-24.5 48t-81.5 22h-62l52 172q-206 14 -356 146l60 114q158 -134 350 -134q90 0 153 36t73 118q0 134 -250 194q-128 32 -227 94t-105 210q0 102 51 165q54 64 137 92.5t178 28.5q190 0 336 -96
l-60 -120q-138 84 -286 84q-208 0 -208 -142q0 -64 57.5 -106t186.5 -72q71 -20 123 -42t105 -52q116 -74 116 -222q0 -138 -90 -210t-230 -84l-36 -104q86 -14 124 -57t38 -97q0 -86 -61 -129t-149 -43z" />
    <glyph glyph-name="Scaron" unicode="&#x160;" horiz-adv-x="1222" 
d="M600 -12q-316 0 -536 216l72 138q216 -198 466 -198q140 0 234 55t94 167q-2 128 -106 186q-114 60 -242 96q-196 60 -260 98q-28 16 -62 44q-116 90 -116 262q0 125 66 205q71 83 181 120t237 37q242 0 444 -130l-68 -142q-184 116 -386 116q-118 0 -208 -46t-90 -150
t86 -166t258 -108t302 -128t140 -286q0 -130 -68 -215q-74 -90 -189.5 -130.5t-248.5 -40.5zM662 1536h-168l-206 258h156l134 -146l134 146h156z" />
    <glyph glyph-name="scaron" unicode="&#x161;" horiz-adv-x="906" 
d="M454 -6q-236 0 -404 148l60 114q158 -134 350 -134q90 0 153 36t73 118q0 134 -250 194q-128 32 -227 94t-105 210q0 102 51 165q54 64 137 92.5t178 28.5q190 0 336 -96l-60 -120q-138 84 -286 84q-208 0 -208 -142q0 -64 57.5 -106t186.5 -72q71 -20 123 -42t105 -52
q116 -74 116 -222q0 -105 -53 -170q-58 -68 -146 -98t-187 -30zM544 1236h-168l-206 258h156l134 -146l134 146h156z" />
    <glyph glyph-name="uni0162" unicode="&#x162;" horiz-adv-x="1116" 
d="M550 -432q-92 0 -176 42l36 100q54 -30 122 -30q56 0 80 24t24 50t-24.5 48t-81.5 22h-62l54 176h-44v1252h-456v148h1074v-148h-458v-1252h-4l-36 -106q86 -14 124 -57t38 -97q0 -86 -61 -129t-149 -43z" />
    <glyph glyph-name="uni0163" unicode="&#x163;" horiz-adv-x="780" 
d="M480 -432q-92 0 -176 42l36 100q54 -30 122 -30q56 0 80 24t24 50t-24.5 48t-81.5 22h-62l52 172q-102 8 -162 80t-60 216v606h-152v122h152v276h154v-276h334v-122h-334v-580q0 -180 140 -180q82 2 168 54l44 -120q-80 -56 -170 -72l-36 -106q86 -14 124 -57t38 -97
q0 -86 -61 -129t-149 -43z" />
    <glyph glyph-name="Tcaron" unicode="&#x164;" horiz-adv-x="1116" 
d="M638 0h-160v1252h-456v148h1074v-148h-458v-1252zM616 1536h-168l-206 258h156l134 -146l134 146h156z" />
    <glyph glyph-name="tcaron" unicode="&#x165;" horiz-adv-x="780" 
d="M496 -6q-112 0 -190 68t-78 230v606h-152v122h152v276h154v-276h334v-122h-334v-580q0 -180 134 -180q80 0 174 54l44 -120q-110 -78 -238 -78zM640 1156h-108v328h148z" />
    <glyph glyph-name="Tbar" unicode="&#x166;" horiz-adv-x="1116" 
d="M638 0h-160v624h-314v100h314v528h-456v148h1074v-148h-458v-528h310v-100h-310v-624z" />
    <glyph glyph-name="tbar" unicode="&#x167;" horiz-adv-x="780" 
d="M496 -6q-112 0 -190 68t-78 230v240h-152v100h152v266h-152v122h152v276h154v-276h334v-122h-334v-266h334v-100h-334v-214q0 -180 134 -180q80 0 174 54l44 -120q-110 -78 -238 -78z" />
    <glyph glyph-name="Utilde" unicode="&#x168;" horiz-adv-x="1530" 
d="M766 -12q-200 0 -330 76q-135 82 -195.5 215t-60.5 291v830h160v-830q0 -152 56 -247q60 -100 158 -144.5t212 -44.5q113 0 209.5 43t155.5 140t59 253v830h158v-830q0 -256 -133 -410q-149 -172 -449 -172zM906 1530q-74 0 -158 64q-66 46 -100 46q-72 0 -72 -102h-110
q0 228 158 228q74 0 158 -64q66 -46 100 -46q72 0 72 102h110q0 -228 -158 -228z" />
    <glyph glyph-name="utilde" unicode="&#x169;" horiz-adv-x="1294" 
d="M548 -6q-138 0 -225 55q-90 59 -129.5 152.5t-39.5 202.5v648h156v-608q0 -146 81 -223t211 -77q182 16 264 126t82 266v516h156v-1052h-156v238q-112 -244 -400 -244zM788 1224q-74 0 -158 64q-66 46 -100 46q-72 0 -72 -102h-110q0 228 158 228q74 0 158 -64
q66 -46 100 -46q72 0 72 102h110q0 -228 -158 -228z" />
    <glyph glyph-name="Umacron" unicode="&#x16a;" horiz-adv-x="1530" 
d="M766 -12q-200 0 -330 76q-135 82 -195.5 215t-60.5 291v830h160v-830q0 -152 56 -247q60 -100 158 -144.5t212 -44.5q113 0 209.5 43t155.5 140t59 253v830h158v-830q0 -256 -133 -410q-149 -172 -449 -172zM1076 1546h-622v106h622v-106z" />
    <glyph glyph-name="umacron" unicode="&#x16b;" horiz-adv-x="1294" 
d="M548 -6q-138 0 -225 55q-90 59 -129.5 152.5t-39.5 202.5v648h156v-608q0 -146 81 -223t211 -77q182 16 264 126t82 266v516h156v-1052h-156v238q-112 -244 -400 -244zM926 1300h-560v106h560v-106z" />
    <glyph glyph-name="Ubreve" unicode="&#x16c;" horiz-adv-x="1530" 
d="M766 -12q-200 0 -330 76q-135 82 -195.5 215t-60.5 291v830h160v-830q0 -152 56 -247q60 -100 158 -144.5t212 -44.5q113 0 209.5 43t155.5 140t59 253v830h158v-830q0 -256 -133 -410q-149 -172 -449 -172zM766 1528q-100 0 -171 65t-83 193h110q20 -146 144 -146
q122 0 142 146h112q-12 -128 -83 -193t-171 -65z" />
    <glyph glyph-name="ubreve" unicode="&#x16d;" horiz-adv-x="1294" 
d="M548 -6q-138 0 -225 55q-90 59 -129.5 152.5t-39.5 202.5v648h156v-608q0 -146 81 -223t211 -77q182 16 264 126t82 266v516h156v-1052h-156v238q-112 -244 -400 -244zM648 1224q-100 0 -171 65t-83 193h110q20 -146 144 -146q122 0 142 146h112q-12 -128 -83 -193
t-171 -65z" />
    <glyph glyph-name="Uring" unicode="&#x16e;" horiz-adv-x="1530" 
d="M766 -12q-200 0 -330 76q-135 82 -195.5 215t-60.5 291v830h160v-830q0 -152 56 -247q60 -100 158 -144.5t212 -44.5q113 0 209.5 43t155.5 140t59 253v830h158v-830q0 -256 -133 -410q-149 -172 -449 -172zM766 1508q-82 0 -143 56t-61 148q0 80 56 141t148 61
q90 0 146 -62q60 -60 60 -140q0 -62 -29.5 -108t-76.5 -71t-100 -25zM766 1598q47 0 83.5 32.5t36.5 81.5q0 54 -38 83t-82 29t-82 -29t-38 -83q0 -49 36.5 -81.5t83.5 -32.5z" />
    <glyph glyph-name="uring" unicode="&#x16f;" horiz-adv-x="1294" 
d="M548 -6q-138 0 -225 55q-90 59 -129.5 152.5t-39.5 202.5v648h156v-608q0 -146 81 -223t211 -77q182 16 264 126t82 266v516h156v-1052h-156v238q-112 -244 -400 -244zM648 1160q-82 0 -143 56t-61 148q0 80 56 141t148 61q90 0 146 -62q60 -60 60 -140q0 -62 -29.5 -108
t-76.5 -71t-100 -25zM648 1250q47 0 83.5 32.5t36.5 81.5q0 54 -38 83t-82 29t-82 -29t-38 -83q0 -49 36.5 -81.5t83.5 -32.5z" />
    <glyph glyph-name="Uhungarumlaut" unicode="&#x170;" horiz-adv-x="1530" 
d="M766 -12q-200 0 -330 76q-135 82 -195.5 215t-60.5 291v830h160v-830q0 -152 56 -247q60 -100 158 -144.5t212 -44.5q113 0 209.5 43t155.5 140t59 253v830h158v-830q0 -256 -133 -410q-149 -172 -449 -172zM642 1530l-120 14l172 264l132 -66zM936 1530l-120 14l172 264
l132 -66z" />
    <glyph glyph-name="uhungarumlaut" unicode="&#x171;" horiz-adv-x="1294" 
d="M548 -6q-138 0 -225 55q-90 59 -129.5 152.5t-39.5 202.5v648h156v-608q0 -146 81 -223t211 -77q182 16 264 126t82 266v516h156v-1052h-156v238q-112 -244 -400 -244zM524 1230l-120 14l172 264l132 -66zM818 1230l-120 14l172 264l132 -66z" />
    <glyph glyph-name="Uogonek" unicode="&#x172;" horiz-adv-x="1530" 
d="M968 -432q-76 0 -130 47t-54 141q0 120 114 242q-70 -10 -132 -10q-200 0 -330 76q-135 82 -195.5 215t-60.5 291v830h160v-830q0 -152 56 -247q60 -100 158 -144.5t212 -44.5q113 0 209.5 43t155.5 140t59 253v830h158v-830q0 -320 -210 -476q-210 -180 -210 -322
q0 -78 74 -80q38 0 84 24l42 -106q-90 -42 -160 -42z" />
    <glyph glyph-name="uogonek" unicode="&#x173;" horiz-adv-x="1294" 
d="M944 -432q-78 0 -132 40t-54 130q0 146 190 282v218q-112 -244 -400 -244q-138 0 -225 55q-90 59 -129.5 152.5t-39.5 202.5v648h156v-608q0 -146 81 -223t211 -77q182 16 264 126t82 266v516h156v-1052q-202 -136 -202 -236q0 -72 72 -72q42 0 86 24l42 -106
q-86 -42 -158 -42z" />
    <glyph glyph-name="Wcircumflex" unicode="&#x174;" horiz-adv-x="2066" 
d="M1582 0h-166l-380 1194l-388 -1194h-164l-472 1400h172l386 -1226l386 1226h160l388 -1228l384 1228h168zM1324 1536h-156l-134 146l-134 -146h-156l206 258h168z" />
    <glyph glyph-name="wcircumflex" unicode="&#x175;" horiz-adv-x="1728" 
d="M1344 0h-162l-310 862l-308 -862h-162l-394 1052h164l312 -894l306 894h164l310 -894l308 894h162zM1160 1236h-156l-134 146l-134 -146h-156l206 258h168z" />
    <glyph glyph-name="Ycircumflex" unicode="&#x176;" horiz-adv-x="1250" 
d="M708 0h-158v482l-542 918h166l454 -734l448 734h164l-532 -914v-486zM914 1536h-156l-134 146l-134 -146h-156l206 258h168z" />
    <glyph glyph-name="ycircumflex" unicode="&#x177;" horiz-adv-x="1004" 
d="M210 -394q-130 0 -222 76l66 124q68 -50 148 -50q124 0 192 152l44 100l-436 1044h164l350 -876l334 876h160l-484 -1202q-106 -244 -316 -244zM798 1236h-156l-134 146l-134 -146h-156l206 258h168z" />
    <glyph glyph-name="Ydieresis" unicode="&#x178;" horiz-adv-x="1250" 
d="M708 0h-158v482l-542 918h166l454 -734l448 734h164l-532 -914v-486zM458 1530q-46 0 -70 31t-24 67q0 42 27 70t67 28t67 -28t27 -70q0 -36 -24 -67t-70 -31zM794 1530q-46 0 -70 31t-24 67q0 42 27 70t67 28t67 -28t27 -70q0 -36 -24 -67t-70 -31z" />
    <glyph glyph-name="Zacute" unicode="&#x179;" horiz-adv-x="1320" 
d="M1232 0h-1146v124l928 1128h-902v148h1112v-124l-928 -1128h938zM712 1530l-136 16l226 254l160 -72z" />
    <glyph glyph-name="zacute" unicode="&#x17a;" horiz-adv-x="1054" 
d="M968 -2l-864 2v116l660 804l-642 2v130h830v-116l-660 -804l676 -2v-132zM574 1230l-136 16l226 254l160 -72z" />
    <glyph glyph-name="Zdotaccent" unicode="&#x17b;" horiz-adv-x="1320" 
d="M1232 0h-1146v124l928 1128h-902v148h1112v-124l-928 -1128h938zM670 1530q-51 0 -76.5 33.5t-25.5 72.5q0 46 29 76t73 30t73 -30t29 -76q0 -39 -25.5 -72.5t-76.5 -33.5z" />
    <glyph glyph-name="zdotaccent" unicode="&#x17c;" horiz-adv-x="1054" 
d="M968 -2l-864 2v116l660 804l-642 2v130h830v-116l-660 -804l676 -2v-132zM532 1248q-51 0 -76.5 33.5t-25.5 72.5q0 44 27.5 76t74.5 32t74.5 -32t27.5 -76q0 -39 -25.5 -72.5t-76.5 -33.5z" />
    <glyph glyph-name="Zcaron" unicode="&#x17d;" horiz-adv-x="1320" 
d="M1232 0h-1146v124l928 1128h-902v148h1112v-124l-928 -1128h938zM718 1536h-168l-206 258h156l134 -146l134 146h156z" />
    <glyph glyph-name="zcaron" unicode="&#x17e;" horiz-adv-x="1054" 
d="M968 -2l-864 2v116l660 804l-642 2v130h830v-116l-660 -804l676 -2v-132zM616 1236h-168l-206 258h156l134 -146l134 146h156z" />
    <glyph glyph-name="longs" unicode="&#x17f;" horiz-adv-x="664" 
d="M376 0h-154v1146q0 121 48 198q52 80 129 117t161 37q94 -4 178 -48l-38 -130q-62 38 -138 38t-131 -47t-55 -147v-1164z" />
    <glyph glyph-name="uni018F" unicode="&#x18f;" horiz-adv-x="1568" 
d="M782 -12q-308 0 -510 216t-202 536h1258q-21 155 -90 272.5t-183.5 184.5t-270.5 67q-270 0 -446 -212l-114 112q218 248 558 248q296 0 501 -206t205 -504q0 -300 -205 -507t-501 -207zM784 134q220 0 358 127t178 331h-1078q22 -129 89.5 -232.5t180.5 -164.5t272 -61z
" />
    <glyph glyph-name="florin" unicode="&#x192;" horiz-adv-x="696" 
d="M-44 -394q-116 10 -202 74l50 118q64 -52 138 -58q152 0 176 212l106 860h-134l12 114h136l30 252q50 314 344 326q132 -6 232 -76l-62 -116q-70 54 -152 58q-178 -6 -210 -212l-28 -232h302l-14 -114h-302l-108 -882q-38 -324 -314 -324z" />
    <glyph glyph-name="Ohorn" unicode="&#x1a0;" horiz-adv-x="1678" 
d="M822 -12h-16q-306 0 -516 210q-105 105 -157.5 229t-52.5 275q0 298 213 504t521 206q174 0 318 -68q42 -16 86 -16q50 0 81 21.5t45 57.5t14 79q-4 66 -44 124l130 50q50 -92 50 -176q0 -44 -30 -128t-160 -124q121 -103 181.5 -235.5t60.5 -302.5q0 -298 -214 -502
t-510 -204zM814 134q234 0 401 165t167 403q0 232 -166 397t-402 165t-404 -163t-168 -399q0 -238 170 -403t402 -165z" />
    <glyph glyph-name="ohorn" unicode="&#x1a1;" horiz-adv-x="1292" 
d="M618 -6q-238 0 -386 148t-148 386q0 242 152 386t382 144q150 0 268 -64v2q42 -16 86 -16q74 0 107 46t33 112q-4 66 -44 124l130 50q48 -92 48 -174q0 -214 -214 -260q120 -140 120 -350q0 -170 -73 -289q-84 -130 -206.5 -187.5t-254.5 -57.5zM618 130q93 0 180 40
t145 131q53 87 53 225q0 164 -100 279t-278 115t-278 -115t-100 -279q0 -136 52.5 -223t138 -130t187.5 -43z" />
    <glyph glyph-name="Uhorn" unicode="&#x1af;" horiz-adv-x="1572" 
d="M766 -12q-200 0 -330 76q-135 82 -195.5 215t-60.5 291v830h160v-830q0 -152 56 -247q60 -100 158 -144.5t212 -44.5q113 0 209.5 43t155.5 140t59 253v830h94q134 0 134 106q0 48 -30 108l122 46q34 -84 34 -150q0 -52 -31 -119t-165 -91v-730q0 -256 -133 -410
q-149 -172 -449 -172z" />
    <glyph glyph-name="uhorn" unicode="&#x1b0;" horiz-adv-x="1300" 
d="M548 -6q-138 0 -225 55q-90 59 -129.5 152.5t-39.5 202.5v648h156v-608q0 -146 81 -223t211 -77q182 16 264 126t82 266v516h68q134 0 134 106q0 48 -30 108l122 46q34 -84 34 -150q0 -44 -27 -109t-145 -95v-958h-156v238q-112 -244 -400 -244z" />
    <glyph glyph-name="uni01C4" unicode="&#x1c4;" horiz-adv-x="2898" 
d="M772 0h-560v1400h566q304 0 512 -202t208 -498q0 -298 -207 -499t-519 -201zM780 148q228 0 392 153t164 397q0 250 -167 402t-395 152h-402v-1104h408zM2810 0h-1146v124l928 1128h-902v148h1112v-124l-928 -1128h938zM2296 1536h-168l-206 258h156l134 -146l134 146
h156z" />
    <glyph glyph-name="uni01C5" unicode="&#x1c5;" horiz-adv-x="2632" 
d="M772 0h-560v1400h566q304 0 512 -202t208 -498q0 -298 -207 -499t-519 -201zM780 148q228 0 392 153t164 397q0 250 -167 402t-395 152h-402v-1104h408zM2546 -2l-864 2v116l660 804l-642 2v130h830v-116l-660 -804l676 -2v-132zM2194 1236h-168l-206 258h156l134 -146
l134 146h156z" />
    <glyph glyph-name="uni01C6" unicode="&#x1c6;" horiz-adv-x="2412" 
d="M592 -8q-224 0 -366 145t-142 391t144 389t362 143q284 0 412 -236v660h156v-1484h-156v226q-130 -234 -410 -234zM622 126q166 0 273 112t107 286q0 166 -103 283t-277 117q-178 0 -280 -118t-102 -282q0 -168 102 -283t280 -115zM2326 -2l-864 2v116l660 804l-642 2
v130h830v-116l-660 -804l676 -2v-132zM1974 1236h-168l-206 258h156l134 -146l134 146h156z" />
    <glyph glyph-name="uni01C7" unicode="&#x1c7;" horiz-adv-x="2000" 
d="M986 0h-774v1400h160v-1252h614v-148zM1422 -6q-234 0 -388 198l80 124q144 -164 306 -164q232 0 240 270v830h-500v148h662v-982q0 -150 -51 -243t-142 -137t-207 -44z" />
    <glyph glyph-name="uni01C8" unicode="&#x1c8;" horiz-adv-x="1540" 
d="M986 0h-774v1400h160v-1252h614v-148zM1086 -392q-96 4 -168 34l38 122q42 -18 100 -22q162 2 162 226v1084h156v-1106q0 -330 -288 -338zM1296 1248q-51 0 -76.5 33.5t-25.5 72.5q0 44 27.5 76t74.5 32t74.5 -32t27.5 -76q0 -39 -25.5 -72.5t-76.5 -33.5z" />
    <glyph glyph-name="uni01C9" unicode="&#x1c9;" horiz-adv-x="1086" 
d="M390 -6q-84 0 -151 59t-67 199v1232h154v-1214q0 -132 100 -132q56 0 112 44l30 -126q-88 -62 -178 -62zM632 -392q-96 4 -168 34l38 122q42 -18 100 -22q162 2 162 226v1084h156v-1106q0 -330 -288 -338zM842 1248q-51 0 -76.5 33.5t-25.5 72.5q0 44 27.5 76t74.5 32
t74.5 -32t27.5 -76q0 -39 -25.5 -72.5t-76.5 -33.5z" />
    <glyph glyph-name="uni01CA" unicode="&#x1ca;" horiz-adv-x="2556" 
d="M1376 0h-164l-840 1140v-1140h-160v1400h166l840 -1140v1140h158v-1400zM1978 -6q-234 0 -388 198l80 124q144 -164 306 -164q232 0 240 270v830h-500v148h662v-982q0 -150 -51 -243t-142 -137t-207 -44z" />
    <glyph glyph-name="uni01CB" unicode="&#x1cb;" horiz-adv-x="2096" 
d="M1376 0h-164l-840 1140v-1140h-160v1400h166l840 -1140v1140h158v-1400zM1642 -392q-96 4 -168 34l38 122q42 -18 100 -22q162 2 162 226v1084h156v-1106q0 -330 -288 -338zM1852 1248q-51 0 -76.5 33.5t-25.5 72.5q0 44 27.5 76t74.5 32t74.5 -32t27.5 -76
q0 -39 -25.5 -72.5t-76.5 -33.5z" />
    <glyph glyph-name="uni01CC" unicode="&#x1cc;" horiz-adv-x="1818" 
d="M1154 0h-156v608q0 152 -84 226t-214 74q-174 -10 -259 -103t-95 -241v-564h-156v1052h156v-232q118 238 408 238q142 0 230 -53t129 -146t41 -211v-648zM1364 -392q-96 4 -168 34l38 122q42 -18 100 -22q162 2 162 226v1084h156v-1106q0 -330 -288 -338zM1574 1248
q-51 0 -76.5 33.5t-25.5 72.5q0 44 27.5 76t74.5 32t74.5 -32t27.5 -76q0 -39 -25.5 -72.5t-76.5 -33.5z" />
    <glyph glyph-name="uni01DE" unicode="&#x1de;" horiz-adv-x="1436" 
d="M1428 0h-174l-158 358h-762l-156 -358h-170l628 1400h166zM1032 506l-318 720l-314 -720h632zM1030 1872h-622v106h622v-106zM552 1530q-46 0 -70 31t-24 67q0 42 27 70t67 28t67 -28t27 -70q0 -36 -24 -67t-70 -31zM888 1530q-46 0 -70 31t-24 67q0 42 27 70t67 28
t67 -28t27 -70q0 -36 -24 -67t-70 -31z" />
    <glyph glyph-name="uni01DF" unicode="&#x1df;" horiz-adv-x="1154" 
d="M458 -6q-123 0 -201.5 44t-117.5 117t-39 157q0 126 95 210t299 92h346v66q0 110 -67 179t-215 69q-176 0 -334 -122l-66 110q204 142 430 142q214 0 310 -100t96 -262l2 -696h-152v164q-134 -170 -386 -170zM488 124q124 0 219 57t135 181v128h-328q-264 0 -268 -172
q0 -80 61 -137t181 -57zM396 1216q-37 0 -64.5 27t-27.5 69q0 48 29 71t63 23q48 0 70 -29t22 -65q0 -35 -23 -65.5t-69 -30.5zM792 1484h-480v108h480v-108zM706 1216q-37 0 -64.5 27t-27.5 69q0 48 29 71t63 23t63 -23t29 -71q0 -42 -27.5 -69t-64.5 -27z" />
    <glyph glyph-name="Gcaron" unicode="&#x1e6;" horiz-adv-x="1506" 
d="M810 -6q-314 0 -522 208t-208 490v16q0 294 214 495t524 201q292 0 516 -192l-92 -116q-190 162 -424 162q-242 0 -409 -163t-167 -395q0 -230 168 -398q170 -162 410 -162q190 0 368 118l-2 368h-378v148h522v-598q-234 -182 -520 -182zM792 1536h-168l-206 258h156
l134 -146l134 146h156z" />
    <glyph glyph-name="gcaron" unicode="&#x1e7;" horiz-adv-x="1272" 
d="M578 -392q-232 0 -432 154l72 114q154 -134 354 -134q160 0 270 91t110 273v160q-120 -220 -388 -220q-208 0 -344 137t-136 371t130 363t346 141q274 -4 392 -220v214h156v-942q0 -168 -70 -279q-76 -117 -197 -170t-263 -53zM592 174q174 0 267 112t93 264
q0 164 -100 271t-260 107q-172 0 -264 -105t-98 -273q6 -164 98 -270t264 -106zM690 1236h-168l-206 258h156l134 -146l134 146h156z" />
    <glyph glyph-name="uni01EA" unicode="&#x1ea;" horiz-adv-x="1626" 
d="M1024 -432q-77 0 -130.5 47t-53.5 141q0 120 116 244q-74 -12 -150 -12q-306 0 -516 210q-105 105 -157.5 229t-52.5 275q0 298 213 504t529 206q304 0 514 -208t210 -494q-2 -222 -102 -381t-268 -249q-192 -182 -192 -308q0 -78 74 -80q40 0 84 24l42 -106
q-90 -42 -160 -42zM814 134q234 0 401 165t167 403q0 232 -166 397t-402 165t-404 -163t-168 -399q0 -238 170 -403t402 -165z" />
    <glyph glyph-name="uni01EB" unicode="&#x1eb;" horiz-adv-x="1236" 
d="M774 -432q-76 0 -130 47t-54 141q0 118 114 244q-40 -6 -86 -6q-238 0 -386 148t-148 386q0 242 152 386t382 144q101 0 196.5 -32t171.5 -97.5t121 -165t45 -235.5q0 -288 -218 -440q-200 -178 -200 -316q0 -78 74 -80q40 0 84 24l42 -106q-90 -42 -160 -42zM618 130
q93 0 180 40t145 131q53 87 53 225q0 164 -100 279t-278 115t-278 -115t-100 -279q0 -136 52.5 -223t138 -130t187.5 -43z" />
    <glyph glyph-name="uni01F4" unicode="&#x1f4;" horiz-adv-x="1506" 
d="M810 -6q-314 0 -522 208t-208 490v16q0 294 214 495t524 201q292 0 516 -192l-92 -116q-190 162 -424 162q-242 0 -409 -163t-167 -395q0 -230 168 -398q170 -162 410 -162q190 0 368 118l-2 368h-378v148h522v-598q-234 -182 -520 -182zM714 1530l-136 16l226 254
l160 -72z" />
    <glyph glyph-name="uni01F5" unicode="&#x1f5;" horiz-adv-x="1272" 
d="M578 -392q-232 0 -432 154l72 114q154 -134 354 -134q160 0 270 91t110 273v160q-120 -220 -388 -220q-208 0 -344 137t-136 371t130 363t346 141q274 -4 392 -220v214h156v-942q0 -168 -70 -279q-76 -117 -197 -170t-263 -53zM592 174q174 0 267 112t93 264
q0 164 -100 271t-260 107q-172 0 -264 -105t-98 -273q6 -164 98 -270t264 -106zM604 1230l-136 16l226 254l160 -72z" />
    <glyph glyph-name="Aringacute" unicode="&#x1fa;" horiz-adv-x="1436" 
d="M1428 0h-174l-158 358h-762l-156 -358h-170l628 1400h166zM1032 506l-318 720l-314 -720h632zM718 1508q-82 0 -143 56t-61 148q0 80 56 141t148 61q90 0 146 -62q60 -60 60 -140q0 -62 -29.5 -108t-76.5 -71t-100 -25zM708 1982l-122 38l270 206l132 -92zM718 1598
q47 0 83.5 32.5t36.5 81.5q0 54 -38 83t-82 29t-82 -29t-38 -83q0 -49 36.5 -81.5t83.5 -32.5z" />
    <glyph glyph-name="aringacute" unicode="&#x1fb;" horiz-adv-x="1154" 
d="M458 -6q-123 0 -201.5 44t-117.5 117t-39 157q0 126 95 210t299 92h346v66q0 110 -67 179t-215 69q-176 0 -334 -122l-66 110q204 142 430 142q214 0 310 -100t96 -262l2 -696h-152v164q-134 -170 -386 -170zM488 124q124 0 219 57t135 181v128h-328q-264 0 -268 -172
q0 -80 61 -137t181 -57zM568 1160q-82 0 -143 56t-61 148q0 80 56 141t148 61q90 0 146 -62q60 -60 60 -140q0 -62 -29.5 -108t-76.5 -71t-100 -25zM558 1634l-122 38l270 206l132 -92zM568 1250q47 0 83.5 32.5t36.5 81.5q0 54 -38 83t-82 29t-82 -29t-38 -83
q0 -49 36.5 -81.5t83.5 -32.5z" />
    <glyph glyph-name="AEacute" unicode="&#x1fc;" horiz-adv-x="2052" 
d="M1938 0h-976v384h-562l-222 -384h-170l826 1400h1078v-148h-790v-470h708v-146h-708v-488h816v-148zM962 514v750h-50l-436 -750h486zM1272 1530l-136 16l226 254l160 -72z" />
    <glyph glyph-name="aeacute" unicode="&#x1fd;" horiz-adv-x="1960" 
d="M1376 -6q-174 0 -289 76t-173 202q-132 -278 -456 -278q-86 0 -168 30.5t-138 102.5q-52 68 -52 179q0 150 109 219t287 69h348v86q-8 248 -286 248q-172 0 -356 -122l-44 114q220 138 430 138q286 0 372 -212q146 212 412 212q172 0 285 -74q118 -80 171.5 -209
t53.5 -279h-880v-38q0 -140 115 -236t269 -96q198 0 326 134l86 -92q-166 -174 -422 -174zM490 110q256 0 356 238v154h-322q-122 0 -200 -44t-78 -140q0 -86 62 -147t182 -61zM1022 1230l-136 16l226 254l160 -72zM1726 588q-12 156 -99 253t-253 97q-144 0 -244 -87
t-126 -263h722z" />
    <glyph glyph-name="Oslashacute" unicode="&#x1fe;" horiz-adv-x="1626" 
d="M320 -110h-138l176 254q-138 102 -208 240.5t-70 323.5q0 294 217 495t509 201q204 0 366 -88l134 194h138l-176 -254q138 -101 208 -240t70 -324q0 -300 -216 -499t-508 -199q-204 0 -368 88zM446 272l638 918q-124 66 -270 66q-112 0 -205.5 -35t-166 -96t-121.5 -139
q-79 -126 -79 -286q0 -262 204 -428zM814 140q236 0 402 164t166 396q0 262 -204 428l-636 -920q124 -68 272 -68zM856 1530l-136 16l226 254l160 -72z" />
    <glyph glyph-name="oslashacute" unicode="&#x1ff;" horiz-adv-x="1236" 
d="M178 -202h-116l212 310q-190 154 -190 420q0 242 152 386t382 144q148 0 264 -62l176 258h116l-212 -310q190 -154 190 -416q0 -170 -73 -289q-84 -130 -206.5 -187.5t-254.5 -57.5q-148 0 -264 62zM350 220l456 666q-82 46 -188 46q-170 0 -278 -112t-108 -294
q0 -192 118 -306zM618 118q72 0 141 23t124 71.5t88 126.5t33 187q0 190 -120 304l-456 -666q88 -46 190 -46zM660 1230l-136 16l226 254l160 -72z" />
    <glyph glyph-name="uni0200" unicode="&#x200;" horiz-adv-x="1436" 
d="M1428 0h-174l-158 358h-762l-156 -358h-170l628 1400h166zM534 1530l-186 212l134 66l172 -264zM1032 506l-318 720l-314 -720h632zM828 1530l-186 212l134 66l172 -264z" />
    <glyph glyph-name="uni0201" unicode="&#x201;" horiz-adv-x="1154" 
d="M458 -6q-123 0 -201.5 44t-117.5 117t-39 157q0 126 95 210t299 92h346v66q0 110 -67 179t-215 69q-176 0 -334 -122l-66 110q204 142 430 142q214 0 310 -100t96 -262l2 -696h-152v164q-134 -170 -386 -170zM384 1230l-186 212l134 66l172 -264zM488 124q124 0 219 57
t135 181v128h-328q-264 0 -268 -172q0 -80 61 -137t181 -57zM678 1230l-186 212l134 66l172 -264z" />
    <glyph glyph-name="uni0202" unicode="&#x202;" horiz-adv-x="1436" 
d="M1428 0h-174l-158 358h-762l-156 -358h-170l628 1400h166zM1032 506l-318 720l-314 -720h632zM972 1536h-112q-20 146 -142 146q-124 0 -144 -146h-110q12 128 83 193t171 65t171 -65t83 -193z" />
    <glyph glyph-name="uni0203" unicode="&#x203;" horiz-adv-x="1154" 
d="M458 -6q-123 0 -201.5 44t-117.5 117t-39 157q0 126 95 210t299 92h346v66q0 110 -67 179t-215 69q-176 0 -334 -122l-66 110q204 142 430 142q214 0 310 -100t96 -262l2 -696h-152v164q-134 -170 -386 -170zM488 124q124 0 219 57t135 181v128h-328q-264 0 -268 -172
q0 -80 61 -137t181 -57zM822 1224h-112q-20 146 -142 146q-124 0 -144 -146h-110q12 128 83 193t171 65t171 -65t83 -193z" />
    <glyph glyph-name="uni0204" unicode="&#x204;" horiz-adv-x="1302" 
d="M1188 0h-976v1400h950v-148h-790v-470h706v-146h-706v-488h816v-148zM518 1530l-186 212l134 66l172 -264zM812 1530l-186 212l134 66l172 -264z" />
    <glyph glyph-name="uni0205" unicode="&#x205;" horiz-adv-x="1176" 
d="M608 -6q-144 0 -263 61.5t-190 180t-71 290.5q0 176 69 291q73 120 190.5 178t262.5 63q172 0 281 -70q113 -75 163 -199t50 -275l-2 -46h-860q22 -154 118 -249t264 -95q198 0 326 134l86 -90q-160 -174 -424 -174zM410 1230l-186 212l134 66l172 -264zM958 592
q-10 148 -96 242t-256 94q-166 0 -257 -93t-111 -243h720zM704 1230l-186 212l134 66l172 -264z" />
    <glyph glyph-name="uni0206" unicode="&#x206;" horiz-adv-x="1302" 
d="M1188 0h-976v1400h950v-148h-790v-470h706v-146h-706v-488h816v-148zM956 1536h-112q-20 146 -142 146q-124 0 -144 -146h-110q12 128 83 193t171 65t171 -65t83 -193z" />
    <glyph glyph-name="uni0207" unicode="&#x207;" horiz-adv-x="1176" 
d="M608 -6q-144 0 -263 61.5t-190 180t-71 290.5q0 176 69 291q73 120 190.5 178t262.5 63q172 0 281 -70q113 -75 163 -199t50 -275l-2 -46h-860q22 -154 118 -249t264 -95q198 0 326 134l86 -90q-160 -174 -424 -174zM958 592q-10 148 -96 242t-256 94q-166 0 -257 -93
t-111 -243h720zM848 1224h-112q-20 146 -142 146q-124 0 -144 -146h-110q12 128 83 193t171 65t171 -65t83 -193z" />
    <glyph glyph-name="uni0208" unicode="&#x208;" horiz-adv-x="584" 
d="M108 1530l-186 212l134 66l172 -264zM372 0h-160v1400h160v-1400zM402 1530l-186 212l134 66l172 -264z" />
    <glyph glyph-name="uni0209" unicode="&#x209;" horiz-adv-x="534" 
d="M82 1230l-186 212l134 66l172 -264zM344 0h-154v1052h154v-1052zM376 1230l-186 212l134 66l172 -264z" />
    <glyph glyph-name="uni020A" unicode="&#x20a;" horiz-adv-x="584" 
d="M546 1536h-112q-20 146 -142 146q-124 0 -144 -146h-110q12 128 83 193t171 65t171 -65t83 -193zM372 0h-160v1400h160v-1400z" />
    <glyph glyph-name="uni020B" unicode="&#x20b;" horiz-adv-x="534" 
d="M494 1224h-112q-3 61 -31 103.5t-85 42.5q-40 0 -65 -20.5t-38 -53t-15 -72.5h-112q9 119 68 189.5t162 70.5q86 0 149.5 -62.5t78.5 -197.5zM344 0h-154v1052h154v-1052z" />
    <glyph glyph-name="uni020C" unicode="&#x20c;" horiz-adv-x="1626" 
d="M822 -12h-16q-306 0 -516 210q-105 105 -157.5 229t-52.5 275q0 298 213 504t529 206q304 0 514 -208t210 -494v-16q0 -298 -214 -502t-510 -204zM814 134q234 0 401 165t167 403q0 232 -166 397t-402 165t-404 -163t-168 -399q0 -238 170 -403t402 -165zM630 1530
l-186 212l134 66l172 -264zM924 1530l-186 212l134 66l172 -264z" />
    <glyph glyph-name="uni020D" unicode="&#x20d;" horiz-adv-x="1236" 
d="M618 -6q-238 0 -386 148t-148 386q0 242 152 386t382 144q101 0 196.5 -32t171.5 -97.5t121 -165t45 -235.5q0 -170 -73 -289q-84 -130 -206.5 -187.5t-254.5 -57.5zM618 130q93 0 180 40t145 131q53 87 53 225q0 164 -100 279t-278 115t-278 -115t-100 -279
q0 -136 52.5 -223t138 -130t187.5 -43zM434 1230l-186 212l134 66l172 -264zM728 1230l-186 212l134 66l172 -264z" />
    <glyph glyph-name="uni020E" unicode="&#x20e;" horiz-adv-x="1626" 
d="M822 -12h-16q-306 0 -516 210q-105 105 -157.5 229t-52.5 275q0 298 213 504t529 206q304 0 514 -208t210 -494v-16q0 -298 -214 -502t-510 -204zM814 134q234 0 401 165t167 403q0 232 -166 397t-402 165t-404 -163t-168 -399q0 -238 170 -403t402 -165zM1068 1536h-112
q-20 146 -142 146q-124 0 -144 -146h-110q12 128 83 193t171 65t171 -65t83 -193z" />
    <glyph glyph-name="uni020F" unicode="&#x20f;" horiz-adv-x="1236" 
d="M618 -6q-238 0 -386 148t-148 386q0 242 152 386t382 144q101 0 196.5 -32t171.5 -97.5t121 -165t45 -235.5q0 -170 -73 -289q-84 -130 -206.5 -187.5t-254.5 -57.5zM618 130q93 0 180 40t145 131q53 87 53 225q0 164 -100 279t-278 115t-278 -115t-100 -279
q0 -136 52.5 -223t138 -130t187.5 -43zM872 1224h-112q-20 146 -142 146q-124 0 -144 -146h-110q12 128 83 193t171 65t171 -65t83 -193z" />
    <glyph glyph-name="uni0210" unicode="&#x210;" horiz-adv-x="1446" 
d="M1310 0h-182l-294 448l-90 -4h-372v-444h-160v1400h532q168 0 292 -50.5t192 -155t68 -264.5q0 -344 -316 -452zM502 1530l-186 212l134 66l172 -264zM744 592q176 0 287 78t111 256q0 324 -398 326h-372v-660h372zM796 1530l-186 212l134 66l172 -264z" />
    <glyph glyph-name="uni0211" unicode="&#x211;" horiz-adv-x="744" 
d="M276 1230l-186 212l134 66l172 -264zM346 0h-156v1052h156v-234q108 234 378 240v-152q-186 0 -277 -96t-101 -250v-560zM570 1230l-186 212l134 66l172 -264z" />
    <glyph glyph-name="uni0212" unicode="&#x212;" horiz-adv-x="1446" 
d="M1310 0h-182l-294 448l-90 -4h-372v-444h-160v1400h532q168 0 292 -50.5t192 -155t68 -264.5q0 -344 -316 -452zM744 592q176 0 287 78t111 256q0 324 -398 326h-372v-660h372zM940 1536h-112q-20 146 -142 146q-124 0 -144 -146h-110q12 128 83 193t171 65t171 -65
t83 -193z" />
    <glyph glyph-name="uni0213" unicode="&#x213;" horiz-adv-x="744" 
d="M346 0h-156v1052h156v-234q108 234 378 240v-152q-186 0 -277 -96t-101 -250v-560zM714 1224h-112q-20 146 -142 146q-124 0 -144 -146h-110q12 128 83 193t171 65t171 -65t83 -193z" />
    <glyph glyph-name="uni0214" unicode="&#x214;" horiz-adv-x="1530" 
d="M766 -12q-200 0 -330 76q-135 82 -195.5 215t-60.5 291v830h160v-830q0 -152 56 -247q60 -100 158 -144.5t212 -44.5q113 0 209.5 43t155.5 140t59 253v830h158v-830q0 -256 -133 -410q-149 -172 -449 -172zM582 1530l-186 212l134 66l172 -264zM876 1530l-186 212
l134 66l172 -264z" />
    <glyph glyph-name="uni0215" unicode="&#x215;" horiz-adv-x="1294" 
d="M548 -6q-138 0 -225 55q-90 59 -129.5 152.5t-39.5 202.5v648h156v-608q0 -146 81 -223t211 -77q182 16 264 126t82 266v516h156v-1052h-156v238q-112 -244 -400 -244zM464 1230l-186 212l134 66l172 -264zM758 1230l-186 212l134 66l172 -264z" />
    <glyph glyph-name="uni0216" unicode="&#x216;" horiz-adv-x="1530" 
d="M766 -12q-200 0 -330 76q-135 82 -195.5 215t-60.5 291v830h160v-830q0 -152 56 -247q60 -100 158 -144.5t212 -44.5q113 0 209.5 43t155.5 140t59 253v830h158v-830q0 -256 -133 -410q-149 -172 -449 -172zM1020 1536h-112q-20 146 -142 146q-124 0 -144 -146h-110
q12 128 83 193t171 65t171 -65t83 -193z" />
    <glyph glyph-name="uni0217" unicode="&#x217;" horiz-adv-x="1294" 
d="M548 -6q-138 0 -225 55q-90 59 -129.5 152.5t-39.5 202.5v648h156v-608q0 -146 81 -223t211 -77q182 16 264 126t82 266v516h156v-1052h-156v238q-112 -244 -400 -244zM902 1224h-112q-20 146 -142 146q-124 0 -144 -146h-110q12 128 83 193t171 65t171 -65t83 -193z" />
    <glyph glyph-name="uni0218" unicode="&#x218;" horiz-adv-x="1222" 
d="M600 -12q-316 0 -536 216l72 138q216 -198 466 -198q140 0 234 55t94 167q-2 128 -106 186q-114 60 -242 96q-196 60 -260 98q-28 16 -62 44q-116 90 -116 262q0 125 66 205q71 83 181 120t237 37q242 0 444 -130l-68 -142q-184 116 -386 116q-118 0 -208 -46t-90 -150
t86 -166t258 -108t302 -128t140 -286q0 -130 -68 -215q-74 -90 -189.5 -130.5t-248.5 -40.5zM590 -434h-116l74 314h146z" />
    <glyph glyph-name="uni0219" unicode="&#x219;" horiz-adv-x="906" 
d="M454 -6q-236 0 -404 148l60 114q158 -134 350 -134q90 0 153 36t73 118q0 134 -250 194q-128 32 -227 94t-105 210q0 102 51 165q54 64 137 92.5t178 28.5q190 0 336 -96l-60 -120q-138 84 -286 84q-208 0 -208 -142q0 -64 57.5 -106t186.5 -72q71 -20 123 -42t105 -52
q116 -74 116 -222q0 -105 -53 -170q-58 -68 -146 -98t-187 -30zM422 -434h-116l74 314h146z" />
    <glyph glyph-name="uni021A" unicode="&#x21a;" horiz-adv-x="1116" 
d="M638 0h-160v1252h-456v148h1074v-148h-458v-1252zM530 -434h-116l74 314h146z" />
    <glyph glyph-name="uni021B" unicode="&#x21b;" horiz-adv-x="780" 
d="M496 -6q-112 0 -190 68t-78 230v606h-152v122h152v276h154v-276h334v-122h-334v-580q0 -180 134 -180q80 0 174 54l44 -120q-110 -78 -238 -78zM466 -434h-116l74 314h146z" />
    <glyph glyph-name="uni022A" unicode="&#x22a;" horiz-adv-x="1626" 
d="M822 -12h-16q-306 0 -516 210q-105 105 -157.5 229t-52.5 275q0 298 213 504t529 206q304 0 514 -208t210 -494v-16q0 -298 -214 -502t-510 -204zM814 134q234 0 401 165t167 403q0 232 -166 397t-402 165t-404 -163t-168 -399q0 -238 170 -403t402 -165zM660 1530
q-37 0 -64.5 27t-27.5 69q0 48 29 71t63 23q48 0 70 -29t22 -65q0 -35 -23 -65.5t-69 -30.5zM1056 1798h-480v108h480v-108zM970 1530q-37 0 -64.5 27t-27.5 69q0 48 29 71t63 23t63 -23t29 -71q0 -42 -27.5 -69t-64.5 -27z" />
    <glyph glyph-name="uni022B" unicode="&#x22b;" horiz-adv-x="1236" 
d="M618 -6q-238 0 -386 148t-148 386q0 242 152 386t382 144q101 0 196.5 -32t171.5 -97.5t121 -165t45 -235.5q0 -170 -73 -289q-84 -130 -206.5 -187.5t-254.5 -57.5zM618 130q93 0 180 40t145 131q53 87 53 225q0 164 -100 279t-278 115t-278 -115t-100 -279
q0 -136 52.5 -223t138 -130t187.5 -43zM464 1216q-37 0 -64.5 27t-27.5 69q0 48 29 71t63 23q48 0 70 -29t22 -65q0 -35 -23 -65.5t-69 -30.5zM860 1484h-480v108h480v-108zM774 1216q-37 0 -64.5 27t-27.5 69q0 48 29 71t63 23t63 -23t29 -71q0 -42 -27.5 -69t-64.5 -27z
" />
    <glyph glyph-name="uni022C" unicode="&#x22c;" horiz-adv-x="1626" 
d="M822 -12h-16q-306 0 -516 210q-105 105 -157.5 229t-52.5 275q0 298 213 504t529 206q304 0 514 -208t210 -494v-16q0 -298 -214 -502t-510 -204zM814 134q234 0 401 165t167 403q0 232 -166 397t-402 165t-404 -163t-168 -399q0 -238 170 -403t402 -165zM956 1530
q-70 4 -150 52t-118 48q-74 0 -76 -94h-94q0 202 156 202q70 -4 150 -52t118 -48q76 0 76 92h92q0 -86 -36 -143t-118 -57zM1056 1808h-480v108h480v-108z" />
    <glyph glyph-name="uni022D" unicode="&#x22d;" horiz-adv-x="1236" 
d="M618 -6q-238 0 -386 148t-148 386q0 242 152 386t382 144q101 0 196.5 -32t171.5 -97.5t121 -165t45 -235.5q0 -170 -73 -289q-84 -130 -206.5 -187.5t-254.5 -57.5zM618 130q93 0 180 40t145 131q53 87 53 225q0 164 -100 279t-278 115t-278 -115t-100 -279
q0 -136 52.5 -223t138 -130t187.5 -43zM760 1212q-70 4 -150 52t-118 48q-74 0 -76 -94h-94q0 202 156 202q70 -4 150 -52t118 -48q76 0 76 92h92q0 -86 -36 -143t-118 -57zM860 1490h-480v108h480v-108z" />
    <glyph glyph-name="uni022E" unicode="&#x22e;" horiz-adv-x="1626" 
d="M822 -12h-16q-306 0 -516 210q-105 105 -157.5 229t-52.5 275q0 298 213 504t529 206q304 0 514 -208t210 -494v-16q0 -298 -214 -502t-510 -204zM814 134q234 0 401 165t167 403q0 232 -166 397t-402 165t-404 -163t-168 -399q0 -238 170 -403t402 -165zM814 1530
q-51 0 -76.5 33.5t-25.5 72.5q0 46 29 76t73 30t73 -30t29 -76q0 -39 -25.5 -72.5t-76.5 -33.5z" />
    <glyph glyph-name="uni022F" unicode="&#x22f;" horiz-adv-x="1236" 
d="M618 -6q-238 0 -386 148t-148 386q0 242 152 386t382 144q101 0 196.5 -32t171.5 -97.5t121 -165t45 -235.5q0 -170 -73 -289q-84 -130 -206.5 -187.5t-254.5 -57.5zM618 130q93 0 180 40t145 131q53 87 53 225q0 164 -100 279t-278 115t-278 -115t-100 -279
q0 -136 52.5 -223t138 -130t187.5 -43zM618 1248q-51 0 -76.5 33.5t-25.5 72.5q0 44 27.5 76t74.5 32t74.5 -32t27.5 -76q0 -39 -25.5 -72.5t-76.5 -33.5z" />
    <glyph glyph-name="uni0230" unicode="&#x230;" horiz-adv-x="1626" 
d="M822 -12h-16q-306 0 -516 210q-105 105 -157.5 229t-52.5 275q0 298 213 504t529 206q304 0 514 -208t210 -494v-16q0 -298 -214 -502t-510 -204zM814 134q234 0 401 165t167 403q0 232 -166 397t-402 165t-404 -163t-168 -399q0 -238 170 -403t402 -165zM1124 1888h-622
v106h622v-106zM814 1530q-51 0 -76.5 33.5t-25.5 72.5q0 46 29 76t73 30t73 -30t29 -76q0 -39 -25.5 -72.5t-76.5 -33.5z" />
    <glyph glyph-name="uni0231" unicode="&#x231;" horiz-adv-x="1236" 
d="M618 -6q-238 0 -386 148t-148 386q0 242 152 386t382 144q101 0 196.5 -32t171.5 -97.5t121 -165t45 -235.5q0 -170 -73 -289q-84 -130 -206.5 -187.5t-254.5 -57.5zM618 130q93 0 180 40t145 131q53 87 53 225q0 164 -100 279t-278 115t-278 -115t-100 -279
q0 -136 52.5 -223t138 -130t187.5 -43zM856 1484h-480v108h480v-108zM614 1216q-34 0 -65 26t-31 74q0 51 30.5 76.5t65.5 25.5q42 0 70 -29t28 -73q0 -38 -24 -69t-74 -31z" />
    <glyph glyph-name="uni0232" unicode="&#x232;" horiz-adv-x="1250" 
d="M708 0h-158v482l-542 918h166l454 -734l448 734h164l-532 -914v-486zM934 1546h-622v106h622v-106z" />
    <glyph glyph-name="uni0233" unicode="&#x233;" horiz-adv-x="1004" 
d="M210 -394q-130 0 -222 76l66 124q68 -50 148 -50q124 0 192 152l44 100l-436 1044h164l350 -876l334 876h160l-484 -1202q-106 -244 -316 -244zM786 1300h-560v106h560v-106z" />
    <glyph glyph-name="uni0237" unicode="&#x237;" horiz-adv-x="506" 
d="M52 -392q-96 4 -168 34l38 122q42 -18 100 -22q162 2 162 226v1084h156v-1106q0 -330 -288 -338z" />
    <glyph glyph-name="uni0259" unicode="&#x259;" horiz-adv-x="1176" 
d="M570 -6q-172 0 -281 70q-113 75 -163 199t-50 275l2 46h860q-22 154 -118 249t-264 95q-194 0 -326 -134l-86 90q160 174 424 174q144 0 263 -61.5t190 -180t71 -290.5q0 -176 -68 -291q-74 -120 -191.5 -178t-262.5 -63zM570 124q166 0 257 93t111 243h-720
q10 -148 96 -242t256 -94z" />
    <glyph glyph-name="uni02BB" unicode="&#x2bb;" horiz-adv-x="350" 
d="M250 1020l-150 34l42 346h108v-380z" />
    <glyph glyph-name="uni02BC" unicode="&#x2bc;" horiz-adv-x="256" 
d="M170 880h-104l4 520h124z" />
    <glyph glyph-name="uni02BE" unicode="&#x2be;" horiz-adv-x="506" 
d="M132 1130v80q60 0 108 39.5t48 106.5q0 56 -42.5 102t-113.5 46v80q104 0 168 -70t64 -158q0 -90 -64 -158t-168 -68z" />
    <glyph glyph-name="uni02BF" unicode="&#x2bf;" horiz-adv-x="504" 
d="M370 1130q-100 0 -165 68t-65 158q0 70 32.5 121t85 79t112.5 28v-80q-58 0 -106 -40.5t-48 -107.5q0 -47 24 -79.5t59.5 -49.5t70.5 -17v-80z" />
    <glyph glyph-name="circumflex" unicode="&#x2c6;" horiz-adv-x="636" 
d="M608 1236h-156l-134 146l-134 -146h-156l206 258h168z" />
    <glyph glyph-name="caron" unicode="&#x2c7;" horiz-adv-x="636" 
d="M366 1236h-168l-206 258h156l134 -146l134 146h156z" />
    <glyph glyph-name="uni02C8" unicode="&#x2c8;" horiz-adv-x="182" 
d="M150 1046h-118v354h118v-354z" />
    <glyph glyph-name="uni02C9" unicode="&#x2c9;" horiz-adv-x="700" 
d="M630 1300h-560v106h560v-106z" />
    <glyph glyph-name="uni02CA" unicode="&#x2ca;" horiz-adv-x="700" 
d="M314 1230l-136 16l226 254l160 -72z" />
    <glyph glyph-name="uni02CB" unicode="&#x2cb;" horiz-adv-x="700" 
d="M350 1230l-250 198l160 72l226 -254z" />
    <glyph glyph-name="uni02CC" unicode="&#x2cc;" horiz-adv-x="180" 
d="M148 -414h-116v352h116v-352z" />
    <glyph glyph-name="breve" unicode="&#x2d8;" horiz-adv-x="622" 
d="M312 1224q-100 0 -171 65t-83 193h110q20 -146 144 -146q122 0 142 146h112q-12 -128 -83 -193t-171 -65z" />
    <glyph glyph-name="dotaccent" unicode="&#x2d9;" horiz-adv-x="500" 
d="M250 1248q-51 0 -76.5 33.5t-25.5 72.5q0 44 27.5 76t74.5 32t74.5 -32t27.5 -76q0 -39 -25.5 -72.5t-76.5 -33.5z" />
    <glyph glyph-name="ring" unicode="&#x2da;" horiz-adv-x="864" 
d="M350 1160q-82 0 -143 56t-61 148q0 80 56 141t148 61q90 0 146 -62q60 -60 60 -140q0 -62 -29.5 -108t-76.5 -71t-100 -25zM350 1250q47 0 83.5 32.5t36.5 81.5q0 54 -38 83t-82 29t-82 -29t-38 -83q0 -49 36.5 -81.5t83.5 -32.5z" />
    <glyph glyph-name="ogonek" unicode="&#x2db;" horiz-adv-x="520" 
d="M240 -432q-78 0 -132 40t-54 130q0 170 250 320l96 -58q-202 -136 -202 -236q0 -72 72 -72q42 0 86 24l42 -106q-86 -42 -158 -42z" />
    <glyph glyph-name="tilde" unicode="&#x2dc;" horiz-adv-x="714" 
d="M498 1224q-74 0 -158 64q-66 46 -100 46q-72 0 -72 -102h-110q0 228 158 228q74 0 158 -64q66 -46 100 -46q72 0 72 102h110q0 -228 -158 -228z" />
    <glyph glyph-name="hungarumlaut" unicode="&#x2dd;" horiz-adv-x="914" 
d="M284 1230l-120 14l172 264l132 -66zM578 1230l-120 14l172 264l132 -66z" />
    <glyph glyph-name="gravecomb" unicode="&#x300;" 
d="M-250 1230l-250 198l160 72l226 -254z" />
    <glyph glyph-name="acutecomb" unicode="&#x301;" 
d="M-290 1230l-136 16l226 254l160 -72z" />
    <glyph glyph-name="uni0302" unicode="&#x302;" 
d="M-28 1236h-156l-134 146l-134 -146h-156l206 258h168z" />
    <glyph glyph-name="tildecomb" unicode="&#x303;" 
d="M-216 1224q-74 0 -158 64q-66 46 -100 46q-72 0 -72 -102h-110q0 228 158 228q74 0 158 -64q66 -46 100 -46q72 0 72 102h110q0 -228 -158 -228z" />
    <glyph glyph-name="uni0304" unicode="&#x304;" 
d="M0 1300h-560v106h560v-106z" />
    <glyph glyph-name="uni0306" unicode="&#x306;" 
d="M-310 1224q-100 0 -171 65t-83 193h110q20 -146 144 -146q122 0 142 146h112q-12 -128 -83 -193t-171 -65z" />
    <glyph glyph-name="uni0307" unicode="&#x307;" 
d="M-202 1248q-51 0 -76.5 33.5t-25.5 72.5q0 44 27.5 76t74.5 32t74.5 -32t27.5 -76q0 -39 -25.5 -72.5t-76.5 -33.5z" />
    <glyph glyph-name="uni0308" unicode="&#x308;" 
d="M-528 1256q-37 0 -64.5 27t-27.5 69q0 52 29 75t63 23t64 -23t30 -75q0 -36 -23 -66t-71 -30zM-192 1256q-48 0 -71 30t-23 66q0 52 30 75t64 23t64 -23t30 -75q0 -36 -23 -66t-71 -30z" />
    <glyph glyph-name="hookabovecomb" unicode="&#x309;" 
d="M-198 1160l-92 42q92 80 92 164q0 26 -17 47t-59 21q-38 0 -84 -28l-52 86q82 54 166 54q76 0 128 -36t52 -120q0 -110 -134 -230z" />
    <glyph glyph-name="uni030A" unicode="&#x30a;" 
d="M-350 1160q-82 0 -143 56t-61 148q0 80 56 141t148 61q62 0 108.5 -28.5t72 -74.5t25.5 -99q0 -62 -29.5 -108t-76.5 -71t-100 -25zM-350 1250q47 0 83.5 32.5t36.5 81.5q0 54 -38 83t-82 29t-82 -29t-38 -83q0 -49 36.5 -81.5t83.5 -32.5z" />
    <glyph glyph-name="uni030B" unicode="&#x30b;" 
d="M-576 1230l-120 14l172 264l132 -66zM-282 1230l-120 14l172 264l132 -66z" />
    <glyph glyph-name="uni030C" unicode="&#x30c;" 
d="M-256 1236h-168l-206 258h156l134 -146l134 146h156z" />
    <glyph glyph-name="uni030F" unicode="&#x30f;" 
d="M-524 1230l-186 212l134 66l172 -264zM-230 1230l-186 212l134 66l172 -264z" />
    <glyph glyph-name="uni0311" unicode="&#x311;" 
d="M-56 1224h-112q-20 146 -142 146q-124 0 -144 -146h-110q12 128 83 193t171 65t171 -65t83 -193z" />
    <glyph glyph-name="uni0312" unicode="&#x312;" 
d="M-152 1226h-146l104 314h116z" />
    <glyph glyph-name="uni031B" unicode="&#x31b;" 
d="M-320 948v104q134 0 134 106q0 48 -30 108l122 46q34 -84 34 -148t-45 -140t-215 -76z" />
    <glyph glyph-name="dotbelowcomb" unicode="&#x323;" 
d="M-202 -362q-51 0 -76.5 33.5t-25.5 72.5q0 44 27.5 76t74.5 32t74.5 -32t27.5 -76q0 -39 -25.5 -72.5t-76.5 -33.5z" />
    <glyph glyph-name="uni0324" unicode="&#x324;" 
d="M-504 -340q-37 0 -64.5 27t-27.5 69q0 52 29 75t63 23t64 -23t30 -75q0 -36 -23 -66t-71 -30zM-168 -340q-48 0 -71 30t-23 66q0 52 30 75t64 23t64 -23t30 -75q0 -36 -23 -66t-71 -30z" />
    <glyph glyph-name="uni0325" unicode="&#x325;" 
d="M-382 -516q-82 0 -143 56t-61 148q0 80 56 141t148 61q62 0 108.5 -28.5t72 -74.5t25.5 -99q0 -62 -29.5 -108t-76.5 -71t-100 -25zM-382 -426q47 0 83.5 32.5t36.5 81.5q0 54 -38 83t-82 29t-82 -29t-38 -83q0 -49 36.5 -81.5t83.5 -32.5zM-176 -110z" />
    <glyph glyph-name="uni0326" unicode="&#x326;" 
d="M-204 -434h-116l74 314h146z" />
    <glyph glyph-name="uni0327" unicode="&#x327;" 
d="M-290 -432q-92 0 -176 42l36 100q54 -30 122 -30q56 0 80 24t24 50t-24.5 48t-81.5 22h-62l58 190l108 -14l-36 -106q86 -14 124 -57t38 -97q0 -86 -61 -129t-149 -43z" />
    <glyph glyph-name="uni0328" unicode="&#x328;" 
d="M-222 -432q-78 0 -132 40t-54 130q0 170 250 320l96 -58q-202 -136 -202 -236q0 -72 72 -72q40 0 86 24l42 -106q-86 -42 -158 -42z" />
    <glyph glyph-name="uni032D" unicode="&#x32d;" 
d="M-162 -408h-156l-134 146l-134 -146h-156l206 258h168zM-162 -150z" />
    <glyph glyph-name="uni032E" unicode="&#x32e;" 
d="M-310 -358q-100 0 -171 65t-83 193h110q20 -146 144 -146q122 0 142 146h112q-12 -128 -83 -193t-171 -65z" />
    <glyph glyph-name="uni0330" unicode="&#x330;" 
d="M-302 -396q-74 0 -158 64q-66 46 -100 46q-72 0 -72 -102h-110q0 228 158 228q74 0 158 -64q66 -46 100 -46q72 0 72 102h110q0 -228 -158 -228zM-144 -160z" />
    <glyph glyph-name="uni0331" unicode="&#x331;" 
d="M-60 -274h-560v106h560v-106z" />
    <glyph glyph-name="uni0335" unicode="&#x335;" 
d="M-12 832h-640v100h640v-100z" />
    <glyph glyph-name="uni0336" unicode="&#x336;" 
d="M-212 832h-784v100h784v-100z" />
    <glyph glyph-name="uni0337" unicode="&#x337;" 
d="M-382 174h-136l314 944h136z" />
    <glyph glyph-name="uni0338" unicode="&#x338;" 
d="M-438 0h-136l492 1484h136z" />
    <glyph glyph-name="uni0394" unicode="&#x394;" horiz-adv-x="1436" 
d="M1428 0h-1420l628 1400h166zM1196 130l-482 1096l-480 -1096h962z" />
    <glyph glyph-name="uni03A9" unicode="&#x3a9;" horiz-adv-x="1798" 
d="M1778 0h-644v148q180 110 260 262t80 298q0 234 -159 394q-151 160 -425 160q-260 0 -412 -165t-152 -387q0 -158 84 -307t256 -257v-146h-644v138h462q-86 67 -154 157.5t-108 200.5t-40 234q0 292 205 484t513 192q310 0 514 -192t204 -484q0 -145 -74.5 -303.5
t-229.5 -288.5h464v-138z" />
    <glyph glyph-name="uni03BC" unicode="&#x3bc;" horiz-adv-x="1338" 
d="M356 -388h-156v742q-2 16 -2 698h158v-650q40 -258 290 -258q182 16 264 126t82 266v516h156v-1052h-156v238q-112 -244 -400 -244q-138 0 -236 64v-446z" />
    <glyph glyph-name="pi" unicode="&#x3c0;" horiz-adv-x="1444" 
d="M1106 0h-134v928h-368l-106 -928h-132l104 928h-128q-92 0 -160 -52t-68 -148q2 -80 58 -162l-110 -48q-68 106 -74 234q6 132 94 216t244 84h1102l-2 -124h-320v-928z" />
    <glyph glyph-name="uni1E00" unicode="&#x1e00;" horiz-adv-x="1436" 
d="M1428 0h-174l-158 358h-762l-156 -358h-170l628 1400h166zM8 0zM1032 506l-318 720l-314 -720h632zM716 -516q-82 0 -143 56t-61 148q0 80 56 141t148 61q62 0 108.5 -28.5t72 -74.5t25.5 -99q0 -62 -29.5 -108t-76.5 -71t-100 -25zM716 -426q47 0 83.5 32.5t36.5 81.5
q0 54 -38 83t-82 29t-82 -29t-38 -83q0 -49 36.5 -81.5t83.5 -32.5zM922 -110z" />
    <glyph glyph-name="uni1E01" unicode="&#x1e01;" horiz-adv-x="1154" 
d="M100 0zM458 -6q-123 0 -201.5 44t-117.5 117t-39 157q0 126 95 210t299 92h346v66q0 110 -67 179t-215 69q-176 0 -334 -122l-66 110q204 142 430 142q214 0 310 -100t96 -262l2 -696h-152v164q-134 -170 -386 -170zM488 124q124 0 219 57t135 181v128h-328
q-264 0 -268 -172q0 -80 61 -137t181 -57zM546 -516q-82 0 -143 56t-61 148q0 80 56 141t148 61q62 0 108.5 -28.5t72 -74.5t25.5 -99q0 -62 -29.5 -108t-76.5 -71t-100 -25zM546 -426q47 0 83.5 32.5t36.5 81.5q0 54 -38 83t-82 29t-82 -29t-38 -83q0 -49 36.5 -81.5
t83.5 -32.5zM752 -110z" />
    <glyph glyph-name="uni1E02" unicode="&#x1e02;" horiz-adv-x="1432" 
d="M810 0h-598v1400h590q200 0 319 -78q135 -88 135 -272q0 -110 -62 -195.5t-198 -120.5q164 -32 242 -126t78 -228q0 -190 -141 -285t-365 -95zM212 0zM794 148q158 0 259 60t101 192q0 128 -102 187t-258 59h-422v-498h422zM794 794q288 0 298 232q0 216 -298 226h-422
v-458h422zM732 1530q-51 0 -76.5 33.5t-25.5 72.5q0 46 29 76t73 30t73 -30t29 -76q0 -39 -25.5 -72.5t-76.5 -33.5z" />
    <glyph glyph-name="uni1E03" unicode="&#x1e03;" horiz-adv-x="1352" 
d="M766 -6q-280 0 -410 232v-226h-156v1484h156v-658q130 232 406 232q224 0 365 -149t141 -385q0 -107 -31.5 -203t-94 -169.5t-156.5 -115.5t-220 -42zM200 0zM734 132q126 0 210 57q86 60 126 151t40 188q0 75 -22 146t-68 127t-117 89.5t-169 33.5q-180 0 -279 -115
t-99 -281t101 -281t277 -115zM812 1182q-51 0 -76.5 33.5t-25.5 72.5q0 46 29 76t73 30t73 -30t29 -76q0 -39 -25.5 -72.5t-76.5 -33.5z" />
    <glyph glyph-name="uni1E04" unicode="&#x1e04;" horiz-adv-x="1432" 
d="M810 0h-598v1400h590q200 0 319 -78q135 -88 135 -272q0 -110 -62 -195.5t-198 -120.5q164 -32 242 -126t78 -228q0 -190 -141 -285t-365 -95zM212 0zM794 148q158 0 259 60t101 192q0 128 -102 187t-258 59h-422v-498h422zM794 794q288 0 298 232q0 216 -298 226h-422
v-458h422zM760 -362q-51 0 -76.5 33.5t-25.5 72.5q0 44 27.5 76t74.5 32t74.5 -32t27.5 -76q0 -39 -25.5 -72.5t-76.5 -33.5z" />
    <glyph glyph-name="uni1E05" unicode="&#x1e05;" horiz-adv-x="1352" 
d="M766 -6q-280 0 -410 232v-226h-156v1484h156v-658q130 232 406 232q224 0 365 -149t141 -385q0 -107 -31.5 -203t-94 -169.5t-156.5 -115.5t-220 -42zM200 0zM734 132q126 0 210 57q86 60 126 151t40 188q0 75 -22 146t-68 127t-117 89.5t-169 33.5q-180 0 -279 -115
t-99 -281t101 -281t277 -115zM734 -362q-51 0 -76.5 33.5t-25.5 72.5q0 44 27.5 76t74.5 32t74.5 -32t27.5 -76q0 -39 -25.5 -72.5t-76.5 -33.5z" />
    <glyph glyph-name="uni1E06" unicode="&#x1e06;" horiz-adv-x="1432" 
d="M810 0h-598v1400h590q200 0 319 -78q135 -88 135 -272q0 -110 -62 -195.5t-198 -120.5q164 -32 242 -126t78 -228q0 -190 -141 -285t-365 -95zM212 0zM794 148q158 0 259 60t101 192q0 128 -102 187t-258 59h-422v-498h422zM794 794q288 0 298 232q0 216 -298 226h-422
v-458h422zM1040 -274h-560v106h560v-106z" />
    <glyph glyph-name="uni1E07" unicode="&#x1e07;" horiz-adv-x="1352" 
d="M766 -6q-280 0 -410 232v-226h-156v1484h156v-658q130 232 406 232q224 0 365 -149t141 -385q0 -107 -31.5 -203t-94 -169.5t-156.5 -115.5t-220 -42zM200 0zM734 132q126 0 210 57q86 60 126 151t40 188q0 75 -22 146t-68 127t-117 89.5t-169 33.5q-180 0 -279 -115
t-99 -281t101 -281t277 -115zM1014 -274h-560v106h560v-106z" />
    <glyph glyph-name="uni1E08" unicode="&#x1e08;" horiz-adv-x="1400" 
d="M768 -432q-92 0 -176 42l36 100q54 -30 122 -30q56 0 80 24t24 50t-24.5 48t-81.5 22h-62l50 166q-137 18 -255.5 73t-208.5 145.5t-141 214t-51 279.5q0 304 214 507t516 203q288 0 512 -206l-96 -116q-182 176 -414 176q-242 0 -406 -164t-164 -400q0 -238 168 -401
t402 -163q232 0 414 170l98 -106q-204 -192 -476 -212l-32 -96q86 -14 124 -57t38 -97q0 -86 -61 -129t-149 -43zM792 1530l-136 16l226 254l160 -72z" />
    <glyph glyph-name="uni1E09" unicode="&#x1e09;" horiz-adv-x="1122" 
d="M564 -432q-92 0 -176 42l36 100q54 -30 122 -30q56 0 80 24t24 50t-24.5 48t-81.5 22h-62l54 174q-193 22 -315 146q-137 138 -137 382q0 116 33 207t91.5 156.5t135.5 105.5q118 63 262 63q256 0 406 -156l-86 -108q-124 124 -314 124q-160 0 -267 -104t-107 -288
q0 -188 111 -291t263 -103q208 0 326 136l90 -92q-132 -164 -382 -180l-34 -102q86 -14 124 -57t38 -97q0 -86 -61 -129t-149 -43zM606 1264l-136 16l226 254l160 -72z" />
    <glyph glyph-name="uni1E0A" unicode="&#x1e0a;" horiz-adv-x="1578" 
d="M772 0h-560v1400h566q304 0 512 -202t208 -498q0 -298 -207 -499t-519 -201zM212 0zM780 148q228 0 392 153t164 397q0 250 -167 402t-395 152h-402v-1104h408zM792 1530q-51 0 -76.5 33.5t-25.5 72.5q0 46 29 76t73 30t73 -30t29 -76q0 -39 -25.5 -72.5t-76.5 -33.5z
" />
    <glyph glyph-name="uni1E0B" unicode="&#x1e0b;" horiz-adv-x="1358" 
d="M84 0zM592 -8q-224 0 -366 145t-142 391t144 389t362 143q284 0 412 -236v660h156v-1484h-156v226q-130 -234 -410 -234zM622 126q166 0 273 112t107 286q0 166 -103 283t-277 117q-178 0 -280 -118t-102 -282q0 -168 102 -283t280 -115zM544 1182q-51 0 -76.5 33.5
t-25.5 72.5q0 46 29 76t73 30t73 -30t29 -76q0 -39 -25.5 -72.5t-76.5 -33.5z" />
    <glyph glyph-name="uni1E0C" unicode="&#x1e0c;" horiz-adv-x="1578" 
d="M772 0h-560v1400h566q304 0 512 -202t208 -498q0 -298 -207 -499t-519 -201zM780 148q228 0 392 153t164 397q0 250 -167 402t-395 152h-402v-1104h408zM770 -362q-51 0 -76.5 33.5t-25.5 72.5q0 44 27.5 76t74.5 32t74.5 -32t27.5 -76q0 -39 -25.5 -72.5t-76.5 -33.5z
" />
    <glyph glyph-name="uni1E0D" unicode="&#x1e0d;" horiz-adv-x="1358" 
d="M592 -8q-224 0 -366 145t-142 391t144 389t362 143q284 0 412 -236v660h156v-1484h-156v226q-130 -234 -410 -234zM622 126q166 0 273 112t107 286q0 166 -103 283t-277 117q-178 0 -280 -118t-102 -282q0 -168 102 -283t280 -115zM694 -362q-51 0 -76.5 33.5t-25.5 72.5
q0 44 27.5 76t74.5 32t74.5 -32t27.5 -76q0 -39 -25.5 -72.5t-76.5 -33.5z" />
    <glyph glyph-name="uni1E0E" unicode="&#x1e0e;" horiz-adv-x="1578" 
d="M772 0h-560v1400h566q304 0 512 -202t208 -498q0 -298 -207 -499t-519 -201zM780 148q228 0 392 153t164 397q0 250 -167 402t-395 152h-402v-1104h408zM1048 -274h-560v106h560v-106z" />
    <glyph glyph-name="uni1E0F" unicode="&#x1e0f;" horiz-adv-x="1358" 
d="M592 -8q-224 0 -366 145t-142 391t144 389t362 143q284 0 412 -236v660h156v-1484h-156v226q-130 -234 -410 -234zM622 126q166 0 273 112t107 286q0 166 -103 283t-277 117q-178 0 -280 -118t-102 -282q0 -168 102 -283t280 -115zM972 -274h-560v106h560v-106z" />
    <glyph glyph-name="uni1E10" unicode="&#x1e10;" horiz-adv-x="1578" 
d="M772 0h-560v1400h566q304 0 512 -202t208 -498q0 -298 -207 -499t-519 -201zM780 148q228 0 392 153t164 397q0 250 -167 402t-395 152h-402v-1104h408zM820 -434h-116l74 314h146z" />
    <glyph glyph-name="uni1E11" unicode="&#x1e11;" horiz-adv-x="1358" 
d="M84 0zM592 -8q-224 0 -366 145t-142 391t144 389t362 143q284 0 412 -236v660h156v-1484h-156v226q-130 -234 -410 -234zM622 126q166 0 273 112t107 286q0 166 -103 283t-277 117q-178 0 -280 -118t-102 -282q0 -168 102 -283t280 -115zM614 -434h-116l74 314h146z" />
    <glyph glyph-name="uni1E12" unicode="&#x1e12;" horiz-adv-x="1578" 
d="M772 0h-560v1400h566q304 0 512 -202t208 -498q0 -298 -207 -499t-519 -201zM212 0zM780 148q228 0 392 153t164 397q0 250 -167 402t-395 152h-402v-1104h408zM1082 -408h-156l-134 146l-134 -146h-156l206 258h168zM1082 -150z" />
    <glyph glyph-name="uni1E13" unicode="&#x1e13;" horiz-adv-x="1358" 
d="M84 0zM592 -8q-224 0 -366 145t-142 391t144 389t362 143q284 0 412 -236v660h156v-1484h-156v226q-130 -234 -410 -234zM622 126q166 0 273 112t107 286q0 166 -103 283t-277 117q-178 0 -280 -118t-102 -282q0 -168 102 -283t280 -115zM912 -408h-156l-134 146
l-134 -146h-156l206 258h168zM912 -150z" />
    <glyph glyph-name="uni1E14" unicode="&#x1e14;" horiz-adv-x="1302" 
d="M1188 0h-976v1400h950v-148h-790v-470h706v-146h-706v-488h816v-148zM722 1744l-280 152l132 92l270 -206zM962 1538h-480v108h480v-108z" />
    <glyph glyph-name="uni1E15" unicode="&#x1e15;" horiz-adv-x="1176" 
d="M608 -6q-144 0 -263 61.5t-190 180t-71 290.5q0 176 69 291q73 120 190.5 178t262.5 63q172 0 281 -70q113 -75 163 -199t50 -275l-2 -46h-860q22 -154 118 -249t264 -95q198 0 326 134l86 -90q-160 -174 -424 -174zM958 592q-10 148 -96 242t-256 94q-166 0 -257 -93
t-111 -243h720zM594 1424l-280 152l132 92l270 -206zM834 1218h-480v108h480v-108z" />
    <glyph glyph-name="uni1E16" unicode="&#x1e16;" horiz-adv-x="1302" 
d="M1188 0h-976v1400h950v-148h-790v-470h706v-146h-706v-488h816v-148zM926 1538h-480v108h480v-108zM674 1744l-122 38l270 206l132 -92z" />
    <glyph glyph-name="uni1E17" unicode="&#x1e17;" horiz-adv-x="1176" 
d="M608 -6q-144 0 -263 61.5t-190 180t-71 290.5q0 176 69 291q73 120 190.5 178t262.5 63q172 0 281 -70q113 -75 163 -199t50 -275l-2 -46h-860q22 -154 118 -249t264 -95q198 0 326 134l86 -90q-160 -174 -424 -174zM958 592q-10 148 -96 242t-256 94q-166 0 -257 -93
t-111 -243h720zM842 1218h-480v108h480v-108zM590 1424l-122 38l270 206l132 -92z" />
    <glyph glyph-name="uni1E18" unicode="&#x1e18;" horiz-adv-x="1302" 
d="M1188 0h-976v1400h950v-148h-790v-470h706v-146h-706v-488h816v-148zM212 0zM990 -408h-156l-134 146l-134 -146h-156l206 258h168zM990 -150z" />
    <glyph glyph-name="uni1E19" unicode="&#x1e19;" horiz-adv-x="1176" 
d="M84 0zM608 -6q-144 0 -263 61.5t-190 180t-71 290.5q0 176 69 291q73 120 190.5 178t262.5 63q172 0 281 -70q113 -75 163 -199t50 -275l-2 -46h-860q22 -154 118 -249t264 -95q198 0 326 134l86 -90q-160 -174 -424 -174zM958 592q-10 148 -96 242t-256 94
q-166 0 -257 -93t-111 -243h720zM882 -408h-156l-134 146l-134 -146h-156l206 258h168zM882 -150z" />
    <glyph glyph-name="uni1E1A" unicode="&#x1e1a;" horiz-adv-x="1302" 
d="M1188 0h-976v1400h950v-148h-790v-470h706v-146h-706v-488h816v-148zM212 0zM840 -396q-74 0 -158 64q-66 46 -100 46q-72 0 -72 -102h-110q0 228 158 228q74 0 158 -64q66 -46 100 -46q72 0 72 102h110q0 -228 -158 -228zM998 -160z" />
    <glyph glyph-name="uni1E1B" unicode="&#x1e1b;" horiz-adv-x="1176" 
d="M84 0zM608 -6q-144 0 -263 61.5t-190 180t-71 290.5q0 176 69 291q73 120 190.5 178t262.5 63q172 0 281 -70q113 -75 163 -199t50 -275l-2 -46h-860q22 -154 118 -249t264 -95q198 0 326 134l86 -90q-160 -174 -424 -174zM958 592q-10 148 -96 242t-256 94
q-166 0 -257 -93t-111 -243h720zM732 -396q-74 0 -158 64q-66 46 -100 46q-72 0 -72 -102h-110q0 228 158 228q74 0 158 -64q66 -46 100 -46q72 0 72 102h110q0 -228 -158 -228zM890 -160z" />
    <glyph glyph-name="uni1E1C" unicode="&#x1e1c;" horiz-adv-x="1302" 
d="M692 -432q-92 0 -176 42l36 100q54 -30 122 -30q56 0 80 24t24 50t-24.5 48t-81.5 22h-62l54 176h-452v1400h950v-148h-790v-470h706v-146h-706v-488h816v-148h-412l-36 -106q86 -14 124 -57t38 -97q0 -86 -61 -129t-149 -43zM674 1528q-100 0 -171 65t-83 193h110
q20 -146 144 -146q122 0 142 146h112q-12 -128 -83 -193t-171 -65z" />
    <glyph glyph-name="uni1E1D" unicode="&#x1e1d;" horiz-adv-x="1176" 
d="M582 -432q-92 0 -176 42l36 100q50 -30 122 -30q56 0 80 24t24 50t-24.5 48t-81.5 22h-62l52 172q-204 24 -336 160t-132 370q0 176 69 291q73 120 190.5 178t262.5 63q172 0 281 -70q113 -75 163 -199t50 -275l-2 -46h-860q22 -154 118 -249t264 -95q198 0 326 134
l86 -90q-140 -152 -368 -172l-34 -102q86 -14 124 -57t38 -97q0 -86 -61 -129t-149 -43zM958 592q-10 148 -96 242t-256 94q-166 0 -257 -93t-111 -243h720zM582 1258q-100 0 -171 65t-83 193h110q20 -146 144 -146q122 0 142 146h112q-12 -128 -83 -193t-171 -65z" />
    <glyph glyph-name="uni1E1E" unicode="&#x1e1e;" horiz-adv-x="1126" 
d="M372 0h-160v1400h890v-148h-730v-502h654v-146h-654v-604zM212 0zM658 1530q-51 0 -76.5 33.5t-25.5 72.5q0 46 29 76t73 30t73 -30t29 -76q0 -39 -25.5 -72.5t-76.5 -33.5z" />
    <glyph glyph-name="uni1E1F" unicode="&#x1e1f;" horiz-adv-x="664" 
d="M86 0zM376 0h-154v898h-136v122h136v126q0 121 48 198q52 80 129 117t161 37q94 -4 178 -48l-38 -130q-62 38 -138 38t-131 -47t-55 -147v-144h302v-122h-302v-898zM556 1628q-51 0 -76.5 33.5t-25.5 72.5q0 46 29 76t73 30t73 -30t29 -76q0 -39 -25.5 -72.5t-76.5 -33.5
z" />
    <glyph glyph-name="uni1E20" unicode="&#x1e20;" horiz-adv-x="1506" 
d="M810 -6q-314 0 -522 208t-208 490v16q0 294 214 495t524 201q292 0 516 -192l-92 -116q-190 162 -424 162q-242 0 -409 -163t-167 -395q0 -230 168 -398q170 -162 410 -162q190 0 368 118l-2 368h-378v148h522v-598q-234 -182 -520 -182zM1018 1546h-622v106h622v-106z
" />
    <glyph glyph-name="uni1E21" unicode="&#x1e21;" horiz-adv-x="1272" 
d="M578 -392q-232 0 -432 154l72 114q154 -134 354 -134q160 0 270 91t110 273v160q-120 -220 -388 -220q-208 0 -344 137t-136 371t130 363t346 141q274 -4 392 -220v214h156v-942q0 -168 -70 -279q-76 -117 -197 -170t-263 -53zM592 174q174 0 267 112t93 264
q0 164 -100 271t-260 107q-172 0 -264 -105t-98 -273q6 -164 98 -270t264 -106zM884 1300h-560v106h560v-106z" />
    <glyph glyph-name="uni1E22" unicode="&#x1e22;" horiz-adv-x="1588" 
d="M1376 0h-160v620h-844v-620h-160v1400h160v-634h844v634h160v-1400zM212 0zM794 1530q-51 0 -76.5 33.5t-25.5 72.5q0 46 29 76t73 30t73 -30t29 -76q0 -39 -25.5 -72.5t-76.5 -33.5z" />
    <glyph glyph-name="uni1E23" unicode="&#x1e23;" horiz-adv-x="1324" 
d="M176 0zM278 1614q-51 0 -76.5 33.5t-25.5 72.5q0 46 29 76t73 30t73 -30t29 -76q0 -39 -25.5 -72.5t-76.5 -33.5zM1166 0h-156v608q0 152 -84 226t-214 74q-184 -12 -270 -124t-86 -268v-516h-156v1484h156v-668q114 242 410 242q142 0 230 -53t129 -146t41 -211v-648z
" />
    <glyph glyph-name="uni1E24" unicode="&#x1e24;" horiz-adv-x="1588" 
d="M1376 0h-160v620h-844v-620h-160v1400h160v-634h844v634h160v-1400zM794 -362q-51 0 -76.5 33.5t-25.5 72.5q0 44 27.5 76t74.5 32t74.5 -32t27.5 -76q0 -39 -25.5 -72.5t-76.5 -33.5z" />
    <glyph glyph-name="uni1E25" unicode="&#x1e25;" horiz-adv-x="1324" 
d="M1166 0h-156v608q0 152 -84 226t-214 74q-184 -12 -270 -124t-86 -268v-516h-156v1484h156v-668q114 242 410 242q142 0 230 -53t129 -146t41 -211v-648zM684 -362q-51 0 -76.5 33.5t-25.5 72.5q0 44 27.5 76t74.5 32t74.5 -32t27.5 -76q0 -39 -25.5 -72.5t-76.5 -33.5z
" />
    <glyph glyph-name="uni1E26" unicode="&#x1e26;" horiz-adv-x="1588" 
d="M1376 0h-160v620h-844v-620h-160v1400h160v-634h844v634h160v-1400zM212 0zM626 1530q-46 0 -70 31t-24 67q0 42 27 70t67 28t67 -28t27 -70q0 -36 -24 -67t-70 -31zM962 1530q-46 0 -70 31t-24 67q0 42 27 70t67 28t67 -28t27 -70q0 -36 -24 -67t-70 -31z" />
    <glyph glyph-name="uni1E27" unicode="&#x1e27;" horiz-adv-x="1324" 
d="M16 0zM110 1614q-46 0 -70 31t-24 67q0 42 27 70t67 28t67 -28t27 -70q0 -36 -24 -67t-70 -31zM1166 0h-156v608q0 152 -84 226t-214 74q-184 -12 -270 -124t-86 -268v-516h-156v1484h156v-668q114 242 410 242q142 0 230 -53t129 -146t41 -211v-648zM446 1614
q-46 0 -70 31t-24 67q0 42 27 70t67 28t67 -28t27 -70q0 -36 -24 -67t-70 -31z" />
    <glyph glyph-name="uni1E28" unicode="&#x1e28;" horiz-adv-x="1588" 
d="M88 0zM264 -432q-92 0 -176 42l36 100q54 -30 122 -30q56 0 80 24t24 50t-24.5 48t-81.5 22h-62l58 190l108 -14l-36 -106q86 -14 124 -57t38 -97q0 -86 -61 -129t-149 -43zM1376 0h-160v620h-844v-620h-160v1400h160v-634h844v634h160v-1400z" />
    <glyph glyph-name="uni1E29" unicode="&#x1e29;" horiz-adv-x="1324" 
d="M74 0zM250 -432q-92 0 -176 42l36 100q54 -30 122 -30q56 0 80 24t24 50t-24.5 48t-81.5 22h-62l58 190l108 -14l-36 -106q86 -14 124 -57t38 -97q0 -86 -61 -129t-149 -43zM1166 0h-156v608q0 152 -84 226t-214 74q-184 -12 -270 -124t-86 -268v-516h-156v1484h156v-668
q114 242 410 242q142 0 230 -53t129 -146t41 -211v-648z" />
    <glyph glyph-name="uni1E2A" unicode="&#x1e2a;" horiz-adv-x="1588" 
d="M1376 0h-160v620h-844v-620h-160v1400h160v-634h844v634h160v-1400zM794 -358q-100 0 -171 65t-83 193h110q20 -146 144 -146q122 0 142 146h112q-12 -128 -83 -193t-171 -65z" />
    <glyph glyph-name="uni1E2B" unicode="&#x1e2b;" horiz-adv-x="1324" 
d="M1166 0h-156v608q0 152 -84 226t-214 74q-184 -12 -270 -124t-86 -268v-516h-156v1484h156v-668q114 242 410 242q142 0 230 -53t129 -146t41 -211v-648zM684 -358q-100 0 -171 65t-83 193h110q20 -146 144 -146q122 0 142 146h112q-12 -128 -83 -193t-171 -65z" />
    <glyph glyph-name="uni1E2C" unicode="&#x1e2c;" horiz-adv-x="584" 
d="M432 -396q-74 0 -158 64q-66 46 -100 46q-72 0 -72 -102h-110q0 228 158 228q74 0 158 -64q66 -46 100 -46q72 0 72 102h110q0 -228 -158 -228zM0 0zM372 0h-160v1400h160v-1400zM590 -160z" />
    <glyph glyph-name="uni1E2D" unicode="&#x1e2d;" horiz-adv-x="534" 
d="M406 -396q-74 0 -158 64q-66 46 -100 46q-72 0 -72 -102h-110q0 228 158 228q74 0 158 -64q66 -46 100 -46q72 0 72 102h110q0 -228 -158 -228zM0 0zM266 1248q-51 0 -76.5 33.5t-25.5 72.5q0 44 27.5 76t74.5 32t74.5 -32t27.5 -76q0 -39 -25.5 -72.5t-76.5 -33.5z
M344 0h-154v1052h154v-1052zM564 -160z" />
    <glyph glyph-name="uni1E2E" unicode="&#x1e2e;" horiz-adv-x="584" 
d="M126 1530q-37 0 -64.5 27t-27.5 69q0 48 29 71t63 23q48 0 70 -29t22 -65q0 -35 -23 -65.5t-69 -30.5zM270 1756l-122 38l270 206l132 -92zM372 0h-160v1400h160v-1400zM436 1530q-37 0 -64.5 27t-27.5 69q0 48 29 71t63 23t63 -23t29 -71q0 -42 -27.5 -69t-64.5 -27z
" />
    <glyph glyph-name="uni1E2F" unicode="&#x1e2f;" horiz-adv-x="534" 
d="M100 1216q-37 0 -64.5 27t-27.5 69q0 48 29 71t63 23q48 0 70 -29t22 -65q0 -35 -23 -65.5t-69 -30.5zM244 1442l-122 38l270 206l132 -92zM344 0h-154v1052h154v-1052zM410 1216q-37 0 -64.5 27t-27.5 69q0 48 29 71t63 23t63 -23t29 -71q0 -42 -27.5 -69t-64.5 -27z
" />
    <glyph glyph-name="uni1E30" unicode="&#x1e30;" horiz-adv-x="1398" 
d="M1354 0h-194l-516 666l-272 -298v-368h-160v1400h160v-822l752 822h192l-558 -610zM212 0zM792 1530l-136 16l226 254l160 -72z" />
    <glyph glyph-name="uni1E31" unicode="&#x1e31;" horiz-adv-x="1146" 
d="M150 0zM286 1614l-136 16l226 254l160 -72zM1124 0h-186l-360 534l-222 -230v-304h-156v1484h156v-978l542 546h184l-394 -406z" />
    <glyph glyph-name="uni1E32" unicode="&#x1e32;" horiz-adv-x="1398" 
d="M1354 0h-194l-516 666l-272 -298v-368h-160v1400h160v-822l752 822h192l-558 -610zM212 0zM784 -362q-51 0 -76.5 33.5t-25.5 72.5q0 44 27.5 76t74.5 32t74.5 -32t27.5 -76q0 -39 -25.5 -72.5t-76.5 -33.5z" />
    <glyph glyph-name="uni1E33" unicode="&#x1e33;" horiz-adv-x="1146" 
d="M1124 0h-186l-360 534l-222 -230v-304h-156v1484h156v-978l542 546h184l-394 -406zM200 0zM662 -362q-51 0 -76.5 33.5t-25.5 72.5q0 44 27.5 76t74.5 32t74.5 -32t27.5 -76q0 -39 -25.5 -72.5t-76.5 -33.5z" />
    <glyph glyph-name="uni1E34" unicode="&#x1e34;" horiz-adv-x="1398" 
d="M1354 0h-194l-516 666l-272 -298v-368h-160v1400h160v-822l752 822h192l-558 -610zM212 0zM1064 -274h-560v106h560v-106z" />
    <glyph glyph-name="uni1E35" unicode="&#x1e35;" horiz-adv-x="1146" 
d="M1124 0h-186l-360 534l-222 -230v-304h-156v1484h156v-978l542 546h184l-394 -406zM200 0zM942 -274h-560v106h560v-106z" />
    <glyph glyph-name="uni1E36" unicode="&#x1e36;" horiz-adv-x="1034" 
d="M986 0h-774v1400h160v-1252h614v-148zM600 -362q-51 0 -76.5 33.5t-25.5 72.5q0 44 27.5 76t74.5 32t74.5 -32t27.5 -76q0 -39 -25.5 -72.5t-76.5 -33.5z" />
    <glyph glyph-name="uni1E37" unicode="&#x1e37;" horiz-adv-x="580" 
d="M390 -6q-84 0 -151 59t-67 199v1232h154v-1214q0 -132 100 -132q56 0 112 44l30 -126q-88 -62 -178 -62zM370 -362q-51 0 -76.5 33.5t-25.5 72.5q0 44 27.5 76t74.5 32t74.5 -32t27.5 -76q0 -39 -25.5 -72.5t-76.5 -33.5z" />
    <glyph glyph-name="uni1E38" unicode="&#x1e38;" horiz-adv-x="1034" 
d="M602 1546h-622v106h622v-106zM0 0zM986 0h-774v1400h160v-1252h614v-148zM600 -362q-51 0 -76.5 33.5t-25.5 72.5q0 44 27.5 76t74.5 32t74.5 -32t27.5 -76q0 -39 -25.5 -72.5t-76.5 -33.5z" />
    <glyph glyph-name="uni1E39" unicode="&#x1e39;" horiz-adv-x="580" 
d="M560 1630h-622v106h622v-106zM0 0zM390 -6q-84 0 -151 59t-67 199v1232h154v-1214q0 -132 100 -132q56 0 112 44l30 -126q-88 -62 -178 -62zM370 -362q-51 0 -76.5 33.5t-25.5 72.5q0 44 27.5 76t74.5 32t74.5 -32t27.5 -76q0 -39 -25.5 -72.5t-76.5 -33.5z" />
    <glyph glyph-name="uni1E3A" unicode="&#x1e3a;" horiz-adv-x="1034" 
d="M986 0h-774v1400h160v-1252h614v-148zM878 -274h-560v106h560v-106z" />
    <glyph glyph-name="uni1E3B" unicode="&#x1e3b;" horiz-adv-x="580" 
d="M654 -274h-560v106h560v-106zM390 -6q-84 0 -151 59t-67 199v1232h154v-1214q0 -132 100 -132q56 0 112 44l30 -126q-88 -62 -178 -62z" />
    <glyph glyph-name="uni1E3C" unicode="&#x1e3c;" horiz-adv-x="1034" 
d="M986 0h-774v1400h160v-1252h614v-148zM212 0zM890 -408h-156l-134 146l-134 -146h-156l206 258h168zM890 -150z" />
    <glyph glyph-name="uni1E3D" unicode="&#x1e3d;" horiz-adv-x="580" 
d="M104 0zM684 -408h-156l-134 146l-134 -146h-156l206 258h168zM390 -6q-84 0 -151 59t-67 199v1232h154v-1214q0 -132 100 -132q56 0 112 44l30 -126q-88 -62 -178 -62zM684 -150z" />
    <glyph glyph-name="uni1E3E" unicode="&#x1e3e;" horiz-adv-x="1876" 
d="M1664 0h-150l-2 1166l-528 -1018h-92l-532 1018v-1166h-148v1400h194l534 -1020l528 1020h196v-1400zM212 0zM946 1530l-136 16l226 254l160 -72z" />
    <glyph glyph-name="uni1E3F" unicode="&#x1e3f;" horiz-adv-x="2088" 
d="M1932 0h-156v608q0 156 -83 229t-209 73q-180 -20 -262 -128t-82 -264v-518h-158v608q0 132 -72 217t-220 85q-180 -20 -263 -128t-83 -264v-518h-154v1052h154v-238q112 244 402 244q296 0 378 -274q106 274 416 274q196 0 294 -116t98 -294v-648zM190 0zM1070 1230
l-136 16l226 254l160 -72z" />
    <glyph glyph-name="uni1E40" unicode="&#x1e40;" horiz-adv-x="1876" 
d="M1664 0h-150l-2 1166l-528 -1018h-92l-532 1018v-1166h-148v1400h194l534 -1020l528 1020h196v-1400zM212 0zM938 1530q-51 0 -76.5 33.5t-25.5 72.5q0 46 29 76t73 30t73 -30t29 -76q0 -39 -25.5 -72.5t-76.5 -33.5z" />
    <glyph glyph-name="uni1E41" unicode="&#x1e41;" horiz-adv-x="2088" 
d="M1932 0h-156v608q0 156 -83 229t-209 73q-180 -20 -262 -128t-82 -264v-518h-158v608q0 132 -72 217t-220 85q-180 -20 -263 -128t-83 -264v-518h-154v1052h154v-238q112 244 402 244q296 0 378 -274q106 274 416 274q196 0 294 -116t98 -294v-648zM190 0zM1062 1248
q-51 0 -76.5 33.5t-25.5 72.5q0 44 27.5 76t74.5 32t74.5 -32t27.5 -76q0 -39 -25.5 -72.5t-76.5 -33.5z" />
    <glyph glyph-name="uni1E42" unicode="&#x1e42;" horiz-adv-x="1876" 
d="M1664 0h-150l-2 1166l-528 -1018h-92l-532 1018v-1166h-148v1400h194l534 -1020l528 1020h196v-1400zM938 -362q-51 0 -76.5 33.5t-25.5 72.5q0 44 27.5 76t74.5 32t74.5 -32t27.5 -76q0 -39 -25.5 -72.5t-76.5 -33.5z" />
    <glyph glyph-name="uni1E43" unicode="&#x1e43;" horiz-adv-x="2088" 
d="M1932 0h-156v608q0 156 -83 229t-209 73q-180 -20 -262 -128t-82 -264v-518h-158v608q0 132 -72 217t-220 85q-180 -20 -263 -128t-83 -264v-518h-154v1052h154v-238q112 244 402 244q296 0 378 -274q106 274 416 274q196 0 294 -116t98 -294v-648zM1062 -362
q-51 0 -76.5 33.5t-25.5 72.5q0 44 27.5 76t74.5 32t74.5 -32t27.5 -76q0 -39 -25.5 -72.5t-76.5 -33.5z" />
    <glyph glyph-name="uni1E44" unicode="&#x1e44;" horiz-adv-x="1590" 
d="M1376 0h-164l-840 1140v-1140h-160v1400h166l840 -1140v1140h158v-1400zM820 1530q-51 0 -76.5 33.5t-25.5 72.5q0 46 29 76t73 30t73 -30t29 -76q0 -39 -25.5 -72.5t-76.5 -33.5z" />
    <glyph glyph-name="uni1E45" unicode="&#x1e45;" horiz-adv-x="1312" 
d="M1154 0h-156v608q0 152 -84 226t-214 74q-174 -10 -259 -103t-95 -241v-564h-156v1052h156v-232q118 238 408 238q142 0 230 -53t129 -146t41 -211v-648zM688 1248q-51 0 -76.5 33.5t-25.5 72.5q0 44 27.5 76t74.5 32t74.5 -32t27.5 -76q0 -39 -25.5 -72.5t-76.5 -33.5z
" />
    <glyph glyph-name="uni1E46" unicode="&#x1e46;" horiz-adv-x="1590" 
d="M1376 0h-164l-840 1140v-1140h-160v1400h166l840 -1140v1140h158v-1400zM792 -362q-51 0 -76.5 33.5t-25.5 72.5q0 44 27.5 76t74.5 32t74.5 -32t27.5 -76q0 -39 -25.5 -72.5t-76.5 -33.5z" />
    <glyph glyph-name="uni1E47" unicode="&#x1e47;" horiz-adv-x="1312" 
d="M1154 0h-156v608q0 152 -84 226t-214 74q-174 -10 -259 -103t-95 -241v-564h-156v1052h156v-232q118 238 408 238q142 0 230 -53t129 -146t41 -211v-648zM664 -362q-51 0 -76.5 33.5t-25.5 72.5q0 44 27.5 76t74.5 32t74.5 -32t27.5 -76q0 -39 -25.5 -72.5t-76.5 -33.5z
" />
    <glyph glyph-name="uni1E48" unicode="&#x1e48;" horiz-adv-x="1590" 
d="M1376 0h-164l-840 1140v-1140h-160v1400h166l840 -1140v1140h158v-1400zM1070 -274h-560v106h560v-106z" />
    <glyph glyph-name="uni1E49" unicode="&#x1e49;" horiz-adv-x="1312" 
d="M1154 0h-156v608q0 152 -84 226t-214 74q-174 -10 -259 -103t-95 -241v-564h-156v1052h156v-232q118 238 408 238q142 0 230 -53t129 -146t41 -211v-648zM942 -274h-560v106h560v-106z" />
    <glyph glyph-name="uni1E4A" unicode="&#x1e4a;" horiz-adv-x="1590" 
d="M1376 0h-164l-840 1140v-1140h-160v1400h166l840 -1140v1140h158v-1400zM212 0zM1084 -408h-156l-134 146l-134 -146h-156l206 258h168zM1084 -150z" />
    <glyph glyph-name="uni1E4B" unicode="&#x1e4b;" horiz-adv-x="1312" 
d="M1154 0h-156v608q0 152 -84 226t-214 74q-174 -10 -259 -103t-95 -241v-564h-156v1052h156v-232q118 238 408 238q142 0 230 -53t129 -146t41 -211v-648zM190 0zM962 -408h-156l-134 146l-134 -146h-156l206 258h168zM962 -150z" />
    <glyph glyph-name="uni1E4C" unicode="&#x1e4c;" horiz-adv-x="1626" 
d="M822 -12h-16q-306 0 -516 210q-105 105 -157.5 229t-52.5 275q0 298 213 504t529 206q304 0 514 -208t210 -494v-16q0 -298 -214 -502t-510 -204zM814 134q234 0 401 165t167 403q0 232 -166 397t-402 165t-404 -163t-168 -399q0 -238 170 -403t402 -165zM956 1530
q-70 4 -150 52t-118 48q-74 0 -76 -94h-94q0 202 156 202q70 -4 150 -52t118 -48q76 0 76 92h92q0 -86 -36 -143t-118 -57zM806 1806l-122 38l270 206l132 -92z" />
    <glyph glyph-name="uni1E4D" unicode="&#x1e4d;" horiz-adv-x="1236" 
d="M618 -6q-238 0 -386 148t-148 386q0 242 152 386t382 144q101 0 196.5 -32t171.5 -97.5t121 -165t45 -235.5q0 -170 -73 -289q-84 -130 -206.5 -187.5t-254.5 -57.5zM618 130q93 0 180 40t145 131q53 87 53 225q0 164 -100 279t-278 115t-278 -115t-100 -279
q0 -136 52.5 -223t138 -130t187.5 -43zM760 1212q-70 4 -150 52t-118 48q-74 0 -76 -94h-94q0 202 156 202q70 -4 150 -52t118 -48q76 0 76 92h92q0 -86 -36 -143t-118 -57zM610 1488l-122 38l270 206l132 -92z" />
    <glyph glyph-name="uni1E4E" unicode="&#x1e4e;" horiz-adv-x="1626" 
d="M822 -12h-16q-306 0 -516 210q-105 105 -157.5 229t-52.5 275q0 298 213 504t529 206q304 0 514 -208t210 -494v-16q0 -298 -214 -502t-510 -204zM814 134q234 0 401 165t167 403q0 232 -166 397t-402 165t-404 -163t-168 -399q0 -238 170 -403t402 -165zM938 1530
q-70 4 -150 52t-118 48q-74 0 -76 -94h-94q0 202 156 202q70 -4 150 -52t118 -48q76 0 76 92h92q0 -86 -36 -143t-118 -57zM644 1806q-37 0 -64.5 27t-27.5 69q0 48 29 71t63 23q48 0 70 -29t22 -65q0 -35 -23 -65.5t-69 -30.5zM954 1806q-37 0 -64.5 27t-27.5 69
q0 48 29 71t63 23t63 -23t29 -71q0 -42 -27.5 -69t-64.5 -27z" />
    <glyph glyph-name="uni1E4F" unicode="&#x1e4f;" horiz-adv-x="1236" 
d="M618 -6q-238 0 -386 148t-148 386q0 242 152 386t382 144q101 0 196.5 -32t171.5 -97.5t121 -165t45 -235.5q0 -170 -73 -289q-84 -130 -206.5 -187.5t-254.5 -57.5zM618 130q93 0 180 40t145 131q53 87 53 225q0 164 -100 279t-278 115t-278 -115t-100 -279
q0 -136 52.5 -223t138 -130t187.5 -43zM742 1212q-70 4 -150 52t-118 48q-74 0 -76 -94h-94q0 202 156 202q70 -4 150 -52t118 -48q76 0 76 92h92q0 -86 -36 -143t-118 -57zM448 1488q-37 0 -64.5 27t-27.5 69q0 48 29 71t63 23q48 0 70 -29t22 -65q0 -35 -23 -65.5
t-69 -30.5zM758 1488q-37 0 -64.5 27t-27.5 69q0 48 29 71t63 23t63 -23t29 -71q0 -42 -27.5 -69t-64.5 -27z" />
    <glyph glyph-name="uni1E50" unicode="&#x1e50;" horiz-adv-x="1626" 
d="M822 -12h-16q-306 0 -516 210q-105 105 -157.5 229t-52.5 275q0 298 213 504t529 206q304 0 514 -208t210 -494v-16q0 -298 -214 -502t-510 -204zM814 134q234 0 401 165t167 403q0 232 -166 397t-402 165t-404 -163t-168 -399q0 -238 170 -403t402 -165zM834 1744
l-280 152l132 92l270 -206zM1074 1538h-480v108h480v-108z" />
    <glyph glyph-name="uni1E51" unicode="&#x1e51;" horiz-adv-x="1236" 
d="M618 -6q-238 0 -386 148t-148 386q0 242 152 386t382 144q101 0 196.5 -32t171.5 -97.5t121 -165t45 -235.5q0 -170 -73 -289q-84 -130 -206.5 -187.5t-254.5 -57.5zM618 130q93 0 180 40t145 131q53 87 53 225q0 164 -100 279t-278 115t-278 -115t-100 -279
q0 -136 52.5 -223t138 -130t187.5 -43zM618 1424l-280 152l132 92l270 -206zM858 1218h-480v108h480v-108z" />
    <glyph glyph-name="uni1E52" unicode="&#x1e52;" horiz-adv-x="1626" 
d="M822 -12h-16q-306 0 -516 210q-105 105 -157.5 229t-52.5 275q0 298 213 504t529 206q304 0 514 -208t210 -494v-16q0 -298 -214 -502t-510 -204zM814 134q234 0 401 165t167 403q0 232 -166 397t-402 165t-404 -163t-168 -399q0 -238 170 -403t402 -165zM1038 1538h-480
v108h480v-108zM786 1744l-122 38l270 206l132 -92z" />
    <glyph glyph-name="uni1E53" unicode="&#x1e53;" horiz-adv-x="1236" 
d="M618 -6q-238 0 -386 148t-148 386q0 242 152 386t382 144q101 0 196.5 -32t171.5 -97.5t121 -165t45 -235.5q0 -170 -73 -289q-84 -130 -206.5 -187.5t-254.5 -57.5zM618 130q93 0 180 40t145 131q53 87 53 225q0 164 -100 279t-278 115t-278 -115t-100 -279
q0 -136 52.5 -223t138 -130t187.5 -43zM866 1218h-480v108h480v-108zM614 1424l-122 38l270 206l132 -92z" />
    <glyph glyph-name="uni1E54" unicode="&#x1e54;" horiz-adv-x="1338" 
d="M372 0h-160v1400h526q147 0 272 -47t202 -153q72 -104 72 -270q0 -134 -54 -244.5t-177 -177.5q-120 -64 -315 -64h-366v-444zM212 0zM732 592q176 0 287 78t111 256q0 117 -50 188.5t-141 104.5t-207 33h-360v-660h360zM756 1530l-136 16l226 254l160 -72z" />
    <glyph glyph-name="uni1E55" unicode="&#x1e55;" horiz-adv-x="1352" 
d="M200 0zM356 -388h-156v1440h156v-226q130 232 406 232q224 0 365 -149t141 -385q0 -107 -31.5 -203t-94 -169.5t-156.5 -115.5t-220 -42q-280 0 -410 232v-614zM734 132q126 0 210 57q86 60 126 151t40 188q0 75 -22 146t-68 127t-117 89.5t-169 33.5q-180 0 -279 -115
t-99 -281t101 -281t277 -115zM742 1230l-136 16l226 254l160 -72z" />
    <glyph glyph-name="uni1E56" unicode="&#x1e56;" horiz-adv-x="1338" 
d="M372 0h-160v1400h526q147 0 272 -47t202 -153q72 -104 72 -270q0 -134 -54 -244.5t-177 -177.5q-120 -64 -315 -64h-366v-444zM212 0zM732 592q176 0 287 78t111 256q0 117 -50 188.5t-141 104.5t-207 33h-360v-660h360zM748 1530q-51 0 -76.5 33.5t-25.5 72.5
q0 46 29 76t73 30t73 -30t29 -76q0 -39 -25.5 -72.5t-76.5 -33.5z" />
    <glyph glyph-name="uni1E57" unicode="&#x1e57;" horiz-adv-x="1352" 
d="M200 0zM356 -388h-156v1440h156v-226q130 232 406 232q224 0 365 -149t141 -385q0 -107 -31.5 -203t-94 -169.5t-156.5 -115.5t-220 -42q-280 0 -410 232v-614zM734 132q126 0 210 57q86 60 126 151t40 188q0 75 -22 146t-68 127t-117 89.5t-169 33.5q-180 0 -279 -115
t-99 -281t101 -281t277 -115zM734 1248q-51 0 -76.5 33.5t-25.5 72.5q0 44 27.5 76t74.5 32t74.5 -32t27.5 -76q0 -39 -25.5 -72.5t-76.5 -33.5z" />
    <glyph glyph-name="uni1E58" unicode="&#x1e58;" horiz-adv-x="1446" 
d="M1310 0h-182l-294 448l-90 -4h-372v-444h-160v1400h532q168 0 292 -50.5t192 -155t68 -264.5q0 -344 -316 -452zM212 0zM744 592q176 0 287 78t111 256q0 324 -398 326h-372v-660h372zM742 1530q-51 0 -76.5 33.5t-25.5 72.5q0 46 29 76t73 30t73 -30t29 -76
q0 -39 -25.5 -72.5t-76.5 -33.5z" />
    <glyph glyph-name="uni1E59" unicode="&#x1e59;" horiz-adv-x="744" 
d="M346 0h-156v1052h156v-234q108 234 378 240v-152q-186 0 -277 -96t-101 -250v-560zM190 0zM458 1248q-51 0 -76.5 33.5t-25.5 72.5q0 44 27.5 76t74.5 32t74.5 -32t27.5 -76q0 -39 -25.5 -72.5t-76.5 -33.5z" />
    <glyph glyph-name="uni1E5A" unicode="&#x1e5a;" horiz-adv-x="1446" 
d="M1310 0h-182l-294 448l-90 -4h-372v-444h-160v1400h532q168 0 292 -50.5t192 -155t68 -264.5q0 -344 -316 -452zM744 592q176 0 287 78t111 256q0 324 -398 326h-372v-660h372zM720 -362q-51 0 -76.5 33.5t-25.5 72.5q0 44 27.5 76t74.5 32t74.5 -32t27.5 -76
q0 -39 -25.5 -72.5t-76.5 -33.5z" />
    <glyph glyph-name="uni1E5B" unicode="&#x1e5b;" horiz-adv-x="744" 
d="M264 -362q-51 0 -76.5 33.5t-25.5 72.5q0 44 27.5 76t74.5 32t74.5 -32t27.5 -76q0 -39 -25.5 -72.5t-76.5 -33.5zM346 0h-156v1052h156v-234q108 234 378 240v-152q-186 0 -277 -96t-101 -250v-560z" />
    <glyph glyph-name="uni1E5C" unicode="&#x1e5c;" horiz-adv-x="1446" 
d="M1310 0h-182l-294 448l-90 -4h-372v-444h-160v1400h532q168 0 292 -50.5t192 -155t68 -264.5q0 -344 -316 -452zM212 0zM744 592q176 0 287 78t111 256q0 324 -398 326h-372v-660h372zM1052 1546h-622v106h622v-106zM720 -362q-51 0 -76.5 33.5t-25.5 72.5q0 44 27.5 76
t74.5 32t74.5 -32t27.5 -76q0 -39 -25.5 -72.5t-76.5 -33.5z" />
    <glyph glyph-name="uni1E5D" unicode="&#x1e5d;" horiz-adv-x="744" 
d="M162 0zM264 -362q-51 0 -76.5 33.5t-25.5 72.5q0 44 27.5 76t74.5 32t74.5 -32t27.5 -76q0 -39 -25.5 -72.5t-76.5 -33.5zM724 1300h-560v106h560v-106zM346 0h-156v1052h156v-234q108 234 378 240v-152q-186 0 -277 -96t-101 -250v-560z" />
    <glyph glyph-name="uni1E5E" unicode="&#x1e5e;" horiz-adv-x="1446" 
d="M1310 0h-182l-294 448l-90 -4h-372v-444h-160v1400h532q168 0 292 -50.5t192 -155t68 -264.5q0 -344 -316 -452zM744 592q176 0 287 78t111 256q0 324 -398 326h-372v-660h372zM998 -274h-560v106h560v-106z" />
    <glyph glyph-name="uni1E5F" unicode="&#x1e5f;" horiz-adv-x="744" 
d="M624 -274h-560v106h560v-106zM346 0h-156v1052h156v-234q108 234 378 240v-152q-186 0 -277 -96t-101 -250v-560z" />
    <glyph glyph-name="uni1E60" unicode="&#x1e60;" horiz-adv-x="1222" 
d="M600 -12q-316 0 -536 216l72 138q216 -198 466 -198q140 0 234 55t94 167q-2 128 -106 186q-114 60 -242 96q-196 60 -260 98q-28 16 -62 44q-116 90 -116 262q0 125 66 205q71 83 181 120t237 37q242 0 444 -130l-68 -142q-184 116 -386 116q-118 0 -208 -46t-90 -150
t86 -166t258 -108t302 -128t140 -286q0 -130 -68 -215q-74 -90 -189.5 -130.5t-248.5 -40.5zM614 1530q-51 0 -76.5 33.5t-25.5 72.5q0 46 29 76t73 30t73 -30t29 -76q0 -39 -25.5 -72.5t-76.5 -33.5z" />
    <glyph glyph-name="uni1E61" unicode="&#x1e61;" horiz-adv-x="906" 
d="M454 -6q-236 0 -404 148l60 114q158 -134 350 -134q90 0 153 36t73 118q0 134 -250 194q-128 32 -227 94t-105 210q0 102 51 165q54 64 137 92.5t178 28.5q190 0 336 -96l-60 -120q-138 84 -286 84q-208 0 -208 -142q0 -64 57.5 -106t186.5 -72q71 -20 123 -42t105 -52
q116 -74 116 -222q0 -105 -53 -170q-58 -68 -146 -98t-187 -30zM460 1248q-51 0 -76.5 33.5t-25.5 72.5q0 44 27.5 76t74.5 32t74.5 -32t27.5 -76q0 -39 -25.5 -72.5t-76.5 -33.5z" />
    <glyph glyph-name="uni1E62" unicode="&#x1e62;" horiz-adv-x="1222" 
d="M600 -12q-316 0 -536 216l72 138q216 -198 466 -198q140 0 234 55t94 167q-2 128 -106 186q-114 60 -242 96q-196 60 -260 98q-28 16 -62 44q-116 90 -116 262q0 125 66 205q71 83 181 120t237 37q242 0 444 -130l-68 -142q-184 116 -386 116q-118 0 -208 -46t-90 -150
t86 -166t258 -108t302 -128t140 -286q0 -130 -68 -215q-74 -90 -189.5 -130.5t-248.5 -40.5zM618 -362q-51 0 -76.5 33.5t-25.5 72.5q0 44 27.5 76t74.5 32t74.5 -32t27.5 -76q0 -39 -25.5 -72.5t-76.5 -33.5z" />
    <glyph glyph-name="uni1E63" unicode="&#x1e63;" horiz-adv-x="906" 
d="M454 -6q-236 0 -404 148l60 114q158 -134 350 -134q90 0 153 36t73 118q0 134 -250 194q-128 32 -227 94t-105 210q0 102 51 165q54 64 137 92.5t178 28.5q190 0 336 -96l-60 -120q-138 84 -286 84q-208 0 -208 -142q0 -64 57.5 -106t186.5 -72q71 -20 123 -42t105 -52
q116 -74 116 -222q0 -105 -53 -170q-58 -68 -146 -98t-187 -30zM450 -362q-51 0 -76.5 33.5t-25.5 72.5q0 44 27.5 76t74.5 32t74.5 -32t27.5 -76q0 -39 -25.5 -72.5t-76.5 -33.5z" />
    <glyph glyph-name="uni1E64" unicode="&#x1e64;" horiz-adv-x="1222" 
d="M600 -12q-316 0 -536 216l72 138q216 -198 466 -198q140 0 234 55t94 167q-2 128 -106 186q-114 60 -242 96q-196 60 -260 98q-28 16 -62 44q-116 90 -116 262q0 125 66 205q71 83 181 120t237 37q242 0 444 -130l-68 -142q-184 116 -386 116q-118 0 -208 -46t-90 -150
t86 -166t258 -108t302 -128t140 -286q0 -130 -68 -215q-74 -90 -189.5 -130.5t-248.5 -40.5zM536 1516l-122 38l270 206l132 -92zM604 1800q-34 0 -65 26t-31 74q0 51 30.5 76.5t65.5 25.5q42 0 70 -29t28 -73q0 -38 -24 -69t-74 -31z" />
    <glyph glyph-name="uni1E65" unicode="&#x1e65;" horiz-adv-x="906" 
d="M454 -6q-236 0 -404 148l60 114q158 -134 350 -134q90 0 153 36t73 118q0 134 -250 194q-128 32 -227 94t-105 210q0 102 51 165q54 64 137 92.5t178 28.5q190 0 336 -96l-60 -120q-138 84 -286 84q-208 0 -208 -142q0 -64 57.5 -106t186.5 -72q71 -20 123 -42t105 -52
q116 -74 116 -222q0 -105 -53 -170q-58 -68 -146 -98t-187 -30zM382 1216l-122 38l270 206l132 -92zM450 1500q-34 0 -65 26t-31 74q0 51 30.5 76.5t65.5 25.5q42 0 70 -29t28 -73q0 -38 -24 -69t-74 -31z" />
    <glyph glyph-name="uni1E66" unicode="&#x1e66;" horiz-adv-x="1222" 
d="M600 -12q-316 0 -536 216l72 138q216 -198 466 -198q140 0 234 55t94 167q-2 128 -106 186q-114 60 -242 96q-196 60 -260 98q-28 16 -62 44q-116 90 -116 262q0 125 66 205q71 83 181 120t237 37q242 0 444 -130l-68 -142q-184 116 -386 116q-118 0 -208 -46t-90 -150
t86 -166t258 -108t302 -128t140 -286q0 -130 -68 -215q-74 -90 -189.5 -130.5t-248.5 -40.5zM746 1534h-218l-214 188h168l154 -118l154 118h168zM632 1774q-34 0 -65 26t-31 74q0 51 30.5 76.5t65.5 25.5q42 0 70 -29t28 -73q0 -38 -24 -69t-74 -31z" />
    <glyph glyph-name="uni1E67" unicode="&#x1e67;" horiz-adv-x="906" 
d="M454 -6q-236 0 -404 148l60 114q158 -134 350 -134q90 0 153 36t73 118q0 134 -250 194q-128 32 -227 94t-105 210q0 102 51 165q54 64 137 92.5t178 28.5q190 0 336 -96l-60 -120q-138 84 -286 84q-208 0 -208 -142q0 -64 57.5 -106t186.5 -72q71 -20 123 -42t105 -52
q116 -74 116 -222q0 -105 -53 -170q-58 -68 -146 -98t-187 -30zM592 1218h-218l-214 188h168l154 -118l154 118h168zM478 1458q-34 0 -65 26t-31 74q0 51 30.5 76.5t65.5 25.5q42 0 70 -29t28 -73q0 -38 -24 -69t-74 -31z" />
    <glyph glyph-name="uni1E68" unicode="&#x1e68;" horiz-adv-x="1222" 
d="M600 -12q-316 0 -536 216l72 138q216 -198 466 -198q140 0 234 55t94 167q-2 128 -106 186q-114 60 -242 96q-196 60 -260 98q-28 16 -62 44q-116 90 -116 262q0 125 66 205q71 83 181 120t237 37q242 0 444 -130l-68 -142q-184 116 -386 116q-118 0 -208 -46t-90 -150
t86 -166t258 -108t302 -128t140 -286q0 -130 -68 -215q-74 -90 -189.5 -130.5t-248.5 -40.5zM618 -362q-51 0 -76.5 33.5t-25.5 72.5q0 44 27.5 76t74.5 32t74.5 -32t27.5 -76q0 -39 -25.5 -72.5t-76.5 -33.5zM618 1530q-51 0 -76.5 33.5t-25.5 72.5q0 46 29 76t73 30
t73 -30t29 -76q0 -39 -25.5 -72.5t-76.5 -33.5z" />
    <glyph glyph-name="uni1E69" unicode="&#x1e69;" horiz-adv-x="906" 
d="M454 -6q-236 0 -404 148l60 114q158 -134 350 -134q90 0 153 36t73 118q0 134 -250 194q-128 32 -227 94t-105 210q0 102 51 165q54 64 137 92.5t178 28.5q190 0 336 -96l-60 -120q-138 84 -286 84q-208 0 -208 -142q0 -64 57.5 -106t186.5 -72q71 -20 123 -42t105 -52
q116 -74 116 -222q0 -105 -53 -170q-58 -68 -146 -98t-187 -30zM450 -362q-51 0 -76.5 33.5t-25.5 72.5q0 44 27.5 76t74.5 32t74.5 -32t27.5 -76q0 -39 -25.5 -72.5t-76.5 -33.5zM450 1248q-51 0 -76.5 33.5t-25.5 72.5q0 44 27.5 76t74.5 32t74.5 -32t27.5 -76
q0 -39 -25.5 -72.5t-76.5 -33.5z" />
    <glyph glyph-name="uni1E6A" unicode="&#x1e6a;" horiz-adv-x="1116" 
d="M22 0zM638 0h-160v1252h-456v148h1074v-148h-458v-1252zM560 1530q-51 0 -76.5 33.5t-25.5 72.5q0 46 29 76t73 30t73 -30t29 -76q0 -39 -25.5 -72.5t-76.5 -33.5z" />
    <glyph glyph-name="uni1E6B" unicode="&#x1e6b;" horiz-adv-x="780" 
d="M76 0zM496 -6q-112 0 -190 68t-78 230v606h-152v122h152v276h154v-276h334v-122h-334v-580q0 -180 134 -180q80 0 174 54l44 -120q-110 -78 -238 -78zM306 1426q-51 0 -76.5 33.5t-25.5 72.5q0 46 29 76t73 30t73 -30t29 -76q0 -39 -25.5 -72.5t-76.5 -33.5z" />
    <glyph glyph-name="uni1E6C" unicode="&#x1e6c;" horiz-adv-x="1116" 
d="M638 0h-160v1252h-456v148h1074v-148h-458v-1252zM558 -362q-51 0 -76.5 33.5t-25.5 72.5q0 44 27.5 76t74.5 32t74.5 -32t27.5 -76q0 -39 -25.5 -72.5t-76.5 -33.5z" />
    <glyph glyph-name="uni1E6D" unicode="&#x1e6d;" horiz-adv-x="780" 
d="M496 -6q-112 0 -190 68t-78 230v606h-152v122h152v276h154v-276h334v-122h-334v-580q0 -180 134 -180q80 0 174 54l44 -120q-110 -78 -238 -78zM494 -362q-51 0 -76.5 33.5t-25.5 72.5q0 44 27.5 76t74.5 32t74.5 -32t27.5 -76q0 -39 -25.5 -72.5t-76.5 -33.5z" />
    <glyph glyph-name="uni1E6E" unicode="&#x1e6e;" horiz-adv-x="1116" 
d="M638 0h-160v1252h-456v148h1074v-148h-458v-1252zM836 -274h-560v106h560v-106z" />
    <glyph glyph-name="uni1E6F" unicode="&#x1e6f;" horiz-adv-x="780" 
d="M496 -6q-112 0 -190 68t-78 230v606h-152v122h152v276h154v-276h334v-122h-334v-580q0 -180 134 -180q80 0 174 54l44 -120q-110 -78 -238 -78zM772 -274h-560v106h560v-106z" />
    <glyph glyph-name="uni1E70" unicode="&#x1e70;" horiz-adv-x="1116" 
d="M22 0zM638 0h-160v1252h-456v148h1074v-148h-458v-1252zM850 -408h-156l-134 146l-134 -146h-156l206 258h168zM850 -150z" />
    <glyph glyph-name="uni1E71" unicode="&#x1e71;" horiz-adv-x="780" 
d="M76 0zM496 -6q-112 0 -190 68t-78 230v606h-152v122h152v276h154v-276h334v-122h-334v-580q0 -180 134 -180q80 0 174 54l44 -120q-110 -78 -238 -78zM792 -408h-156l-134 146l-134 -146h-156l206 258h168zM792 -150z" />
    <glyph glyph-name="uni1E72" unicode="&#x1e72;" horiz-adv-x="1530" 
d="M180 0zM766 -12q-200 0 -330 76q-135 82 -195.5 215t-60.5 291v830h160v-830q0 -152 56 -247q60 -100 158 -144.5t212 -44.5q113 0 209.5 43t155.5 140t59 253v830h158v-830q0 -256 -133 -410q-149 -172 -449 -172zM594 -340q-37 0 -64.5 27t-27.5 69q0 52 29 75t63 23
t64 -23t30 -75q0 -36 -23 -66t-71 -30zM930 -340q-48 0 -71 30t-23 66q0 52 30 75t64 23t64 -23t30 -75q0 -36 -23 -66t-71 -30z" />
    <glyph glyph-name="uni1E73" unicode="&#x1e73;" horiz-adv-x="1294" 
d="M154 0zM548 -6q-138 0 -225 55q-90 59 -129.5 152.5t-39.5 202.5v648h156v-608q0 -146 81 -223t211 -77q182 16 264 126t82 266v516h156v-1052h-156v238q-112 -244 -400 -244zM460 -340q-37 0 -64.5 27t-27.5 69q0 52 29 75t63 23t64 -23t30 -75q0 -36 -23 -66t-71 -30z
M796 -340q-48 0 -71 30t-23 66q0 52 30 75t64 23t64 -23t30 -75q0 -36 -23 -66t-71 -30z" />
    <glyph glyph-name="uni1E74" unicode="&#x1e74;" horiz-adv-x="1530" 
d="M180 0zM766 -12q-200 0 -330 76q-135 82 -195.5 215t-60.5 291v830h160v-830q0 -152 56 -247q60 -100 158 -144.5t212 -44.5q113 0 209.5 43t155.5 140t59 253v830h158v-830q0 -256 -133 -410q-149 -172 -449 -172zM904 -396q-74 0 -158 64q-66 46 -100 46
q-72 0 -72 -102h-110q0 228 158 228q74 0 158 -64q66 -46 100 -46q72 0 72 102h110q0 -228 -158 -228zM1062 -160z" />
    <glyph glyph-name="uni1E75" unicode="&#x1e75;" horiz-adv-x="1294" 
d="M154 0zM548 -6q-138 0 -225 55q-90 59 -129.5 152.5t-39.5 202.5v648h156v-608q0 -146 81 -223t211 -77q182 16 264 126t82 266v516h156v-1052h-156v238q-112 -244 -400 -244zM770 -396q-74 0 -158 64q-66 46 -100 46q-72 0 -72 -102h-110q0 228 158 228q74 0 158 -64
q66 -46 100 -46q72 0 72 102h110q0 -228 -158 -228zM928 -160z" />
    <glyph glyph-name="uni1E76" unicode="&#x1e76;" horiz-adv-x="1530" 
d="M180 0zM766 -12q-200 0 -330 76q-135 82 -195.5 215t-60.5 291v830h160v-830q0 -152 56 -247q60 -100 158 -144.5t212 -44.5q113 0 209.5 43t155.5 140t59 253v830h158v-830q0 -256 -133 -410q-149 -172 -449 -172zM1054 -408h-156l-134 146l-134 -146h-156l206 258h168z
M1054 -150z" />
    <glyph glyph-name="uni1E77" unicode="&#x1e77;" horiz-adv-x="1294" 
d="M154 0zM548 -6q-138 0 -225 55q-90 59 -129.5 152.5t-39.5 202.5v648h156v-608q0 -146 81 -223t211 -77q182 16 264 126t82 266v516h156v-1052h-156v238q-112 -244 -400 -244zM920 -408h-156l-134 146l-134 -146h-156l206 258h168zM920 -150z" />
    <glyph glyph-name="uni1E78" unicode="&#x1e78;" horiz-adv-x="1530" 
d="M766 -12q-200 0 -330 76q-135 82 -195.5 215t-60.5 291v830h160v-830q0 -152 56 -247q60 -100 158 -144.5t212 -44.5q113 0 209.5 43t155.5 140t59 253v830h158v-830q0 -256 -133 -410q-149 -172 -449 -172zM908 1530q-70 4 -150 52t-118 48q-74 0 -76 -94h-94
q0 202 156 202q70 -4 150 -52t118 -48q76 0 76 92h92q0 -86 -36 -143t-118 -57zM758 1806l-122 38l270 206l132 -92z" />
    <glyph glyph-name="uni1E79" unicode="&#x1e79;" horiz-adv-x="1294" 
d="M548 -6q-138 0 -225 55q-90 59 -129.5 152.5t-39.5 202.5v648h156v-608q0 -146 81 -223t211 -77q182 16 264 126t82 266v516h156v-1052h-156v238q-112 -244 -400 -244zM790 1212q-70 4 -150 52t-118 48q-74 0 -76 -94h-94q0 202 156 202q70 -4 150 -52t118 -48
q76 0 76 92h92q0 -86 -36 -143t-118 -57zM640 1488l-122 38l270 206l132 -92z" />
    <glyph glyph-name="uni1E7A" unicode="&#x1e7a;" horiz-adv-x="1530" 
d="M766 -12q-200 0 -330 76q-135 82 -195.5 215t-60.5 291v830h160v-830q0 -152 56 -247q60 -100 158 -144.5t212 -44.5q113 0 209.5 43t155.5 140t59 253v830h158v-830q0 -256 -133 -410q-149 -172 -449 -172zM598 1742q-37 0 -64.5 27t-27.5 69q0 48 29 71t63 23
q48 0 70 -29t22 -65q0 -35 -23 -65.5t-69 -30.5zM994 1538h-480v108h480v-108zM908 1742q-37 0 -64.5 27t-27.5 69q0 48 29 71t63 23t63 -23t29 -71q0 -42 -27.5 -69t-64.5 -27z" />
    <glyph glyph-name="uni1E7B" unicode="&#x1e7b;" horiz-adv-x="1294" 
d="M548 -6q-138 0 -225 55q-90 59 -129.5 152.5t-39.5 202.5v648h156v-608q0 -146 81 -223t211 -77q182 16 264 126t82 266v516h156v-1052h-156v238q-112 -244 -400 -244zM474 1422q-37 0 -64.5 27t-27.5 69q0 48 29 71t63 23q48 0 70 -29t22 -65q0 -35 -23 -65.5t-69 -30.5
zM870 1218h-480v108h480v-108zM784 1422q-37 0 -64.5 27t-27.5 69q0 48 29 71t63 23t63 -23t29 -71q0 -42 -27.5 -69t-64.5 -27z" />
    <glyph glyph-name="uni1E7C" unicode="&#x1e7c;" horiz-adv-x="1330" 
d="M12 0zM746 0h-166l-568 1400h172l482 -1220l484 1220h168zM806 1530q-74 0 -158 64q-66 46 -100 46q-72 0 -72 -102h-110q0 228 158 228q74 0 158 -64q66 -46 100 -46q72 0 72 102h110q0 -228 -158 -228z" />
    <glyph glyph-name="uni1E7D" unicode="&#x1e7d;" horiz-adv-x="996" 
d="M8 0zM588 0h-162l-418 1052h166l336 -894l334 894h158zM646 1224q-74 0 -158 64q-66 46 -100 46q-72 0 -72 -102h-110q0 228 158 228q74 0 158 -64q66 -46 100 -46q72 0 72 102h110q0 -228 -158 -228z" />
    <glyph glyph-name="uni1E7E" unicode="&#x1e7e;" horiz-adv-x="1330" 
d="M12 0zM746 0h-166l-568 1400h172l482 -1220l484 1220h168zM666 -362q-51 0 -76.5 33.5t-25.5 72.5q0 44 27.5 76t74.5 32t74.5 -32t27.5 -76q0 -39 -25.5 -72.5t-76.5 -33.5z" />
    <glyph glyph-name="uni1E7F" unicode="&#x1e7f;" horiz-adv-x="996" 
d="M8 0zM588 0h-162l-418 1052h166l336 -894l334 894h158zM506 -362q-51 0 -76.5 33.5t-25.5 72.5q0 44 27.5 76t74.5 32t74.5 -32t27.5 -76q0 -39 -25.5 -72.5t-76.5 -33.5z" />
    <glyph glyph-name="Wgrave" unicode="&#x1e80;" horiz-adv-x="2066" 
d="M1582 0h-166l-380 1194l-388 -1194h-164l-472 1400h172l386 -1226l386 1226h160l388 -1228l384 1228h168zM994 1530l-250 198l160 72l226 -254z" />
    <glyph glyph-name="wgrave" unicode="&#x1e81;" horiz-adv-x="1728" 
d="M1344 0h-162l-310 862l-308 -862h-162l-394 1052h164l312 -894l306 894h164l310 -894l308 894h162zM832 1230l-250 198l160 72l226 -254z" />
    <glyph glyph-name="Wacute" unicode="&#x1e82;" horiz-adv-x="2066" 
d="M1582 0h-166l-380 1194l-388 -1194h-164l-472 1400h172l386 -1226l386 1226h160l388 -1228l384 1228h168zM1076 1530l-136 16l226 254l160 -72z" />
    <glyph glyph-name="wacute" unicode="&#x1e83;" horiz-adv-x="1728" 
d="M1344 0h-162l-310 862l-308 -862h-162l-394 1052h164l312 -894l306 894h164l310 -894l308 894h162zM912 1230l-136 16l226 254l160 -72z" />
    <glyph glyph-name="Wdieresis" unicode="&#x1e84;" horiz-adv-x="2066" 
d="M1582 0h-166l-380 1194l-388 -1194h-164l-472 1400h172l386 -1226l386 1226h160l388 -1228l384 1228h168zM868 1530q-46 0 -70 31t-24 67q0 42 27 70t67 28t67 -28t27 -70q0 -36 -24 -67t-70 -31zM1204 1530q-46 0 -70 31t-24 67q0 42 27 70t67 28t67 -28t27 -70
q0 -36 -24 -67t-70 -31z" />
    <glyph glyph-name="wdieresis" unicode="&#x1e85;" horiz-adv-x="1728" 
d="M1344 0h-162l-310 862l-308 -862h-162l-394 1052h164l312 -894l306 894h164l310 -894l308 894h162zM702 1256q-37 0 -64.5 27t-27.5 69q0 52 29 75t63 23t64 -23t30 -75q0 -36 -23 -66t-71 -30zM1038 1256q-48 0 -71 30t-23 66q0 52 30 75t64 23t64 -23t30 -75
q0 -36 -23 -66t-71 -30z" />
    <glyph glyph-name="uni1E86" unicode="&#x1e86;" horiz-adv-x="2066" 
d="M12 0zM1582 0h-166l-380 1194l-388 -1194h-164l-472 1400h172l386 -1226l386 1226h160l388 -1228l384 1228h168zM1034 1530q-51 0 -76.5 33.5t-25.5 72.5q0 46 29 76t73 30t73 -30t29 -76q0 -39 -25.5 -72.5t-76.5 -33.5z" />
    <glyph glyph-name="uni1E87" unicode="&#x1e87;" horiz-adv-x="1728" 
d="M8 0zM1344 0h-162l-310 862l-308 -862h-162l-394 1052h164l312 -894l306 894h164l310 -894l308 894h162zM872 1248q-51 0 -76.5 33.5t-25.5 72.5q0 44 27.5 76t74.5 32t74.5 -32t27.5 -76q0 -39 -25.5 -72.5t-76.5 -33.5z" />
    <glyph glyph-name="uni1E88" unicode="&#x1e88;" horiz-adv-x="2066" 
d="M12 0zM1582 0h-166l-380 1194l-388 -1194h-164l-472 1400h172l386 -1226l386 1226h160l388 -1228l384 1228h168zM1034 -362q-51 0 -76.5 33.5t-25.5 72.5q0 44 27.5 76t74.5 32t74.5 -32t27.5 -76q0 -39 -25.5 -72.5t-76.5 -33.5z" />
    <glyph glyph-name="uni1E89" unicode="&#x1e89;" horiz-adv-x="1728" 
d="M8 0zM1344 0h-162l-310 862l-308 -862h-162l-394 1052h164l312 -894l306 894h164l310 -894l308 894h162zM872 -362q-51 0 -76.5 33.5t-25.5 72.5q0 44 27.5 76t74.5 32t74.5 -32t27.5 -76q0 -39 -25.5 -72.5t-76.5 -33.5z" />
    <glyph glyph-name="uni1E8A" unicode="&#x1e8a;" horiz-adv-x="1330" 
d="M1272 0h-192l-426 590l-422 -590h-188l514 720l-478 680h188l386 -546l390 546h188l-476 -672zM44 0zM658 1530q-51 0 -76.5 33.5t-25.5 72.5q0 46 29 76t73 30t73 -30t29 -76q0 -39 -25.5 -72.5t-76.5 -33.5z" />
    <glyph glyph-name="uni1E8B" unicode="&#x1e8b;" horiz-adv-x="1058" 
d="M1010 0h-182l-300 432l-310 -432h-176l384 542l-358 510h180l280 -402l284 402h172l-352 -510zM42 0zM526 1248q-51 0 -76.5 33.5t-25.5 72.5q0 44 27.5 76t74.5 32t74.5 -32t27.5 -76q0 -39 -25.5 -72.5t-76.5 -33.5z" />
    <glyph glyph-name="uni1E8C" unicode="&#x1e8c;" horiz-adv-x="1330" 
d="M1272 0h-192l-426 590l-422 -590h-188l514 720l-478 680h188l386 -546l390 546h188l-476 -672zM44 0zM490 1530q-46 0 -70 31t-24 67q0 42 27 70t67 28t67 -28t27 -70q0 -36 -24 -67t-70 -31zM826 1530q-46 0 -70 31t-24 67q0 42 27 70t67 28t67 -28t27 -70
q0 -36 -24 -67t-70 -31z" />
    <glyph glyph-name="uni1E8D" unicode="&#x1e8d;" horiz-adv-x="1058" 
d="M1010 0h-182l-300 432l-310 -432h-176l384 542l-358 510h180l280 -402l284 402h172l-352 -510zM42 0zM356 1256q-37 0 -64.5 27t-27.5 69q0 52 29 75t63 23t64 -23t30 -75q0 -36 -23 -66t-71 -30zM692 1256q-48 0 -71 30t-23 66q0 52 30 75t64 23t64 -23t30 -75
q0 -36 -23 -66t-71 -30z" />
    <glyph glyph-name="uni1E8E" unicode="&#x1e8e;" horiz-adv-x="1250" 
d="M708 0h-158v482l-542 918h166l454 -734l448 734h164l-532 -914v-486zM624 1530q-51 0 -76.5 33.5t-25.5 72.5q0 46 29 76t73 30t73 -30t29 -76q0 -39 -25.5 -72.5t-76.5 -33.5z" />
    <glyph glyph-name="uni1E8F" unicode="&#x1e8f;" horiz-adv-x="1004" 
d="M210 -394q-130 0 -222 76l66 124q68 -50 148 -50q124 0 192 152l44 100l-436 1044h164l350 -876l334 876h160l-484 -1202q-106 -244 -316 -244zM508 1248q-51 0 -76.5 33.5t-25.5 72.5q0 44 27.5 76t74.5 32t74.5 -32t27.5 -76q0 -39 -25.5 -72.5t-76.5 -33.5z" />
    <glyph glyph-name="uni1E90" unicode="&#x1e90;" horiz-adv-x="1320" 
d="M1232 0h-1146v124l928 1128h-902v148h1112v-124l-928 -1128h938zM86 0zM950 1536h-156l-134 146l-134 -146h-156l206 258h168z" />
    <glyph glyph-name="uni1E91" unicode="&#x1e91;" horiz-adv-x="1054" 
d="M968 -2l-864 2v116l660 804l-642 2v130h830v-116l-660 -804l676 -2v-132zM104 0zM826 1236h-156l-134 146l-134 -146h-156l206 258h168z" />
    <glyph glyph-name="uni1E92" unicode="&#x1e92;" horiz-adv-x="1320" 
d="M1232 0h-1146v124l928 1128h-902v148h1112v-124l-928 -1128h938zM660 -362q-51 0 -76.5 33.5t-25.5 72.5q0 44 27.5 76t74.5 32t74.5 -32t27.5 -76q0 -39 -25.5 -72.5t-76.5 -33.5z" />
    <glyph glyph-name="uni1E93" unicode="&#x1e93;" horiz-adv-x="1054" 
d="M968 -2l-864 2v116l660 804l-642 2v130h830v-116l-660 -804l676 -2v-132zM536 -362q-51 0 -76.5 33.5t-25.5 72.5q0 44 27.5 76t74.5 32t74.5 -32t27.5 -76q0 -39 -25.5 -72.5t-76.5 -33.5z" />
    <glyph glyph-name="uni1E94" unicode="&#x1e94;" horiz-adv-x="1320" 
d="M1232 0h-1146v124l928 1128h-902v148h1112v-124l-928 -1128h938zM86 0zM940 -274h-560v106h560v-106z" />
    <glyph glyph-name="uni1E95" unicode="&#x1e95;" horiz-adv-x="1054" 
d="M968 -2l-864 2v116l660 804l-642 2v130h830v-116l-660 -804l676 -2v-132zM104 0zM816 -274h-560v106h560v-106z" />
    <glyph glyph-name="uni1E96" unicode="&#x1e96;" horiz-adv-x="1324" 
d="M1166 0h-156v608q0 152 -84 226t-214 74q-184 -12 -270 -124t-86 -268v-516h-156v1484h156v-668q114 242 410 242q142 0 230 -53t129 -146t41 -211v-648zM200 0zM964 -274h-560v106h560v-106z" />
    <glyph glyph-name="uni1E97" unicode="&#x1e97;" horiz-adv-x="780" 
d="M138 1500q-37 0 -64.5 27t-27.5 69q0 52 29 75t63 23t64 -23t30 -75q0 -36 -23 -66t-71 -30zM496 -6q-112 0 -190 68t-78 230v606h-152v122h152v276h154v-276h334v-122h-334v-580q0 -180 134 -180q80 0 174 54l44 -120q-110 -78 -238 -78zM474 1500q-48 0 -71 30t-23 66
q0 52 30 75t64 23t64 -23t30 -75q0 -36 -23 -66t-71 -30z" />
    <glyph glyph-name="uni1E98" unicode="&#x1e98;" horiz-adv-x="1728" 
d="M8 0zM1344 0h-162l-310 862l-308 -862h-162l-394 1052h164l312 -894l306 894h164l310 -894l308 894h162zM870 1160q-82 0 -143 56t-61 148q0 80 56 141t148 61q62 0 108.5 -28.5t72 -74.5t25.5 -99q0 -62 -29.5 -108t-76.5 -71t-100 -25zM870 1250q47 0 83.5 32.5
t36.5 81.5q0 54 -38 83t-82 29t-82 -29t-38 -83q0 -49 36.5 -81.5t83.5 -32.5z" />
    <glyph glyph-name="uni1E99" unicode="&#x1e99;" horiz-adv-x="1004" 
d="M210 -394q-130 0 -222 76l66 124q68 -50 148 -50q124 0 192 152l44 100l-436 1044h164l350 -876l334 876h160l-484 -1202q-106 -244 -316 -244zM0 0zM498 1160q-82 0 -143 56t-61 148q0 80 56 141t148 61q62 0 108.5 -28.5t72 -74.5t25.5 -99q0 -62 -29.5 -108t-76.5 -71
t-100 -25zM498 1250q47 0 83.5 32.5t36.5 81.5q0 54 -38 83t-82 29t-82 -29t-38 -83q0 -49 36.5 -81.5t83.5 -32.5z" />
    <glyph glyph-name="uni1E9A" unicode="&#x1e9a;" horiz-adv-x="1154" 
d="M100 0zM458 -6q-123 0 -201.5 44t-117.5 117t-39 157q0 126 95 210t299 92h346v66q0 110 -67 179t-215 69q-176 0 -334 -122l-66 110q204 142 430 142q214 0 310 -100t96 -262l2 -696h-152v164q-134 -170 -386 -170zM488 124q124 0 219 57t135 181v128h-328
q-264 0 -268 -172q0 -80 61 -137t181 -57zM432 1130v80q60 0 108 39.5t48 106.5q0 56 -42.5 102t-113.5 46v80q104 0 168 -70t64 -158q0 -90 -64 -158t-168 -68z" />
    <glyph glyph-name="uni1E9B" unicode="&#x1e9b;" horiz-adv-x="664" 
d="M376 0h-154v1146q0 121 48 198q52 80 129 117t161 37q94 -4 178 -48l-38 -130q-62 38 -138 38t-131 -47t-55 -147v-1164zM222 0zM480 1628q-51 0 -76.5 33.5t-25.5 72.5q0 46 29 76t73 30t73 -30t29 -76q0 -39 -25.5 -72.5t-76.5 -33.5z" />
    <glyph glyph-name="uni1E9E" unicode="&#x1e9e;" horiz-adv-x="1350" 
d="M784 0h-166v146h166q160 0 239 75t79 183q0 110 -78 181t-246 71h-60v148l320 378q-126 78 -304 78q-105 0 -196 -37.5t-146.5 -123.5t-55.5 -225v-874h-160v874q0 266 153 399t401 133q264 0 444 -144v-140l-278 -326q194 -38 281 -145t87 -247q0 -174 -121 -289
t-359 -115z" />
    <glyph glyph-name="uni1EA0" unicode="&#x1ea0;" horiz-adv-x="1436" 
d="M1428 0h-174l-158 358h-762l-156 -358h-170l628 1400h166zM1032 506l-318 720l-314 -720h632zM712 -362q-51 0 -76.5 33.5t-25.5 72.5q0 44 27.5 76t74.5 32t74.5 -32t27.5 -76q0 -39 -25.5 -72.5t-76.5 -33.5z" />
    <glyph glyph-name="uni1EA1" unicode="&#x1ea1;" horiz-adv-x="1154" 
d="M458 -6q-123 0 -201.5 44t-117.5 117t-39 157q0 126 95 210t299 92h346v66q0 110 -67 179t-215 69q-176 0 -334 -122l-66 110q204 142 430 142q214 0 310 -100t96 -262l2 -696h-152v164q-134 -170 -386 -170zM488 124q124 0 219 57t135 181v128h-328q-264 0 -268 -172
q0 -80 61 -137t181 -57zM570 -362q-51 0 -76.5 33.5t-25.5 72.5q0 44 27.5 76t74.5 32t74.5 -32t27.5 -76q0 -39 -25.5 -72.5t-76.5 -33.5z" />
    <glyph glyph-name="uni1EA2" unicode="&#x1ea2;" horiz-adv-x="1436" 
d="M1428 0h-174l-158 358h-762l-156 -358h-170l628 1400h166zM1032 506l-318 720l-314 -720h632zM752 1496l-92 42q92 80 92 164q0 26 -17 47t-59 21q-38 0 -84 -28l-52 86q80 54 166 54q76 0 128 -36t52 -120q0 -110 -134 -230z" />
    <glyph glyph-name="uni1EA3" unicode="&#x1ea3;" horiz-adv-x="1154" 
d="M458 -6q-123 0 -201.5 44t-117.5 117t-39 157q0 126 95 210t299 92h346v66q0 110 -67 179t-215 69q-176 0 -334 -122l-66 110q204 142 430 142q214 0 310 -100t96 -262l2 -696h-152v164q-134 -170 -386 -170zM488 124q124 0 219 57t135 181v128h-328q-264 0 -268 -172
q0 -80 61 -137t181 -57zM602 1160l-92 42q92 80 92 164q0 26 -17 47t-59 21q-38 0 -84 -28l-52 86q82 54 166 54q76 0 128 -36t52 -120q0 -110 -134 -230z" />
    <glyph glyph-name="uni1EA4" unicode="&#x1ea4;" horiz-adv-x="1436" 
d="M1428 0h-174l-158 358h-762l-156 -358h-170l628 1400h166zM1028 1518h-168l-154 118l-154 -118h-168l212 188h218zM1032 506l-318 720l-314 -720h632zM696 1770l-122 38l270 206l132 -92z" />
    <glyph glyph-name="uni1EA5" unicode="&#x1ea5;" horiz-adv-x="1154" 
d="M458 -6q-123 0 -201.5 44t-117.5 117t-39 157q0 126 95 210t299 92h346v66q0 110 -67 179t-215 69q-176 0 -334 -122l-66 110q204 142 430 142q214 0 310 -100t96 -262l2 -696h-152v164q-134 -170 -386 -170zM872 1218h-168l-154 118l-154 -118h-168l212 188h218z
M488 124q124 0 219 57t135 181v128h-328q-264 0 -268 -172q0 -80 61 -137t181 -57zM540 1470l-122 38l270 206l132 -92z" />
    <glyph glyph-name="uni1EA6" unicode="&#x1ea6;" horiz-adv-x="1436" 
d="M1428 0h-174l-158 358h-762l-156 -358h-170l628 1400h166zM1040 1518h-168l-154 118l-154 -118h-168l212 188h218zM1032 506l-318 720l-314 -720h632zM718 1770l-280 152l132 92l270 -206z" />
    <glyph glyph-name="uni1EA7" unicode="&#x1ea7;" horiz-adv-x="1154" 
d="M458 -6q-123 0 -201.5 44t-117.5 117t-39 157q0 126 95 210t299 92h346v66q0 110 -67 179t-215 69q-176 0 -334 -122l-66 110q204 142 430 142q214 0 310 -100t96 -262l2 -696h-152v164q-134 -170 -386 -170zM488 124q124 0 219 57t135 181v128h-328q-264 0 -268 -172
q0 -80 61 -137t181 -57zM890 1218h-168l-154 118l-154 -118h-168l212 188h218zM568 1470l-280 152l132 92l270 -206z" />
    <glyph glyph-name="uni1EA8" unicode="&#x1ea8;" horiz-adv-x="1436" 
d="M1428 0h-174l-158 358h-762l-156 -358h-170l628 1400h166zM1032 506l-318 720l-314 -720h632zM1064 1518h-168l-154 118l-154 -118h-168l212 188h218zM758 1766l-84 36q86 66 86 120q0 46 -64 50q-38 0 -72 -20l-50 76q76 48 154 48q42 0 78 -13t58 -41.5t22 -73.5
q0 -90 -128 -182z" />
    <glyph glyph-name="uni1EA9" unicode="&#x1ea9;" horiz-adv-x="1154" 
d="M458 -6q-123 0 -201.5 44t-117.5 117t-39 157q0 126 95 210t299 92h346v66q0 110 -67 179t-215 69q-176 0 -334 -122l-66 110q204 142 430 142q214 0 310 -100t96 -262l2 -696h-152v164q-134 -170 -386 -170zM488 124q124 0 219 57t135 181v128h-328q-264 0 -268 -172
q0 -80 61 -137t181 -57zM890 1218h-168l-154 118l-154 -118h-168l212 188h218zM584 1466l-84 36q86 66 86 120q0 46 -64 50q-38 0 -72 -20l-50 76q76 48 154 48q42 0 78 -13t58 -41.5t22 -73.5q0 -90 -128 -182z" />
    <glyph glyph-name="uni1EAA" unicode="&#x1eaa;" horiz-adv-x="1436" 
d="M1428 0h-174l-158 358h-762l-156 -358h-170l628 1400h166zM1032 506l-318 720l-314 -720h632zM1050 1518h-168l-154 118l-154 -118h-168l212 188h218zM868 1784q-70 4 -150 52t-118 48q-74 0 -76 -94h-94q0 202 156 202q70 -4 150 -52t118 -48q76 0 76 92h92
q0 -86 -36 -143t-118 -57z" />
    <glyph glyph-name="uni1EAB" unicode="&#x1eab;" horiz-adv-x="1154" 
d="M458 -6q-123 0 -201.5 44t-117.5 117t-39 157q0 126 95 210t299 92h346v66q0 110 -67 179t-215 69q-176 0 -334 -122l-66 110q204 142 430 142q214 0 310 -100t96 -262l2 -696h-152v164q-134 -170 -386 -170zM488 124q124 0 219 57t135 181v128h-328q-264 0 -268 -172
q0 -80 61 -137t181 -57zM892 1218h-168l-154 118l-154 -118h-168l212 188h218zM710 1484q-70 4 -150 52t-118 48q-74 0 -76 -94h-94q0 202 156 202q70 -4 150 -52t118 -48q76 0 76 92h92q0 -86 -36 -143t-118 -57z" />
    <glyph glyph-name="uni1EAC" unicode="&#x1eac;" horiz-adv-x="1436" 
d="M1428 0h-174l-158 358h-762l-156 -358h-170l628 1400h166zM1032 506l-318 720l-314 -720h632zM1002 1536h-156l-134 146l-134 -146h-156l206 258h168zM712 -362q-51 0 -76.5 33.5t-25.5 72.5q0 44 27.5 76t74.5 32t74.5 -32t27.5 -76q0 -39 -25.5 -72.5t-76.5 -33.5z" />
    <glyph glyph-name="uni1EAD" unicode="&#x1ead;" horiz-adv-x="1154" 
d="M458 -6q-123 0 -201.5 44t-117.5 117t-39 157q0 126 95 210t299 92h346v66q0 110 -67 179t-215 69q-176 0 -334 -122l-66 110q204 142 430 142q214 0 310 -100t96 -262l2 -696h-152v164q-134 -170 -386 -170zM488 124q124 0 219 57t135 181v128h-328q-264 0 -268 -172
q0 -80 61 -137t181 -57zM860 1236h-156l-134 146l-134 -146h-156l206 258h168zM570 -362q-51 0 -76.5 33.5t-25.5 72.5q0 44 27.5 76t74.5 32t74.5 -32t27.5 -76q0 -39 -25.5 -72.5t-76.5 -33.5z" />
    <glyph glyph-name="uni1EAE" unicode="&#x1eae;" horiz-adv-x="1436" 
d="M1428 0h-174l-158 358h-762l-156 -358h-170l628 1400h166zM1032 506l-318 720l-314 -720h632zM714 1502q-98 0 -170 55t-86 165h114q14 -58 53 -84t89 -26q128 0 142 110h114q-12 -108 -84 -164t-172 -56zM704 1756l-122 38l270 206l132 -92z" />
    <glyph glyph-name="uni1EAF" unicode="&#x1eaf;" horiz-adv-x="1154" 
d="M458 -6q-123 0 -201.5 44t-117.5 117t-39 157q0 126 95 210t299 92h346v66q0 110 -67 179t-215 69q-176 0 -334 -122l-66 110q204 142 430 142q214 0 310 -100t96 -262l2 -696h-152v164q-134 -170 -386 -170zM488 124q124 0 219 57t135 181v128h-328q-264 0 -268 -172
q0 -80 61 -137t181 -57zM568 1218q-98 0 -170 55t-86 165h114q14 -58 53 -84t89 -26q128 0 142 110h114q-12 -108 -84 -164t-172 -56zM558 1472l-122 38l270 206l132 -92z" />
    <glyph glyph-name="uni1EB0" unicode="&#x1eb0;" horiz-adv-x="1436" 
d="M1428 0h-174l-158 358h-762l-156 -358h-170l628 1400h166zM1032 506l-318 720l-314 -720h632zM736 1756l-280 152l132 92l270 -206zM736 1502q-98 0 -170 55t-86 165h114q14 -58 53 -84t89 -26q128 0 142 110h114q-12 -108 -84 -164t-172 -56z" />
    <glyph glyph-name="uni1EB1" unicode="&#x1eb1;" horiz-adv-x="1154" 
d="M458 -6q-123 0 -201.5 44t-117.5 117t-39 157q0 126 95 210t299 92h346v66q0 110 -67 179t-215 69q-176 0 -334 -122l-66 110q204 142 430 142q214 0 310 -100t96 -262l2 -696h-152v164q-134 -170 -386 -170zM488 124q124 0 219 57t135 181v128h-328q-264 0 -268 -172
q0 -80 61 -137t181 -57zM580 1472l-280 152l132 92l270 -206zM580 1218q-98 0 -170 55t-86 165h114q14 -58 53 -84t89 -26q128 0 142 110h114q-12 -108 -84 -164t-172 -56z" />
    <glyph glyph-name="uni1EB2" unicode="&#x1eb2;" horiz-adv-x="1436" 
d="M1428 0h-174l-158 358h-762l-156 -358h-170l628 1400h166zM1032 506l-318 720l-314 -720h632zM718 1502q-98 0 -170 55t-86 165h114q14 -58 53 -84t89 -26q128 0 142 110h114q-12 -108 -84 -164t-172 -56zM734 1752l-84 36q86 66 86 120q0 46 -64 50q-38 0 -72 -20
l-50 76q74 48 154 48q42 0 78 -13t58 -41.5t22 -73.5q0 -90 -128 -182z" />
    <glyph glyph-name="uni1EB3" unicode="&#x1eb3;" horiz-adv-x="1154" 
d="M458 -6q-123 0 -201.5 44t-117.5 117t-39 157q0 126 95 210t299 92h346v66q0 110 -67 179t-215 69q-176 0 -334 -122l-66 110q204 142 430 142q214 0 310 -100t96 -262l2 -696h-152v164q-134 -170 -386 -170zM488 124q124 0 219 57t135 181v128h-328q-264 0 -268 -172
q0 -80 61 -137t181 -57zM568 1218q-98 0 -170 55t-86 165h114q14 -58 53 -84t89 -26q128 0 142 110h114q-12 -108 -84 -164t-172 -56zM584 1468l-84 36q86 66 86 120q0 46 -64 50q-38 0 -72 -20l-50 76q76 48 154 48q42 0 78 -13t58 -41.5t22 -73.5q0 -90 -128 -182z" />
    <glyph glyph-name="uni1EB4" unicode="&#x1eb4;" horiz-adv-x="1436" 
d="M1428 0h-174l-158 358h-762l-156 -358h-170l628 1400h166zM1032 506l-318 720l-314 -720h632zM862 1816q-70 4 -150 52t-118 48q-74 0 -76 -94h-94q0 202 156 202q70 -4 150 -52t118 -48q76 0 76 92h92q0 -86 -36 -143t-118 -57zM718 1504q-98 0 -170 55t-86 165h114
q14 -58 53 -84t89 -26q128 0 142 110h114q-12 -108 -84 -164t-172 -56z" />
    <glyph glyph-name="uni1EB5" unicode="&#x1eb5;" horiz-adv-x="1154" 
d="M458 -6q-123 0 -201.5 44t-117.5 117t-39 157q0 126 95 210t299 92h346v66q0 110 -67 179t-215 69q-176 0 -334 -122l-66 110q204 142 430 142q214 0 310 -100t96 -262l2 -696h-152v164q-134 -170 -386 -170zM488 124q124 0 219 57t135 181v128h-328q-264 0 -268 -172
q0 -80 61 -137t181 -57zM710 1530q-70 4 -150 52t-118 48q-74 0 -76 -94h-94q0 202 156 202q70 -4 150 -52t118 -48q76 0 76 92h92q0 -86 -36 -143t-118 -57zM566 1218q-98 0 -170 55t-86 165h114q14 -58 53 -84t89 -26q128 0 142 110h114q-12 -108 -84 -164t-172 -56z" />
    <glyph glyph-name="uni1EB6" unicode="&#x1eb6;" horiz-adv-x="1436" 
d="M1428 0h-174l-158 358h-762l-156 -358h-170l628 1400h166zM1032 506l-318 720l-314 -720h632zM712 1528q-100 0 -171 65t-83 193h110q20 -146 144 -146q122 0 142 146h112q-12 -128 -83 -193t-171 -65zM712 -362q-51 0 -76.5 33.5t-25.5 72.5q0 44 27.5 76t74.5 32
t74.5 -32t27.5 -76q0 -39 -25.5 -72.5t-76.5 -33.5z" />
    <glyph glyph-name="uni1EB7" unicode="&#x1eb7;" horiz-adv-x="1154" 
d="M458 -6q-123 0 -201.5 44t-117.5 117t-39 157q0 126 95 210t299 92h346v66q0 110 -67 179t-215 69q-176 0 -334 -122l-66 110q204 142 430 142q214 0 310 -100t96 -262l2 -696h-152v164q-134 -170 -386 -170zM488 124q124 0 219 57t135 181v128h-328q-264 0 -268 -172
q0 -80 61 -137t181 -57zM570 1224q-100 0 -171 65t-83 193h110q20 -146 144 -146q122 0 142 146h112q-12 -128 -83 -193t-171 -65zM570 -362q-51 0 -76.5 33.5t-25.5 72.5q0 44 27.5 76t74.5 32t74.5 -32t27.5 -76q0 -39 -25.5 -72.5t-76.5 -33.5z" />
    <glyph glyph-name="uni1EB8" unicode="&#x1eb8;" horiz-adv-x="1302" 
d="M1188 0h-976v1400h950v-148h-790v-470h706v-146h-706v-488h816v-148zM700 -362q-51 0 -76.5 33.5t-25.5 72.5q0 44 27.5 76t74.5 32t74.5 -32t27.5 -76q0 -39 -25.5 -72.5t-76.5 -33.5z" />
    <glyph glyph-name="uni1EB9" unicode="&#x1eb9;" horiz-adv-x="1176" 
d="M608 -6q-144 0 -263 61.5t-190 180t-71 290.5q0 176 69 291q73 120 190.5 178t262.5 63q172 0 281 -70q113 -75 163 -199t50 -275l-2 -46h-860q22 -154 118 -249t264 -95q198 0 326 134l86 -90q-160 -174 -424 -174zM958 592q-10 148 -96 242t-256 94q-166 0 -257 -93
t-111 -243h720zM596 -362q-51 0 -76.5 33.5t-25.5 72.5q0 44 27.5 76t74.5 32t74.5 -32t27.5 -76q0 -39 -25.5 -72.5t-76.5 -33.5z" />
    <glyph glyph-name="uni1EBA" unicode="&#x1eba;" horiz-adv-x="1302" 
d="M1188 0h-976v1400h950v-148h-790v-470h706v-146h-706v-488h816v-148zM736 1496l-92 42q92 80 92 164q0 26 -17 47t-59 21q-38 0 -84 -28l-52 86q80 54 166 54q76 0 128 -36t52 -120q0 -110 -134 -230z" />
    <glyph glyph-name="uni1EBB" unicode="&#x1ebb;" horiz-adv-x="1176" 
d="M608 -6q-144 0 -263 61.5t-190 180t-71 290.5q0 176 69 291q73 120 190.5 178t262.5 63q172 0 281 -70q113 -75 163 -199t50 -275l-2 -46h-860q22 -154 118 -249t264 -95q198 0 326 134l86 -90q-160 -174 -424 -174zM958 592q-10 148 -96 242t-256 94q-166 0 -257 -93
t-111 -243h720zM628 1160l-92 42q92 80 92 164q0 26 -17 47t-59 21q-38 0 -84 -28l-52 86q80 54 166 54q76 0 128 -36t52 -120q0 -110 -134 -230z" />
    <glyph glyph-name="uni1EBC" unicode="&#x1ebc;" horiz-adv-x="1302" 
d="M1188 0h-976v1400h950v-148h-790v-470h706v-146h-706v-488h816v-148zM842 1530q-74 0 -158 64q-66 46 -100 46q-72 0 -72 -102h-110q0 228 158 228q74 0 158 -64q66 -46 100 -46q72 0 72 102h110q0 -228 -158 -228z" />
    <glyph glyph-name="uni1EBD" unicode="&#x1ebd;" horiz-adv-x="1176" 
d="M608 -6q-144 0 -263 61.5t-190 180t-71 290.5q0 176 69 291q73 120 190.5 178t262.5 63q172 0 281 -70q113 -75 163 -199t50 -275l-2 -46h-860q22 -154 118 -249t264 -95q198 0 326 134l86 -90q-160 -174 -424 -174zM958 592q-10 148 -96 242t-256 94q-166 0 -257 -93
t-111 -243h720zM734 1224q-74 0 -158 64q-66 46 -100 46q-72 0 -72 -102h-110q0 228 158 228q74 0 158 -64q66 -46 100 -46q72 0 72 102h110q0 -228 -158 -228z" />
    <glyph glyph-name="uni1EBE" unicode="&#x1ebe;" horiz-adv-x="1302" 
d="M1188 0h-976v1400h950v-148h-790v-470h706v-146h-706v-488h816v-148zM1012 1518h-168l-154 118l-154 -118h-168l212 188h218zM680 1770l-122 38l270 206l132 -92z" />
    <glyph glyph-name="uni1EBF" unicode="&#x1ebf;" horiz-adv-x="1176" 
d="M608 -6q-144 0 -263 61.5t-190 180t-71 290.5q0 176 69 291q73 120 190.5 178t262.5 63q172 0 281 -70q113 -75 163 -199t50 -275l-2 -46h-860q22 -154 118 -249t264 -95q198 0 326 134l86 -90q-160 -174 -424 -174zM958 592q-10 148 -96 242t-256 94q-166 0 -257 -93
t-111 -243h720zM898 1218h-168l-154 118l-154 -118h-168l212 188h218zM566 1470l-122 38l270 206l132 -92z" />
    <glyph glyph-name="uni1EC0" unicode="&#x1ec0;" horiz-adv-x="1302" 
d="M1188 0h-976v1400h950v-148h-790v-470h706v-146h-706v-488h816v-148zM1024 1518h-168l-154 118l-154 -118h-168l212 188h218zM702 1770l-280 152l132 92l270 -206z" />
    <glyph glyph-name="uni1EC1" unicode="&#x1ec1;" horiz-adv-x="1176" 
d="M608 -6q-144 0 -263 61.5t-190 180t-71 290.5q0 176 69 291q73 120 190.5 178t262.5 63q172 0 281 -70q113 -75 163 -199t50 -275l-2 -46h-860q22 -154 118 -249t264 -95q198 0 326 134l86 -90q-160 -174 -424 -174zM958 592q-10 148 -96 242t-256 94q-166 0 -257 -93
t-111 -243h720zM916 1218h-168l-154 118l-154 -118h-168l212 188h218zM594 1470l-280 152l132 92l270 -206z" />
    <glyph glyph-name="uni1EC2" unicode="&#x1ec2;" horiz-adv-x="1302" 
d="M1188 0h-976v1400h950v-148h-790v-470h706v-146h-706v-488h816v-148zM1048 1518h-168l-154 118l-154 -118h-168l212 188h218zM742 1766l-84 36q86 66 86 120q0 46 -64 50q-38 0 -72 -20l-50 76q74 48 154 48q42 0 78 -13t58 -41.5t22 -73.5q0 -90 -128 -182z" />
    <glyph glyph-name="uni1EC3" unicode="&#x1ec3;" horiz-adv-x="1176" 
d="M608 -6q-144 0 -263 61.5t-190 180t-71 290.5q0 176 69 291q73 120 190.5 178t262.5 63q172 0 281 -70q113 -75 163 -199t50 -275l-2 -46h-860q22 -154 118 -249t264 -95q198 0 326 134l86 -90q-160 -174 -424 -174zM958 592q-10 148 -96 242t-256 94q-166 0 -257 -93
t-111 -243h720zM916 1218h-168l-154 118l-154 -118h-168l212 188h218zM610 1466l-84 36q86 66 86 120q0 46 -64 50q-38 0 -72 -20l-50 76q74 48 154 48q42 0 78 -13t58 -41.5t22 -73.5q0 -90 -128 -182z" />
    <glyph glyph-name="uni1EC4" unicode="&#x1ec4;" horiz-adv-x="1302" 
d="M1188 0h-976v1400h950v-148h-790v-470h706v-146h-706v-488h816v-148zM1034 1518h-168l-154 118l-154 -118h-168l212 188h218zM852 1784q-70 4 -150 52t-118 48q-74 0 -76 -94h-94q0 202 156 202q70 -4 150 -52t118 -48q76 0 76 92h92q0 -86 -36 -143t-118 -57z" />
    <glyph glyph-name="uni1EC5" unicode="&#x1ec5;" horiz-adv-x="1176" 
d="M608 -6q-144 0 -263 61.5t-190 180t-71 290.5q0 176 69 291q73 120 190.5 178t262.5 63q172 0 281 -70q113 -75 163 -199t50 -275l-2 -46h-860q22 -154 118 -249t264 -95q198 0 326 134l86 -90q-160 -174 -424 -174zM958 592q-10 148 -96 242t-256 94q-166 0 -257 -93
t-111 -243h720zM918 1218h-168l-154 118l-154 -118h-168l212 188h218zM736 1484q-70 4 -150 52t-118 48q-74 0 -76 -94h-94q0 202 156 202q70 -4 150 -52t118 -48q76 0 76 92h92q0 -86 -36 -143t-118 -57z" />
    <glyph glyph-name="uni1EC6" unicode="&#x1ec6;" horiz-adv-x="1302" 
d="M1188 0h-976v1400h950v-148h-790v-470h706v-146h-706v-488h816v-148zM990 1536h-156l-134 146l-134 -146h-156l206 258h168zM700 -362q-51 0 -76.5 33.5t-25.5 72.5q0 44 27.5 76t74.5 32t74.5 -32t27.5 -76q0 -39 -25.5 -72.5t-76.5 -33.5z" />
    <glyph glyph-name="uni1EC7" unicode="&#x1ec7;" horiz-adv-x="1176" 
d="M608 -6q-144 0 -263 61.5t-190 180t-71 290.5q0 176 69 291q73 120 190.5 178t262.5 63q172 0 281 -70q113 -75 163 -199t50 -275l-2 -46h-860q22 -154 118 -249t264 -95q198 0 326 134l86 -90q-160 -174 -424 -174zM958 592q-10 148 -96 242t-256 94q-166 0 -257 -93
t-111 -243h720zM886 1236h-156l-134 146l-134 -146h-156l206 258h168zM596 -362q-51 0 -76.5 33.5t-25.5 72.5q0 44 27.5 76t74.5 32t74.5 -32t27.5 -76q0 -39 -25.5 -72.5t-76.5 -33.5z" />
    <glyph glyph-name="uni1EC8" unicode="&#x1ec8;" horiz-adv-x="584" 
d="M326 1496l-92 42q92 80 92 164q0 26 -17 47t-59 21q-38 0 -84 -28l-52 86q82 54 166 54q76 0 128 -36t52 -120q0 -110 -134 -230zM372 0h-160v1400h160v-1400z" />
    <glyph glyph-name="uni1EC9" unicode="&#x1ec9;" horiz-adv-x="534" 
d="M300 1160l-92 42q92 80 92 164q0 26 -17 47t-59 21q-38 0 -84 -28l-52 86q82 54 166 54q76 0 128 -36t52 -120q0 -110 -134 -230zM344 0h-154v1052h154v-1052z" />
    <glyph glyph-name="uni1ECA" unicode="&#x1eca;" horiz-adv-x="584" 
d="M292 -362q-51 0 -76.5 33.5t-25.5 72.5q0 44 27.5 76t74.5 32t74.5 -32t27.5 -76q0 -39 -25.5 -72.5t-76.5 -33.5zM372 0h-160v1400h160v-1400z" />
    <glyph glyph-name="uni1ECB" unicode="&#x1ecb;" horiz-adv-x="534" 
d="M266 -362q-51 0 -76.5 33.5t-25.5 72.5q0 44 27.5 76t74.5 32t74.5 -32t27.5 -76q0 -39 -25.5 -72.5t-76.5 -33.5zM266 1248q-51 0 -76.5 33.5t-25.5 72.5q0 44 27.5 76t74.5 32t74.5 -32t27.5 -76q0 -39 -25.5 -72.5t-76.5 -33.5zM344 0h-154v1052h154v-1052z" />
    <glyph glyph-name="uni1ECC" unicode="&#x1ecc;" horiz-adv-x="1626" 
d="M822 -12h-16q-306 0 -516 210q-105 105 -157.5 229t-52.5 275q0 298 213 504t529 206q304 0 514 -208t210 -494v-16q0 -298 -214 -502t-510 -204zM814 134q234 0 401 165t167 403q0 232 -166 397t-402 165t-404 -163t-168 -399q0 -238 170 -403t402 -165zM814 -362
q-51 0 -76.5 33.5t-25.5 72.5q0 44 27.5 76t74.5 32t74.5 -32t27.5 -76q0 -39 -25.5 -72.5t-76.5 -33.5z" />
    <glyph glyph-name="uni1ECD" unicode="&#x1ecd;" horiz-adv-x="1236" 
d="M618 -6q-238 0 -386 148t-148 386q0 242 152 386t382 144q101 0 196.5 -32t171.5 -97.5t121 -165t45 -235.5q0 -170 -73 -289q-84 -130 -206.5 -187.5t-254.5 -57.5zM618 130q93 0 180 40t145 131q53 87 53 225q0 164 -100 279t-278 115t-278 -115t-100 -279
q0 -136 52.5 -223t138 -130t187.5 -43zM618 -362q-51 0 -76.5 33.5t-25.5 72.5q0 44 27.5 76t74.5 32t74.5 -32t27.5 -76q0 -39 -25.5 -72.5t-76.5 -33.5z" />
    <glyph glyph-name="uni1ECE" unicode="&#x1ece;" horiz-adv-x="1626" 
d="M822 -12h-16q-306 0 -516 210q-105 105 -157.5 229t-52.5 275q0 298 213 504t529 206q304 0 514 -208t210 -494v-16q0 -298 -214 -502t-510 -204zM814 134q234 0 401 165t167 403q0 232 -166 397t-402 165t-404 -163t-168 -399q0 -238 170 -403t402 -165zM848 1496
l-92 42q92 80 92 164q0 26 -17 47t-59 21q-38 0 -84 -28l-52 86q80 54 166 54q76 0 128 -36t52 -120q0 -110 -134 -230z" />
    <glyph glyph-name="uni1ECF" unicode="&#x1ecf;" horiz-adv-x="1236" 
d="M618 -6q-238 0 -386 148t-148 386q0 242 152 386t382 144q101 0 196.5 -32t171.5 -97.5t121 -165t45 -235.5q0 -170 -73 -289q-84 -130 -206.5 -187.5t-254.5 -57.5zM618 130q93 0 180 40t145 131q53 87 53 225q0 164 -100 279t-278 115t-278 -115t-100 -279
q0 -136 52.5 -223t138 -130t187.5 -43zM652 1160l-92 42q92 80 92 164q0 26 -17 47t-59 21q-38 0 -84 -28l-52 86q80 54 166 54q76 0 128 -36t52 -120q0 -110 -134 -230z" />
    <glyph glyph-name="uni1ED0" unicode="&#x1ed0;" horiz-adv-x="1626" 
d="M822 -12h-16q-306 0 -516 210q-105 105 -157.5 229t-52.5 275q0 298 213 504t529 206q304 0 514 -208t210 -494v-16q0 -298 -214 -502t-510 -204zM814 134q234 0 401 165t167 403q0 232 -166 397t-402 165t-404 -163t-168 -399q0 -238 170 -403t402 -165zM1124 1518h-168
l-154 118l-154 -118h-168l212 188h218zM792 1770l-122 38l270 206l132 -92z" />
    <glyph glyph-name="uni1ED1" unicode="&#x1ed1;" horiz-adv-x="1236" 
d="M618 -6q-238 0 -386 148t-148 386q0 242 152 386t382 144q101 0 196.5 -32t171.5 -97.5t121 -165t45 -235.5q0 -170 -73 -289q-84 -130 -206.5 -187.5t-254.5 -57.5zM618 130q93 0 180 40t145 131q53 87 53 225q0 164 -100 279t-278 115t-278 -115t-100 -279
q0 -136 52.5 -223t138 -130t187.5 -43zM922 1218h-168l-154 118l-154 -118h-168l212 188h218zM590 1470l-122 38l270 206l132 -92z" />
    <glyph glyph-name="uni1ED2" unicode="&#x1ed2;" horiz-adv-x="1626" 
d="M822 -12h-16q-306 0 -516 210q-105 105 -157.5 229t-52.5 275q0 298 213 504t529 206q304 0 514 -208t210 -494v-16q0 -298 -214 -502t-510 -204zM814 134q234 0 401 165t167 403q0 232 -166 397t-402 165t-404 -163t-168 -399q0 -238 170 -403t402 -165zM1136 1518h-168
l-154 118l-154 -118h-168l212 188h218zM814 1770l-280 152l132 92l270 -206z" />
    <glyph glyph-name="uni1ED3" unicode="&#x1ed3;" horiz-adv-x="1236" 
d="M618 -6q-238 0 -386 148t-148 386q0 242 152 386t382 144q101 0 196.5 -32t171.5 -97.5t121 -165t45 -235.5q0 -170 -73 -289q-84 -130 -206.5 -187.5t-254.5 -57.5zM618 130q93 0 180 40t145 131q53 87 53 225q0 164 -100 279t-278 115t-278 -115t-100 -279
q0 -136 52.5 -223t138 -130t187.5 -43zM940 1218h-168l-154 118l-154 -118h-168l212 188h218zM618 1470l-280 152l132 92l270 -206z" />
    <glyph glyph-name="uni1ED4" unicode="&#x1ed4;" horiz-adv-x="1626" 
d="M822 -12h-16q-306 0 -516 210q-105 105 -157.5 229t-52.5 275q0 298 213 504t529 206q304 0 514 -208t210 -494v-16q0 -298 -214 -502t-510 -204zM814 134q234 0 401 165t167 403q0 232 -166 397t-402 165t-404 -163t-168 -399q0 -238 170 -403t402 -165zM1160 1518h-168
l-154 118l-154 -118h-168l212 188h218zM854 1766l-84 36q86 66 86 120q0 46 -64 50q-38 0 -72 -20l-50 76q74 48 154 48q42 0 78 -13t58 -41.5t22 -73.5q0 -90 -128 -182z" />
    <glyph glyph-name="uni1ED5" unicode="&#x1ed5;" horiz-adv-x="1236" 
d="M618 -6q-238 0 -386 148t-148 386q0 242 152 386t382 144q101 0 196.5 -32t171.5 -97.5t121 -165t45 -235.5q0 -170 -73 -289q-84 -130 -206.5 -187.5t-254.5 -57.5zM618 130q93 0 180 40t145 131q53 87 53 225q0 164 -100 279t-278 115t-278 -115t-100 -279
q0 -136 52.5 -223t138 -130t187.5 -43zM940 1218h-168l-154 118l-154 -118h-168l212 188h218zM634 1466l-84 36q86 66 86 120q0 46 -64 50q-38 0 -72 -20l-50 76q74 48 154 48q42 0 78 -13t58 -41.5t22 -73.5q0 -90 -128 -182z" />
    <glyph glyph-name="uni1ED6" unicode="&#x1ed6;" horiz-adv-x="1626" 
d="M822 -12h-16q-306 0 -516 210q-105 105 -157.5 229t-52.5 275q0 298 213 504t529 206q304 0 514 -208t210 -494v-16q0 -298 -214 -502t-510 -204zM814 134q234 0 401 165t167 403q0 232 -166 397t-402 165t-404 -163t-168 -399q0 -238 170 -403t402 -165zM1146 1518h-168
l-154 118l-154 -118h-168l212 188h218zM964 1784q-70 4 -150 52t-118 48q-74 0 -76 -94h-94q0 202 156 202q70 -4 150 -52t118 -48q76 0 76 92h92q0 -86 -36 -143t-118 -57z" />
    <glyph glyph-name="uni1ED7" unicode="&#x1ed7;" horiz-adv-x="1236" 
d="M618 -6q-238 0 -386 148t-148 386q0 242 152 386t382 144q101 0 196.5 -32t171.5 -97.5t121 -165t45 -235.5q0 -170 -73 -289q-84 -130 -206.5 -187.5t-254.5 -57.5zM618 130q93 0 180 40t145 131q53 87 53 225q0 164 -100 279t-278 115t-278 -115t-100 -279
q0 -136 52.5 -223t138 -130t187.5 -43zM942 1218h-168l-154 118l-154 -118h-168l212 188h218zM760 1484q-70 4 -150 52t-118 48q-74 0 -76 -94h-94q0 202 156 202q70 -4 150 -52t118 -48q76 0 76 92h92q0 -86 -36 -143t-118 -57z" />
    <glyph glyph-name="uni1ED8" unicode="&#x1ed8;" horiz-adv-x="1626" 
d="M822 -12h-16q-306 0 -516 210q-105 105 -157.5 229t-52.5 275q0 298 213 504t529 206q304 0 514 -208t210 -494v-16q0 -298 -214 -502t-510 -204zM814 134q234 0 401 165t167 403q0 232 -166 397t-402 165t-404 -163t-168 -399q0 -238 170 -403t402 -165zM1104 1536h-156
l-134 146l-134 -146h-156l206 258h168zM814 -362q-51 0 -76.5 33.5t-25.5 72.5q0 44 27.5 76t74.5 32t74.5 -32t27.5 -76q0 -39 -25.5 -72.5t-76.5 -33.5z" />
    <glyph glyph-name="uni1ED9" unicode="&#x1ed9;" horiz-adv-x="1236" 
d="M618 -6q-238 0 -386 148t-148 386q0 242 152 386t382 144q101 0 196.5 -32t171.5 -97.5t121 -165t45 -235.5q0 -170 -73 -289q-84 -130 -206.5 -187.5t-254.5 -57.5zM618 130q93 0 180 40t145 131q53 87 53 225q0 164 -100 279t-278 115t-278 -115t-100 -279
q0 -136 52.5 -223t138 -130t187.5 -43zM908 1236h-156l-134 146l-134 -146h-156l206 258h168zM618 -362q-51 0 -76.5 33.5t-25.5 72.5q0 44 27.5 76t74.5 32t74.5 -32t27.5 -76q0 -39 -25.5 -72.5t-76.5 -33.5z" />
    <glyph glyph-name="uni1EDA" unicode="&#x1eda;" horiz-adv-x="1678" 
d="M822 -12h-16q-306 0 -516 210q-105 105 -157.5 229t-52.5 275q0 298 213 504t521 206q174 0 318 -68q42 -16 86 -16q50 0 81 21.5t45 57.5t14 79q-4 66 -44 124l130 50q50 -92 50 -176q0 -44 -30 -128t-160 -124q121 -103 181.5 -235.5t60.5 -302.5q0 -298 -214 -502
t-510 -204zM814 134q234 0 401 165t167 403q0 232 -166 397t-402 165t-404 -163t-168 -399q0 -238 170 -403t402 -165zM856 1530l-136 16l226 254l160 -72z" />
    <glyph glyph-name="uni1EDB" unicode="&#x1edb;" horiz-adv-x="1292" 
d="M618 -6q-238 0 -386 148t-148 386q0 242 152 386t382 144q150 0 268 -64v2q42 -16 86 -16q74 0 107 46t33 112q-4 66 -44 124l130 50q48 -92 48 -174q0 -214 -214 -260q120 -140 120 -350q0 -170 -73 -289q-84 -130 -206.5 -187.5t-254.5 -57.5zM618 130q93 0 180 40
t145 131q53 87 53 225q0 164 -100 279t-278 115t-278 -115t-100 -279q0 -136 52.5 -223t138 -130t187.5 -43zM660 1230l-136 16l226 254l160 -72z" />
    <glyph glyph-name="uni1EDC" unicode="&#x1edc;" horiz-adv-x="1678" 
d="M822 -12h-16q-306 0 -516 210q-105 105 -157.5 229t-52.5 275q0 298 213 504t521 206q174 0 318 -68q42 -16 86 -16q50 0 81 21.5t45 57.5t14 79q-4 66 -44 124l130 50q50 -92 50 -176q0 -44 -30 -128t-160 -124q121 -103 181.5 -235.5t60.5 -302.5q0 -298 -214 -502
t-510 -204zM814 134q234 0 401 165t167 403q0 232 -166 397t-402 165t-404 -163t-168 -399q0 -238 170 -403t402 -165zM774 1530l-250 198l160 72l226 -254z" />
    </font>
</defs>
</svg>
