<?xml version="1.0" encoding="UTF-8" standalone="no"?>
<!-- Created with Inkscape (http://www.inkscape.org/) -->

<svg
   xmlns:dc="http://purl.org/dc/elements/1.1/"
   xmlns:cc="http://creativecommons.org/ns#"
   xmlns:rdf="http://www.w3.org/1999/02/22-rdf-syntax-ns#"
   xmlns:svg="http://www.w3.org/2000/svg"
   xmlns="http://www.w3.org/2000/svg"
   xmlns:sodipodi="http://sodipodi.sourceforge.net/DTD/sodipodi-0.dtd"
   xmlns:inkscape="http://www.inkscape.org/namespaces/inkscape"
   version="1.1"
   id="svg29"
   xml:space="preserve"
   width="173.01186"
   height="45.999996"
   viewBox="0 0 173.01185 45.999996"
   sodipodi:docname="logo.svg"
   inkscape:version="0.92.1 r15371"><metadata
     id="metadata35"><rdf:RDF><cc:Work
         rdf:about=""><dc:format>image/svg+xml</dc:format><dc:type
           rdf:resource="http://purl.org/dc/dcmitype/StillImage" /><dc:title></dc:title></cc:Work></rdf:RDF></metadata><defs
     id="defs33"><clipPath
       clipPathUnits="userSpaceOnUse"
       id="clipPath47"><path
         d="M 0,595.28 H 847.56 V 0 H 0 Z"
         id="path45"
         inkscape:connector-curvature="0" /></clipPath></defs><sodipodi:namedview
     pagecolor="#ffffff"
     bordercolor="#666666"
     borderopacity="1"
     objecttolerance="10"
     gridtolerance="10"
     guidetolerance="10"
     inkscape:pageopacity="0"
     inkscape:pageshadow="2"
     inkscape:window-width="1600"
     inkscape:window-height="840"
     id="namedview31"
     showgrid="false"
     fit-margin-top="0"
     fit-margin-left="0"
     fit-margin-right="0"
     fit-margin-bottom="0"
     inkscape:zoom="0.8252419"
     inkscape:cx="-25.522874"
     inkscape:cy="-207.43451"
     inkscape:window-x="0"
     inkscape:window-y="0"
     inkscape:window-maximized="1"
     inkscape:current-layer="g37" /><g
     id="g37"
     inkscape:groupmode="layer"
     inkscape:label="logo-HUCR-manual"
     transform="matrix(1.3333333,0,0,-1.3333333,-455.47174,601.81721)"><g
       id="g117"
       transform="matrix(0.79348151,0,0,0.79348151,348.96732,431.85105)"
       style="fill:#18baaf;fill-opacity:1"><path
         d="M 0,0 H 5.498 L 4.895,-5.7 c -0.533,-4.97 -0.781,-8.632 0.903,-10.504 1.238,-1.379 3.748,-2.021 7.899,-2.021 9.155,0 10.33,3.303 11.356,12.743 l 3.175,29.984 h -7.212 l -3.26,-30.449 c -0.429,-4.371 -0.574,-5.847 -3.207,-5.847 -0.659,0 -1.403,0.079 -1.925,0.653 -0.722,0.795 -0.641,1.989 -0.387,4.61 l 0.09,0.922 3.309,30.111 H 8.092 L 6.334,7.895 H 0.885 L 2.653,24.502 H -4.739 L -9.28,-18.225 h 7.394 z"
         style="fill:#18baaf;fill-opacity:1;fill-rule:nonzero;stroke:none"
         id="path119"
         inkscape:connector-curvature="0" /></g><g
       id="g121"
       transform="matrix(0.79348151,0,0,0.79348151,392.01516,451.29286)"
       style="fill:#18baaf;fill-opacity:1"><path
         d="m 0,0 h -12.085 c -4.523,0 -7.17,-0.738 -8.847,-2.469 -2.787,-2.894 -3.339,-8.385 -4.176,-16.694 l -0.411,-4.062 c -0.392,-3.864 -0.731,-7.201 -0.731,-9.947 0,-6.965 1.445,-10.073 10.012,-10.073 0.722,0 1.485,0.04 2.268,0.117 l 0.101,0.005 h 4.38 l 0.727,6.809 -6.09,-0.002 c -2.404,0 -3.623,0.609 -3.623,3.936 0,1.521 0.226,3.669 0.568,6.919 0.124,1.176 0.262,2.494 0.41,3.971 l 0.19,1.808 c 1.184,11.312 1.337,12.764 5.092,12.764 h 0.126 l 10.81,0.002 c 2.483,0 2.483,-2.293 2.483,-3.156 0,-1.11 -0.223,-3.028 -0.438,-4.758 l -0.04,-0.379 C 0.1,-21.126 -0.16,-23.574 -2.743,-23.574 h -2.285 l 1.128,11.283 h -7.204 l -1.964,-18.648 9.878,-0.004 1.191,-12.18 H 5.198 L 3.5,-27.83 l 0.369,0.35 c 3.104,2.93 3.864,7.816 4.378,12.568 0.22,1.805 0.361,4.131 0.361,5.938 C 8.608,-3.291 7.199,0 0,0"
         style="fill:#18baaf;fill-opacity:1;fill-rule:nonzero;stroke:none"
         id="path123"
         inkscape:connector-curvature="0" /></g><g
       id="g125"
       transform="matrix(0.79348151,0,0,0.79348151,405.98251,442.57384)"
       style="fill:#18baaf;fill-opacity:1"><path
         d="M 0,0 H 3.168 L 2.251,-8.67 H 6.539 L 8.61,11.076 H 4.322 L 3.489,3.074 H 0.32 l 0.835,8.002 H -3.133 L -5.206,-8.67 h 4.29 z"
         style="fill:#18baaf;fill-opacity:1;fill-rule:nonzero;stroke:none"
         id="path127"
         inkscape:connector-curvature="0" /></g><g
       id="g129"
       transform="matrix(0.79348151,0,0,0.79348151,416.60074,440.17324)"
       style="fill:#18baaf;fill-opacity:1"><path
         d="m 0,0 1.478,14.102 h -4.23 L -4.169,0.608 c -0.071,-0.555 -0.106,-1.08 -0.106,-1.573 0,-0.435 0.027,-0.845 0.082,-1.226 0.111,-0.809 0.352,-1.491 0.721,-2.043 0.368,-0.551 0.918,-0.973 1.651,-1.256 0.729,-0.287 1.655,-0.429 2.774,-0.429 1.119,0 2.074,0.14 2.864,0.416 0.79,0.278 1.434,0.704 1.93,1.28 0.497,0.577 0.875,1.251 1.138,2.027 0.261,0.773 0.448,1.708 0.56,2.804 L 8.861,14.102 H 4.621 L 3.146,0 C 3.113,-0.316 3.077,-0.59 3.038,-0.82 2.998,-1.053 2.934,-1.299 2.848,-1.566 2.76,-1.832 2.652,-2.049 2.526,-2.215 2.398,-2.381 2.229,-2.521 2.019,-2.631 1.809,-2.744 1.564,-2.799 1.286,-2.799 c -0.349,0 -0.627,0.083 -0.834,0.245 -0.206,0.161 -0.341,0.376 -0.404,0.642 -0.064,0.266 -0.105,0.566 -0.119,0.899 v 0.18 c 0,0.278 0.023,0.556 0.071,0.833"
         style="fill:#18baaf;fill-opacity:1;fill-rule:nonzero;stroke:none"
         id="path131"
         inkscape:connector-curvature="0" /></g><g
       id="g133"
       transform="matrix(0.79348151,0,0,0.79348151,434.88413,435.69443)"
       style="fill:#18baaf;fill-opacity:1"><path
         d="m 0,0 1.751,19.746 h -4.43 l -3.645,-11.79 -1.013,11.79 h -4.586 L -14.317,0 h 3.121 L -9.517,13.232 -8.433,0 h 2.668 L -2.001,13.162 -3.084,0 Z"
         style="fill:#18baaf;fill-opacity:1;fill-rule:nonzero;stroke:none"
         id="path135"
         inkscape:connector-curvature="0" /></g><g
       id="g137"
       transform="matrix(0.79348151,0,0,0.79348151,438.1681,451.36258)"
       style="fill:#18baaf;fill-opacity:1"><path
         d="m 0,0 -2.072,-19.746 h 8.826 l 0.309,2.906 H 2.525 L 4.288,0 Z"
         style="fill:#18baaf;fill-opacity:1;fill-rule:nonzero;stroke:none"
         id="path139"
         inkscape:connector-curvature="0" /></g><g
       id="g141"
       transform="matrix(0.79348151,0,0,0.79348151,454.3787,451.36258)"
       style="fill:#18baaf;fill-opacity:1"><path
         d="M 0,0 H -3.562 L -4.574,-9.658 -7.695,0 h -3.012 l -2.073,-19.746 h 3.669 l 1.094,10.373 3.062,-10.373 h 2.883 z"
         style="fill:#18baaf;fill-opacity:1;fill-rule:nonzero;stroke:none"
         id="path143"
         inkscape:connector-curvature="0" /></g><g
       id="g145"
       transform="matrix(0.79348151,0,0,0.79348151,456.08422,451.36258)"
       style="fill:#18baaf;fill-opacity:1"><path
         d="M 0,0 -2.073,-19.746 H 6.789 L 7.1,-16.84 H 2.526 l 0.62,5.956 h 3.465 l 0.31,2.988 H 3.467 l 0.512,4.955 h 7.643 L 9.857,-19.746 h 4.288 l 1.779,16.805 h 3.021 L 19.255,0 H 8.868 Z"
         style="fill:#18baaf;fill-opacity:1;fill-rule:nonzero;stroke:none"
         id="path147"
         inkscape:connector-curvature="0" /></g><g
       id="g149"
       transform="matrix(0.79348151,0,0,0.79348151,409.95302,431.19002)"
       style="fill:#18baaf;fill-opacity:1"><path
         d="M 0,0 C -0.226,0.47 -0.533,0.872 -0.923,1.205 -1.312,1.538 -1.822,1.795 -2.454,1.974 -3.085,2.152 -3.825,2.24 -4.675,2.24 -5.778,2.24 -6.732,2.093 -7.532,1.795 -8.335,1.497 -8.99,1.048 -9.499,0.454 c -0.507,-0.596 -0.902,-1.286 -1.185,-2.071 -0.282,-0.788 -0.478,-1.717 -0.589,-2.788 l -0.739,-7.028 c -0.046,-0.539 -0.071,-1.053 -0.071,-1.539 -0.008,-0.236 -0.004,-0.466 0.012,-0.689 0.032,-0.68 0.166,-1.293 0.405,-1.834 0.238,-0.547 0.557,-1.01 0.959,-1.388 0.4,-0.376 0.928,-0.666 1.584,-0.869 0.654,-0.2 1.423,-0.304 2.305,-0.304 1.072,0 1.998,0.145 2.781,0.434 0.782,0.291 1.41,0.711 1.888,1.258 0.476,0.549 0.842,1.164 1.095,1.847 0.254,0.68 0.429,1.471 0.525,2.37 l 0.167,1.691 h -4.194 l -0.202,-2.025 c -0.04,-0.327 -0.073,-0.581 -0.1,-0.762 -0.029,-0.184 -0.082,-0.406 -0.162,-0.668 -0.08,-0.262 -0.175,-0.461 -0.286,-0.595 -0.111,-0.136 -0.267,-0.255 -0.47,-0.357 -0.203,-0.103 -0.44,-0.156 -0.709,-0.156 -0.595,0 -0.981,0.215 -1.155,0.645 -0.112,0.277 -0.168,0.637 -0.168,1.084 0,0.244 0.016,0.516 0.049,0.809 l 0.952,9.111 c 0.033,0.319 0.066,0.58 0.101,0.78 0.037,0.203 0.096,0.431 0.179,0.681 0.084,0.248 0.187,0.447 0.31,0.594 0.124,0.148 0.288,0.269 0.494,0.371 0.206,0.097 0.449,0.148 0.726,0.148 0.159,0 0.303,-0.015 0.43,-0.049 0.127,-0.031 0.236,-0.068 0.327,-0.111 0.092,-0.046 0.17,-0.113 0.231,-0.208 0.066,-0.096 0.116,-0.18 0.156,-0.253 0.04,-0.07 0.069,-0.178 0.089,-0.318 0.021,-0.145 0.035,-0.257 0.042,-0.334 0.008,-0.082 0.006,-0.209 -0.005,-0.383 -0.013,-0.176 -0.022,-0.303 -0.03,-0.381 -0.009,-0.08 -0.02,-0.214 -0.036,-0.404 l -0.203,-1.967 h 4.193 l 0.178,1.74 c 0.032,0.388 0.048,0.768 0.048,1.131 0,0.254 -0.007,0.504 -0.024,0.749 C 0.359,-0.995 0.227,-0.468 0,0"
         style="fill:#18baaf;fill-opacity:1;fill-rule:nonzero;stroke:none"
         id="path151"
         inkscape:connector-curvature="0" /></g><g
       id="g153"
       transform="matrix(0.79348151,0,0,0.79348151,417.75144,428.29737)"
       style="fill:#18baaf;fill-opacity:1"><path
         d="m 0,0 c -0.096,-0.943 -0.356,-1.645 -0.781,-2.1 -0.424,-0.457 -1.09,-0.685 -1.995,-0.685 H -3.86 l 0.585,5.515 h 1.321 c 0.834,0 1.393,-0.223 1.679,-0.668 C -0.068,1.737 0.034,1.281 0.034,0.694 0.034,0.479 0.022,0.248 0,0 M 3.263,4.016 C 2.944,4.413 2.521,4.732 1.988,4.969 1.457,5.208 0.873,5.374 0.237,5.47 -0.397,5.564 -1.133,5.613 -1.966,5.613 h -5.3 L -9.34,-14.136 h 4.289 l 0.929,8.851 h 1.264 l 1.476,-8.851 h 4.3 l -1.966,9.564 c 0.969,0.439 1.695,1.062 2.18,1.87 0.484,0.81 0.79,1.839 0.916,3.085 0.032,0.311 0.048,0.606 0.048,0.883 0,0.459 -0.042,0.875 -0.131,1.249 C 3.822,3.119 3.589,3.62 3.263,4.016"
         style="fill:#18baaf;fill-opacity:1;fill-rule:nonzero;stroke:none"
         id="path155"
         inkscape:connector-curvature="0" /></g><g
       id="g157"
       transform="matrix(0.79348151,0,0,0.79348151,432.33474,422.48655)"
       style="fill:#18baaf;fill-opacity:1"><path
         d="M 0,0 1.895,7.696 2.168,0 Z M 0.013,12.937 -4.965,-3.907 h -4.607 l 0.619,5.956 h 3.467 l 0.309,2.989 H -8.63 l 0.512,4.957 h 4.526 l 0.31,2.942 h -8.815 L -14.17,-6.812 h 8.346 1.74 2.31 l 1.12,4.229 h 2.941 l 0.25,-4.229 h 3.967 l -1.68,19.749 z"
         style="fill:#18baaf;fill-opacity:1;fill-rule:nonzero;stroke:none"
         id="path159"
         inkscape:connector-curvature="0" /></g><g
       id="g161"
       transform="matrix(0.79348151,0,0,0.79348151,446.19044,432.7514)"
       style="fill:#18baaf;fill-opacity:1"><path
         d="m 0,0 h -10.386 l -0.334,-3.169 h 3.063 l -1.741,-16.58 h 4.289 l 1.752,16.58 h 3.024 z"
         style="fill:#18baaf;fill-opacity:1;fill-rule:nonzero;stroke:none"
         id="path163"
         inkscape:connector-curvature="0" /></g><g
       id="g165"
       transform="matrix(0.79348151,0,0,0.79348151,445.30714,417.08092)"
       style="fill:#18baaf;fill-opacity:1"><path
         d="M 0,0 H 4.276 L 6.349,19.749 H 2.072 Z"
         style="fill:#18baaf;fill-opacity:1;fill-rule:nonzero;stroke:none"
         id="path167"
         inkscape:connector-curvature="0" /></g><g
       id="g169"
       transform="matrix(0.79348151,0,0,0.79348151,457.56033,432.7514)"
       style="fill:#18baaf;fill-opacity:1"><path
         d="M 0,0 -3.419,-13.363 -4.181,0 h -3.68 l 1.549,-19.749 h 4.466 L 3.883,0 Z"
         style="fill:#18baaf;fill-opacity:1;fill-rule:nonzero;stroke:none"
         id="path171"
         inkscape:connector-curvature="0" /></g><g
       id="g173"
       transform="matrix(0.79348151,0,0,0.79348151,459.9284,417.08092)"
       style="fill:#18baaf;fill-opacity:1"><path
         d="m 0,0 h 8.861 l 0.31,2.905 H 4.598 l 0.619,5.956 h 3.466 l 0.309,2.99 H 5.538 l 0.512,4.957 h 4.526 l 0.311,2.941 H 2.072 Z"
         style="fill:#18baaf;fill-opacity:1;fill-rule:nonzero;stroke:none"
         id="path175"
         inkscape:connector-curvature="0" /></g><g
       id="g177"
       transform="translate(121.6333,174.4219)"><path
         d="M 0,0 H 5.499 L 4.896,-5.701 c -0.534,-4.969 -0.781,-8.631 0.902,-10.504 1.239,-1.378 3.749,-2.02 7.9,-2.02 9.155,0 10.33,3.303 11.355,12.743 l 3.175,29.984 H 21.017 L 17.756,-5.947 c -0.428,-4.371 -0.572,-5.847 -3.206,-5.847 -0.659,0 -1.403,0.077 -1.926,0.653 -0.721,0.795 -0.639,1.988 -0.386,4.61 l 0.09,0.922 3.308,30.111 H 8.093 L 6.334,7.894 H 0.886 L 2.654,24.502 H -4.738 L -9.28,-18.225 h 7.395 z"
         style="fill:#ffffff;fill-opacity:1;fill-rule:nonzero;stroke:none"
         id="path179"
         inkscape:connector-curvature="0" /></g><g
       id="g181"
       transform="translate(175.8862,198.9238)"><path
         d="m 0,0 h -12.085 c -4.524,0 -7.169,-0.738 -8.847,-2.469 -2.786,-2.894 -3.339,-8.385 -4.176,-16.695 l -0.41,-4.062 c -0.393,-3.864 -0.733,-7.2 -0.733,-9.946 0,-6.967 1.445,-10.073 10.013,-10.073 0.722,0 1.485,0.038 2.268,0.117 l 0.1,0.004 h 4.382 l 0.726,6.809 -6.09,-0.001 c -2.403,0 -3.623,0.609 -3.623,3.935 0,1.522 0.226,3.668 0.568,6.918 0.124,1.178 0.262,2.495 0.41,3.973 l 0.19,1.808 c 1.184,11.311 1.336,12.764 5.092,12.764 l 0.125,-10e-4 10.811,0.003 c 2.482,0 2.482,-2.293 2.482,-3.156 0,-1.11 -0.221,-3.028 -0.437,-4.758 l -0.04,-0.38 c -0.627,-5.917 -0.887,-8.366 -3.469,-8.366 h -2.285 l 1.127,11.285 h -7.203 l -1.964,-18.649 9.878,-0.003 1.191,-12.181 h 7.197 l -1.699,15.292 0.37,0.35 c 3.104,2.931 3.864,7.817 4.379,12.57 0.219,1.805 0.36,4.131 0.36,5.937 C 8.608,-3.291 7.199,0 0,0"
         style="fill:#ffffff;fill-opacity:1;fill-rule:nonzero;stroke:none"
         id="path183"
         inkscape:connector-curvature="0" /></g><g
       id="g185"
       transform="translate(114.6943,145.0762)"><path
         d="m 0,0 h 2.554 l -0.74,-6.991 h 3.457 l 1.67,15.92 H 3.485 L 2.813,2.477 H 0.259 l 0.672,6.452 h -3.457 l -1.671,-15.92 h 3.458 z"
         style="fill:#ffffff;fill-opacity:1;fill-rule:nonzero;stroke:none"
         id="path187"
         inkscape:connector-curvature="0" /></g><g
       id="g189"
       transform="translate(125.4814,142.6367)"><path
         d="M 0,0 1.191,11.368 H -2.218 L -3.36,0.49 c -0.058,-0.449 -0.087,-0.872 -0.087,-1.269 0,-0.351 0.023,-0.68 0.067,-0.988 0.09,-0.652 0.283,-1.202 0.581,-1.647 0.298,-0.445 0.741,-0.783 1.331,-1.012 0.588,-0.232 1.334,-0.345 2.237,-0.345 0.901,0 1.671,0.112 2.309,0.334 0.636,0.226 1.155,0.568 1.555,1.033 0.4,0.465 0.705,1.008 0.916,1.633 0.212,0.624 0.362,1.376 0.452,2.261 L 7.144,11.368 H 3.726 L 2.535,0 C 2.509,-0.256 2.48,-0.477 2.449,-0.662 2.417,-0.849 2.365,-1.048 2.295,-1.264 2.225,-1.479 2.138,-1.652 2.037,-1.787 1.933,-1.921 1.797,-2.032 1.627,-2.121 1.458,-2.213 1.261,-2.257 1.037,-2.257 c -0.282,0 -0.506,0.067 -0.672,0.198 -0.167,0.13 -0.275,0.303 -0.327,0.517 -0.051,0.214 -0.083,0.456 -0.096,0.726 v 0.144 c 0,0.224 0.02,0.447 0.058,0.672"
         style="fill:#ffffff;fill-opacity:1;fill-rule:nonzero;stroke:none"
         id="path191"
         inkscape:connector-curvature="0" /></g><g
       id="g193"
       transform="translate(144.0562,138.085)"><path
         d="M 0,0 1.412,15.92 H -2.16 L -5.098,6.414 -5.915,15.92 H -9.611 L -11.542,0 h 2.516 L -7.671,10.667 -6.798,0 h 2.151 L -1.613,10.61 -2.487,0 Z"
         style="fill:#ffffff;fill-opacity:1;fill-rule:nonzero;stroke:none"
         id="path195"
         inkscape:connector-curvature="0" /></g><g
       id="g197"
       transform="translate(147.3921,154.0049)"><path
         d="m 0,0 -1.67,-15.92 h 7.115 l 0.249,2.343 H 2.036 L 3.457,0 Z"
         style="fill:#ffffff;fill-opacity:1;fill-rule:nonzero;stroke:none"
         id="path199"
         inkscape:connector-curvature="0" /></g><g
       id="g201"
       transform="translate(163.8608,154.0049)"><path
         d="M 0,0 H -2.871 L -3.687,-7.786 -6.203,0 h -2.428 l -1.671,-15.92 h 2.957 l 0.883,8.363 2.467,-8.363 h 2.325 z"
         style="fill:#ffffff;fill-opacity:1;fill-rule:nonzero;stroke:none"
         id="path203"
         inkscape:connector-curvature="0" /></g><g
       id="g205"
       transform="translate(165.5937,154.0049)"><path
         d="m 0,0 -1.671,-15.92 h 7.144 l 0.25,2.343 H 2.036 l 0.499,4.802 h 2.794 l 0.25,2.409 H 2.795 l 0.412,3.994 H 9.368 L 7.946,-15.92 h 3.456 l 1.434,13.548 h 2.436 L 15.521,0 H 7.149 Z"
         style="fill:#ffffff;fill-opacity:1;fill-rule:nonzero;stroke:none"
         id="path207"
         inkscape:connector-curvature="0" /></g><g
       id="g209"
       transform="translate(118.7275,133.5098)"><path
         d="m 0,0 c -0.181,0.379 -0.429,0.702 -0.744,0.971 -0.313,0.269 -0.725,0.476 -1.234,0.62 -0.508,0.143 -1.105,0.216 -1.79,0.216 -0.89,0 -1.658,-0.12 -2.304,-0.36 C -6.718,1.205 -7.247,0.844 -7.656,0.366 -8.065,-0.113 -8.385,-0.672 -8.612,-1.305 -8.839,-1.937 -8.998,-2.688 -9.087,-3.551 l -0.595,-5.664 c -0.038,-0.436 -0.058,-0.849 -0.058,-1.24 -0.007,-0.191 -0.003,-0.377 0.01,-0.557 0.025,-0.551 0.134,-1.043 0.326,-1.478 0.192,-0.442 0.449,-0.815 0.773,-1.119 0.323,-0.303 0.748,-0.537 1.277,-0.702 0.528,-0.162 1.147,-0.245 1.858,-0.245 0.864,0 1.611,0.118 2.242,0.351 0.63,0.234 1.137,0.572 1.522,1.013 0.384,0.442 0.678,0.939 0.883,1.489 0.205,0.549 0.346,1.187 0.423,1.91 l 0.134,1.364 h -3.38 l -0.163,-1.634 c -0.033,-0.261 -0.059,-0.466 -0.082,-0.613 -0.022,-0.147 -0.065,-0.326 -0.128,-0.538 -0.065,-0.21 -0.142,-0.37 -0.232,-0.478 -0.09,-0.111 -0.216,-0.207 -0.379,-0.29 -0.163,-0.082 -0.354,-0.123 -0.571,-0.123 -0.48,0 -0.791,0.171 -0.932,0.517 -0.09,0.224 -0.134,0.515 -0.134,0.875 0,0.197 0.013,0.414 0.039,0.65 l 0.767,7.348 c 0.026,0.256 0.053,0.466 0.082,0.628 0.03,0.163 0.077,0.346 0.144,0.548 0.068,0.2 0.151,0.361 0.25,0.478 0.1,0.121 0.232,0.217 0.398,0.299 0.167,0.079 0.362,0.119 0.586,0.119 0.128,0 0.243,-0.011 0.345,-0.039 0.103,-0.023 0.191,-0.053 0.264,-0.088 0.074,-0.037 0.137,-0.091 0.187,-0.169 0.052,-0.077 0.094,-0.145 0.126,-0.204 0.032,-0.056 0.055,-0.142 0.072,-0.257 0.016,-0.117 0.027,-0.207 0.033,-0.268 0.006,-0.066 0.005,-0.168 -0.004,-0.309 -0.01,-0.142 -0.018,-0.244 -0.024,-0.306 -0.007,-0.066 -0.016,-0.173 -0.029,-0.326 l -0.164,-1.585 h 3.38 l 0.144,1.401 c 0.026,0.313 0.039,0.619 0.039,0.912 0,0.205 -0.007,0.406 -0.019,0.605 C 0.291,-0.802 0.183,-0.377 0,0"
         style="fill:#ffffff;fill-opacity:1;fill-rule:nonzero;stroke:none"
         id="path211"
         inkscape:connector-curvature="0" /></g><g
       id="g213"
       transform="translate(126.6499,130.5723)"><path
         d="m 0,0 c -0.077,-0.762 -0.287,-1.326 -0.629,-1.693 -0.342,-0.37 -0.878,-0.553 -1.609,-0.553 h -0.873 l 0.471,4.445 h 1.065 c 0.672,0 1.124,-0.179 1.354,-0.538 C -0.055,1.399 0.028,1.031 0.028,0.559 0.028,0.386 0.019,0.199 0,0 M 2.631,3.236 C 2.374,3.556 2.032,3.813 1.603,4.004 1.175,4.196 0.704,4.33 0.192,4.408 -0.32,4.483 -0.912,4.523 -1.584,4.523 h -4.273 l -1.671,-15.919 h 3.457 l 0.749,7.134 h 1.018 l 1.19,-7.134 h 3.467 l -1.585,7.708 c 0.781,0.354 1.367,0.857 1.757,1.509 0.391,0.653 0.637,1.482 0.739,2.486 0.026,0.252 0.038,0.488 0.038,0.711 0,0.373 -0.034,0.707 -0.105,1.007 C 3.082,2.514 2.893,2.917 2.631,3.236"
         style="fill:#ffffff;fill-opacity:1;fill-rule:nonzero;stroke:none"
         id="path215"
         inkscape:connector-curvature="0" /></g><g
       id="g217"
       transform="translate(141.4663,124.668)"><path
         d="M 0,0 1.526,6.203 1.748,0 Z M 0.009,10.428 -4.002,-3.149 h -3.714 l 0.499,4.8 h 2.794 l 0.25,2.411 h -2.784 l 0.413,3.995 h 3.648 l 0.25,2.371 h -7.105 l -1.672,-15.92 h 6.728 1.403 1.861 l 0.903,3.41 h 2.371 l 0.202,-3.41 h 3.197 l -1.353,15.92 z"
         style="fill:#ffffff;fill-opacity:1;fill-rule:nonzero;stroke:none"
         id="path219"
         inkscape:connector-curvature="0" /></g><g
       id="g221"
       transform="translate(155.543,135.0957)"><path
         d="m 0,0 h -8.373 l -0.269,-2.555 h 2.468 L -7.576,-15.92 h 3.456 l 1.412,13.365 h 2.439 z"
         style="fill:#ffffff;fill-opacity:1;fill-rule:nonzero;stroke:none"
         id="path223"
         inkscape:connector-curvature="0" /></g><g
       id="g225"
       transform="translate(154.645,119.1758)"><path
         d="M 0,0 H 3.447 L 5.118,15.92 H 1.67 Z"
         style="fill:#ffffff;fill-opacity:1;fill-rule:nonzero;stroke:none"
         id="path227"
         inkscape:connector-curvature="0" /></g><g
       id="g229"
       transform="translate(167.0937,135.0957)"><path
         d="M 0,0 -2.756,-10.772 -3.371,0 h -2.966 l 1.248,-15.92 h 3.6 L 3.129,0 Z"
         style="fill:#ffffff;fill-opacity:1;fill-rule:nonzero;stroke:none"
         id="path231"
         inkscape:connector-curvature="0" /></g><g
       id="g233"
       transform="translate(169.4985,119.1758)"><path
         d="m 0,0 h 7.144 l 0.25,2.343 H 3.707 L 4.206,7.144 H 7 l 0.249,2.41 H 4.465 l 0.412,3.995 h 3.65 L 8.776,15.92 H 1.671 Z"
         style="fill:#ffffff;fill-opacity:1;fill-rule:nonzero;stroke:none"
         id="path235"
         inkscape:connector-curvature="0" /></g><g
       id="g237"
       transform="translate(656.9785,150.3203)"><path
         d="M 0,0 H 7.943 L 7.072,-8.236 c -0.77,-7.178 -1.128,-12.469 1.305,-15.174 1.789,-1.991 5.414,-2.919 11.411,-2.919 13.226,0 14.924,4.771 16.405,18.408 l 4.586,43.317 H 30.362 L 25.651,-8.592 c -0.619,-6.314 -0.827,-8.447 -4.631,-8.447 -0.953,0 -2.027,0.113 -2.783,0.945 -1.042,1.149 -0.924,2.87 -0.557,6.658 l 0.13,1.332 4.779,43.5 H 11.69 L 9.15,11.404 H 1.28 L 3.834,35.396 H -6.845 l -6.561,-61.725 h 10.683 z"
         style="fill:#ffffff;fill-opacity:1;fill-rule:nonzero;stroke:none"
         id="path239"
         inkscape:connector-curvature="0" /></g><g
       id="g241"
       transform="translate(735.3555,185.7168)"><path
         d="m 0,0 h -17.46 c -6.534,0 -10.356,-1.066 -12.779,-3.565 -4.027,-4.183 -4.824,-12.114 -6.033,-24.119 l -0.593,-5.867 c -0.568,-5.584 -1.058,-10.402 -1.058,-14.371 0,-10.063 2.088,-14.552 14.464,-14.552 1.043,0 2.147,0.058 3.277,0.169 l 0.145,0.006 h 6.33 l 1.05,9.836 h -8.798 c -3.474,0 -5.235,0.879 -5.235,5.684 0,2.199 0.327,5.3 0.82,9.996 0.179,1.7 0.38,3.603 0.593,5.736 l 0.274,2.614 c 1.711,16.341 1.931,18.44 7.357,18.44 l 0.18,-10e-4 15.617,0.003 c 3.587,0 3.587,-3.312 3.587,-4.559 0,-1.602 -0.319,-4.374 -0.632,-6.874 l -0.057,-0.549 c -0.905,-8.548 -1.28,-12.084 -5.011,-12.084 h -3.302 l 1.629,16.302 h -10.407 l -2.837,-26.942 14.27,-0.004 1.721,-17.598 H 7.509 l -2.453,22.092 0.534,0.506 c 4.483,4.234 5.582,11.292 6.325,18.158 0.317,2.607 0.521,5.968 0.521,8.579 C 12.436,-4.754 10.401,0 0,0"
         style="fill:#ffffff;fill-opacity:1;fill-rule:nonzero;stroke:none"
         id="path243"
         inkscape:connector-curvature="0" /></g><g
       id="g245"
       transform="translate(350.8838,153.3457)"><path
         d="M 0,0 H 5.498 L 4.895,-5.7 c -0.533,-4.97 -0.781,-8.632 0.903,-10.504 1.238,-1.379 3.748,-2.021 7.899,-2.021 9.155,0 10.33,3.303 11.356,12.743 l 3.175,29.984 h -7.212 l -3.26,-30.449 c -0.429,-4.371 -0.574,-5.847 -3.207,-5.847 -0.659,0 -1.403,0.079 -1.925,0.653 -0.722,0.795 -0.641,1.989 -0.387,4.61 l 0.09,0.922 3.309,30.111 H 8.092 L 6.334,7.895 H 0.885 L 2.653,24.502 H -4.739 L -9.28,-18.225 h 7.394 z"
         style="fill:#ffffff;fill-opacity:1;fill-rule:nonzero;stroke:none"
         id="path247"
         inkscape:connector-curvature="0" /></g><g
       id="g249"
       transform="translate(405.1357,177.8477)"><path
         d="m 0,0 h -12.085 c -4.523,0 -7.17,-0.738 -8.847,-2.469 -2.787,-2.894 -3.339,-8.385 -4.176,-16.694 l -0.411,-4.062 c -0.392,-3.864 -0.731,-7.201 -0.731,-9.947 0,-6.965 1.445,-10.073 10.012,-10.073 0.722,0 1.485,0.04 2.268,0.117 l 0.101,0.005 h 4.38 l 0.727,6.809 -6.09,-0.002 c -2.404,0 -3.623,0.609 -3.623,3.936 0,1.521 0.226,3.669 0.568,6.919 0.124,1.176 0.262,2.494 0.41,3.971 l 0.19,1.808 c 1.184,11.312 1.337,12.764 5.092,12.764 h 0.126 l 10.81,0.002 c 2.483,0 2.483,-2.293 2.483,-3.156 0,-1.11 -0.223,-3.028 -0.438,-4.758 l -0.04,-0.379 C 0.1,-21.126 -0.16,-23.574 -2.743,-23.574 h -2.285 l 1.128,11.283 h -7.204 l -1.964,-18.648 9.878,-0.004 1.191,-12.18 H 5.198 L 3.5,-27.83 l 0.369,0.35 c 3.104,2.93 3.864,7.816 4.378,12.568 0.22,1.805 0.361,4.131 0.361,5.938 C 8.608,-3.291 7.199,0 0,0"
         style="fill:#ffffff;fill-opacity:1;fill-rule:nonzero;stroke:none"
         id="path251"
         inkscape:connector-curvature="0" /></g><g
       id="g253"
       transform="translate(422.7383,166.8594)"><path
         d="M 0,0 H 3.168 L 2.251,-8.67 H 6.539 L 8.61,11.076 H 4.322 L 3.489,3.074 H 0.32 l 0.835,8.002 H -3.133 L -5.206,-8.67 h 4.29 z"
         style="fill:#ffffff;fill-opacity:1;fill-rule:nonzero;stroke:none"
         id="path255"
         inkscape:connector-curvature="0" /></g><g
       id="g257"
       transform="translate(436.1201,163.834)"><path
         d="m 0,0 1.478,14.102 h -4.23 L -4.169,0.608 c -0.071,-0.555 -0.106,-1.08 -0.106,-1.573 0,-0.435 0.027,-0.845 0.082,-1.226 0.111,-0.809 0.352,-1.491 0.721,-2.043 0.368,-0.551 0.918,-0.973 1.651,-1.256 0.729,-0.287 1.655,-0.429 2.774,-0.429 1.119,0 2.074,0.14 2.864,0.416 0.79,0.278 1.434,0.704 1.93,1.28 0.497,0.577 0.875,1.251 1.138,2.027 0.261,0.773 0.448,1.708 0.56,2.804 L 8.861,14.102 H 4.621 L 3.146,0 C 3.113,-0.316 3.077,-0.59 3.038,-0.82 2.998,-1.053 2.934,-1.299 2.848,-1.566 2.76,-1.832 2.652,-2.049 2.526,-2.215 2.398,-2.381 2.229,-2.521 2.019,-2.631 1.809,-2.744 1.564,-2.799 1.286,-2.799 c -0.349,0 -0.627,0.083 -0.834,0.245 -0.206,0.161 -0.341,0.376 -0.404,0.642 -0.064,0.266 -0.105,0.566 -0.119,0.899 v 0.18 c 0,0.278 0.023,0.556 0.071,0.833"
         style="fill:#ffffff;fill-opacity:1;fill-rule:nonzero;stroke:none"
         id="path259"
         inkscape:connector-curvature="0" /></g><g
       id="g261"
       transform="translate(459.1621,158.1895)"><path
         d="m 0,0 1.751,19.746 h -4.43 l -3.645,-11.79 -1.013,11.79 h -4.586 L -14.317,0 h 3.121 L -9.517,13.232 -8.433,0 h 2.668 L -2.001,13.162 -3.084,0 Z"
         style="fill:#ffffff;fill-opacity:1;fill-rule:nonzero;stroke:none"
         id="path263"
         inkscape:connector-curvature="0" /></g><g
       id="g265"
       transform="translate(463.3008,177.9355)"><path
         d="m 0,0 -2.072,-19.746 h 8.826 l 0.309,2.906 H 2.525 L 4.288,0 Z"
         style="fill:#ffffff;fill-opacity:1;fill-rule:nonzero;stroke:none"
         id="path267"
         inkscape:connector-curvature="0" /></g><g
       id="g269"
       transform="translate(483.7305,177.9355)"><path
         d="M 0,0 H -3.562 L -4.574,-9.658 -7.695,0 h -3.012 l -2.073,-19.746 h 3.669 l 1.094,10.373 3.062,-10.373 h 2.883 z"
         style="fill:#ffffff;fill-opacity:1;fill-rule:nonzero;stroke:none"
         id="path271"
         inkscape:connector-curvature="0" /></g><g
       id="g273"
       transform="translate(485.8799,177.9355)"><path
         d="M 0,0 -2.073,-19.746 H 6.789 L 7.1,-16.84 H 2.526 l 0.62,5.956 h 3.465 l 0.31,2.988 H 3.467 l 0.512,4.955 h 7.643 L 9.857,-19.746 h 4.288 l 1.779,16.805 h 3.021 L 19.255,0 H 8.868 Z"
         style="fill:#ffffff;fill-opacity:1;fill-rule:nonzero;stroke:none"
         id="path275"
         inkscape:connector-curvature="0" /></g><g
       id="g277"
       transform="translate(427.7422,152.5127)"><path
         d="M 0,0 C -0.226,0.47 -0.533,0.872 -0.923,1.205 -1.312,1.538 -1.822,1.795 -2.454,1.974 -3.085,2.152 -3.825,2.24 -4.675,2.24 -5.778,2.24 -6.732,2.093 -7.532,1.795 -8.335,1.497 -8.99,1.048 -9.499,0.454 c -0.507,-0.596 -0.902,-1.286 -1.185,-2.071 -0.282,-0.788 -0.478,-1.717 -0.589,-2.788 l -0.739,-7.028 c -0.046,-0.539 -0.071,-1.053 -0.071,-1.539 -0.008,-0.236 -0.004,-0.466 0.012,-0.689 0.032,-0.68 0.166,-1.293 0.405,-1.834 0.238,-0.547 0.557,-1.01 0.959,-1.388 0.4,-0.376 0.928,-0.666 1.584,-0.869 0.654,-0.2 1.423,-0.304 2.305,-0.304 1.072,0 1.998,0.145 2.781,0.434 0.782,0.291 1.41,0.711 1.888,1.258 0.476,0.549 0.842,1.164 1.095,1.847 0.254,0.68 0.429,1.471 0.525,2.37 l 0.167,1.691 h -4.194 l -0.202,-2.025 c -0.04,-0.327 -0.073,-0.581 -0.1,-0.762 -0.029,-0.184 -0.082,-0.406 -0.162,-0.668 -0.08,-0.262 -0.175,-0.461 -0.286,-0.595 -0.111,-0.136 -0.267,-0.255 -0.47,-0.357 -0.203,-0.103 -0.44,-0.156 -0.709,-0.156 -0.595,0 -0.981,0.215 -1.155,0.645 -0.112,0.277 -0.168,0.637 -0.168,1.084 0,0.244 0.016,0.516 0.049,0.809 l 0.952,9.111 c 0.033,0.319 0.066,0.58 0.101,0.78 0.037,0.203 0.096,0.431 0.179,0.681 0.084,0.248 0.187,0.447 0.31,0.594 0.124,0.148 0.288,0.269 0.494,0.371 0.206,0.097 0.449,0.148 0.726,0.148 0.159,0 0.303,-0.015 0.43,-0.049 0.127,-0.031 0.236,-0.068 0.327,-0.111 0.092,-0.046 0.17,-0.113 0.231,-0.208 0.066,-0.096 0.116,-0.18 0.156,-0.253 0.04,-0.07 0.069,-0.178 0.089,-0.318 0.021,-0.145 0.035,-0.257 0.042,-0.334 0.008,-0.082 0.006,-0.209 -0.005,-0.383 -0.013,-0.176 -0.022,-0.303 -0.03,-0.381 -0.009,-0.08 -0.02,-0.214 -0.036,-0.404 l -0.203,-1.967 h 4.193 l 0.178,1.74 c 0.032,0.388 0.048,0.768 0.048,1.131 0,0.254 -0.007,0.504 -0.024,0.749 C 0.359,-0.995 0.227,-0.468 0,0"
         style="fill:#ffffff;fill-opacity:1;fill-rule:nonzero;stroke:none"
         id="path279"
         inkscape:connector-curvature="0" /></g><g
       id="g281"
       transform="translate(437.5703,148.8672)"><path
         d="m 0,0 c -0.096,-0.943 -0.356,-1.645 -0.781,-2.1 -0.424,-0.457 -1.09,-0.685 -1.995,-0.685 H -3.86 l 0.585,5.515 h 1.321 c 0.834,0 1.393,-0.223 1.679,-0.668 C -0.068,1.737 0.034,1.281 0.034,0.694 0.034,0.479 0.022,0.248 0,0 M 3.263,4.016 C 2.944,4.413 2.521,4.732 1.988,4.969 1.457,5.208 0.873,5.374 0.237,5.47 -0.397,5.564 -1.133,5.613 -1.966,5.613 h -5.3 L -9.34,-14.136 h 4.289 l 0.929,8.851 h 1.264 l 1.476,-8.851 h 4.3 l -1.966,9.564 c 0.969,0.439 1.695,1.062 2.18,1.87 0.484,0.81 0.79,1.839 0.916,3.085 0.032,0.311 0.048,0.606 0.048,0.883 0,0.459 -0.042,0.875 -0.131,1.249 C 3.822,3.119 3.589,3.62 3.263,4.016"
         style="fill:#ffffff;fill-opacity:1;fill-rule:nonzero;stroke:none"
         id="path283"
         inkscape:connector-curvature="0" /></g><g
       id="g285"
       transform="translate(455.9492,141.5439)"><path
         d="M 0,0 1.895,7.696 2.168,0 Z M 0.013,12.937 -4.965,-3.907 h -4.607 l 0.619,5.956 h 3.467 l 0.309,2.989 H -8.63 l 0.512,4.957 h 4.526 l 0.31,2.942 h -8.815 L -14.17,-6.812 h 8.346 1.74 2.31 l 1.12,4.229 h 2.941 l 0.25,-4.229 h 3.967 l -1.68,19.749 z"
         style="fill:#ffffff;fill-opacity:1;fill-rule:nonzero;stroke:none"
         id="path287"
         inkscape:connector-curvature="0" /></g><g
       id="g289"
       transform="translate(473.4111,154.4805)"><path
         d="m 0,0 h -10.386 l -0.334,-3.169 h 3.063 l -1.741,-16.58 h 4.289 l 1.752,16.58 h 3.024 z"
         style="fill:#ffffff;fill-opacity:1;fill-rule:nonzero;stroke:none"
         id="path291"
         inkscape:connector-curvature="0" /></g><g
       id="g293"
       transform="translate(472.2979,134.7314)"><path
         d="M 0,0 H 4.276 L 6.349,19.749 H 2.072 Z"
         style="fill:#ffffff;fill-opacity:1;fill-rule:nonzero;stroke:none"
         id="path295"
         inkscape:connector-curvature="0" /></g><g
       id="g297"
       transform="translate(487.7402,154.4805)"><path
         d="M 0,0 -3.419,-13.363 -4.181,0 h -3.68 l 1.549,-19.749 h 4.466 L 3.883,0 Z"
         style="fill:#ffffff;fill-opacity:1;fill-rule:nonzero;stroke:none"
         id="path299"
         inkscape:connector-curvature="0" /></g><g
       id="g301"
       transform="translate(490.7246,134.7314)"><path
         d="m 0,0 h 8.861 l 0.31,2.905 H 4.598 l 0.619,5.956 h 3.466 l 0.309,2.99 H 5.538 l 0.512,4.957 h 4.526 l 0.311,2.941 H 2.072 Z"
         style="fill:#ffffff;fill-opacity:1;fill-rule:nonzero;stroke:none"
         id="path303"
         inkscape:connector-curvature="0" /></g></g></svg>