<?xml version="1.0" encoding="UTF-8" standalone="no"?>
<!-- Generator: Adobe Illustrator 16.0.0, SVG Export Plug-In . SVG Version: 6.00 Build 0)  -->

<svg
   xmlns:dc="http://purl.org/dc/elements/1.1/"
   xmlns:cc="http://creativecommons.org/ns#"
   xmlns:rdf="http://www.w3.org/1999/02/22-rdf-syntax-ns#"
   xmlns:svg="http://www.w3.org/2000/svg"
   xmlns="http://www.w3.org/2000/svg"
   xmlns:sodipodi="http://sodipodi.sourceforge.net/DTD/sodipodi-0.dtd"
   xmlns:inkscape="http://www.inkscape.org/namespaces/inkscape"
   version="1.1"
   x="0px"
   y="0px"
   width="150.44463"
   height="150"
   viewBox="0 0 150.44462 150.00001"
   enable-background="new 0 0 224.904 179.991"
   xml:space="preserve"
   id="svg68"
   sodipodi:docname="01.svg"
   inkscape:version="0.92.1 r15371"><metadata
     id="metadata74"><rdf:RDF><cc:Work
         rdf:about=""><dc:format>image/svg+xml</dc:format><dc:type
           rdf:resource="http://purl.org/dc/dcmitype/StillImage" /><dc:title></dc:title></cc:Work></rdf:RDF></metadata><defs
     id="defs72" /><sodipodi:namedview
     pagecolor="#ffffff"
     bordercolor="#666666"
     borderopacity="1"
     objecttolerance="10"
     gridtolerance="10"
     guidetolerance="10"
     inkscape:pageopacity="0"
     inkscape:pageshadow="2"
     inkscape:window-width="1600"
     inkscape:window-height="840"
     id="namedview70"
     showgrid="false"
     fit-margin-top="0"
     fit-margin-left="0"
     fit-margin-right="0"
     fit-margin-bottom="0"
     inkscape:zoom="1.3111767"
     inkscape:cx="-84.135669"
     inkscape:cy="74.160498"
     inkscape:window-x="0"
     inkscape:window-y="0"
     inkscape:window-maximized="1"
     inkscape:current-layer="svg68" /><g
     id="Vrstva_2"
     transform="translate(-58.543729,-14.156)" /><path
     d="M 163.36027,-11.156 V 162.835 H -16.630729 v -59.805 -1.568 l -1.288,-0.895 -35.393,-24.605 35.408,-24.939 1.272,-0.896 V 48.57 -11.156 H 163.36027 m 3,-3 H -19.630729 v 62.727 l -38.913,27.407 38.913,27.052 v 62.805 H 166.36027 Z"
     id="path3"
     inkscape:connector-curvature="0"
     style="fill:#ffffff" /><g
     id="g63"
     transform="matrix(1.0279253,0,0,1.0279253,-60.17858,-18.740106)"
     style="fill:#26263a;fill-opacity:1"><path
       d="m 144.21,82.944 -2.768,-2.559 c -2.684,-2.481 -6.136,-3.848 -9.719,-3.848 -3.583,0 -7.035,1.366 -9.719,3.848 l -2.768,2.559 0.253,-3.761 c 0.44,-6.548 5.814,-11.677 12.234,-11.677 6.42,0 11.794,5.129 12.234,11.677 z m -12.486,-9.406 c 2.884,0 5.696,0.729 8.208,2.096 -1.558,-3.053 -4.673,-5.127 -8.208,-5.127 -3.535,0 -6.65,2.074 -8.208,5.127 2.512,-1.367 5.323,-2.096 8.208,-2.096 z"
       id="path5"
       inkscape:connector-curvature="0"
       style="fill:#26263a;fill-opacity:1" /><path
       d="m 131.724,114.466 c -8.684,0 -15.748,-7.225 -15.748,-16.104 0,-8.879 7.064,-16.104 15.748,-16.104 8.684,0 15.748,7.224 15.748,16.104 0,8.88 -7.065,16.104 -15.748,16.104 z m 0,-29.208 c -7.029,0 -12.748,5.878 -12.748,13.104 0,7.226 5.719,13.104 12.748,13.104 7.029,0 12.748,-5.878 12.748,-13.104 0,-7.226 -5.719,-13.104 -12.748,-13.104 z"
       id="path7"
       inkscape:connector-curvature="0"
       style="fill:#26263a;fill-opacity:1" /><path
       d="m 144.01,106.178 0.438,-7.33 c 0.011,-0.161 0.023,-0.321 0.023,-0.486 0,-7.226 -5.719,-13.104 -12.748,-13.104 -7.029,0 -12.748,5.878 -12.748,13.104 0,0.16 0.011,0.315 0.021,0.472 l 0.41,7.292 -3.228,-6.294 c -1.316,-2.567 -2.012,-5.449 -2.012,-8.335 0,-9.902 7.876,-17.958 17.557,-17.958 9.681,0 17.557,8.056 17.557,17.958 0,2.887 -0.696,5.77 -2.013,8.336 z m -12.286,-29.64 c -8.026,0 -14.557,6.71 -14.557,14.958 0,0.229 0.005,0.458 0.015,0.685 2.375,-5.821 7.999,-9.922 14.542,-9.922 6.543,0 12.167,4.102 14.542,9.922 0.01,-0.227 0.015,-0.456 0.015,-0.685 -0.001,-8.248 -6.531,-14.958 -14.557,-14.958 z"
       id="path9"
       inkscape:connector-curvature="0"
       style="fill:#26263a;fill-opacity:1" /><rect
       x="145.58501"
       y="131.131"
       width="3"
       height="9.8850002"
       id="rect11"
       style="fill:#26263a;fill-opacity:1" /><path
       d="m 108.514,143.153 h -3 v -5.076 c 0,-20.96 15.107,-23.368 15.26,-23.39 l 1.267,-0.182 0.378,1.223 c 2.47,7.973 8.238,9.301 9.306,9.48 1.048,-0.175 6.83,-1.496 9.303,-9.48 l 0.378,-1.223 1.267,0.182 c 0.152,0.022 15.26,2.43 15.26,23.39 h -3 c 0,-15.11 -8.323,-19.14 -11.498,-20.127 -3.536,9.326 -11.217,10.23 -11.557,10.266 l -0.155,0.016 -0.155,-0.016 c -0.34,-0.036 -8.021,-0.941 -11.557,-10.267 -3.169,0.984 -11.498,5.012 -11.498,20.128 v 5.076 z"
       id="path13"
       inkscape:connector-curvature="0"
       style="fill:#26263a;fill-opacity:1" /><rect
       x="114.862"
       y="131.131"
       width="3"
       height="12.021"
       id="rect15"
       style="fill:#26263a;fill-opacity:1" /><path
       d="m 157,162.656 h -3 v -14.859 h 17.529 c 6.628,0 6.908,-5.405 6.917,-5.635 l -0.001,-13.567 h 3 v 13.624 c -0.112,3.004 -2.328,8.579 -9.916,8.579 H 157 Z"
       id="path17"
       inkscape:connector-curvature="0"
       style="fill:#26263a;fill-opacity:1" /><rect
       x="159.743"
       y="149.29601"
       width="3"
       height="13.359"
       id="rect19"
       style="fill:#26263a;fill-opacity:1" /><path
       d="m 170.594,164.156 v -3 c 8.534,0 14.548,-1.699 17.875,-5.049 3.104,-3.125 3.078,-7.012 3.065,-8.88 l -0.001,-0.335 v -15.761 h 3 l 0.001,16.076 c 0.014,2.096 0.047,7.004 -3.937,11.014 -3.911,3.938 -10.641,5.935 -20.003,5.935 z"
       id="path21"
       inkscape:connector-curvature="0"
       style="fill:#26263a;fill-opacity:1" /><path
       d="m 145.113,163.886 c -0.161,-0.112 -3.963,-2.772 -6.168,-4.977 -0.817,-0.817 -1.964,-2.606 -0.474,-5.407 0.736,-1.384 1.894,-2.628 2.929,-3.663 1.458,-1.457 3.108,-1.519 4.281,-1.207 3.713,-2.8 8.564,-0.597 10.735,1.081 l -1.831,2.376 c -0.19,-0.145 -4.689,-3.527 -7.554,-0.664 l -0.853,0.853 -1.016,-0.649 c -0.233,-0.134 -0.911,-0.4 -1.643,0.332 -0.827,0.827 -1.848,1.91 -2.402,2.951 -0.67,1.258 -0.269,1.66 -0.053,1.875 2.02,2.019 5.727,4.612 5.764,4.638 z"
       id="path23"
       inkscape:connector-curvature="0"
       style="fill:#26263a;fill-opacity:1" /><rect
       x="147.967"
       y="140.924"
       transform="matrix(0.7591,0.651,-0.651,0.7591,131.2474,-62.0581)"
       width="3"
       height="10.736"
       id="rect25"
       style="fill:#26263a;fill-opacity:1" /><path
       d="m 188.52,98.437 c -0.027,0 -0.045,0 -0.054,0 l 0.047,-3 c 0.042,0.019 2.977,0.014 4.74,-1.732 0.911,-0.901 1.353,-2.116 1.353,-3.714 0,-0.566 -0.104,-0.995 -0.287,-1.175 -0.236,-0.234 -0.808,-0.231 -1.146,-0.225 l -0.137,0.001 c -0.371,0.074 -3.044,1.329 -3.044,3.422 l -2.985,0.211 c -0.026,-0.172 -0.688,-4.34 -3.858,-4.34 -0.726,0 -1.474,0.032 -2.23,0.064 -3.997,0.169 -8.968,0.378 -12.343,-4.293 -3.413,-4.726 -1.663,-6.841 0.602,-8.763 0.337,-0.286 0.689,-0.583 1.023,-0.916 2.633,-2.633 11.386,-7.11 20.225,-3.261 4.74,2.064 8.126,6.233 9.059,11.151 0.648,3.418 -0.042,6.559 -1.896,8.726 -0.118,2.144 -0.872,3.912 -2.246,5.262 -2.536,2.494 -6.307,2.582 -6.823,2.582 z m -5.371,-13.552 c 2.634,0 4.374,1.47 5.445,3.178 1.458,-1.616 3.52,-2.471 4.442,-2.471 h 0.109 c 0.642,-0.002 2.118,-0.02 3.236,1.045 0.382,-1.233 0.446,-2.687 0.157,-4.209 -0.578,-3.044 -2.801,-6.997 -7.309,-8.959 -7.587,-3.304 -15.048,0.773 -16.907,2.631 -0.394,0.394 -0.806,0.745 -1.204,1.083 -1.676,1.421 -2.182,1.851 -0.111,4.718 2.43,3.364 6.006,3.213 9.785,3.053 0.8,-0.037 1.59,-0.069 2.357,-0.069 z"
       id="path27"
       inkscape:connector-curvature="0"
       style="fill:#26263a;fill-opacity:1" /><path
       d="m 175.669,110.592 c -2.896,0 -6.524,-2.35 -7.373,-13.542 -0.685,-9.015 0.812,-13.591 0.875,-13.782 l 2.844,0.957 -1.422,-0.479 1.423,0.473 c -0.014,0.042 -1.362,4.274 -0.729,12.604 0.511,6.743 2.149,10.769 4.381,10.769 2.739,0 6.603,-0.861 9.454,-4.966 l 2.464,1.711 c -3.59,5.17 -8.462,6.255 -11.917,6.255 z"
       id="path29"
       inkscape:connector-curvature="0"
       style="fill:#26263a;fill-opacity:1" /><rect
       x="177.226"
       y="108.758"
       width="3"
       height="4.2080002"
       id="rect31"
       style="fill:#26263a;fill-opacity:1" /><rect
       x="192.438"
       y="95.101997"
       width="3"
       height="12.921"
       id="rect33"
       style="fill:#26263a;fill-opacity:1" /><path
       d="m 109.447,162.656 h -3 v -11.859 h -14.53 c -7.587,0 -9.801,-5.575 -9.912,-8.522 l -10e-4,-13.68 h 3 v 13.624 c 0.028,0.512 0.468,5.579 6.913,5.579 h 17.53 z"
       id="path35"
       inkscape:connector-curvature="0"
       style="fill:#26263a;fill-opacity:1" /><path
       d="m 92.854,164.156 c -9.362,0 -16.092,-1.997 -20.004,-5.935 -3.984,-4.01 -3.951,-8.918 -3.937,-11.014 l 0.001,-0.315 v -15.761 h 3 l -0.001,16.096 c -0.013,1.868 -0.039,5.755 3.065,8.88 3.328,3.35 9.342,5.049 17.875,5.049 v 3 z"
       id="path37"
       inkscape:connector-curvature="0"
       style="fill:#26263a;fill-opacity:1" /><path
       d="M 204.75,164.156 H 58.697 l -0.068,-1.428 c -0.061,-1.266 -1.369,-31.22 8.857,-50.465 l 0.798,-1.501 1.39,0.979 c 0.065,0.045 6.792,4.661 14.163,2.97 l 1.088,-0.25 0.551,0.971 c 9.538,16.792 10.955,33.06 11.01,33.744 l -2.99,0.244 c -0.013,-0.158 -1.378,-15.697 -10.104,-31.567 -6.098,0.996 -11.481,-1.383 -13.979,-2.763 -7.895,16.215 -7.955,40.032 -7.831,46.067 h 140.281 c 0.123,-6.036 0.06,-29.862 -7.831,-46.067 -2.497,1.38 -7.88,3.757 -13.979,2.764 -8.742,15.897 -10.09,31.408 -10.103,31.566 l -2.99,-0.243 c 0.056,-0.684 1.472,-16.953 11.009,-33.744 l 0.551,-0.971 1.088,0.25 c 7.374,1.692 14.098,-2.924 14.165,-2.972 l 1.389,-0.969 0.797,1.494 c 10.226,19.246 8.918,49.2 8.857,50.465 z"
       id="path39"
       inkscape:connector-curvature="0"
       style="fill:#26263a;fill-opacity:1" /><path
       d="m 87.778,110.592 c -3.456,0 -8.328,-1.085 -11.918,-6.255 l 2.464,-1.711 c 2.851,4.104 6.715,4.966 9.455,4.966 2.232,0 3.87,-4.026 4.381,-10.769 0.632,-8.331 -0.716,-12.563 -0.73,-12.604 l 2.846,-0.951 c 0.064,0.19 1.56,4.767 0.875,13.781 -0.848,11.193 -4.477,13.543 -7.373,13.543 z"
       id="path41"
       inkscape:connector-curvature="0"
       style="fill:#26263a;fill-opacity:1" /><rect
       x="83.222"
       y="108.758"
       width="3"
       height="4.2080002"
       id="rect43"
       style="fill:#26263a;fill-opacity:1" /><rect
       x="68.009003"
       y="97.737999"
       width="3"
       height="10.285"
       id="rect45"
       style="fill:#26263a;fill-opacity:1" /><path
       d="m 128.509,163.717 -2.121,-2.122 c 0.888,-0.887 1.243,-1.742 1.054,-2.541 -0.192,-0.814 -0.918,-1.448 -1.536,-1.654 -1.522,-0.507 -6.727,-1.185 -8.604,-1.403 l -3.079,-0.357 2.191,-2.193 c 1.01,-1.01 1.246,-1.971 1.13,-2.534 -0.072,-0.352 -0.283,-0.6 -0.625,-0.737 -4.52,-1.61 -7.829,1.962 -7.861,1.999 l -2.222,-2.016 c 0.189,-0.208 4.709,-5.082 11.143,-2.789 1.334,0.532 2.228,1.596 2.504,2.938 0.202,0.981 0.066,2.017 -0.375,3.019 2.253,0.302 5.397,0.777 6.747,1.227 1.72,0.573 3.096,2.069 3.507,3.811 0.249,1.058 0.34,3.159 -1.853,5.352 z"
       id="path47"
       inkscape:connector-curvature="0"
       style="fill:#26263a;fill-opacity:1" /><path
       d="M 72.21,99.161 C 71.914,99.062 65.116,96.728 64.785,90.84 61.418,85.239 62.74,78.791 68.448,73.085 c 5.296,-5.296 13.798,-1.548 16.277,-0.273 2.265,1.167 6.037,-0.081 7.411,-0.706 0.586,-0.349 1.516,-0.553 2.422,-0.085 1.41,0.731 2.066,2.706 2.066,6.215 0,2.643 -1.278,4.998 -3.697,6.812 -3.261,2.446 -8.407,3.605 -11.716,2.641 l -0.127,-0.043 c -1.496,-0.586 -2.698,-0.615 -3.572,-0.084 -1.397,0.85 -1.926,3.075 -2,3.788 L 72.52,91.193 c 0,-1.65 -1.82,-2.563 -3.078,-2.563 -0.504,0 -0.932,0.136 -1.204,0.383 -0.309,0.28 -0.465,0.744 -0.465,1.379 0,4.08 5.333,5.905 5.387,5.923 z M 69.441,85.63 c 1.545,0 3.147,0.619 4.318,1.69 0.505,-0.875 1.211,-1.725 2.193,-2.322 1.7,-1.033 3.77,-1.092 6.156,-0.173 2.169,0.6 6.282,-0.125 9.019,-2.177 1.657,-1.242 2.497,-2.727 2.497,-4.412 0,-1.987 -0.235,-2.927 -0.395,-3.335 -1.208,0.517 -6.233,2.452 -9.876,0.579 -1.44,-0.741 -8.825,-4.234 -12.783,-0.273 -2.346,2.345 -5.62,6.661 -4.309,11.55 0.822,-0.727 1.949,-1.127 3.18,-1.127 z"
       id="path49"
       inkscape:connector-curvature="0"
       style="fill:#26263a;fill-opacity:1" /><path
       d="m 165.625,71.277 -3.061,-0.822 c -0.406,-0.109 -9.509,-2.603 -13.349,-7.59 -1.578,0.247 -4.753,0.702 -6.754,0.702 -2.619,0 -5.223,-0.291 -7.739,-0.864 l -5.9,-1.345 5.845,-1.566 c 10.574,-2.834 17.679,-10.348 17.679,-18.696 0,-6.641 -4.458,-12.821 -11.924,-16.532 l -5.273,-2.621 5.884,-0.222 c 0.473,-0.018 0.947,-0.029 1.428,-0.029 14.967,0 27.144,9.393 27.144,20.938 0,5.593 -2.815,10.849 -7.928,14.798 -0.301,0.232 -0.439,0.349 -0.942,0.848 0.045,1.409 1.829,6.223 3.586,10.114 z m -14.967,-11.695 0.531,0.869 c 1.647,2.697 5.844,4.819 9.046,6.063 -3.517,-8.47 -2.424,-9.561 -1.87,-10.114 0.73,-0.729 0.971,-0.957 1.48,-1.348 4.359,-3.368 6.76,-7.78 6.76,-12.423 0,-8.809 -8.591,-16.154 -19.874,-17.657 5.477,4.234 8.616,9.987 8.616,16.123 0,8.031 -5.454,15.348 -14.059,19.45 0.391,0.014 0.781,0.021 1.173,0.021 2.435,0 7.146,-0.804 7.193,-0.813 z"
       id="path51"
       inkscape:connector-curvature="0"
       style="fill:#26263a;fill-opacity:1" /><path
       d="m 100.469,72.358 1.304,-2.888 c 1.972,-4.367 3.958,-9.753 3.957,-11.239 -0.57,-0.565 -0.736,-0.712 -1.094,-0.989 -5.581,-4.308 -8.655,-10.042 -8.655,-16.147 0,-12.607 13.315,-22.864 29.683,-22.864 16.368,0 29.685,10.257 29.685,22.864 0,12.608 -13.316,22.865 -29.685,22.865 -2.227,0 -5.791,-0.516 -7.488,-0.783 -4.155,5.489 -14.199,8.239 -14.645,8.359 z m 25.193,-51.127 c -14.713,0 -26.683,8.911 -26.683,19.864 0,5.154 2.66,10.046 7.489,13.773 0.548,0.423 0.81,0.671 1.609,1.468 0.548,0.549 1.762,1.763 -2.22,11.271 3.31,-1.242 8.341,-3.576 10.337,-6.845 l 0.531,-0.869 1.003,0.172 c 0.052,0.009 5.247,0.896 7.933,0.896 14.714,0 26.685,-8.912 26.685,-19.865 0.001,-10.954 -11.97,-19.865 -26.684,-19.865 z"
       id="path53"
       inkscape:connector-curvature="0"
       style="fill:#26263a;fill-opacity:1" /><g
       id="g61"
       style="fill:#26263a;fill-opacity:1"><circle
         cx="115.51"
         cy="41.192001"
         r="3.0280001"
         id="circle55"
         style="fill:#26263a;fill-opacity:1" /><circle
         cx="125.662"
         cy="41.192001"
         r="3.027"
         id="circle57"
         style="fill:#26263a;fill-opacity:1" /><circle
         cx="135.813"
         cy="41.192001"
         r="3.027"
         id="circle59"
         style="fill:#26263a;fill-opacity:1" /></g></g></svg>