<?xml version="1.0" encoding="UTF-8" standalone="no"?>
<!-- Generator: Adobe Illustrator 26.1.0, SVG Export Plug-In . SVG Version: 6.00 Build 0)  -->

<svg
   xmlns:dc="http://purl.org/dc/elements/1.1/"
   xmlns:cc="http://creativecommons.org/ns#"
   xmlns:rdf="http://www.w3.org/1999/02/22-rdf-syntax-ns#"
   xmlns:svg="http://www.w3.org/2000/svg"
   xmlns="http://www.w3.org/2000/svg"
   xmlns:sodipodi="http://sodipodi.sourceforge.net/DTD/sodipodi-0.dtd"
   xmlns:inkscape="http://www.inkscape.org/namespaces/inkscape"
   version="1.1"
   x="0px"
   y="0px"
   viewBox="0 0 152.21 152.21"
   style="enable-background:new 0 0 152.21 152.21;"
   xml:space="preserve"
   id="svg28"
   sodipodi:docname="01.svg"
   inkscape:version="0.92.1 r15371"><metadata
     id="metadata34"><rdf:RDF><cc:Work
         rdf:about=""><dc:format>image/svg+xml</dc:format><dc:type
           rdf:resource="http://purl.org/dc/dcmitype/StillImage" /><dc:title></dc:title></cc:Work></rdf:RDF></metadata><defs
     id="defs32" /><sodipodi:namedview
     pagecolor="#ffffff"
     bordercolor="#666666"
     borderopacity="1"
     objecttolerance="10"
     gridtolerance="10"
     guidetolerance="10"
     inkscape:pageopacity="0"
     inkscape:pageshadow="2"
     inkscape:window-width="1600"
     inkscape:window-height="840"
     id="namedview30"
     showgrid="false"
     inkscape:zoom="1.5504894"
     inkscape:cx="-36.440108"
     inkscape:cy="76.105003"
     inkscape:window-x="0"
     inkscape:window-y="0"
     inkscape:window-maximized="1"
     inkscape:current-layer="g25" /><style
     type="text/css"
     id="style2">
	.st0{fill:#293E48;}
</style><g
     id="Vrstva_2" /><g
     id="Vrstva_1"><g
       id="g25"><path
         class="st0"
         d="M76.11,95.57c7,0,12.75-5.57,13.25-12.6c1-2.07,1.55-4.37,1.55-6.68c0-4.24-1.72-8.07-4.48-10.82    c-0.65-5.26-5.07-9.3-10.32-9.3c-5.25,0-9.66,4.04-10.32,9.3c-2.76,2.75-4.48,6.58-4.48,10.82c0,2.31,0.54,4.61,1.55,6.69    C63.36,90,69.1,95.57,76.11,95.57z M76.11,92.57c-5.31,0-9.7-4.16-10.24-9.48l-0.03-0.54l-0.01-0.13    c-0.01-0.15-0.02-0.29-0.02-0.44c0-5.84,4.62-10.6,10.3-10.6s10.3,4.75,10.3,10.6c0,0.21-0.02,0.41-0.03,0.61l-0.03,0.49    C85.82,88.4,81.43,92.57,76.11,92.57z M69.97,62.52c1.34-2.03,3.6-3.36,6.14-3.36s4.8,1.33,6.14,3.36    c-0.03-0.02-0.07-0.03-0.1-0.04c-0.43-0.2-0.86-0.37-1.31-0.52c-0.03-0.01-0.05-0.02-0.08-0.03c-1.46-0.5-3.03-0.78-4.65-0.78    c-1.63,0-3.19,0.28-4.65,0.78c-0.03,0.01-0.06,0.02-0.08,0.03c-0.44,0.15-0.88,0.33-1.3,0.52C70.04,62.5,70,62.51,69.97,62.52z     M67.93,67.55l0.23-0.22c0.04-0.03,0.07-0.07,0.11-0.1c0.25-0.23,0.51-0.45,0.78-0.66c0.02-0.02,0.05-0.04,0.07-0.05    c0.27-0.2,0.54-0.39,0.82-0.57c0.03-0.02,0.07-0.04,0.1-0.06c0.27-0.17,0.55-0.33,0.83-0.47c0.05-0.02,0.1-0.05,0.15-0.07    c0.27-0.13,0.55-0.26,0.83-0.37c0.07-0.03,0.14-0.05,0.21-0.08c0.26-0.1,0.53-0.19,0.8-0.28c0.1-0.03,0.21-0.05,0.31-0.08    c0.24-0.06,0.49-0.13,0.73-0.18c0.16-0.03,0.33-0.05,0.5-0.08c0.19-0.03,0.39-0.06,0.58-0.08c0.37-0.04,0.74-0.06,1.12-0.06    c0.38,0,0.75,0.02,1.12,0.06c0.19,0.02,0.39,0.05,0.58,0.08c0.17,0.02,0.33,0.04,0.5,0.08c0.25,0.05,0.49,0.11,0.73,0.18    c0.1,0.03,0.21,0.05,0.31,0.08c0.27,0.08,0.54,0.17,0.8,0.27c0.07,0.03,0.14,0.05,0.21,0.08c0.28,0.11,0.56,0.24,0.83,0.37    c0.05,0.02,0.1,0.05,0.15,0.07c0.28,0.14,0.56,0.3,0.83,0.47c0.03,0.02,0.07,0.04,0.1,0.06c0.28,0.18,0.55,0.37,0.82,0.57    c0.02,0.02,0.05,0.03,0.07,0.05c0.27,0.21,0.53,0.43,0.78,0.66c0.04,0.03,0.07,0.06,0.11,0.1l0.23,0.22    c2.1,2.08,3.45,4.94,3.61,8.12c-0.02-0.03-0.04-0.07-0.06-0.1c-0.04-0.08-0.08-0.15-0.13-0.23c-0.15-0.27-0.31-0.54-0.48-0.81    c-0.06-0.09-0.11-0.17-0.17-0.26c-0.21-0.32-0.44-0.63-0.68-0.92c-0.03-0.04-0.07-0.08-0.1-0.12c-0.21-0.26-0.44-0.51-0.67-0.75    c-0.07-0.08-0.15-0.15-0.22-0.23c-0.25-0.25-0.5-0.49-0.77-0.71c-0.03-0.02-0.05-0.05-0.08-0.07c-0.29-0.24-0.59-0.47-0.9-0.69    c-0.08-0.06-0.17-0.12-0.26-0.17c-0.26-0.17-0.53-0.34-0.8-0.5c-0.07-0.04-0.13-0.08-0.2-0.12c-0.33-0.18-0.67-0.35-1.02-0.5    c-0.08-0.04-0.17-0.07-0.26-0.11c-0.29-0.12-0.58-0.23-0.87-0.33c-0.09-0.03-0.19-0.06-0.28-0.09c-0.37-0.11-0.74-0.21-1.12-0.3    c-0.07-0.01-0.13-0.02-0.2-0.04c-0.33-0.06-0.66-0.12-0.99-0.16c-0.11-0.01-0.21-0.02-0.32-0.03c-0.4-0.04-0.8-0.06-1.21-0.06    c-0.41,0-0.81,0.03-1.21,0.06c-0.11,0.01-0.21,0.02-0.32,0.03c-0.34,0.04-0.67,0.09-1,0.16c-0.06,0.01-0.13,0.02-0.2,0.04    c-0.38,0.08-0.76,0.18-1.12,0.3c-0.09,0.03-0.18,0.06-0.28,0.09c-0.3,0.1-0.59,0.21-0.88,0.33c-0.08,0.03-0.17,0.07-0.25,0.1    c-0.35,0.15-0.69,0.32-1.03,0.51c-0.07,0.04-0.13,0.08-0.2,0.12c-0.27,0.16-0.54,0.32-0.81,0.5c-0.08,0.06-0.17,0.11-0.25,0.17    c-0.31,0.22-0.62,0.45-0.91,0.69c-0.02,0.02-0.05,0.04-0.07,0.06c-0.27,0.23-0.53,0.47-0.78,0.72c-0.07,0.07-0.15,0.15-0.22,0.23    c-0.23,0.24-0.46,0.5-0.67,0.76c-0.03,0.04-0.07,0.08-0.1,0.11c-0.24,0.3-0.46,0.61-0.68,0.92c-0.06,0.08-0.11,0.17-0.17,0.26    c-0.17,0.26-0.33,0.53-0.48,0.81c-0.04,0.08-0.09,0.15-0.13,0.23c-0.02,0.03-0.04,0.07-0.06,0.1    C64.48,72.49,65.83,69.62,67.93,67.55z"
         id="path5"
         style="fill:#26263a;fill-opacity:1" /><rect
         x="87.33"
         y="109.11"
         class="st0"
         width="3"
         height="8.19"
         id="rect7"
         style="fill:#26263a;fill-opacity:1" /><path
         class="st0"
         d="M95.07,114.86h3c0-17.58-12.73-19.61-12.86-19.63l-1.27-0.18l-0.38,1.22c-1.98,6.38-6.54,7.5-7.46,7.67    c-0.9-0.16-5.49-1.29-7.46-7.67l-0.38-1.22L67,95.24c-0.13,0.02-12.86,2.05-12.86,19.63v4.2h3v-4.2c0-12,6.41-15.43,9.11-16.35    c3.02,7.66,9.41,8.41,9.7,8.44l0.15,0.02l0.15-0.02c0.29-0.03,6.67-0.78,9.7-8.44C88.67,99.43,95.07,102.87,95.07,114.86z"
         id="path9"
         style="fill:#26263a;fill-opacity:1" /><rect
         x="61.88"
         y="109.11"
         class="st0"
         width="3"
         height="9.96"
         id="rect11"
         style="fill:#26263a;fill-opacity:1" /><path
         class="st0"
         d="M22.67,93.36c-8.5,16-7.42,40.88-7.36,41.93l0.07,1.43h121.46l0.07-1.43c0.05-1.05,1.14-25.93-7.36-41.93    l-0.4-0.75V79.89c1.06-1.12,1.66-2.54,1.77-4.25c1.54-1.85,2.12-4.5,1.57-7.38c-0.79-4.16-3.65-7.68-7.65-9.42    c-7.44-3.24-14.82,0.53-17.04,2.75c-0.27,0.27-0.56,0.51-0.83,0.74c-1.89,1.61-3.49,3.52-0.54,7.61c0.08,0.1,0.15,0.19,0.23,0.29    c-0.35,1.52-0.94,5.07-0.51,10.67c0.72,9.47,3.86,11.45,6.36,11.45c0.33,0,0.67-0.01,1.03-0.04v4.84    c-6.05,11.15-7.87,21.78-8.35,25.5H94.3v0.27c-0.65-0.27-1.36-0.48-2.09-0.59l2.63-3.07l-2.28-1.95l-5.13,5.98    c-1.01-0.19-2.32-0.04-3.49,1.13c-0.87,0.87-1.84,1.92-2.47,3.09c-1.31,2.47-0.29,4.05,0.44,4.78c0.46,0.46,1.01,0.95,1.57,1.42    h-8.3c0.23-0.87,0.16-1.62,0.05-2.11c-0.36-1.53-1.57-2.84-3.07-3.34c-1.07-0.36-3.46-0.73-5.31-0.98    c0.28-0.78,0.36-1.58,0.2-2.34c-0.25-1.2-1.04-2.15-2.24-2.62c-2.83-1.01-5.22-0.39-6.9,0.47v-0.13H47.02    c-0.48-3.72-2.3-14.35-8.35-25.5v-4.84c0.36,0.03,0.7,0.04,1.03,0.04c2.51,0,5.65-1.99,6.36-11.45c0.46-6.04-0.26-9.7-0.59-10.99    c1.19-1.33,1.81-2.9,1.81-4.61c0-3.05-0.57-4.71-1.85-5.38c-0.84-0.43-1.69-0.25-2.24,0.07c-1.12,0.5-4.14,1.5-5.91,0.58    c-2.09-1.08-9.27-4.24-13.78,0.27c-4.8,4.8-5.92,10.23-3.1,14.97c0.14,2.21,1.35,3.83,2.66,4.95v11.84L22.67,93.36z M108.9,64.62    c0.33-0.28,0.68-0.58,1.01-0.91c1.51-1.51,7.56-4.81,13.72-2.12c3.64,1.59,5.44,4.78,5.9,7.23c0.2,1.07,0.19,2.09-0.02,2.98    c-0.94-0.68-2.05-0.68-2.63-0.67c-0.75,0-2.39,0.66-3.64,1.9c-0.94-1.36-2.4-2.49-4.55-2.49c-0.64,0-1.3,0.03-1.96,0.06    c-3.2,0.14-5.95,0.25-7.88-2.42C107.27,66,107.55,65.76,108.9,64.62z M122.58,87.07l-2.46-1.71c-2.3,3.31-5.41,4-7.62,4    c-1.31,0-2.89-2.28-3.37-8.68c-0.28-3.74-0.08-6.46,0.16-8.18c2.44,1.31,5.21,1.2,7.57,1.1c0.62-0.03,1.24-0.05,1.84-0.05    c2.4,0,2.92,3.24,2.94,3.37l2.98-0.21c0-1.49,1.88-2.45,2.35-2.58H127c0.19,0,0.65-0.01,0.76,0.11c0.06,0.06,0.16,0.29,0.16,0.79    c0,1.25-0.34,2.2-1.04,2.89c-1.38,1.37-3.73,1.33-3.74,1.36l-0.05,3h0.05c0.26,0,1.54-0.03,2.99-0.52v11.78    c-1.84,0.97-5.55,2.5-9.6,1.84v-3.67C118.62,91.02,120.79,89.65,122.58,87.07z M116.27,98.39c4.86,0.73,9.16-1.06,11.32-2.22    c6.29,13.15,6.44,32.21,6.35,37.54h-11.51c0.99-0.58,1.87-1.24,2.62-1.99c3.38-3.4,3.35-7.54,3.34-9.3l0-13.31h-3v13.05l0,0.28    c0.01,1.63,0.03,4.66-2.46,7.17c-2.71,2.72-7.63,4.11-14.62,4.11h-6.24v-8.06h7.02c6.48,0,8.37-4.78,8.47-7.36v-11.29h-3l0,11.22    c-0.02,0.45-0.38,4.43-5.47,4.43h-0.85C108.76,118.82,110.64,108.71,116.27,98.39z M99.05,125.66v8.06H97.3v-8.06H99.05z     M84.03,130.18c-0.14-0.14-0.38-0.38,0.09-1.25c0.5-0.94,1.51-1.95,1.94-2.38c0.44-0.43,0.82-0.36,1.04-0.24l1.02,0.65l0.85-0.85    c1.7-1.71,4.2-0.51,5.33,0.18v7.44h-5.91C87.52,133.09,85.34,131.49,84.03,130.18z M63.75,125.12c0.2,0.08,0.32,0.21,0.36,0.42    c0.08,0.4-0.1,1.1-0.87,1.86l-2.19,2.19l3.08,0.36c2.15,0.25,5.97,0.78,7.07,1.15c0.43,0.14,0.97,0.61,1.1,1.18    c0.12,0.51-0.11,1.01-0.42,1.42H57.91v-7.37C58.77,125.62,60.97,124.13,63.75,125.12z M34.67,107.01l0,11.34    c0.1,2.53,1.99,7.31,8.47,7.31h11.78v8.06h-11c-7,0-11.92-1.38-14.62-4.11c-2.49-2.51-2.47-5.54-2.46-7.17l0-13.33h-3l0,13.31    c-0.01,1.77-0.04,5.91,3.33,9.3c0.75,0.75,1.63,1.41,2.62,1.99H18.27c-0.09-5.33,0.05-24.38,6.35-37.54    c2.17,1.16,6.46,2.95,11.32,2.22c5.63,10.31,7.51,20.42,8.05,24.26h-0.85c-5.09,0-5.45-3.98-5.47-4.36v-11.29H34.67z M22.05,71.9    c-0.78-3.77,1.75-7.1,3.59-8.93c3.15-3.15,9.12-0.33,10.29,0.27c2.93,1.51,6.76,0.21,8.14-0.36c0.11,0.39,0.22,1.12,0.22,2.42    c0,1.31-0.66,2.47-1.97,3.45c-2.17,1.63-5.53,2.22-7.23,1.76c-2.05-0.79-3.84-0.73-5.31,0.17c-0.76,0.46-1.33,1.09-1.75,1.75    c-0.99-0.8-2.27-1.26-3.51-1.26C23.59,71.17,22.73,71.43,22.05,71.9z M26.73,82.88l0.95-2.84c-0.04-0.01-4.29-1.5-4.29-4.66    c0-0.45,0.1-0.77,0.3-0.95c0.18-0.16,0.47-0.25,0.82-0.25c0.96,0,2.29,0.71,2.29,1.87l2.99,0.16c0-0.02,0.28-2.18,1.53-2.94    c0.65-0.4,1.57-0.37,2.73,0.09l0.13,0.04c2.4,0.7,5.94,0.08,8.64-1.41c0.27,1.65,0.55,4.56,0.24,8.71    c-0.48,6.4-2.06,8.68-3.37,8.68c-2.21,0-5.32-0.69-7.62-4l-2.46,1.71c1.8,2.59,3.97,3.96,6.05,4.65v3.67    c-4.05,0.67-7.76-0.87-9.6-1.84V82.62C26.44,82.78,26.68,82.86,26.73,82.88z"
         id="path13"
         style="fill:#26263a;fill-opacity:1" /><path
         class="st0"
         d="M53.51,48.12c0.26,0.2,0.38,0.31,0.8,0.72c-0.08,1.33-1.68,5.63-3.25,9.1l-1.3,2.89L52.82,60    c0.37-0.1,8.62-2.36,12.17-6.89c1.46,0.23,4.29,0.63,6.09,0.63c2.73,0,5.35-0.35,7.81-0.98c1.99,0.43,4.04,0.65,6.1,0.65    c1.61,0,4.13-0.35,5.49-0.56c3.29,4.12,10.76,6.17,11.1,6.26l3.06,0.82l-1.3-2.89c-1.39-3.08-2.82-6.91-2.94-8.17    c0.34-0.33,0.45-0.42,0.67-0.59l0,0c4.3-3.32,6.67-7.74,6.67-12.46c0-9.7-10.2-17.6-22.74-17.6c-0.28,0-0.56,0.01-0.84,0.02    c-3.8-1.83-8.28-2.88-13.07-2.88c-13.7,0-24.84,8.61-24.84,19.19C46.24,39.68,48.82,44.5,53.51,48.12z M104.74,35.81    c0,3.77-1.95,7.35-5.5,10.09c-0.43,0.33-0.63,0.52-1.25,1.14c-0.52,0.52-1.43,1.43,1.26,8.1c-2.52-1.03-5.56-2.67-6.8-4.7    l-0.53-0.87l-1,0.17c-0.04,0.01-3.81,0.65-5.83,0.67c3.52-1.85,6.34-4.38,8.22-7.3c0.08-0.12,0.16-0.24,0.23-0.37    c0.1-0.16,0.2-0.33,0.29-0.49c0.1-0.17,0.2-0.35,0.29-0.53c0.07-0.14,0.15-0.28,0.21-0.42c0.12-0.24,0.23-0.48,0.33-0.72    c0.04-0.09,0.08-0.18,0.12-0.26c0.14-0.35,0.27-0.69,0.39-1.05c0.01-0.04,0.03-0.09,0.04-0.13c0.1-0.31,0.19-0.62,0.27-0.93    c0.03-0.1,0.05-0.2,0.07-0.3c0.06-0.26,0.11-0.52,0.16-0.79c0.02-0.12,0.04-0.23,0.06-0.35c0.04-0.26,0.07-0.53,0.1-0.79    c0.01-0.11,0.02-0.22,0.03-0.33c0.03-0.37,0.04-0.74,0.04-1.11c0-0.57-0.04-1.13-0.1-1.69c-0.01-0.06-0.01-0.13-0.02-0.19    c-0.06-0.51-0.16-1.01-0.27-1.51c-0.03-0.12-0.05-0.23-0.08-0.35c-0.11-0.45-0.25-0.89-0.41-1.32c-0.06-0.17-0.12-0.34-0.19-0.51    c-0.15-0.38-0.31-0.75-0.49-1.11c-0.11-0.23-0.23-0.46-0.35-0.69c-0.1-0.19-0.21-0.38-0.32-0.56c-0.24-0.4-0.49-0.8-0.76-1.18    c-0.02-0.03-0.04-0.05-0.06-0.08c-0.95-1.35-2.09-2.61-3.44-3.76C98.19,23.08,104.74,28.89,104.74,35.81z M71.08,18.34    c4.35,0,8.4,0.95,11.81,2.58l0.3,0.15c3.81,1.89,6.66,4.57,8.26,7.63c0,0,0,0,0,0c0.47,0.9,0.83,1.83,1.08,2.79    c0.01,0.05,0.03,0.11,0.04,0.16c0.06,0.25,0.11,0.5,0.16,0.75c0.01,0.08,0.03,0.16,0.04,0.25c0.04,0.23,0.07,0.47,0.09,0.7    c0.01,0.08,0.02,0.17,0.03,0.25c0.02,0.31,0.04,0.62,0.04,0.94c0,0.39-0.02,0.77-0.06,1.15c-0.01,0.07-0.01,0.15-0.02,0.22    c-0.72,6.24-6.31,11.71-14.37,13.87l-0.21,0.06c-2.25,0.58-4.66,0.9-7.18,0.9c-2.2,0-6.48-0.73-6.53-0.74l-1-0.17l-0.53,0.87    c-1.43,2.34-5.02,4.21-7.87,5.35c3.09-7.52,2.11-8.5,1.55-9.06c-0.67-0.67-0.89-0.88-1.36-1.24c-3.94-3.04-6.1-7.02-6.1-11.2    C49.24,25.61,59.04,18.34,71.08,18.34z"
         id="path15"
         style="fill:#26263a;fill-opacity:1" /><path
         class="st0"
         d="M62.68,37.13c1.39,0,2.51-1.12,2.51-2.51c0-1.38-1.12-2.51-2.51-2.51c-1.38,0-2.51,1.12-2.51,2.51    C60.17,36,61.29,37.13,62.68,37.13z"
         id="path17"
         style="fill:#26263a;fill-opacity:1" /><path
         class="st0"
         d="M71.08,37.13c1.39,0,2.51-1.12,2.51-2.51c0-1.38-1.12-2.51-2.51-2.51c-1.38,0-2.51,1.12-2.51,2.51    C68.58,36,69.7,37.13,71.08,37.13z"
         id="path19"
         style="fill:#26263a;fill-opacity:1" /><path
         class="st0"
         d="M79.49,37.13c1.39,0,2.51-1.12,2.51-2.51c0-1.38-1.12-2.51-2.51-2.51c-1.38,0-2.51,1.12-2.51,2.51    C76.99,36,78.11,37.13,79.49,37.13z"
         id="path21"
         style="fill:#26263a;fill-opacity:1" /><path
         class="st0"
         d="M0,0v152.21h152.21V0H0z M149.21,149.21H3V3h146.21V149.21z"
         id="path23"
         style="fill:#26263a;fill-opacity:1" /></g></g></svg>