<?xml version="1.0" encoding="UTF-8" standalone="no"?>
<!-- Generator: Adobe Illustrator 26.1.0, SVG Export Plug-In . SVG Version: 6.00 Build 0)  -->

<svg
   xmlns:dc="http://purl.org/dc/elements/1.1/"
   xmlns:cc="http://creativecommons.org/ns#"
   xmlns:rdf="http://www.w3.org/1999/02/22-rdf-syntax-ns#"
   xmlns:svg="http://www.w3.org/2000/svg"
   xmlns="http://www.w3.org/2000/svg"
   xmlns:sodipodi="http://sodipodi.sourceforge.net/DTD/sodipodi-0.dtd"
   xmlns:inkscape="http://www.inkscape.org/namespaces/inkscape"
   version="1.1"
   x="0px"
   y="0px"
   viewBox="0 0 152.21 152.21"
   style="enable-background:new 0 0 152.21 152.21;"
   xml:space="preserve"
   id="svg22"
   sodipodi:docname="02.svg"
   inkscape:version="0.92.1 r15371"><metadata
     id="metadata28"><rdf:RDF><cc:Work
         rdf:about=""><dc:format>image/svg+xml</dc:format><dc:type
           rdf:resource="http://purl.org/dc/dcmitype/StillImage" /><dc:title></dc:title></cc:Work></rdf:RDF></metadata><defs
     id="defs26" /><sodipodi:namedview
     pagecolor="#ffffff"
     bordercolor="#666666"
     borderopacity="1"
     objecttolerance="10"
     gridtolerance="10"
     guidetolerance="10"
     inkscape:pageopacity="0"
     inkscape:pageshadow="2"
     inkscape:window-width="1600"
     inkscape:window-height="840"
     id="namedview24"
     showgrid="false"
     inkscape:zoom="1.5504894"
     inkscape:cx="-97.711085"
     inkscape:cy="76.105003"
     inkscape:window-x="0"
     inkscape:window-y="0"
     inkscape:window-maximized="1"
     inkscape:current-layer="g19" /><style
     type="text/css"
     id="style2">
	.st0{fill:#293E48;}
</style><g
     id="Vrstva_2" /><g
     id="Vrstva_1"><g
       id="g19"><path
         class="st0"
         d="M23.5,135.86h13.34l18.99-24.36h40.55l18.99,24.36h13.33l-18.99-24.36h26.91V30.41h-35.94v-6.24H77.61v-8.42    h-3v8.42H51.53v6.24H15.59v81.08h26.91L23.5,135.86z M35.37,132.86h-5.73l16.65-21.36h5.73L35.37,132.86z M122.57,132.86h-5.73    l-16.65-21.36h5.73L122.57,132.86z M54.53,27.17h43.15v3.24H54.53V27.17z M18.59,33.41h115.03v75.08H18.59V33.41z"
         id="path5"
         style="fill:#26263a;fill-opacity:1" /><path
         class="st0"
         d="M119.67,66.45h-8c-6-6.96-17.26-10.22-34.42-9.99v-3.3h7.18c3.92,0,7.12-3.19,7.12-7.12s-3.19-7.12-7.12-7.12    H67.08c-3.92,0-7.12,3.19-7.12,7.12s3.19,7.12,7.12,7.12h7.18v3.28C61.16,56,49.66,59.36,40.05,66.45h-8.2    c-3.92,0-7.12,3.19-7.12,7.12s3.19,7.12,7.12,7.12h7.18v7.04h-7.18c-3.92,0-7.12,3.19-7.12,7.12s3.19,7.12,7.12,7.12h17.36    c3.41,0,6.26-2.41,6.95-5.62h5.03c0.69,3.21,3.54,5.62,6.95,5.62h17.36c3.92,0,7.12-3.19,7.12-7.12s-3.19-7.12-7.12-7.12H68.15    c-3.41,0-6.26,2.41-6.95,5.62h-5.03c-0.69-3.21-3.54-5.62-6.95-5.62h-7.18v-7.04h7.18c3.92,0,7.12-3.19,7.12-7.12    s-3.19-7.12-7.12-7.12h-3.78c8.32-5.04,17.99-7.41,28.83-7.02v7.02h-7.18c-3.92,0-7.12,3.19-7.12,7.12s3.19,7.12,7.12,7.12h17.36    c3.92,0,7.12-3.19,7.12-7.12s-3.19-7.12-7.12-7.12h-7.18v-6.98c14.21-0.2,24.33,2.13,30.16,6.98h-5.1c-3.92,0-7.12,3.19-7.12,7.12    s3.19,7.12,7.12,7.12h17.36c3.92,0,7.12-3.19,7.12-7.12S123.6,66.45,119.67,66.45z M62.96,46.04c0-2.27,1.85-4.12,4.12-4.12h17.36    c2.27,0,4.12,1.85,4.12,4.12s-1.85,4.12-4.12,4.12H67.08C64.81,50.15,62.96,48.31,62.96,46.04z M68.15,90.71h17.36    c2.27,0,4.12,1.85,4.12,4.12s-1.85,4.12-4.12,4.12H68.15c-2.27,0-4.12-1.85-4.12-4.12S65.88,90.71,68.15,90.71z M53.33,94.83    c0,2.27-1.85,4.12-4.12,4.12H31.85c-2.27,0-4.12-1.85-4.12-4.12s1.85-4.12,4.12-4.12h17.36C51.48,90.71,53.33,92.56,53.33,94.83z     M53.33,73.56c0,2.27-1.85,4.12-4.12,4.12H31.85c-2.27,0-4.12-1.85-4.12-4.12s1.85-4.12,4.12-4.12h17.36    C51.48,69.45,53.33,71.29,53.33,73.56z M88.55,73.56c0,2.27-1.85,4.12-4.12,4.12H67.08c-2.27,0-4.12-1.85-4.12-4.12    s1.85-4.12,4.12-4.12h17.36C86.71,69.45,88.55,71.29,88.55,73.56z M119.67,77.68h-17.36c-2.27,0-4.12-1.85-4.12-4.12    s1.85-4.12,4.12-4.12h17.36c2.27,0,4.12,1.85,4.12,4.12S121.94,77.68,119.67,77.68z"
         id="path7"
         style="fill:#26263a;fill-opacity:1" /><path
         class="st0"
         d="M117.47,53.9c3.72,0,6.74-3.02,6.74-6.74c0-3.72-3.02-6.74-6.74-6.74c-3.72,0-6.74,3.02-6.74,6.74    C110.73,50.88,113.75,53.9,117.47,53.9z"
         id="path9"
         style="fill:#26263a;fill-opacity:1" /><rect
         x="99.25"
         y="87.25"
         class="st0"
         width="23.77"
         height="3"
         id="rect11"
         style="fill:#26263a;fill-opacity:1" /><rect
         x="99.25"
         y="93.62"
         class="st0"
         width="23.77"
         height="3"
         id="rect13"
         style="fill:#26263a;fill-opacity:1" /><rect
         x="99.25"
         y="99.98"
         class="st0"
         width="23.77"
         height="3"
         id="rect15"
         style="fill:#26263a;fill-opacity:1" /><path
         class="st0"
         d="M0,0v152.21h152.21V0H0z M149.21,149.21H3V3h146.21V149.21z"
         id="path17"
         style="fill:#26263a;fill-opacity:1" /></g></g></svg>