<?xml version="1.0" encoding="UTF-8" standalone="no"?>
<!-- Generator: Adobe Illustrator 26.1.0, SVG Export Plug-In . SVG Version: 6.00 Build 0)  -->

<svg
   xmlns:dc="http://purl.org/dc/elements/1.1/"
   xmlns:cc="http://creativecommons.org/ns#"
   xmlns:rdf="http://www.w3.org/1999/02/22-rdf-syntax-ns#"
   xmlns:svg="http://www.w3.org/2000/svg"
   xmlns="http://www.w3.org/2000/svg"
   xmlns:sodipodi="http://sodipodi.sourceforge.net/DTD/sodipodi-0.dtd"
   xmlns:inkscape="http://www.inkscape.org/namespaces/inkscape"
   version="1.1"
   x="0px"
   y="0px"
   viewBox="0 0 152.21 152.21"
   style="enable-background:new 0 0 152.21 152.21;"
   xml:space="preserve"
   id="svg24"
   sodipodi:docname="03.svg"
   inkscape:version="0.92.1 r15371"><metadata
     id="metadata30"><rdf:RDF><cc:Work
         rdf:about=""><dc:format>image/svg+xml</dc:format><dc:type
           rdf:resource="http://purl.org/dc/dcmitype/StillImage" /><dc:title></dc:title></cc:Work></rdf:RDF></metadata><defs
     id="defs28" /><sodipodi:namedview
     pagecolor="#ffffff"
     bordercolor="#666666"
     borderopacity="1"
     objecttolerance="10"
     gridtolerance="10"
     guidetolerance="10"
     inkscape:pageopacity="0"
     inkscape:pageshadow="2"
     inkscape:window-width="1600"
     inkscape:window-height="840"
     id="namedview26"
     showgrid="false"
     inkscape:zoom="1.5504894"
     inkscape:cx="-97.711085"
     inkscape:cy="76.105003"
     inkscape:window-x="0"
     inkscape:window-y="0"
     inkscape:window-maximized="1"
     inkscape:current-layer="g21" /><style
     type="text/css"
     id="style2">
	.st0{fill:#293E48;}
</style><g
     id="Vrstva_2" /><g
     id="Vrstva_1"><g
       id="g21"><circle
         class="st0"
         cx="101.32"
         cy="72.82"
         r="5.19"
         id="circle5"
         style="fill:#26263a;fill-opacity:1" /><path
         class="st0"
         d="M24.21,111.43h7v18.58h71l-24.75-18.58H93.8l17.4,13.01l-0.62,0.83l6.94,5.18l0.62-0.83l0.61,0.46    c0.62,0.47,1.36,0.69,2.08,0.69c1.06,0,2.11-0.48,2.79-1.4l3.62-4.84c0.56-0.75,0.79-1.66,0.66-2.58    c-0.13-0.92-0.62-1.73-1.36-2.29l-0.61-0.46l0.62-0.83l-6.93-5.18l-0.62,0.83l-3.46-2.58H128c5.37,0,9.75-4.37,9.75-9.75V38.79    c0-5.38-4.37-9.75-9.75-9.75H24.21c-5.37,0-9.75,4.37-9.75,9.75v62.89C14.46,107.06,18.83,111.43,24.21,111.43z M86.75,89.92    l0.26-0.35l-1.62-0.66l-1.05-0.78l-0.2,0.27L61.4,79.1l15.36,19.18l-0.2,0.27l1.05,0.78l1.09,1.36l0.26-0.35l1.82,1.36H64.51    L38.18,81.94c7.66-3.32,19.5-7.05,35.42-8.05c4.89-0.31,9.62-0.44,14.12-0.42c0.34,7.21,6.3,12.98,13.6,12.98    c6.36,0,11.7-4.38,13.2-10.28c7.51,1.72,11.53,3.77,12.95,4.61v18.06c0,1.58-1.28,2.86-2.86,2.86h-22.09L86.75,89.92z M73.3,87.99    c0.16-0.22,0.27-0.43,0.36-0.64l8.63,3.53l-3.67,4.91l-5.83-7.28C72.96,88.37,73.13,88.21,73.3,87.99z M90.68,72.82    c0-5.86,4.77-10.63,10.63-10.63s10.64,4.77,10.64,10.63s-4.77,10.63-10.64,10.63S90.68,78.69,90.68,72.82z M127.47,77.38    c-2.28-1.14-6.31-2.78-12.53-4.18c0-0.13,0.02-0.25,0.02-0.38c0-7.52-6.12-13.63-13.64-13.63c-6.72,0-12.3,4.89-13.42,11.29    c-4.61-0.03-9.47,0.11-14.49,0.42c-17.45,1.09-30.17,5.41-37.98,8.98l-4.23-3.18v5.26c-2.83,1.51-4.98,2.89-6.46,3.93V41.63    c0-1.58,1.28-2.86,2.86-2.86h97.01c1.58,0,2.86,1.28,2.86,2.86V77.38z M24.74,89.64c0.91-0.72,3.05-2.33,6.46-4.25v16.32h-3.6    c-1.58,0-2.86-1.28-2.86-2.86V89.64z M34.21,127.01v-44.3l59.01,44.3H34.21z M73.47,108.43l-4.96-3.73h16.15v-0.11l5.14,3.84    H73.47z M80.76,97.94l1.2-1.61l32.24,24.09l-1.2,1.61L80.76,97.94z M116.91,126.25l-2.09-1.56l5.44-7.28l2.09,1.56L116.91,126.25z     M124.13,121.6l0.61,0.46c0.21,0.16,0.26,0.46,0.1,0.68l-3.62,4.84c-0.16,0.21-0.46,0.26-0.68,0.1l-0.61-0.46l0.1-0.14    L124.13,121.6z M116,118.03L83.76,93.93l1.2-1.61l32.24,24.09L116,118.03z M17.46,38.79c0-3.72,3.03-6.75,6.75-6.75H128    c3.72,0,6.75,3.03,6.75,6.75v62.89c0,3.72-3.03,6.75-6.75,6.75h-16.48l-4.99-3.73h18.07c3.23,0,5.86-2.63,5.86-5.86V41.63    c0-3.23-2.63-5.86-5.86-5.86H27.6c-3.23,0-5.86,2.63-5.86,5.86v57.22c0,3.23,2.63,5.86,5.86,5.86h3.6v3.73h-7    c-3.72,0-6.75-3.03-6.75-6.75V38.79z"
         id="path7"
         style="fill:#26263a;fill-opacity:1" /><rect
         x="33.37"
         y="46.01"
         class="st0"
         width="18.75"
         height="13.35"
         id="rect9"
         style="fill:#26263a;fill-opacity:1" /><rect
         x="71.46"
         y="45.54"
         class="st0"
         width="12.98"
         height="3"
         id="rect11"
         style="fill:#26263a;fill-opacity:1" /><rect
         x="88.34"
         y="45.54"
         class="st0"
         width="12.98"
         height="3"
         id="rect13"
         style="fill:#26263a;fill-opacity:1" /><rect
         x="105.21"
         y="45.54"
         class="st0"
         width="12.98"
         height="3"
         id="rect15"
         style="fill:#26263a;fill-opacity:1" /><path
         class="st0"
         d="M41.36,97.04v22.82h30.39L41.36,97.04z M51.55,108.43h-7.18v-5.39L51.55,108.43z M44.36,111.43h11.18    l7.22,5.42h-18.4V111.43z"
         id="path17"
         style="fill:#26263a;fill-opacity:1" /><path
         class="st0"
         d="M0,0v152.21h152.21V0H0z M149.21,149.21H3V3h146.21V149.21z"
         id="path19"
         style="fill:#26263a;fill-opacity:1" /></g></g></svg>