<?xml version="1.0" encoding="UTF-8" standalone="no"?>
<!-- Generator: Adobe Illustrator 26.1.0, SVG Export Plug-In . SVG Version: 6.00 Build 0)  -->

<svg
   xmlns:dc="http://purl.org/dc/elements/1.1/"
   xmlns:cc="http://creativecommons.org/ns#"
   xmlns:rdf="http://www.w3.org/1999/02/22-rdf-syntax-ns#"
   xmlns:svg="http://www.w3.org/2000/svg"
   xmlns="http://www.w3.org/2000/svg"
   xmlns:sodipodi="http://sodipodi.sourceforge.net/DTD/sodipodi-0.dtd"
   xmlns:inkscape="http://www.inkscape.org/namespaces/inkscape"
   version="1.1"
   x="0px"
   y="0px"
   viewBox="0 0 152.21 152.21"
   style="enable-background:new 0 0 152.21 152.21;"
   xml:space="preserve"
   id="svg114"
   sodipodi:docname="04.svg"
   inkscape:version="0.92.1 r15371"><metadata
     id="metadata120"><rdf:RDF><cc:Work
         rdf:about=""><dc:format>image/svg+xml</dc:format><dc:type
           rdf:resource="http://purl.org/dc/dcmitype/StillImage" /><dc:title></dc:title></cc:Work></rdf:RDF></metadata><defs
     id="defs118" /><sodipodi:namedview
     pagecolor="#ffffff"
     bordercolor="#666666"
     borderopacity="1"
     objecttolerance="10"
     gridtolerance="10"
     guidetolerance="10"
     inkscape:pageopacity="0"
     inkscape:pageshadow="2"
     inkscape:window-width="1600"
     inkscape:window-height="840"
     id="namedview116"
     showgrid="false"
     inkscape:zoom="1.5504894"
     inkscape:cx="-97.711085"
     inkscape:cy="76.105003"
     inkscape:window-x="0"
     inkscape:window-y="0"
     inkscape:window-maximized="1"
     inkscape:current-layer="g111" /><style
     type="text/css"
     id="style2">
	.st0{fill:#293E48;}
</style><g
     id="Vrstva_2" /><g
     id="Vrstva_1"><g
       id="g111"><path
         class="st0"
         d="M21.55,85.75h74.46V32.98H21.55V85.75z M24.55,35.98h68.46v46.77H24.55V35.98z"
         id="path5"
         style="fill:#26263a;fill-opacity:1" /><polygon
         class="st0"
         points="30.53,51.56 36.58,54.07 36.58,52.22 32.83,50.97 32.37,50.81 32.83,50.64 36.58,49.37 36.58,47.52     30.53,50.03   "
         id="polygon7"
         style="fill:#26263a;fill-opacity:1" /><path
         class="st0"
         d="M39.54,54.11c0.29,0.34,0.65,0.6,1.08,0.8s0.94,0.29,1.51,0.29c0.42,0,0.83-0.07,1.21-0.2    c0.38-0.13,0.71-0.32,1-0.56c0.29-0.24,0.51-0.52,0.68-0.85c0.17-0.33,0.25-0.68,0.24-1.07h-1.79c0.01,0.17-0.02,0.33-0.09,0.47    c-0.07,0.14-0.17,0.26-0.3,0.36c-0.13,0.1-0.28,0.18-0.44,0.23c-0.17,0.05-0.35,0.08-0.53,0.08c-0.31,0-0.56-0.06-0.75-0.18    S40.98,53.2,40.87,53c-0.12-0.2-0.2-0.44-0.24-0.7c-0.04-0.27-0.07-0.54-0.07-0.83v-0.21c0-0.28,0.02-0.56,0.07-0.82    s0.13-0.5,0.25-0.7c0.12-0.21,0.27-0.37,0.47-0.49c0.2-0.12,0.44-0.18,0.74-0.18c0.21,0,0.39,0.04,0.57,0.11    c0.17,0.07,0.32,0.17,0.44,0.28s0.22,0.26,0.28,0.42c0.06,0.16,0.09,0.34,0.08,0.52h1.79c0.01-0.44-0.06-0.83-0.22-1.18    c-0.15-0.35-0.37-0.65-0.65-0.9c-0.28-0.25-0.61-0.44-1-0.58c-0.39-0.14-0.81-0.21-1.26-0.21c-0.57,0-1.07,0.1-1.5,0.29    c-0.43,0.2-0.79,0.46-1.08,0.8c-0.29,0.34-0.51,0.73-0.66,1.18s-0.22,0.94-0.22,1.46v0.21c0,0.52,0.07,1,0.22,1.46    C39.03,53.38,39.25,53.77,39.54,54.11z"
         id="path9"
         style="fill:#26263a;fill-opacity:1" /><path
         class="st0"
         d="M52.94,51.37c-0.28-0.18-0.61-0.33-0.99-0.44c-0.38-0.11-0.8-0.21-1.24-0.28c-0.31-0.05-0.56-0.1-0.76-0.16    s-0.36-0.13-0.47-0.2c-0.12-0.08-0.2-0.16-0.24-0.25c-0.05-0.09-0.07-0.2-0.07-0.3c0-0.23,0.11-0.43,0.34-0.59s0.56-0.24,1-0.24    c0.47,0,0.83,0.1,1.06,0.29c0.23,0.19,0.35,0.43,0.35,0.72h1.9c0-0.34-0.08-0.66-0.23-0.95c-0.15-0.29-0.37-0.54-0.65-0.75    c-0.29-0.21-0.63-0.38-1.04-0.5c-0.41-0.12-0.87-0.18-1.39-0.18c-0.49,0-0.93,0.06-1.33,0.18s-0.72,0.29-1,0.5    c-0.27,0.21-0.48,0.45-0.63,0.73c-0.15,0.28-0.22,0.57-0.22,0.87c0,0.31,0.07,0.59,0.21,0.83s0.34,0.45,0.6,0.64    c0.25,0.18,0.56,0.34,0.92,0.47c0.36,0.13,0.75,0.24,1.18,0.32c0.34,0.06,0.62,0.13,0.85,0.19c0.22,0.06,0.4,0.13,0.54,0.21    c0.13,0.08,0.23,0.16,0.28,0.24c0.05,0.09,0.08,0.19,0.08,0.3c0,0.24-0.12,0.43-0.37,0.58c-0.25,0.15-0.6,0.22-1.07,0.22    c-0.21,0-0.4-0.02-0.6-0.06c-0.19-0.04-0.37-0.11-0.52-0.19s-0.27-0.21-0.37-0.35c-0.1-0.14-0.15-0.31-0.16-0.52h-1.81    c0,0.3,0.07,0.6,0.22,0.9c0.15,0.3,0.37,0.56,0.65,0.8c0.29,0.23,0.64,0.42,1.07,0.57c0.42,0.15,0.92,0.22,1.47,0.22    c0.5,0,0.96-0.06,1.37-0.17c0.41-0.11,0.76-0.27,1.05-0.47c0.29-0.2,0.51-0.44,0.67-0.71s0.24-0.58,0.24-0.91    c0-0.35-0.08-0.66-0.24-0.92C53.43,51.77,53.21,51.55,52.94,51.37z"
         id="path11"
         style="fill:#26263a;fill-opacity:1" /><path
         class="st0"
         d="M60.01,53.61c-0.25,0.15-0.6,0.22-1.07,0.22c-0.21,0-0.4-0.02-0.6-0.06c-0.19-0.04-0.37-0.11-0.52-0.19    s-0.27-0.21-0.37-0.35c-0.1-0.14-0.15-0.31-0.16-0.52h-1.81c0,0.3,0.07,0.6,0.22,0.9c0.15,0.3,0.37,0.56,0.65,0.8    c0.29,0.23,0.64,0.42,1.07,0.57c0.42,0.15,0.92,0.22,1.47,0.22c0.5,0,0.96-0.06,1.37-0.17c0.41-0.11,0.76-0.27,1.05-0.47    c0.29-0.2,0.51-0.44,0.67-0.71s0.24-0.58,0.24-0.91c0-0.35-0.08-0.66-0.24-0.92c-0.16-0.26-0.38-0.48-0.65-0.66    c-0.28-0.18-0.61-0.33-0.99-0.44c-0.38-0.11-0.8-0.21-1.24-0.28c-0.31-0.05-0.56-0.1-0.76-0.16s-0.36-0.13-0.47-0.2    c-0.12-0.08-0.2-0.16-0.24-0.25c-0.05-0.09-0.07-0.2-0.07-0.3c0-0.23,0.11-0.43,0.34-0.59s0.56-0.24,1-0.24    c0.47,0,0.83,0.1,1.06,0.29c0.23,0.19,0.35,0.43,0.35,0.72h1.9c0-0.34-0.08-0.66-0.23-0.95c-0.15-0.29-0.37-0.54-0.65-0.75    c-0.29-0.21-0.63-0.38-1.04-0.5c-0.41-0.12-0.87-0.18-1.39-0.18c-0.49,0-0.93,0.06-1.33,0.18s-0.72,0.29-1,0.5    c-0.27,0.21-0.48,0.45-0.63,0.73c-0.15,0.28-0.22,0.57-0.22,0.87c0,0.31,0.07,0.59,0.21,0.83s0.34,0.45,0.6,0.64    c0.25,0.18,0.56,0.34,0.92,0.47c0.36,0.13,0.75,0.24,1.18,0.32c0.34,0.06,0.62,0.13,0.85,0.19c0.22,0.06,0.4,0.13,0.54,0.21    c0.13,0.08,0.23,0.16,0.28,0.24c0.05,0.09,0.08,0.19,0.08,0.3C60.37,53.26,60.25,53.46,60.01,53.61z"
         id="path13"
         style="fill:#26263a;fill-opacity:1" /><polygon
         class="st0"
         points="70.03,45.11 68.26,45.11 64.54,55.91 66.31,55.91   "
         id="polygon15"
         style="fill:#26263a;fill-opacity:1" /><polygon
         class="st0"
         points="72.53,49.36 76.45,50.65 76.86,50.79 76.44,50.92 72.53,52.23 72.53,54.08 78.68,51.57 78.68,50.02     72.53,47.52   "
         id="polygon17"
         style="fill:#26263a;fill-opacity:1" /><polygon
         class="st0"
         points="30.53,69.84 36.58,72.34 36.58,70.49 32.83,69.24 32.37,69.08 32.83,68.91 36.58,67.64 36.58,65.8     30.53,68.3   "
         id="polygon19"
         style="fill:#26263a;fill-opacity:1" /><path
         class="st0"
         d="M44.7,66.52c-0.23-0.25-0.51-0.43-0.83-0.54s-0.68-0.17-1.07-0.17c-0.44,0-0.83,0.1-1.18,0.31    c-0.35,0.2-0.65,0.49-0.9,0.85v-4.12h-1.9v10.49h1.9V68c0.15-0.21,0.34-0.36,0.58-0.48c0.23-0.11,0.51-0.17,0.83-0.17    c0.22,0,0.41,0.03,0.59,0.09c0.17,0.06,0.32,0.14,0.44,0.26s0.22,0.27,0.28,0.46c0.07,0.19,0.1,0.42,0.1,0.68v4.49h1.9v-4.47    c0-0.54-0.06-1-0.19-1.39S44.93,66.77,44.7,66.52z"
         id="path21"
         style="fill:#26263a;fill-opacity:1" /><path
         class="st0"
         d="M53.28,71.78c-0.12,0.02-0.25,0.04-0.39,0.06c-0.14,0.02-0.29,0.04-0.44,0.05c-0.15,0.01-0.3,0.02-0.45,0.02    c-0.2,0-0.38-0.02-0.54-0.07c-0.16-0.05-0.3-0.12-0.41-0.23c-0.11-0.11-0.2-0.25-0.26-0.43s-0.09-0.4-0.09-0.67v-3.18h2.76v-1.4    H50.7v-1.81h-1.9v1.81h-1.69v1.4h1.69v3.36c0,0.49,0.06,0.9,0.19,1.25c0.13,0.35,0.31,0.63,0.54,0.86s0.52,0.39,0.85,0.5    c0.33,0.11,0.7,0.16,1.1,0.16c0.21,0,0.42-0.01,0.64-0.03c0.22-0.02,0.42-0.05,0.62-0.08s0.39-0.08,0.57-0.14    c0.18-0.06,0.33-0.12,0.46-0.2l-0.18-1.3C53.51,71.73,53.4,71.75,53.28,71.78z"
         id="path23"
         style="fill:#26263a;fill-opacity:1" /><path
         class="st0"
         d="M62,66.32c-0.14-0.18-0.31-0.31-0.51-0.39s-0.4-0.12-0.62-0.12c-0.32,0-0.59,0.07-0.82,0.21    s-0.41,0.33-0.56,0.58c-0.18-0.52-0.57-0.79-1.17-0.79c-0.35,0-0.66,0.09-0.9,0.28c-0.25,0.18-0.44,0.44-0.58,0.75l-0.05-0.89    h-1.63v7.39h1.73V67.8c0.05-0.14,0.12-0.25,0.21-0.33s0.21-0.12,0.35-0.12c0.07,0,0.14,0.01,0.21,0.03s0.12,0.06,0.17,0.11    s0.09,0.12,0.11,0.21s0.04,0.21,0.04,0.35v5.29h1.67v-5.64c0.05-0.1,0.12-0.19,0.21-0.25c0.09-0.06,0.2-0.09,0.33-0.09    c0.07,0,0.14,0.01,0.2,0.03c0.07,0.02,0.12,0.06,0.17,0.11c0.05,0.05,0.09,0.12,0.12,0.21s0.04,0.21,0.04,0.35v5.28h1.73v-5.27    c0-0.41-0.04-0.76-0.12-1.04C62.26,66.73,62.15,66.5,62,66.32z"
         id="path25"
         style="fill:#26263a;fill-opacity:1" /><polygon
         class="st0"
         points="68.53,62.84 64.4,62.84 64.4,64.39 66.61,64.39 66.61,71.79 64.4,71.79 64.4,73.33 70.65,73.33     70.65,71.79 68.53,71.79   "
         id="polygon27"
         style="fill:#26263a;fill-opacity:1" /><polygon
         class="st0"
         points="72.93,74.18 74.7,74.18 78.42,63.38 76.65,63.38   "
         id="polygon29"
         style="fill:#26263a;fill-opacity:1" /><polygon
         class="st0"
         points="80.92,67.63 84.84,68.92 85.25,69.06 84.84,69.2 80.92,70.51 80.92,72.35 87.07,69.85 87.07,68.29     80.92,65.8   "
         id="polygon31"
         style="fill:#26263a;fill-opacity:1" /><path
         class="st0"
         d="M138.03,56.52H105.7v62.88h32.33V56.52z M135.03,59.52v51.06H108.7V59.52H135.03z M108.7,116.41v-2.83h26.33    v2.83H108.7z"
         id="path33"
         style="fill:#26263a;fill-opacity:1" /><path
         class="st0"
         d="M113.88,67.66c1.06,0,1.92-0.86,1.92-1.92c0-1.06-0.86-1.92-1.92-1.92s-1.92,0.86-1.92,1.92    C111.96,66.8,112.82,67.66,113.88,67.66z"
         id="path35"
         style="fill:#26263a;fill-opacity:1" /><path
         class="st0"
         d="M113.88,73.11c1.06,0,1.92-0.86,1.92-1.92c0-1.06-0.86-1.92-1.92-1.92s-1.92,0.86-1.92,1.92    C111.96,72.25,112.82,73.11,113.88,73.11z"
         id="path37"
         style="fill:#26263a;fill-opacity:1" /><path
         class="st0"
         d="M130.51,91.39c-0.79,0-1.43,0.64-1.43,1.43c0,0.79,0.64,1.43,1.43,1.43c0.79,0,1.43-0.64,1.43-1.43    C131.94,92.03,131.3,91.39,130.51,91.39z"
         id="path39"
         style="fill:#26263a;fill-opacity:1" /><rect
         x="121.86"
         y="63.92"
         class="st0"
         width="9.91"
         height="3"
         id="rect41"
         style="fill:#26263a;fill-opacity:1" /><rect
         x="121.86"
         y="68.92"
         class="st0"
         width="9.91"
         height="3"
         id="rect43"
         style="fill:#26263a;fill-opacity:1" /><rect
         x="121.86"
         y="73.92"
         class="st0"
         width="9.91"
         height="3"
         id="rect45"
         style="fill:#26263a;fill-opacity:1" /><rect
         x="111.96"
         y="85.71"
         class="st0"
         width="19.81"
         height="3"
         id="rect47"
         style="fill:#26263a;fill-opacity:1" /><path
         class="st0"
         d="M101.38,98.44H75.61v-6.52h25.77V26.81h-85.2v65.11h25.77v6.52H16.18v35.04h85.2V98.44z M19.18,29.81h79.2    v59.11h-79.2V29.81z M44.95,92.21h27.66v6.23H44.95V92.21z M98.38,130.48h-79.2v-29.04h79.2V130.48z"
         id="path49"
         style="fill:#26263a;fill-opacity:1" /><rect
         x="87.3"
         y="124.74"
         class="st0"
         width="7.11"
         height="3"
         id="rect51"
         style="fill:#26263a;fill-opacity:1" /><rect
         x="76.61"
         y="124.74"
         class="st0"
         width="7.11"
         height="3"
         id="rect53"
         style="fill:#26263a;fill-opacity:1" /><rect
         x="44.63"
         y="120.29"
         class="st0"
         width="28.3"
         height="7.28"
         id="rect55"
         style="fill:#26263a;fill-opacity:1" /><rect
         x="33.84"
         y="124.74"
         class="st0"
         width="7.11"
         height="3"
         id="rect57"
         style="fill:#26263a;fill-opacity:1" /><rect
         x="23.15"
         y="124.74"
         class="st0"
         width="7.11"
         height="3"
         id="rect59"
         style="fill:#26263a;fill-opacity:1" /><rect
         x="87.3"
         y="119.76"
         class="st0"
         width="7.11"
         height="3"
         id="rect61"
         style="fill:#26263a;fill-opacity:1" /><rect
         x="76.61"
         y="119.76"
         class="st0"
         width="7.11"
         height="3"
         id="rect63"
         style="fill:#26263a;fill-opacity:1" /><rect
         x="33.84"
         y="119.76"
         class="st0"
         width="7.11"
         height="3"
         id="rect65"
         style="fill:#26263a;fill-opacity:1" /><rect
         x="23.15"
         y="119.76"
         class="st0"
         width="7.11"
         height="3"
         id="rect67"
         style="fill:#26263a;fill-opacity:1" /><rect
         x="76.61"
         y="114.78"
         class="st0"
         width="7.11"
         height="3"
         id="rect69"
         style="fill:#26263a;fill-opacity:1" /><rect
         x="65.92"
         y="114.78"
         class="st0"
         width="7.11"
         height="3"
         id="rect71"
         style="fill:#26263a;fill-opacity:1" /><rect
         x="55.23"
         y="114.78"
         class="st0"
         width="7.11"
         height="3"
         id="rect73"
         style="fill:#26263a;fill-opacity:1" /><rect
         x="44.53"
         y="114.78"
         class="st0"
         width="7.11"
         height="3"
         id="rect75"
         style="fill:#26263a;fill-opacity:1" /><rect
         x="33.84"
         y="114.78"
         class="st0"
         width="7.11"
         height="3"
         id="rect77"
         style="fill:#26263a;fill-opacity:1" /><rect
         x="23.15"
         y="114.78"
         class="st0"
         width="7.11"
         height="3"
         id="rect79"
         style="fill:#26263a;fill-opacity:1" /><rect
         x="87.3"
         y="111.3"
         class="st0"
         width="7.11"
         height="4.98"
         id="rect81"
         style="fill:#26263a;fill-opacity:1" /><rect
         x="76.61"
         y="109.8"
         class="st0"
         width="7.11"
         height="3"
         id="rect83"
         style="fill:#26263a;fill-opacity:1" /><rect
         x="65.92"
         y="109.8"
         class="st0"
         width="7.11"
         height="3"
         id="rect85"
         style="fill:#26263a;fill-opacity:1" /><rect
         x="55.23"
         y="109.8"
         class="st0"
         width="7.11"
         height="3"
         id="rect87"
         style="fill:#26263a;fill-opacity:1" /><rect
         x="44.53"
         y="109.8"
         class="st0"
         width="7.11"
         height="3"
         id="rect89"
         style="fill:#26263a;fill-opacity:1" /><rect
         x="33.84"
         y="109.8"
         class="st0"
         width="7.11"
         height="3"
         id="rect91"
         style="fill:#26263a;fill-opacity:1" /><rect
         x="23.15"
         y="109.8"
         class="st0"
         width="7.11"
         height="3"
         id="rect93"
         style="fill:#26263a;fill-opacity:1" /><rect
         x="87.3"
         y="104.82"
         class="st0"
         width="7.11"
         height="3"
         id="rect95"
         style="fill:#26263a;fill-opacity:1" /><rect
         x="76.61"
         y="104.82"
         class="st0"
         width="7.11"
         height="3"
         id="rect97"
         style="fill:#26263a;fill-opacity:1" /><rect
         x="65.92"
         y="104.82"
         class="st0"
         width="7.11"
         height="3"
         id="rect99"
         style="fill:#26263a;fill-opacity:1" /><rect
         x="55.23"
         y="104.82"
         class="st0"
         width="7.11"
         height="3"
         id="rect101"
         style="fill:#26263a;fill-opacity:1" /><rect
         x="44.53"
         y="104.82"
         class="st0"
         width="7.11"
         height="3"
         id="rect103"
         style="fill:#26263a;fill-opacity:1" /><rect
         x="33.84"
         y="104.82"
         class="st0"
         width="7.11"
         height="3"
         id="rect105"
         style="fill:#26263a;fill-opacity:1" /><rect
         x="23.15"
         y="104.82"
         class="st0"
         width="7.11"
         height="3"
         id="rect107"
         style="fill:#26263a;fill-opacity:1" /><path
         class="st0"
         d="M0,0v152.21h152.21V0H0z M149.21,149.21H3V3h146.21V149.21z"
         id="path109"
         style="fill:#26263a;fill-opacity:1" /></g></g></svg>