<?xml version="1.0" encoding="UTF-8" standalone="no"?>
<!-- Generator: Adobe Illustrator 26.1.0, SVG Export Plug-In . SVG Version: 6.00 Build 0)  -->

<svg
   xmlns:dc="http://purl.org/dc/elements/1.1/"
   xmlns:cc="http://creativecommons.org/ns#"
   xmlns:rdf="http://www.w3.org/1999/02/22-rdf-syntax-ns#"
   xmlns:svg="http://www.w3.org/2000/svg"
   xmlns="http://www.w3.org/2000/svg"
   xmlns:sodipodi="http://sodipodi.sourceforge.net/DTD/sodipodi-0.dtd"
   xmlns:inkscape="http://www.inkscape.org/namespaces/inkscape"
   version="1.1"
   x="0px"
   y="0px"
   viewBox="0 0 152.21 152.21"
   style="enable-background:new 0 0 152.21 152.21;"
   xml:space="preserve"
   id="svg22"
   sodipodi:docname="05.svg"
   inkscape:version="0.92.1 r15371"><metadata
     id="metadata28"><rdf:RDF><cc:Work
         rdf:about=""><dc:format>image/svg+xml</dc:format><dc:type
           rdf:resource="http://purl.org/dc/dcmitype/StillImage" /><dc:title></dc:title></cc:Work></rdf:RDF></metadata><defs
     id="defs26" /><sodipodi:namedview
     pagecolor="#ffffff"
     bordercolor="#666666"
     borderopacity="1"
     objecttolerance="10"
     gridtolerance="10"
     guidetolerance="10"
     inkscape:pageopacity="0"
     inkscape:pageshadow="2"
     inkscape:window-width="1600"
     inkscape:window-height="840"
     id="namedview24"
     showgrid="false"
     inkscape:zoom="1.5504894"
     inkscape:cx="-97.711085"
     inkscape:cy="76.105003"
     inkscape:window-x="0"
     inkscape:window-y="0"
     inkscape:window-maximized="1"
     inkscape:current-layer="g19" /><style
     type="text/css"
     id="style2">
	.st0{fill:#293E48;}
</style><g
     id="Vrstva_2" /><g
     id="Vrstva_1"><g
       id="g19"><path
         class="st0"
         d="M84.62,107.14h40.72c3.78,0,6.86-3.08,6.86-6.86V65.02c0-3.78-3.08-6.86-6.86-6.86h-4.94v-3.92h-8.99v3.92    H98.56v-3.92h-8.99v3.92h-4.94c-3.78,0-6.86,3.08-6.86,6.86v35.26C77.77,104.06,80.84,107.14,84.62,107.14z M114.41,57.24h2.99    v4.85h-2.99V57.24z M92.57,57.24h2.99v4.85h-2.99V57.24z M80.77,65.02c0-2.13,1.73-3.86,3.86-3.86h4.94v3.92h8.99v-3.92h12.85    v3.92h8.99v-3.92h4.94c2.13,0,3.86,1.73,3.86,3.86v3.9H80.77V65.02z M129.2,71.92v28.36c0,2.13-1.73,3.86-3.86,3.86H84.62    c-2.13,0-3.86-1.73-3.86-3.86V71.92H129.2z"
         id="path5"
         style="fill:#26263a;fill-opacity:1" /><path
         class="st0"
         d="M27.27,118.99l0-1.5c-0.03-9.47,3.72-10.74,4.19-10.87l3.65-0.01l-1.84,8.29h21.19l-1.85-8.36l3.85-0.01    c0.51,0.13,4.24,1.43,4.28,10.84l0,1.5l7-0.02l-0.08-20.24l-0.03-0.3c-0.05-0.25-1.37-6.3-5.99-9.73l-3.65-2.7    c-0.04-9.09-0.08-19.89-0.08-28.77c0-19.71-12.29-40.51-12.81-41.39l-1.29-2.15l-1.29,2.15C42,16.6,29.63,37.48,29.63,57.2    L29.74,86l-3.59,2.7c-4.6,3.46-5.87,9.51-5.92,9.77l-0.03,0.15l0.08,20.39L27.27,118.99z M37,111.91l1.17-5.28h11.37l1.17,5.28H37    z M59.85,90.99c3.36,2.49,4.61,6.98,4.81,7.8l0.07,17.07l-1.03,0c-0.38-8.32-3.7-11.03-5.61-11.91l-0.05-14.31L59.85,90.99z     M32.63,57.2c0-15.19,7.99-31.66,11.18-37.62c3.17,5.95,11.1,22.36,11.1,37.53c0,16.75,0.13,40.3,0.17,46.43l-22.27,0.08    l-0.07-19.87l0,0L32.63,57.2z M27.95,91.1l1.8-1.35l0.05,13.73l0,0.57c-1.91,0.89-5.19,3.63-5.51,11.95l-1.03,0L23.2,98.93    C23.39,98.1,24.59,93.63,27.95,91.1z"
         id="path7"
         style="fill:#26263a;fill-opacity:1" /><path
         class="st0"
         d="M43.83,64.51c2.3-0.01,4.16-2.46,4.16-5.47c-0.01-3.01-1.88-5.44-4.19-5.43c-2.3,0.01-4.16,2.46-4.16,5.47    C39.65,62.08,41.52,64.52,43.83,64.51z"
         id="path9"
         style="fill:#26263a;fill-opacity:1" /><path
         class="st0"
         d="M38.66,137.55l-0.28-0.5c0.4-0.14,0.79-0.29,1.17-0.48c0.08,0.12,0.15,0.23,0.24,0.35l0.45,0.64h99.96    l-1.11-2.18c-0.34-0.68-0.76-1.3-1.23-1.85c-1.5-1.76-3.57-2.9-5.83-3.23c-0.68-4.58-4.63-8.11-9.4-8.11    c-1.67,0-3.27,0.43-4.69,1.24c-2.48-2.55-5.85-3.99-9.44-3.99c-5.25,0-9.97,3.15-12.06,7.86c-1.24-0.54-2.56-0.83-3.92-0.88    c-0.36-0.44-0.74-0.85-1.17-1.22c-3.99-3.4-10-2.91-13.39,1.07c-1.16,1.36-1.9,3.01-2.16,4.77c-0.74,0.11-1.46,0.31-2.15,0.59    c-2.47-3.33-6.42-5.34-10.59-5.34c-1.55,0-3.08,0.29-4.53,0.82c-1.51-4.06-5.41-6.97-10-6.97c-2.22,0-4.34,0.68-6.13,1.94    c-1.76-1.98-4.31-3.17-6.99-3.17c-5.15,0-9.33,4.19-9.33,9.33c0,0.18,0.02,0.35,0.03,0.52c-4.56,0.07-8.75,2.57-10.96,6.59    l-1.23,2.22H38.66z M98.14,131.81l0.56-1.97c1.24-4.36,5.27-7.41,9.8-7.41c3.14,0,6.06,1.42,8.01,3.9l0.93,1.18l1.18-0.93    c1.16-0.92,2.55-1.4,4.02-1.4c3.52,0,6.39,2.81,6.5,6.3l-0.5,1.71l2,0c1.46,0,2.87,0.49,4,1.37H84.72    c1.11-3.04,4.04-5.16,7.39-5.16c1.54,0,3.03,0.45,4.32,1.29L98.14,131.81z M77.18,133.92h1.5l0-1.5c0-1.55,0.55-3.04,1.55-4.21    c2.13-2.5,5.76-2.98,8.46-1.25c-3.45,1.15-6.17,3.99-7.09,7.6h-7.16C75.29,134.14,76.23,133.92,77.18,133.92z M63.04,129.27    c3.58,0,6.95,1.93,8.78,5.03l0.15,0.25H58.49c0.45-1.2,0.7-2.47,0.7-3.77c0-0.25-0.02-0.49-0.04-0.73    C60.38,129.54,61.69,129.27,63.04,129.27z M19.45,134.55c1.8-1.78,4.24-2.82,6.84-2.82s5.04,1.04,6.84,2.82H19.45z M29.12,129.06    c-0.04-0.28-0.06-0.56-0.06-0.84c0-3.49,2.84-6.33,6.33-6.33c2.25,0,4.28,1.16,5.44,3.1l0.97,1.63l1.36-1.33    c1.44-1.41,3.34-2.18,5.35-2.18c4.23,0,7.67,3.44,7.67,7.67c0,1.33-0.34,2.62-1,3.77H41.84c-0.13-0.23-0.25-0.46-0.35-0.7    l-0.76-1.74l-1.52,1.15c-0.72,0.54-1.52,0.9-2.37,1.1C35.02,131.66,32.25,129.78,29.12,129.06z"
         id="path11"
         style="fill:#26263a;fill-opacity:1" /><path
         class="st0"
         d="M42.26,91.02h3.11c2.27,0,4.12-1.85,4.12-4.12v-6.82c0-2.27-1.85-4.12-4.12-4.12h-3.11    c-2.27,0-4.12,1.85-4.12,4.12v6.82C38.14,89.18,39.99,91.02,42.26,91.02z M41.14,80.08c0-0.62,0.5-1.12,1.12-1.12h3.11    c0.62,0,1.12,0.5,1.12,1.12v6.82c0,0.62-0.5,1.12-1.12,1.12h-3.11c-0.62,0-1.12-0.5-1.12-1.12V80.08z"
         id="path13"
         style="fill:#26263a;fill-opacity:1" /><path
         class="st0"
         d="M103.73,101.27c7.3,0,13.25-5.94,13.25-13.25c0-1.31-0.2-2.58-0.56-3.78l4.86-4.73    c0.55-0.54,0.61-1.41,0.12-2.01s-1.34-0.74-1.99-0.32l-4.88,3.2c-2.4-3.39-6.34-5.61-10.8-5.61c-7.3,0-13.25,5.94-13.25,13.25    C90.48,95.33,96.42,101.27,103.73,101.27z M103.73,77.78c3.41,0,6.43,1.68,8.29,4.25l-7.53,4.94l-6.03-3.43    c-0.62-0.35-1.39-0.22-1.86,0.31c-0.47,0.53-0.51,1.32-0.09,1.89l6.65,9.03c0.26,0.35,0.65,0.57,1.08,0.61c0.04,0,0.08,0,0.12,0    c0.39,0,0.76-0.15,1.05-0.42l8.47-8.23c0.06,0.43,0.09,0.87,0.09,1.31c0,5.65-4.6,10.25-10.25,10.25    c-5.65,0-10.25-4.6-10.25-10.25C93.48,82.38,98.08,77.78,103.73,77.78z"
         id="path15"
         style="fill:#26263a;fill-opacity:1" /><path
         class="st0"
         d="M0,0v152.21h152.21V0H0z M149.21,149.21H3V3h146.21V149.21z"
         id="path17"
         style="fill:#26263a;fill-opacity:1" /></g></g></svg>