<?xml version="1.0" encoding="UTF-8" standalone="no"?>
<!-- Generator: Adobe Illustrator 26.1.0, SVG Export Plug-In . SVG Version: 6.00 Build 0)  -->

<svg
   xmlns:dc="http://purl.org/dc/elements/1.1/"
   xmlns:cc="http://creativecommons.org/ns#"
   xmlns:rdf="http://www.w3.org/1999/02/22-rdf-syntax-ns#"
   xmlns:svg="http://www.w3.org/2000/svg"
   xmlns="http://www.w3.org/2000/svg"
   xmlns:sodipodi="http://sodipodi.sourceforge.net/DTD/sodipodi-0.dtd"
   xmlns:inkscape="http://www.inkscape.org/namespaces/inkscape"
   version="1.1"
   x="0px"
   y="0px"
   viewBox="0 0 152.21 152.21"
   style="enable-background:new 0 0 152.21 152.21;"
   xml:space="preserve"
   id="svg24"
   sodipodi:docname="06.svg"
   inkscape:version="0.92.1 r15371"><metadata
     id="metadata30"><rdf:RDF><cc:Work
         rdf:about=""><dc:format>image/svg+xml</dc:format><dc:type
           rdf:resource="http://purl.org/dc/dcmitype/StillImage" /><dc:title></dc:title></cc:Work></rdf:RDF></metadata><defs
     id="defs28" /><sodipodi:namedview
     pagecolor="#ffffff"
     bordercolor="#666666"
     borderopacity="1"
     objecttolerance="10"
     gridtolerance="10"
     guidetolerance="10"
     inkscape:pageopacity="0"
     inkscape:pageshadow="2"
     inkscape:window-width="1600"
     inkscape:window-height="840"
     id="namedview26"
     showgrid="false"
     inkscape:zoom="1.5504894"
     inkscape:cx="-23.540954"
     inkscape:cy="76.105003"
     inkscape:window-x="0"
     inkscape:window-y="0"
     inkscape:window-maximized="1"
     inkscape:current-layer="g21" /><style
     type="text/css"
     id="style2">
	.st0{fill:#293E48;}
</style><g
     id="Vrstva_2" /><g
     id="Vrstva_1"><g
       id="g21"><circle
         class="st0"
         cx="43.61"
         cy="37.22"
         r="6.14"
         id="circle5"
         style="fill:#26263a;fill-opacity:1" /><rect
         x="70.27"
         y="32.13"
         class="st0"
         width="13.42"
         height="3"
         id="rect7"
         style="fill:#26263a;fill-opacity:1" /><rect
         x="88.19"
         y="32.13"
         class="st0"
         width="13.42"
         height="3"
         id="rect9"
         style="fill:#26263a;fill-opacity:1" /><rect
         x="106.12"
         y="32.13"
         class="st0"
         width="13.42"
         height="3"
         id="rect11"
         style="fill:#26263a;fill-opacity:1" /><path
         class="st0"
         d="M53.6,134.41l0.78,0.48l0.78-0.48c7.33-4.49,13.63-9.84,18.77-15.89l19.77,16.27    c1.35,1.11,3.01,1.71,4.74,1.71c0.24,0,0.49-0.01,0.74-0.04c1.99-0.19,3.78-1.15,5.05-2.69c2.62-3.19,2.16-7.91-1.02-10.53    l-15.34-12.62h40.19V22.38H28.94v34c-6.27,1.98-9.21,4.11-9.43,4.28l-0.46,0.35l-0.11,0.57C18.84,62.04,10.37,107.94,53.6,134.41z     M101.92,131.86c-1.57,1.91-4.4,2.18-6.31,0.61L53.24,97.6l-0.88,0.47c-5.03,2.66-11.11,2.05-15.5-1.57    c-3.57-2.94-5.42-7.44-5.07-11.96l8.66,7.13c2.72,2.24,6.75,1.85,8.99-0.87l2.09-2.54c2.24-2.72,1.84-6.75-0.87-8.99l-8.66-7.13    c4.37-1.21,9.15-0.26,12.71,2.67c4.39,3.61,6.17,9.46,4.52,14.91l-0.29,0.96l42.38,34.87    C103.22,127.12,103.49,129.95,101.92,131.86z M31.94,25.38h93.12v82.23H84.23l-1.87-1.54c2.7-5.13,4.77-10.65,6.16-16.42    c0.37-0.28,0.73-0.55,1.07-0.82c1,0.49,2.04,0.86,3.12,1.13c1.33,6.23,2.71,8.88,2.88,9.17c0.32,0.59,0.94,0.95,1.61,0.95    l7.25-1.26c0.78-0.14,1.38-0.76,1.49-1.54c0.36-2.44-0.03-6.39-0.48-9.58c0.92-0.62,1.77-1.34,2.54-2.13    c6.19,2,9.24,2.09,9.35,2.09c0.79,0.01,1.52-0.46,1.79-1.21l2.4-6.63c0.26-0.74,0.03-1.56-0.58-2.05l0,0    c-1.93-1.53-5.54-3.17-8.53-4.37c-0.04-0.57-0.1-1.12-0.2-1.66c-0.09-0.53-0.22-1.07-0.38-1.61c4.66-4.21,6.31-6.77,6.5-7.06    c0.41-0.68,0.35-1.54-0.16-2.14l-4.53-5.39c-0.51-0.61-1.35-0.82-2.08-0.53c-2.29,0.91-5.51,3.22-8.06,5.21    c-1-0.49-2.04-0.86-3.12-1.13c-1.32-6.19-2.71-8.87-2.87-9.17c-0.38-0.69-1.15-1.07-1.93-0.92l-6.94,1.23    c-0.78,0.14-1.37,0.76-1.49,1.54c-0.29,1.99-0.08,4.98,0.25,7.75c-3.94-2.16-14.29-6.58-33.02-6.58c-9.59,0-16.98,1.16-22.45,2.58    V25.38z M84.4,78.88c-0.26-0.73-0.45-1.41-0.57-2.1c-0.12-0.7-0.19-1.41-0.19-2.17l-0.01-1.02l-0.95-0.37    c-3.55-1.39-6.39-2.75-8.01-3.82l1.79-4.94c1.29,0.16,4.1,0.65,8.6,2.17l0.97,0.33l0.66-0.78c0.94-1.11,2.06-2.05,3.32-2.79    l0.88-0.51l-0.15-1c-0.57-3.77-0.81-6.91-0.7-8.85l5.17-0.92c0.51,1.21,1.5,3.92,2.42,8.54l0.2,1l1,0.18    c1.44,0.26,2.81,0.76,4.08,1.48l0.88,0.5l0.79-0.63c2.98-2.37,5.58-4.16,7.31-5.03l3.38,4.02c-0.79,1.04-2.63,3.23-6.18,6.36    l-0.77,0.67l0.35,0.96c0.25,0.7,0.44,1.41,0.57,2.1c0.12,0.7,0.19,1.41,0.19,2.18l0.01,1.02l0.95,0.37    c3.54,1.39,6.39,2.75,8.01,3.82l-1.79,4.94c-1.29-0.16-4.13-0.66-8.6-2.17l-0.97-0.33l-0.66,0.78c-0.94,1.11-2.06,2.05-3.32,2.79    l-0.88,0.51l0.15,1c0.57,3.77,0.81,6.91,0.7,8.85l-5.17,0.92c-0.51-1.2-1.5-3.91-2.42-8.54l-0.2-1l-1-0.18    c-1.44-0.26-2.81-0.76-4.08-1.48l-0.88-0.5l-0.79,0.63c-2.99,2.38-5.59,4.17-7.31,5.03l-3.38-4.02c0.79-1.04,2.64-3.25,6.18-6.37    l0.77-0.67L84.4,78.88z M21.78,62.76c2.23-1.38,12.32-6.82,32.61-6.82c18.67,0,28.71,4.61,31.92,6.41    c-0.42,0.35-0.83,0.73-1.21,1.13c-6-1.94-9.03-2.08-9.44-2.1c-0.76,0.02-1.45,0.5-1.7,1.21l-2.4,6.62    c-0.27,0.74-0.04,1.57,0.58,2.06c1.93,1.53,5.54,3.16,8.53,4.37c0.04,0.56,0.11,1.11,0.2,1.66c0.09,0.54,0.22,1.07,0.38,1.62    c-4.69,4.23-6.32,6.77-6.49,7.06c-0.42,0.67-0.36,1.53,0.16,2.14l4.54,5.39c0.5,0.59,1.33,0.8,2.07,0.52    c0.93-0.37,2.03-0.98,3.17-1.71c-1.21,4.11-2.78,8.06-4.7,11.8L62.35,89.61c1.51-6.32-0.68-12.95-5.75-17.12    c-5.1-4.2-12.26-5.06-18.22-2.2l-2.12,1.02l12.47,10.26c1.44,1.19,1.65,3.32,0.46,4.76l-2.09,2.54c-0.57,0.7-1.39,1.13-2.29,1.22    c-0.9,0.09-1.78-0.18-2.48-0.75L29.87,79.08l-0.59,2.27c-1.66,6.4,0.56,13.25,5.66,17.46c5.07,4.17,11.99,5.05,17.9,2.35    l18.78,15.45c-4.74,5.58-10.53,10.54-17.24,14.75C16.47,107.58,20.97,68.11,21.78,62.76z"
         id="path13"
         style="fill:#26263a;fill-opacity:1" /><path
         class="st0"
         d="M100.15,130.4c0.77-0.93,0.63-2.31-0.3-3.08s-2.31-0.63-3.08,0.3c-0.77,0.93-0.63,2.31,0.3,3.08    S99.38,131.33,100.15,130.4z"
         id="path15"
         style="fill:#26263a;fill-opacity:1" /><path
         class="st0"
         d="M96.54,81.56c0.41,0,0.82-0.04,1.24-0.11c1.85-0.33,3.46-1.36,4.54-2.9h0c1.08-1.54,1.49-3.41,1.16-5.26    c-0.6-3.36-3.51-5.8-6.92-5.8c-0.41,0-0.83,0.04-1.24,0.11c-1.85,0.33-3.46,1.36-4.54,2.9c-1.08,1.54-1.49,3.41-1.16,5.26    C90.22,79.12,93.13,81.56,96.54,81.56z M93.24,72.21c0.62-0.89,1.54-1.48,2.6-1.67c0.24-0.04,0.48-0.06,0.71-0.06    c1.96,0,3.62,1.4,3.97,3.33c0.19,1.06-0.05,2.13-0.66,3.02c-0.62,0.88-1.54,1.48-2.6,1.66c-2.27,0.4-4.3-1.11-4.68-3.27    C92.38,74.17,92.62,73.1,93.24,72.21z"
         id="path17"
         style="fill:#26263a;fill-opacity:1" /><path
         class="st0"
         d="M0,0v152.21h152.21V0H0z M149.21,149.21H3V3h146.21V149.21z"
         id="path19"
         style="fill:#26263a;fill-opacity:1" /></g></g></svg>